<?xml version="1.0" encoding="utf-8"?>
<!-- Generator: Adobe Illustrator 22.0.1, SVG Export Plug-In . SVG Version: 6.00 Build 0)  -->
<svg version="1.1" id="Layer_1" xmlns="http://www.w3.org/2000/svg" xmlns:xlink="http://www.w3.org/1999/xlink" x="0px" y="0px"
	 viewBox="0 0 514.6 509.8" style="enable-background:new 0 0 514.6 509.8;" xml:space="preserve">
<style type="text/css">
	.st0{fill:#FFFFFF;}
	.st1{fill:#8AE9FF;}
	.st2{fill:#D7F7FF;}
	.st3{fill:#1E85D2;}
</style>
<g id="Page-1">
	<g id="_x30_43---Passed-Assignment">
		<path id="Shape" class="st0" d="M299.2,397.6c0,41.4,25.4,78.7,64,93.8c-3.2,4.4-8.2,7-13.6,7h-319c-9.3,0-16.8-7.5-16.8-16.8
			V28.3c0-9.3,7.5-16.8,16.8-16.8H274l92.3,92.3v198.8C326,316.9,299.1,354.9,299.2,397.6L299.2,397.6z"/>
		<path id="Shape_81_" class="st1" d="M366.3,302.7V103.8L274,11.5h-25.2l92.3,92.3v198.8c-39.6,14-66.4,51.2-67.1,93.2
			c-0.7,42,24.8,80.1,63.9,95.4c-3.2,4.4-8.2,7-13.6,7h25.2c5.4,0,10.4-2.6,13.6-7c-39.1-15.4-64.6-53.4-63.9-95.4
			S326.7,316.7,366.3,302.7L366.3,302.7z"/>
		<path id="Shape_80_" class="st2" d="M274,13v74c0,9.3,7.5,16.8,16.8,16.8h74L274,13z"/>
		<path id="Shape_79_" class="st1" d="M274,13v25.2l65.6,65.6h25.2L274,13z"/>
		<path id="Shape_78_" class="st2" d="M500.6,397.6c0,55.6-45.1,100.7-100.7,100.7c-12.6,0-25.1-2.3-36.8-7
			c-39.1-15.4-64.6-53.4-63.9-95.4s27.4-79.2,67.1-93.2c10.8-3.9,22.1-5.8,33.6-5.8C455.5,296.9,500.6,342,500.6,397.6L500.6,397.6z
			"/>
		<path id="Shape_77_" class="st1" d="M399.9,296.9c-4.2,0-8.4,0.3-12.6,0.8c50.3,6.3,88.1,49.1,88.1,99.8s-37.8,93.5-88.1,99.8
			c37.4,5,74.4-11.2,96-42.1s24.1-71.3,6.6-104.6C472.3,317.3,437.6,296.5,399.9,296.9L399.9,296.9z"/>
		<path id="Shape_76_" class="st2" d="M39,481.5V28.3c0-9.3,7.5-16.8,16.8-16.8H30.6c-9.3,0-16.8,7.5-16.8,16.8v453.2
			c0,9.3,7.5,16.8,16.8,16.8h25.2C46.5,498.3,39,490.8,39,481.5z"/>
		<path id="Rectangle-path" class="st2" d="M5.4,28.3h16.8v67.1H5.4V28.3z"/>
		<g>
			<path id="Shape_75_" class="st3" d="M13.9,70.2c-4.6,0-8.4-3.7-8.4-8.4c0-4.6,3.7-8.4,8.4-8.4h0.1c4.6,0,8.4,3.8,8.4,8.4
				S18.6,70.2,13.9,70.2z"/>
			<path id="Shape_74_" class="st3" d="M276.4,168.5c3.3,3.3,8.6,3.3,11.9,0l25.2-25.2c3.2-3.3,3.1-8.5-0.1-11.8
				c-3.2-3.2-8.5-3.3-11.8-0.1l-19.2,19.2l-2.5-2.5c-3.3-3.2-8.5-3.1-11.8,0.1s-3.3,8.5-0.1,11.8L276.4,168.5z"/>
			<path id="Shape_73_" class="st3" d="M55.7,162.6h167.9c4.6,0,8.4-3.8,8.4-8.4c0-4.6-3.8-8.4-8.4-8.4H55.7c-4.6,0-8.4,3.8-8.4,8.4
				C47.3,158.8,51.1,162.6,55.7,162.6z"/>
			<path id="Shape_72_" class="st3" d="M268,210.5l8.4,8.4c3.3,3.3,8.6,3.3,11.9,0l25.2-25.2c3.2-3.3,3.1-8.5-0.1-11.8
				s-8.5-3.3-11.8-0.1l-19.2,19.2l-2.5-2.5c-3.3-3.2-8.5-3.1-11.8,0.1S264.9,207.2,268,210.5L268,210.5z"/>
			<path id="Shape_71_" class="st3" d="M55.7,212.9h167.9c4.6,0,8.4-3.8,8.4-8.4c0-4.6-3.8-8.4-8.4-8.4H55.7c-4.6,0-8.4,3.8-8.4,8.4
				C47.3,209.2,51.1,212.9,55.7,212.9z"/>
			<path id="Shape_70_" class="st3" d="M268,260.8l8.4,8.4c3.3,3.3,8.6,3.3,11.9,0l25.2-25.2c3.2-3.3,3.1-8.5-0.1-11.8
				s-8.5-3.3-11.8-0.1l-19.2,19.2l-2.5-2.5c-3.3-3.2-8.5-3.1-11.8,0.1S264.9,257.5,268,260.8L268,260.8z"/>
			<path id="Shape_69_" class="st3" d="M55.7,263.3h167.9c4.6,0,8.4-3.8,8.4-8.4s-3.8-8.4-8.4-8.4H55.7c-4.6,0-8.4,3.8-8.4,8.4
				S51.1,263.3,55.7,263.3z"/>
			<path id="Shape_68_" class="st3" d="M268,311.2l8.4,8.4c3.3,3.3,8.6,3.3,11.9,0l25.2-25.2c3.2-3.3,3.1-8.5-0.1-11.8
				s-8.5-3.3-11.8-0.1l-19.2,19.2l-2.5-2.5c-3.3-3.2-8.5-3.1-11.8,0.1S264.9,307.9,268,311.2L268,311.2z"/>
			<path id="Shape_67_" class="st3" d="M435,350.8l-53,75.7l-18.1-18.1c-3.3-3.2-8.5-3.1-11.8,0.1s-3.3,8.5-0.1,11.8l25.2,25.2
				c1.6,1.6,3.7,2.5,5.9,2.5c0.2,0,0.5,0,0.7,0c2.5-0.2,4.7-1.5,6.1-3.6l58.8-83.9c1.8-2.5,2.2-5.7,0.9-8.5c-1.3-2.8-3.9-4.7-7-4.9
				C439.6,346.8,436.6,348.3,435,350.8L435,350.8z"/>
			<path id="Shape_23_" class="st3" d="M55.7,313.7h167.9c4.6,0,8.4-3.8,8.4-8.4s-3.8-8.4-8.4-8.4H55.7c-4.6,0-8.4,3.8-8.4,8.4
				S51.1,313.7,55.7,313.7z"/>
			<path id="Shape_22_" class="st3" d="M140.6,368.7L107,435.8c-1.3,2.7-1.1,5.9,0.5,8.4c1.7,2.5,4.5,3.9,7.5,3.8s5.7-1.9,7-4.6
				l10.3-20.5h31.6l10.3,20.5c2.1,4.1,7.1,5.8,11.3,3.8c4.1-2.1,5.8-7.1,3.8-11.3l-33.6-67.1c-1.6-2.6-4.4-4.3-7.5-4.3
				C145,364.4,142.1,366,140.6,368.7L140.6,368.7z M140.7,406l7.4-14.8l7.4,14.8H140.7z"/>
			<path id="Shape_21_" class="st3" d="M215.2,414.4c4.6,0,8.4-3.8,8.4-8.4v-8.4h8.4c4.6,0,8.4-3.8,8.4-8.4s-3.8-8.4-8.4-8.4h-8.4
				v-8.4c0-4.6-3.8-8.4-8.4-8.4c-4.6,0-8.4,3.8-8.4,8.4v8.4h-8.4c-4.6,0-8.4,3.8-8.4,8.4s3.8,8.4,8.4,8.4h8.4v8.4
				C206.8,410.6,210.6,414.4,215.2,414.4z"/>
			<path id="Shape_20_" class="st3" d="M399.9,288.5c-8.5,0-16.9,1.1-25.2,3V103.8c0-2.2-0.9-4.4-2.5-5.9L279.9,5.6
				c-1.6-1.6-3.7-2.5-5.9-2.5H30.6C16.7,3.1,5.4,14.4,5.4,28.3c0,3,1.6,5.8,4.2,7.3c2.6,1.5,5.8,1.5,8.4,0c2.6-1.5,4.2-4.3,4.2-7.3
				c0-4.6,3.8-8.4,8.4-8.4h235V87c0,13.9,11.3,25.2,25.2,25.2h67.1v184.7c-37.7,15.6-63.5,51-66.8,91.7
				c-3.4,40.7,16.3,79.8,50.9,101.4H30.6c-4.6,0-8.4-3.8-8.4-8.4V95.4c0-4.6-3.8-8.4-8.4-8.4s-8.4,3.8-8.4,8.4v386.1
				c0,13.9,11.3,25.2,25.2,25.2h319c5.8,0,11.4-2,15.8-5.7c41,13.8,86.3,2.1,115.4-29.9c29.1-32,36.7-78.1,19.1-117.7
				C482.4,313.8,443.1,288.4,399.9,288.5L399.9,288.5z M290.8,95.4c-4.6,0-8.4-3.8-8.4-8.4V31.8L346,95.4H290.8z M399.9,489.9
				c-51,0-92.3-41.3-92.3-92.3s41.3-92.3,92.3-92.3s92.3,41.3,92.3,92.3C492.1,448.6,450.8,489.9,399.9,489.9z"/>
		</g>
	</g>
</g>
</svg>
