<?xml version="1.0" encoding="utf-8"?>
<!-- Generator: Adobe Illustrator 22.0.1, SVG Export Plug-In . SVG Version: 6.00 Build 0)  -->
<svg version="1.1" id="Layer_1" xmlns="http://www.w3.org/2000/svg" xmlns:xlink="http://www.w3.org/1999/xlink" x="0px" y="0px"
	 viewBox="0 0 514.6 509.8" style="enable-background:new 0 0 514.6 509.8;" xml:space="preserve">
<style type="text/css">
	.st0{fill:#D7F7FF;}
	.st1{fill:#8AE9FF;}
	.st2{fill:#FFFFFF;}
	.st3{fill:#1E85D2;}
</style>
<g id="Page-1_3_">
	<g id="_x30_19---Student-With-Degree_1_">
		<ellipse id="Oval_1_" class="st0" cx="52.8" cy="390.5" rx="42.6" ry="50.8"/>
		<path id="Shape_19_" class="st0" d="M274.4,441.4v50.8c0,4.7-3.8,8.5-8.5,8.5h-34.1c-4.7,0-8.5-3.8-8.5-8.5v-50.8H274.4z"/>
		<path id="Shape_18_" class="st0" d="M504.4,390.5c0,28.1-19.1,50.8-42.6,50.8H274.4c23.5,0,42.6-22.8,42.6-50.8
			s-19.1-50.8-42.6-50.8h187.5C485.3,339.7,504.4,362.4,504.4,390.5z"/>
		<path id="Shape_17_" class="st1" d="M461.8,339.7h-25.6c23.5,0,42.6,22.8,42.6,50.8s-19.1,50.8-42.6,50.8h25.6
			c23.5,0,42.6-22.8,42.6-50.8S485.3,339.7,461.8,339.7z"/>
		<path id="Shape_16_" class="st0" d="M265.8,390.5c0,28.1-19.1,50.8-42.6,50.8H52.8c23.5,0,42.6-22.8,42.6-50.8
			s-19.1-50.8-42.6-50.8h170.4C246.8,339.7,265.8,362.4,265.8,390.5z"/>
		<path id="Shape_15_" class="st2" d="M358.5,157.6c-3.1,11.5-10.9,21.1-21.6,26.4c2.5,17.2-3.7,34.5-16.7,46.1
			c-1.2,1.1-2.2,2.2-3.2,3.3c-18.6,19.7-19.7,38.5-40.3,38.5H255c-20.6,0-21.7-18.7-40.3-38.5c-1-1.1-2-2.2-3.2-3.3
			c-13-11.6-19.2-28.9-16.7-46.1c-10.7-5.3-18.6-14.9-21.6-26.4c0,0-4-26.3,4-29.2c4.4-1.3,9.1-0.6,12.9,2
			c-0.5-5.3-0.8-11.8-0.9-19.7c0,0,17.7,16.9,76.8,16.9s76.6-16.9,76.6-16.9c-0.1,7.9-0.3,14.2-0.8,19.6c3.7-2.6,8.4-3.3,12.8-1.9
			C362.5,131.3,358.5,157.6,358.5,157.6L358.5,157.6z"/>
		<path id="Shape_14_" class="st1" d="M354.5,128.5c-4.3-1.3-9-0.6-12.8,1.9c0.4-5.3,0.7-11.7,0.8-19.6c-7.6,5.8-16.5,9.7-25.9,11.4
			c-0.1,2.9-0.3,5.7-0.5,8.1c3.7-2.6,8.4-3.3,12.8-1.9c8,2.9,4,29.2,4,29.2c-3.1,11.5-10.9,21.1-21.6,26.4
			c2.5,17.2-3.7,34.5-16.7,46.1c-1.2,1.1-2.2,2.2-3.2,3.3c-17.9,19-19.8,37-38.3,38.2c0.7,0,1.2,0.2,2,0.2h21.6
			c20.6,0,21.7-18.7,40.3-38.5c1-1.1,2-2.2,3.2-3.3c13-11.6,19.2-28.9,16.7-46.1c10.7-5.3,18.6-14.9,21.6-26.4
			C358.5,157.6,362.5,131.3,354.5,128.5L354.5,128.5z"/>
		<path id="Shape_13_" class="st2" d="M317,233.4v55.4l-51,50.8l-51.2-50.8v-55.4c18.6,19.7,19.7,38.5,40.3,38.5h21.6
			C297.3,271.9,298.4,253.1,317,233.4z"/>
		<g>
			<path id="Shape_12_" class="st0" d="M265.9,339.7H95.4v-18.7c0-13.3,10.4-24.4,23.8-25.3l95.5-6.8L265.9,339.7z"/>
			<path id="Shape_11_" class="st0" d="M317,390.5c0,28.1-19.1,50.8-42.6,50.8h-51.1c23.5,0,42.6-22.8,42.6-50.8
				s-19.1-50.8-42.6-50.8h51.1C297.9,339.7,317,362.4,317,390.5z"/>
			<path id="Shape_10_" class="st0" d="M436.5,339.7H265.9l51-50.8l95.7,6.8c13.3,1,23.7,12,23.8,25.3L436.5,339.7z"/>
		</g>
		<path id="Shape_9_" class="st1" d="M436.4,320.8c-0.1-13.3-10.4-24.3-23.8-25.3l-95.7-6.8l-1.7,1.7l71.8,5.1
			c13.3,1,23.7,12,23.8,25.3l0.1,18.8h25.6L436.4,320.8z"/>
		<path id="Shape_8_" class="st1" d="M378.8,55.5l-36.3,9.7L268,85.2c-1.4,0.3-2.9,0.3-4.3,0l-74.6-19.9l-36.3-9.7
			c-3.8-0.9-6.4-4.3-6.4-8.2s2.7-7.3,6.4-8.2L263.7,9.4c1.4-0.3,2.9-0.3,4.3,0L378.8,39c3.8,0.9,6.4,4.3,6.4,8.2
			S382.6,54.5,378.8,55.5L378.8,55.5z"/>
		<path id="Shape_7_" class="st0" d="M378.8,39L268,9.4c-1.4-0.3-2.9-0.3-4.3,0l-10.7,2.8L353.3,39c3.8,0.9,6.4,4.3,6.4,8.2
			s-2.7,7.3-6.4,8.2L317,65.2l-63.9,17.1l10.7,2.8c1.4,0.3,2.9,0.3,4.3,0l74.6-19.9l36.3-9.7c3.8-0.9,6.4-4.3,6.4-8.2
			S382.6,40,378.8,39L378.8,39z"/>
		<path id="Shape_6_" class="st1" d="M342.5,65.2v45.6c0,0-17.5,16.9-76.6,16.9s-76.8-16.9-76.8-16.9V65.2l74.6,19.9
			c1.4,0.3,2.9,0.3,4.3,0L342.5,65.2z"/>
		<path id="Shape_5_" class="st0" d="M317,72.1v38.8c0,0-15,14.4-63.8,16.6c4,0.2,8.2,0.3,12.8,0.3c59.1,0,76.6-16.9,76.6-16.9V65.2
			L317,72.1z"/>
		<path id="Shape_4_" class="st0" d="M52.8,441.4h25.6c-23.5,0-42.6-22.8-42.6-50.8s19.1-50.8,42.6-50.8H52.8
			c-23.5,0-42.6,22.8-42.6,50.8S29.3,441.4,52.8,441.4z"/>
		<path id="Rectangle-path_1_" class="st0" d="M118.4,287l68-4.8l1.2,16.9l-68,4.8L118.4,287z"/>
		<path id="Shape_3_" class="st3" d="M57.9,380.3c3.8-2.8,4.5-8.1,1.7-11.9c-2.8-3.7-8.2-4.5-11.9-1.7c-7.5,5.6-11.9,14.4-11.9,23.7
			s4.4,18.1,11.9,23.7c3.7,2.8,9,2.1,11.8-1.6c2.9-3.7,2.2-9-1.5-11.9c-3.3-2.4-5.2-6.2-5.2-10.2C52.8,386.5,54.7,382.7,57.9,380.3
			L57.9,380.3z"/>
		<path id="Shape_2_" class="st3" d="M461.8,331.2H445v-10.4c-0.2-17.7-14-32.3-31.7-33.6l-87.8-6.2v-44.1c0.2-0.2,0.4-0.4,0.6-0.7
			c13.5-12,20.7-29.5,19.5-47.5c10.7-6.8,18.4-17.5,21.4-29.8c2.3-15.1,2.6-34.1-9.3-38.3c-2.2-0.9-4.5-1.3-6.8-1.3
			c0.1-2.6,0.1-5.4,0.2-8.4l0-0.1V71.7l17-4.6v20.5v0.1c0,8.7,4.4,16.8,11.6,21.7c3.9,2.6,9.2,1.5,11.8-2.3
			c2.6-3.9,1.6-9.2-2.4-11.8c-2.5-1.7-4.1-4.5-4.1-7.6v-0.1V61.9c6-3.4,9.3-10.1,8.4-16.9c-0.9-6.8-5.8-12.4-12.5-14.2L270.2,1.2
			c-2.9-0.8-5.9-0.8-8.8,0L150.6,30.8c-7.4,2-12.6,8.8-12.6,16.4s5.2,14.4,12.6,16.4l30,8v39.1v0.1c0,3,0.1,5.8,0.2,8.3
			c-2.2,0-4.5,0.4-6.6,1.2c-12,4.3-11.8,23.3-9.5,38.7c3,12.2,10.7,22.8,21.3,29.5c-1.3,18,5.9,35.5,19.4,47.5
			c0.2,0.2,0.4,0.5,0.6,0.7v44.1l-19.6,1.4c-3.1,0.1-5.9,1.9-7.3,4.7c-1.4,2.8-1.2,6.1,0.6,8.6s4.8,3.9,7.9,3.6l23.7-1.7l33.9,33.7
			H103.9v-10.2c0-8.9,6.9-16.2,15.8-16.9c4.7-0.3,8.2-4.4,7.9-9.1s-4.4-8.2-9.1-7.9c-17.8,1.3-31.6,16.1-31.7,33.8v10.2H52.8
			c-28.2,0-51.1,26.6-51.1,59.3s22.9,59.3,51.1,59.3h161.9v42.4c0,9.4,7.6,16.9,17,16.9h34.1c9.4,0,17-7.6,17-16.9v-42.4h178.9
			c28.2,0,51.1-26.6,51.1-59.3S490,331.2,461.8,331.2L461.8,331.2z M52.8,432.9c-18.8,0-34.1-19-34.1-42.4s15.3-42.4,34.1-42.4
			s34.1,19,34.1,42.4S71.6,432.9,52.8,432.9z M412,304.1c8.9,0.7,15.7,8,15.8,16.8v10.3H286.4l33.8-33.6L412,304.1z M155.1,47.2
			l110.7-29.6l110.9,29.7h-0.1L265.9,76.9L155.1,47.2z M334,76.3v30.2c-6.6,3.9-26.1,12.8-68.1,12.8s-61.7-8.9-68.3-12.8V76.3
			l63.8,17c1.4,0.4,2.9,0.6,4.4,0.6c1.5,0,2.9-0.2,4.4-0.6L334,76.3z M203.2,186.3c0.9-3.7-0.8-7.5-4-9.5c-0.2-0.1-0.3-0.2-0.5-0.3
			c-8.3-4-14.5-11.3-17.2-20.1c-1.2-6.7-1.2-13.4-0.2-20.1c1.6,0.2,3.1,0.8,4.5,1.6c2.8,1.5,6.2,1.4,8.8-0.3s4.1-4.8,3.8-7.9
			c-0.1-1.3-0.2-2.6-0.3-4.1c21.7,7.9,44.7,11.5,67.8,10.6c23,0.9,46-2.7,67.6-10.6c-0.1,1.4-0.2,2.8-0.3,4.1
			c-0.2,3.1,1.2,6.1,3.9,7.8c2.6,1.7,6,1.8,8.7,0.3c1.4-0.8,2.9-1.4,4.5-1.6c1,6.6,1,13.2-0.1,19.8c-2.6,8.9-8.9,16.3-17.2,20.4
			c-0.2,0.1-0.5,0.2-0.7,0.4l-0.2,0.1c-3.5,2.1-5,6.3-3.6,10.1c1.7,13.9-3.6,27.7-14.2,36.9c-7.3,7.3-13.7,15.4-19,24.2
			c-7.3,11.2-10.2,15.1-18.6,15.1H255c-8.4,0-11.3-3.9-18.6-15.1c-5.3-8.8-11.7-17-19-24.3C206.6,214.6,201.3,200.4,203.2,186.3
			L203.2,186.3z M223.2,285.3v-26.1c6.9,10.7,14.6,21.2,31.8,21.2h21.6c17.2,0,24.9-10.5,31.8-21.2v26.1l-42.5,42.4L223.2,285.3z
			 M223.2,432.9H88.5c20.6-24.6,20.6-60.2,0-84.7h134.7c18.8,0,34.1,19,34.1,42.4S242,432.9,223.2,432.9z M265.8,492.2h-34.1v-42.4
			h34.1V492.2z M274.4,432.9h-15.4c20.6-24.6,20.6-60.2,0-84.7h15.4c18.8,0,34.1,19,34.1,42.4S293.2,432.9,274.4,432.9z
			 M461.8,432.9H310.1c20.6-24.6,20.6-60.2,0-84.7h151.7c18.8,0,34.1,19,34.1,42.4S480.6,432.9,461.8,432.9z"/>
		<path id="Shape_1_" class="st3" d="M153.5,301.7c-4.7,0-8.5-3.8-8.6-8.4c0-4.7,3.8-8.5,8.5-8.5h0.1c4.7,0,8.5,3.8,8.5,8.5
			C162,297.9,158.2,301.7,153.5,301.7L153.5,301.7z"/>
	</g>
</g>
</svg>
