<?xml version="1.0" encoding="utf-8"?>
<!-- Generator: Adobe Illustrator 22.0.1, SVG Export Plug-In . SVG Version: 6.00 Build 0)  -->
<svg version="1.1" id="Layer_1" xmlns="http://www.w3.org/2000/svg" xmlns:xlink="http://www.w3.org/1999/xlink" x="0px" y="0px"
	 viewBox="0 0 514.6 509.8" style="enable-background:new 0 0 514.6 509.8;" xml:space="preserve">
<style type="text/css">
	.st0{fill:#8AE9FF;}
	.st1{fill:#D7F7FF;}
	.st2{fill:#FFFFFF;}
	.st3{fill:#1E85D2;}
</style>
<g>
	<path class="st0" d="M445.3,204v279.1c0,9.3-8.4,16.9-18.8,16.9H88.1c-10.4,0-18.8-7.6-18.8-16.9V204L243.2,42.9l14.1-13.1
		L445.3,204z"/>
	<path class="st1" d="M417.1,204v279.1c0,9.3-8.4,16.9-18.8,16.9H88.1c-10.4,0-18.8-7.6-18.8-16.9V204L243.2,42.9L417.1,204z"/>
	<path class="st1" d="M484.5,254.8h-3.2c-4.8,0-9.4-1.7-12.9-4.7c-0.2-0.1-0.3-0.2-0.5-0.3L257.3,54.5L46.6,249.7
		c-0.1,0.1-0.3,0.3-0.5,0.3c-3.4,3-8.1,4.7-12.9,4.7h-3.2c-7.7-0.2-14.6-4.5-17.5-10.9s-1.3-13.8,4.1-18.8L244,14.6
		c3.5-3.2,8.3-5.1,13.3-5.1c5,0,9.8,1.8,13.3,5.1l227.3,210.5c5.4,5,7,12.3,4.1,18.8C499.1,250.3,492.2,254.6,484.5,254.8z"/>
	<path class="st0" d="M223.5,149.6h63.6c8.8,0,15.9,6.4,15.9,14.3V214c0,7.9-7.1,14.3-15.9,14.3h-63.6c-8.8,0-15.9-6.4-15.9-14.3
		v-50.1C207.6,156,214.7,149.6,223.5,149.6z"/>
	<path class="st2" d="M223.5,149.6h39.8c8.8,0,15.9,6.4,15.9,14.3V214c0,7.9-7.1,14.3-15.9,14.3h-39.8c-8.8,0-15.9-6.4-15.9-14.3
		v-50.1C207.6,156,214.7,149.6,223.5,149.6z"/>
	<path class="st0" d="M484.5,254.8h-3.2c-4.2,0-8.3-1.3-11.6-3.8c4.2-3.1,6.8-7.7,7.1-12.6c0.3-4.9-1.7-9.7-5.5-13.3L244,14.6
		c3.5-3.2,8.3-5.1,13.3-5.1c5,0,9.8,1.8,13.3,5.1l227.3,210.5c5.4,5,7,12.3,4.1,18.8C499.1,250.3,492.2,254.6,484.5,254.8z"/>
	<path class="st2" d="M30.1,254.8h3.2c4.7,0,9.2-1.6,12.6-4.5c-3.9-3.2-6.2-7.7-6.4-12.4c-0.2-4.7,1.8-9.3,5.4-12.8L271.4,15.4
		l-0.8-0.8c-3.5-3.2-8.3-5.1-13.3-5.1c-5,0-9.8,1.8-13.3,5.1L16.8,225.1c-5.4,5-7,12.3-4.1,18.8C15.5,250.3,22.4,254.6,30.1,254.8z"
		/>
	<path class="st2" d="M74.8,225c-0.1,0.1-0.3,0.3-0.5,0.3c-1.5,1.3-3.2,2.3-5.1,3.1v254.7c0,9.3,8.4,16.9,18.8,16.9h28.2
		c-10.4,0-18.8-7.6-18.8-16.9V204L74.8,225z"/>
	<polygon class="st2" points="86.4,305.5 86.4,415.5 86.4,483.2 68.4,483.2 68.4,415.5 68.4,305.5 	"/>
	<path class="st3" d="M86.4,305.5v-16.9c0-4.7-4-8.5-9-8.5c-5,0-9,3.8-9,8.5v50.8c0,4.7,4,8.5,9,8.5c5,0,9-3.8,9-8.5V305.5z"/>
	<path class="st3" d="M185.4,491.6H95.4c-5,0-9-3.8-9-8.5V407c0-4.7-4-8.5-9-8.5s-9,3.8-9,8.5v76.1h0c0,14,12.1,25.4,27,25.4h323.8
		c14.9,0,27-11.4,27-25.4V288.6c0-4.7-4-8.5-9-8.5c-5,0-9,3.8-9,8.5v194.5c0,4.7-4,8.5-9,8.5h-89.9"/>
	<path class="st3" d="M80.8,365.4c-0.5-0.2-1.1-0.4-1.6-0.5c-0.6-0.1-1.2-0.2-1.8-0.2c-2.4,0-4.7,0.9-6.4,2.5
		c-0.8,0.8-1.5,1.8-1.9,2.8c-1.4,3.2-0.6,6.8,1.9,9.2c0.9,0.8,1.9,1.4,3,1.8c1.1,0.4,2.2,0.7,3.4,0.7c3.7,0,7-2,8.4-5.2
		c1.4-3.2,0.6-6.8-2-9.2l-1.3-1C82,365.9,81.4,365.6,80.8,365.4z"/>
	<path class="st3" d="M30.1,263.2h3.2c6.7-0.1,13.2-2.3,18.2-6.3c0.7-0.4,1.3-0.8,1.9-1.3l203.9-189l204,189.1
		c0.5,0.5,1.1,0.9,1.8,1.3c5,4,11.5,6.2,18.2,6.3h3.2c11.4,0,21.6-6.1,25.9-15.6c4.6-9.7,2.3-20.9-5.9-28.5L277.3,8.7
		c-11.1-9.9-29-9.9-40.1,0L10.1,219.2c-8.1,7.6-10.5,18.8-5.9,28.5C8.5,257.1,18.7,263.3,30.1,263.2z M23.5,230.9L250.7,20.5
		c1.7-1.6,4.1-2.5,6.6-2.5s4.8,0.9,6.6,2.5l227.2,210.5c2.9,2.7,3.7,6.7,2,10.1c-1.4,3.2-4.8,5.3-8.6,5.3h-3.2
		c-2.5,0-4.9-0.9-6.6-2.5c-0.1-0.1-0.2-0.1-0.2-0.1c-0.1-0.1-0.1-0.2-0.2-0.2L264,48.6l-0.1-0.1l0-0.1c-0.5-0.3-0.9-0.6-1.5-0.8
		c-0.5-0.3-1-0.7-1.6-0.9c-0.6-0.2-1.2-0.3-1.8-0.3c-1.1-0.4-2.4-0.4-3.5,0c-0.6,0.1-1.2,0.2-1.8,0.3c-0.6,0.3-1.1,0.6-1.6,0.9
		c-0.5,0.2-1,0.5-1.5,0.8l-0.1,0.1l-0.1,0.1L40.3,243.4c-0.1,0.1-0.1,0.1-0.2,0.2c-0.1,0.1-0.2,0.1-0.2,0.2
		c-1.7,1.6-4.1,2.5-6.6,2.5h-3.2c-3.8,0-7.2-2.1-8.6-5.3C19.8,237.6,20.6,233.6,23.5,230.9L23.5,230.9L23.5,230.9z"/>
	<path class="st3" d="M287.2,235.5c13.2,0,23.9-9.6,23.9-21.5v-50.1c0-11.9-10.7-21.5-23.9-21.5h-63.6c-13.2,0-23.9,9.6-23.9,21.5
		V214c0,11.9,10.7,21.5,23.9,21.5H287.2z M215.6,214v-50.1c0-4,3.6-7.2,8-7.2h63.6c4.4,0,8,3.2,8,7.2V214c0,4-3.6,7.2-8,7.2h-63.6
		C219.1,221.1,215.6,217.9,215.6,214z"/>
	<g>
		<path id="Shape_147_" class="st2" d="M127.1,442.7l-0.7-65.3c6.5-0.1,12.7-2.7,17.2-7.4c4.5-4.6,7.1-10.9,7-17.4l212.2-2.3
			c0.1,6.5,2.7,12.7,7.4,17.2c4.6,4.5,10.9,7.1,17.4,7l0.7,65.3c-6.5,0.1-12.7,2.7-17.2,7.4c-4.5,4.6-7.1,10.9-7,17.4l-212.3,2.2
			C151.7,453.4,140.6,442.6,127.1,442.7L127.1,442.7z"/>
		<path id="Shape_146_" class="st0" d="M257.9,465.8c-6.4,0.1-12.7-1.3-18.4-4c-19.6-10.2-31.6-30.6-31.1-52.6
			c-0.4-31.1,20.7-56.7,47.3-57.6c0.4-0.1,0.7-0.1,1.1-0.1c27.1-0.3,49.2,25.1,49.6,56.6S285,465.5,257.9,465.8L257.9,465.8z"/>
		<path id="Shape_66_" class="st1" d="M239.5,461.8c-19.6-10.2-31.6-30.6-31.1-52.6c-0.4-31.1,20.7-56.7,47.3-57.6
			c19.6,10.2,31.6,30.6,31.1,52.6C287.2,435.4,266,460.9,239.5,461.8z"/>
		<path id="Shape_55_" class="st3" d="M126.3,369.2c-2.2,0-4.2,0.9-5.7,2.5c-1.5,1.5-2.4,3.6-2.3,5.8l0.7,65.3
			c0,4.5,3.7,8.1,8.2,8.1c4.3-0.1,8.5,1.6,11.6,4.6s4.9,7.2,4.9,11.5c0,4.5,3.7,8.1,8.2,8.1l212.2-2.3c2.2,0,4.2-0.9,5.8-2.5
			s2.4-3.6,2.3-5.8c-0.1-9,7.1-16.4,16.1-16.5c2.2,0,4.2-0.9,5.7-2.4c1.5-1.5,2.4-3.6,2.3-5.8l-0.7-65.3c0-2.2-0.9-4.2-2.5-5.7
			s-3.6-2.4-5.8-2.3c-9,0.1-16.4-7.1-16.5-16.1c0-2.2-0.9-4.2-2.5-5.7c-1.5-1.5-3.6-2.4-5.8-2.3l-212.2,2.3c-4.5,0-8.1,3.7-8.1,8.2
			C142.5,361.8,135.3,369.1,126.3,369.2L126.3,369.2z M355.8,358.6c3.1,11.5,12.2,20.3,23.7,23.2l0.6,51
			c-11.5,3.1-20.3,12.2-23.2,23.7l-61.4,0.6c25.6-27.8,25.2-70.7-1-98L355.8,358.6z M251.3,386.6c2.3-2.4,5.8-3.1,8.9-1.9
			c3.1,1.2,5.1,4.2,5.1,7.5c0,2.2,0.9,4.2,2.5,5.7c1.5,1.5,3.6,2.4,5.8,2.3c13.5-0.2,9.6-24.8-8.5-31.1l-0.1-8.7
			c8,2,15.1,6.4,20.4,12.7c23.7,27,12.7,75.1-19.4,83.3l-0.1-8.7c11.1-4.2,17.6-15.7,15.4-27.3c-2.1-11.6-12.3-20.1-24.1-20.1
			c-3.3,0-6.3-1.9-7.6-5C248.4,392.5,249,389,251.3,386.6L251.3,386.6z M228.5,373.9c5.2-6.4,12.2-11,20.1-13.1l0.1,8.6
			c-11.2,4.1-17.8,15.6-15.7,27.4c2.1,11.7,12.4,20.2,24.3,20c3.3,0,6.3,1.9,7.6,5c1.3,3,0.6,6.6-1.7,8.9c-2.3,2.4-5.8,3.1-8.9,1.9
			c-3.1-1.2-5.1-4.2-5.1-7.5c0-2.2-0.9-4.2-2.5-5.7c-1.5-1.5-3.6-2.4-5.8-2.3c-13.6,0.2-9.5,24.9,8.5,31.1l0.1,8.6
			C218,449.3,205,401.9,228.5,373.9L228.5,373.9z M157.8,360.7l61.3-0.7c-25.7,27.8-25.2,70.8,1.2,98l-61.4,0.7
			c-3.1-11.5-12.2-20.4-23.7-23.2l-0.5-51C146.1,381.3,154.9,372.3,157.8,360.7z"/>
	</g>
</g>
</svg>
