<?xml version="1.0" encoding="utf-8"?>
<!-- Generator: Adobe Illustrator 22.0.1, SVG Export Plug-In . SVG Version: 6.00 Build 0)  -->
<svg version="1.1" id="Layer_1" xmlns="http://www.w3.org/2000/svg" xmlns:xlink="http://www.w3.org/1999/xlink" x="0px" y="0px"
	 viewBox="0 0 514.6 509.8" style="enable-background:new 0 0 514.6 509.8;" xml:space="preserve">
<style type="text/css">
	.st0{fill:#D7F7FF;}
	.st1{fill:#8AE9FF;}
	.st2{fill:#FFFFFF;}
	.st3{fill:#1E85D2;}
</style>
<g id="Page-1_6_">
	<g id="_x30_52---Money-Bag_1_" transform="translate(-1)">
		<path id="Shape_167_" class="st0" d="M405.7,347.2c0,117.5-75.4,151-168.5,151s-168.5-33.6-168.5-151c0-38.9,11.4-77,33-109.5
			l-0.2-0.1c14.1-21,30.2-40.5,48.3-58.2h155.1c2,9.8,10.6,16.8,20.6,16.8c4.1,0,8.2-1.2,11.6-3.5
			C373.5,231.7,405.7,280,405.7,347.2z"/>
		<path id="Shape_166_" class="st1" d="M337.3,192.6c-3.4,2.3-7.5,3.6-11.6,3.5c-10,0-18.6-7-20.6-16.8h-25.3
			c2,9.8,10.6,16.8,20.6,16.8c4.1,0,8.2-1.2,11.6-3.5c36.2,39.1,68.4,87.4,68.4,154.6c0,112.1-68.7,147.8-155.8,150.8
			c4.2,0.2,8.4,0.2,12.6,0.2c93.1,0,168.5-33.6,168.5-151C405.7,280,373.5,231.7,337.3,192.6z"/>
		<path id="Shape_165_" class="st0" d="M388.9,158.4c0,5.6-2.2,10.9-6.1,14.9c-4,3.9-9.3,6.1-14.9,6.1l-21.5,0
			c0.3-1.4,0.4-2.8,0.4-4.2v-33.6c0-1.4-0.2-2.8-0.4-4.2h21.5c5.6,0,10.9,2.2,14.9,6.1C386.7,147.5,388.9,152.8,388.9,158.4z"/>
		<path id="Shape_164_" class="st0" d="M304.6,175.2c0,1.4,0.2,2.8,0.4,4.2H148.8c-11.6,0-21.1-9.4-21.1-21s9.4-21,21.1-21h156.2
			c-0.3,1.4-0.4,2.8-0.4,4.2V175.2z"/>
		<path id="Shape_163_" class="st0" d="M279.4,137.4H169.9c-16.7-19.4-27.8-42.9-32-68.1c-0.6-3,0.6-6.1,3-8
			c2.4-1.9,5.6-2.4,8.5-1.2c16.7,6.6,34.1,11.1,52,13.3c12.4,1.7,24.9,2.6,37.5,2.9c3.9,0,7.3,2.7,8.2,6.5
			C250.1,97.3,259.6,131.5,279.4,137.4z"/>
		<path id="Shape_162_" class="st1" d="M350.4,21c-2.4,20.4-6.4,64.8-29,100h-0.1v0.1c-8.2,1.7-14.6,8.1-16.3,16.3h-25.7
			c-19.8-6-29.3-40.1-32.4-54.5c-0.9-3.8-4.2-6.5-8.2-6.5c-12.5-0.2-25.1-1.2-37.5-2.9c2.2-8.1,3.6-15.3,4.5-20.1
			c0.8-3.9,4.2-6.8,8.3-6.8c43.7-0.4,86.5-12.2,124.2-34.1c2.8-1.4,6.1-1.2,8.6,0.6S350.8,18,350.4,21z"/>
		<path id="Shape_161_" class="st1" d="M346.8,141.6v33.6c0,1.4-0.2,2.8-0.4,4.2c-1.1,5.4-4.4,10.2-9,13.3
			c-3.4,2.3-7.5,3.6-11.6,3.5c-10,0-18.6-7-20.6-16.8c-0.3-1.4-0.4-2.8-0.4-4.2v-33.6c0-1.4,0.2-2.8,0.4-4.2
			c1.7-8.2,8.1-14.6,16.3-16.3v-0.1h0.1c1.4-0.3,2.9-0.4,4.3-0.4c10,0,18.7,7,20.6,16.8C346.6,138.8,346.7,140.2,346.8,141.6z"/>
		<path id="Shape_160_" class="st2" d="M224.6,498c8.6,0.3,16.8,0.2,24.8,0c-86.9-3.2-155.4-38.9-155.4-150.8
			c0-38.9,11.4-77,33-109.5l-0.2-0.1c14.1-21,30.2-40.5,48.3-58.2c-11.6,0.3-21.3-8.8-21.6-20.4s8.9-21.2,20.5-21.5h21.1
			c-16.7-19.4-27.8-42.9-32-68.1c-0.2-1.4-0.1-2.8,0.3-4.1c-5.6-1.7-10.3-3.5-14.1-5.1c-2.8-1.2-6.1-0.7-8.5,1.2c-2.4,1.9-3.5,5-3,8
			c4.2,25.2,15.3,48.8,32,68.1h-21.1c-7.5,0.2-14.4,4.4-18,11c-3.6,6.6-3.4,14.6,0.5,21c3.9,6.4,11,10.2,18.5,10
			c-18,17.7-34.2,37.2-48.3,58.2l0.2,0.1c-21.6,32.5-33.1,70.6-33,109.5C68.8,459.3,137.5,495,224.6,498L224.6,498z"/>
		<path id="Shape_159_" class="st0" d="M87.3,410.2L71.5,416c-7.6-22.2-11.3-45.4-11.1-68.8h16.8C77,368.6,80.4,389.9,87.3,410.2
			L87.3,410.2z"/>
		<g>
			<path id="Shape_158_" class="st3" d="M186.7,385c0-4.6-3.8-8.4-8.4-8.4s-8.4,3.8-8.4,8.4c0,27.8,25.8,50.7,59,54.1v8.9
				c0,4.6,3.8,8.4,8.4,8.4s8.4-3.8,8.4-8.4V439c33.2-3.4,59-26.3,59-54.1c0-27.8-25.8-50.7-59-54.1v-75.4
				c23.9,3,42.1,18.5,42.1,37.2c0,4.6,3.8,8.4,8.4,8.4c4.7,0,8.4-3.8,8.4-8.4c0-27.8-25.8-50.7-59-54.1v-8.9c0-4.6-3.8-8.4-8.4-8.4
				s-8.4,3.8-8.4,8.4v8.9c-33.2,3.4-59,26.3-59,54.1c0,27.8,25.8,50.7,59,54.1v75.4C205,419.1,186.7,403.6,186.7,385z M287.8,385
				c0,18.7-18.3,34.2-42.1,37.2v-74.4C269.5,350.8,287.8,366.3,287.8,385z M186.7,292.7c0-18.7,18.3-34.2,42.1-37.2v74.4
				C205,326.8,186.7,311.3,186.7,292.7z"/>
			<path id="Shape_157_" class="st3" d="M71.5,389.1c-4.7,0-8.4-3.7-8.5-8.3c0-4.6,3.7-8.4,8.4-8.4h0.1c4.7,0,8.4,3.8,8.4,8.4
				C79.9,385.3,76.1,389.1,71.5,389.1z"/>
			<path id="Shape_156_" class="st3" d="M90.7,256.4c-4.2-2-9.2-0.1-11.2,4.1c-12.7,27.2-19.2,56.8-19.1,86.7c0,4.6,3.8,8.4,8.4,8.4
				c4.7,0,8.4-3.8,8.4-8.4c-0.2-27.5,5.9-54.7,17.6-79.7c0.9-2,1-4.3,0.3-6.4S92.7,257.3,90.7,256.4z"/>
			<path id="Shape_155_" class="st3" d="M443.4,119.4c3.9,2.4,9,1.2,11.5-2.6c2.5-3.9,1.4-9-2.4-11.5c-2.2-1.5-18.6-10.8-58.6,1.9
				c12.6-15.1,19.7-34,20.3-53.7c0-4.6-3.8-8.4-8.4-8.4c-4.7,0-8.4,3.8-8.4,8.4c0,34.6-32.2,61.2-47.2,71.7
				c-3.6-5.3-8.9-9.2-15-11.3c13-27.7,20.8-57.5,23.2-88l0.5-3.9c0.8-6.1-1.8-12.2-6.9-15.8c-5.1-3.6-11.7-4.1-17.2-1.3
				c-2,1-4.2,2.1-6.6,3.4c-34.9,19.4-74.1,29.7-114,29.8c-8,0.1-14.9,5.8-16.3,13.6c-0.6,3.4-1.5,7.6-2.6,12.3
				c-14.5-2.2-28.8-6.2-42.4-11.7c-5.7-2.3-12.2-1.4-16.9,2.4s-7.1,9.9-6.1,15.9c3.6,20.9,11.5,40.7,23.3,58.3h-4.1
				c-7.8,0-15.3,3.1-20.9,8.6c-5.5,5.5-8.6,13-8.6,20.8c0,10.5,5.7,20.1,14.8,25.3c-9.8,10.4-19.1,21.2-27.7,32.6
				c-1.8,2.4-2.2,5.6-1,8.3c1.2,2.8,3.8,4.7,6.7,5s5.9-0.9,7.7-3.3c10.4-13.6,21.7-26.5,33.7-38.6h145.6
				c4.9,10.2,15.2,16.7,26.5,16.8c3.2,0,6.5-0.6,9.5-1.7c29.8,32.9,62.1,78.7,62.1,144.3c0,96-52.3,142.6-160,142.6
				c-15.6,0-31.2-1.2-46.6-3.5c-15.1-2.4-29.9-6.6-44-12.6c-27.8-12-49.3-35.1-59.2-63.6c-1.7-4.2-6.4-6.4-10.8-5
				c-2.2,0.7-4,2.2-4.9,4.3c-1,2.1-1,4.4-0.1,6.5c2.9,8,6.5,15.8,10.8,23.2l7.3,10.6c2.6,3.4,5.4,6.7,8.4,9.8
				c11.9,12.4,26,22.4,41.7,29.5c15.5,6.6,31.7,11.2,48.3,13.8c16.3,2.4,32.8,3.7,49.3,3.7c117.4,0,176.9-53.6,176.9-159.4
				c0-70.4-33.7-119.1-65.1-154.2c1.3-1.6,2.3-3.4,3.2-5.2h15.6c7.8,0,15.3-3.1,20.9-8.6c7-7,10-17.1,7.9-26.8s-8.9-17.7-18.2-21.3
				C424.9,110.8,442.6,119,443.4,119.4L443.4,119.4z M214.2,54.9c42.5-0.3,84.3-11.2,121.5-31.7c2.3-1.2,4.4-2.3,6.3-3.2l-0.5,4
				c-2.4,20.8-7,59-25.9,90.1c-7.2,2.6-13.1,8-16.5,14.9h-18.1c-12.3-4.5-21.5-27.5-25.9-48c-1.7-7.6-8.4-13-16.2-13.1
				c-9.9-0.2-18.9-0.8-27.2-1.7C212.7,62,213.6,58.1,214.2,54.9L214.2,54.9z M146,67.9c17,6.8,34.7,11.4,52.9,13.7
				c0.1,0,0.1,0.1,0.2,0.1c0.4,0.1,0.8,0.1,1.2,0.1c12.7,1.7,25.6,2.7,38.4,2.9c3.1,15.8,9,30.8,17.6,44.4h-82.4
				C159.5,111.4,149.9,90.3,146,67.9L146,67.9z M139.8,149.5c2.4-2.4,5.6-3.7,9-3.7l147.4,0V171l-147.4,0c-5.1,0-9.7-3.1-11.7-7.8
				C135.2,158.5,136.2,153.1,139.8,149.5L139.8,149.5z M313.1,175.2v-33.6c0-5.9,4.2-11.1,10-12.3c0.1,0,0.2,0,0.3-0.1
				c0.8-0.1,1.5-0.2,2.3-0.2c7,0,12.6,5.6,12.6,12.6v33.6c0,7-5.7,12.6-12.6,12.6C318.7,187.8,313.1,182.1,313.1,175.2L313.1,175.2z
				 M376.8,167.3c-2.4,2.3-5.6,3.7-9,3.7h-12.6v-25.2l12.6,0c5.1,0,9.7,3.1,11.7,7.8C381.5,158.3,380.4,163.7,376.8,167.3
				L376.8,167.3z"/>
		</g>
	</g>
</g>
</svg>
