<?xml version="1.0" encoding="utf-8"?>
<!-- Generator: Adobe Illustrator 22.0.1, SVG Export Plug-In . SVG Version: 6.00 Build 0)  -->
<svg version="1.1" id="Layer_1" xmlns="http://www.w3.org/2000/svg" xmlns:xlink="http://www.w3.org/1999/xlink" x="0px" y="0px"
	 viewBox="0 0 514.6 509.8" style="enable-background:new 0 0 514.6 509.8;" xml:space="preserve">
<style type="text/css">
	.st0{fill:#FFFFFF;}
	.st1{fill:#D7F7FF;}
	.st2{fill:#8AE9FF;}
	.st3{fill:#1E85D2;}
</style>
<g id="Page-1_7_">
	<g id="_x30_42---Survey_1_" transform="translate(-1)">
		<path id="Rectangle-path_20_" class="st0" d="M102.3,65.9h312.2c27.2,0,49.3,22.1,49.3,49.3v328.7c0,27.2-22.1,49.3-49.3,49.3
			H102.3C75,493.2,53,471.1,53,443.9V115.2C53,88,75,65.9,102.3,65.9z"/>
		<path id="Rectangle-path_19_" class="st1" d="M102.3,65.9h287.6c27.2,0,49.3,22.1,49.3,49.3v328.7c0,27.2-22.1,49.3-49.3,49.3
			H102.3C75,493.2,53,471.1,53,443.9V115.2C53,88,75,65.9,102.3,65.9z"/>
		<path id="Rectangle-path_18_" class="st1" d="M110.5,98.8h295.8c13.6,0,24.6,11,24.6,24.6v312.2c0,13.6-11,24.6-24.6,24.6H110.5
			c-13.6,0-24.6-11-24.6-24.6V123.4C85.8,109.8,96.9,98.8,110.5,98.8z"/>
		<path id="Rectangle-path_17_" class="st0" d="M110.5,98.8h271.1c13.6,0,24.6,11,24.6,24.6v312.2c0,13.6-11,24.6-24.6,24.6H110.5
			c-13.6,0-24.6-11-24.6-24.6V123.4C85.8,109.8,96.9,98.8,110.5,98.8z"/>
		<path id="Shape_204_" class="st1" d="M357,107v16.4c0,4.5-3.7,8.2-8.2,8.2H168c-4.5,0-8.2-3.7-8.2-8.2V107
			c0-26.8,18.5-50.1,44.7-56.1c7.5-1.7,12.8-8.3,12.8-15.9v-1.9c0-9.1,7.4-16.4,16.4-16.4H283c9.1,0,16.4,7.4,16.4,16.4V35
			c0,7.7,5.3,14.3,12.8,15.9C338.4,56.9,357,80.2,357,107z"/>
		<path id="Shape_203_" class="st2" d="M332.3,107v16.4c0,4.5-3.7,8.2-8.2,8.2H168c-4.5,0-8.2-3.7-8.2-8.2V107
			c0-26.8,18.5-50.1,44.7-56.1c7.5-1.7,12.8-8.3,12.8-15.9v-1.9c0-9.1,7.4-16.4,16.4-16.4h24.6c9.1,0,16.4,7.4,16.4,16.4V35
			c0,7.7,5.3,14.3,12.8,15.9C313.8,56.9,332.3,80.2,332.3,107z"/>
		<circle id="Oval_5_" class="st0" cx="258.4" cy="65.9" r="16.4"/>
		<path id="Rectangle-path_16_" class="st1" d="M299.4,189.2h65.7c4.5,0,8.2,3.7,8.2,8.2v65.7c0,4.5-3.7,8.2-8.2,8.2h-65.7
			c-4.5,0-8.2-3.7-8.2-8.2v-65.7C291.2,192.9,294.9,189.2,299.4,189.2z"/>
		<path id="Rectangle-path_15_" class="st1" d="M299.4,320.6h65.7c4.5,0,8.2,3.7,8.2,8.2v65.7c0,4.5-3.7,8.2-8.2,8.2h-65.7
			c-4.5,0-8.2-3.7-8.2-8.2v-65.7C291.2,324.3,294.9,320.6,299.4,320.6z"/>
		<path id="Shape_202_" class="st0" d="M77.6,443.9V115.2c0-27.2,22.1-49.3,49.3-49.3h-24.6C75,66,53,88,53,115.2v328.7
			c0,27.2,22.1,49.3,49.3,49.3h24.6C99.7,493.2,77.6,471.1,77.6,443.9z"/>
		<g>
			<path id="Shape_201_" class="st3" d="M365.2,279.6h-65.7c-9.1,0-16.4-7.4-16.4-16.4v-65.7c0-9.1,7.4-16.4,16.4-16.4h65.7
				c9.1,0,16.4,7.4,16.4,16.4v65.7C381.6,272.2,374.3,279.5,365.2,279.6z M299.4,197.4v65.7h65.7v-65.7H299.4z"/>
			<path id="Shape_200_" class="st3" d="M365.2,411h-65.7c-9.1,0-16.4-7.4-16.4-16.4v-65.7c0-9.1,7.4-16.4,16.4-16.4h41.1
				c4.5,0,8.2,3.7,8.2,8.2s-3.7,8.2-8.2,8.2h-41.1v65.7h65.7v-16.4c0-4.5,3.7-8.2,8.2-8.2c4.5,0,8.2,3.7,8.2,8.2v16.4
				C381.6,403.7,374.3,411,365.2,411z"/>
			<path id="Shape_199_" class="st3" d="M151.6,205.6h-24.6c-4.5,0-8.2-3.7-8.2-8.2c0-4.5,3.7-8.2,8.2-8.2h24.6
				c4.5,0,8.2,3.7,8.2,8.2C159.8,201.9,156.1,205.6,151.6,205.6z"/>
			<path id="Shape_198_" class="st3" d="M241.9,205.6h-57.5c-4.5,0-8.2-3.7-8.2-8.2c0-4.5,3.7-8.2,8.2-8.2h57.5
				c4.5,0,8.2,3.7,8.2,8.2C250.2,201.9,246.5,205.6,241.9,205.6z"/>
			<path id="Shape_197_" class="st3" d="M241.9,238.5h-115c-4.5,0-8.2-3.7-8.2-8.2s3.7-8.2,8.2-8.2h115c4.5,0,8.2,3.7,8.2,8.2
				S246.5,238.5,241.9,238.5z"/>
			<path id="Shape_196_" class="st3" d="M184.4,271.3h-57.5c-4.5,0-8.2-3.7-8.2-8.2s3.7-8.2,8.2-8.2h57.5c4.5,0,8.2,3.7,8.2,8.2
				S189,271.3,184.4,271.3z"/>
			<path id="Shape_195_" class="st3" d="M241.9,271.3h-24.6c-4.5,0-8.2-3.7-8.2-8.2s3.7-8.2,8.2-8.2h24.6c4.5,0,8.2,3.7,8.2,8.2
				S246.5,271.3,241.9,271.3z"/>
			<path id="Shape_194_" class="st3" d="M151.6,337.1h-24.6c-4.5,0-8.2-3.7-8.2-8.2s3.7-8.2,8.2-8.2h24.6c4.5,0,8.2,3.7,8.2,8.2
				S156.1,337.1,151.6,337.1z"/>
			<path id="Shape_193_" class="st3" d="M241.9,337.1h-57.5c-4.5,0-8.2-3.7-8.2-8.2s3.7-8.2,8.2-8.2h57.5c4.5,0,8.2,3.7,8.2,8.2
				S246.5,337.1,241.9,337.1z"/>
			<path id="Shape_192_" class="st3" d="M241.9,369.9h-115c-4.5,0-8.2-3.7-8.2-8.2s3.7-8.2,8.2-8.2h115c4.5,0,8.2,3.7,8.2,8.2
				S246.5,369.9,241.9,369.9z"/>
			<path id="Shape_191_" class="st3" d="M184.4,402.8h-57.5c-4.5,0-8.2-3.7-8.2-8.2s3.7-8.2,8.2-8.2h57.5c4.5,0,8.2,3.7,8.2,8.2
				S189,402.8,184.4,402.8z"/>
			<path id="Shape_190_" class="st3" d="M241.9,402.8h-24.6c-4.5,0-8.2-3.7-8.2-8.2s3.7-8.2,8.2-8.2h24.6c4.5,0,8.2,3.7,8.2,8.2
				S246.5,402.8,241.9,402.8z"/>
			<path id="Shape_189_" class="st3" d="M340.5,378.2c-2.2,0-4.3-0.9-5.8-2.4l-16.4-16.4c-3.1-3.2-3.1-8.3,0.1-11.5
				c3.2-3.2,8.3-3.2,11.5-0.1l9.7,9.7l43.6-58.2c1.8-2.3,4.6-3.6,7.6-3.2s5.4,2.2,6.6,4.9c1.2,2.7,0.8,5.8-1,8.2l-49.3,65.7
				c-1.4,1.9-3.6,3.1-6,3.3C340.9,378.1,340.7,378.2,340.5,378.2z"/>
		</g>
		<path id="Shape_188_" class="st1" d="M61.2,115.2V222v221.8H44.7V222V115.2H61.2z"/>
		<path id="Shape_187_" class="st3" d="M53,156.3c4.5,0,8.2-3.7,8.2-8.2v-32.9H44.7v32.9C44.8,152.6,48.4,156.3,53,156.3z"/>
		<path id="Shape_186_" class="st3" d="M44.7,443.9h16.4V213.8c0-4.5-3.7-8.2-8.2-8.2s-8.2,3.7-8.2,8.2V443.9z"/>
		<path id="Shape_185_" class="st3" d="M61.2,181c0-2.2-0.9-4.3-2.4-5.8l-1.2-1c-0.5-0.3-1-0.6-1.5-0.7c-0.5-0.2-1-0.4-1.5-0.5
			c-0.5-0.1-1.1-0.1-1.6-0.2c-2.2,0-4.3,0.9-5.8,2.4c-2,1.9-2.9,4.7-2.3,7.4c0.5,2.7,2.4,5,5,6c1,0.4,2,0.6,3.1,0.7
			c2.2,0,4.3-0.8,5.8-2.4C60.3,185.2,61.2,183.1,61.2,181z"/>
		<path id="Shape_184_" class="st3" d="M53,123.4c-4.5,0-8.2-3.7-8.2-8.2c0-31.7,25.8-57.5,57.5-57.5h73.9c4.5,0,8.2,3.7,8.2,8.2
			s-3.7,8.2-8.2,8.2h-73.9c-22.7,0-41.1,18.4-41.1,41.1C61.2,119.8,57.5,123.4,53,123.4z"/>
		<path id="Shape_183_" class="st3" d="M414.5,501.4H102.3c-31.7,0-57.5-25.8-57.5-57.5c0-4.5,3.7-8.2,8.2-8.2s8.2,3.7,8.2,8.2
			c0,22.7,18.4,41.1,41.1,41.1h312.2c22.7,0,41.1-18.4,41.1-41.1V115.2c0-22.7-18.4-41.1-41.1-41.1h-73.9c-4.5,0-8.2-3.7-8.2-8.2
			s3.7-8.2,8.2-8.2h73.9c31.7,0,57.5,25.8,57.5,57.5v328.7C472,475.6,446.2,501.4,414.5,501.4z"/>
		<path id="Shape_182_" class="st3" d="M348.7,139.9H168c-9.1,0-16.4-7.4-16.4-16.4V107c-0.2-30.7,21.1-57.4,51.1-64.1
			c3.7-0.8,6.4-4.1,6.4-8v-1.9c0-13.6,11-24.6,24.6-24.6H283c13.6,0,24.6,11,24.6,24.6V35c0,3.8,2.7,7.1,6.4,8
			c30,6.7,51.3,33.4,51.1,64.1v16.4C365.2,132.5,357.8,139.9,348.7,139.9z M233.7,24.8c-4.5,0-8.2,3.7-8.2,8.2V35
			c0,11.5-8,21.5-19.2,24c-22.5,5-38.4,25-38.3,48.1l0,16.4h180.8l0-16.4c0.1-23-15.8-43-38.3-48.1c-11.2-2.5-19.2-12.5-19.2-24
			v-1.9c0-4.5-3.7-8.2-8.2-8.2L233.7,24.8z"/>
		<path id="Shape_181_" class="st3" d="M258.4,90.6c-13.6,0-24.6-11-24.6-24.6s11-24.6,24.6-24.6c13.6,0,24.6,11,24.6,24.6
			C283,79.5,272,90.6,258.4,90.6z M258.4,57.7c-4.5,0-8.2,3.7-8.2,8.2s3.7,8.2,8.2,8.2c4.5,0,8.2-3.7,8.2-8.2
			C266.6,61.4,262.9,57.7,258.4,57.7z"/>
		<path id="Shape_180_" class="st3" d="M406.3,468.5H110.5c-18.1,0-32.8-14.7-32.9-32.9V123.4c0-18.1,14.7-32.8,32.9-32.9h50
			c4.5,0,8.2,3.7,8.2,8.2c0,4.5-3.7,8.2-8.2,8.2h-50c-9.1,0-16.4,7.4-16.4,16.4v312.2c0,9.1,7.4,16.4,16.4,16.4h295.8
			c9.1,0,16.4-7.4,16.4-16.4V123.4c0-9.1-7.4-16.4-16.4-16.4h-50c-4.5,0-8.2-3.7-8.2-8.2c0-4.5,3.7-8.2,8.2-8.2h50
			c18.1,0,32.8,14.7,32.9,32.9v312.2C439.1,453.8,424.4,468.5,406.3,468.5z"/>
	</g>
</g>
</svg>
