<?xml version="1.0" encoding="utf-8"?>
<!-- Generator: Adobe Illustrator 22.0.1, SVG Export Plug-In . SVG Version: 6.00 Build 0)  -->
<svg version="1.1" id="Layer_1" xmlns="http://www.w3.org/2000/svg" xmlns:xlink="http://www.w3.org/1999/xlink" x="0px" y="0px"
	 viewBox="0 0 514.6 509.8" style="enable-background:new 0 0 514.6 509.8;" xml:space="preserve">
<style type="text/css">
	.st0{fill:#8AE9FF;}
	.st1{fill:#D7F7FF;}
	.st2{fill:#FFFFFF;}
	.st3{fill:#1E85D2;}
</style>
<g id="Page-1_5_">
	<g id="_x31_41---Calendar_1_">
		<path id="Shape_128_" class="st0" d="M502.8,111v50.8H11.9V111c0-28,22.7-50.8,50.8-50.8H452C480,60.2,502.8,83,502.8,111z"/>
		<path id="Shape_127_" class="st1" d="M452,60.2h-25.4c28,0,50.8,22.7,50.8,50.8v50.8h25.4V111C502.8,83,480,60.2,452,60.2z"/>
		<path id="Shape_126_" class="st1" d="M502.8,161.8v287.8c0,28-22.7,50.8-50.8,50.8H62.7c-28,0-50.8-22.7-50.8-50.8V161.8H502.8z"
			/>
		<path id="Shape_125_" class="st1" d="M477.4,161.8v287.8c0,28-22.7,50.8-50.8,50.8H452c28,0,50.8-22.7,50.8-50.8V161.8H477.4z"/>
		<path id="Shape_124_" class="st2" d="M105,293.9H79.6c-9.3,0-16.9-7.6-16.9-16.9v-33.9c0-9.3,7.6-16.9,16.9-16.9h67.7
			c9.3,0,16.9,7.6,16.9,16.9V277c0,9.3-7.6,16.9-16.9,16.9"/>
		<path id="Shape_123_" class="st2" d="M392.7,293.9h-25.4c-9.3,0-16.9-7.6-16.9-16.9v-33.9c0-9.3,7.6-16.9,16.9-16.9h67.7
			c9.3,0,16.9,7.6,16.9,16.9V277c0,9.3-7.6,16.9-16.9,16.9"/>
		<path id="Shape_122_" class="st2" d="M248.9,293.9h-25.4c-9.3,0-16.9-7.6-16.9-16.9v-33.9c0-9.3,7.6-16.9,16.9-16.9h67.7
			c9.3,0,16.9,7.6,16.9,16.9V277c0,9.3-7.6,16.9-16.9,16.9"/>
		<path id="Shape_121_" class="st2" d="M105,412.4H79.6c-9.3,0-16.9-7.6-16.9-16.9v-33.9c0-9.3,7.6-16.9,16.9-16.9h67.7
			c9.3,0,16.9,7.6,16.9,16.9v33.9c0,9.3-7.6,16.9-16.9,16.9"/>
		<path id="Shape_120_" class="st2" d="M392.7,412.4h-25.4c-9.3,0-16.9-7.6-16.9-16.9v-33.9c0-9.3,7.6-16.9,16.9-16.9h67.7
			c9.3,0,16.9,7.6,16.9,16.9v33.9c0,9.3-7.6,16.9-16.9,16.9"/>
		<path id="Shape_119_" class="st2" d="M248.9,412.4h-25.4c-9.3,0-16.9-7.6-16.9-16.9v-33.9c0-9.3,7.6-16.9,16.9-16.9h67.7
			c9.3,0,16.9,7.6,16.9,16.9v33.9c0,9.3-7.6,16.9-16.9,16.9"/>
		<path id="Shape_118_" class="st1" d="M37.3,449.6V111C37.3,83,60,60.2,88,60.2H62.7c-28,0-50.8,22.7-50.8,50.8v338.5
			c0,28,22.7,50.8,50.8,50.8H88C60,500.3,37.3,477.6,37.3,449.6z"/>
		<path id="Rectangle-path_3_" class="st1" d="M3.4,381.9h16.9v67.7H3.4V381.9z"/>
		<g>
			<circle id="Oval_2_" class="st3" cx="11.9" cy="415.7" r="8.5"/>
			<path id="Shape_117_" class="st3" d="M452,51.8h-25.4V9.5c0-4.7-3.8-8.5-8.5-8.5s-8.5,3.8-8.5,8.5v42.3H105V9.5
				c0-4.7-3.8-8.5-8.5-8.5C91.8,1,88,4.8,88,9.5v42.3H62.7C30,51.8,3.4,78.3,3.4,111v270.8c0,4.7,3.8,8.5,8.5,8.5s8.5-3.8,8.5-8.5
				V170.3h16.9c4.7,0,8.5-3.8,8.5-8.5c0-4.7-3.8-8.5-8.5-8.5H20.3V111c0-23.4,19-42.3,42.3-42.3H88c0,4.7,3.8,8.5,8.5,8.5
				c4.7,0,8.5-3.8,8.5-8.5h304.7c0,4.7,3.8,8.5,8.5,8.5s8.5-3.8,8.5-8.5H452c23.4,0,42.3,19,42.3,42.3v42.3H79.6
				c-4.7,0-8.5,3.8-8.5,8.5c0,4.7,3.8,8.5,8.5,8.5h414.7v279.3c0,23.4-19,42.3-42.3,42.3H62.7c-23.4,0-42.3-19-42.3-42.3
				c0-4.7-3.8-8.5-8.5-8.5s-8.5,3.8-8.5,8.5c0,32.7,26.5,59.2,59.2,59.2H452c32.7,0,59.2-26.5,59.2-59.2V111
				C511.2,78.3,484.7,51.8,452,51.8z"/>
			<path id="Shape_116_" class="st3" d="M105,111v-8.5c0-4.7-3.8-8.5-8.5-8.5c-4.7,0-8.5,3.8-8.5,8.5v8.5c0,4.7,3.8,8.5,8.5,8.5
				C101.2,119.5,105,115.7,105,111z"/>
			<path id="Shape_115_" class="st3" d="M426.6,111v-8.5c0-4.7-3.8-8.5-8.5-8.5s-8.5,3.8-8.5,8.5v8.5c0,4.7,3.8,8.5,8.5,8.5
				S426.6,115.7,426.6,111z"/>
			<path id="Shape_114_" class="st3" d="M325,466.5c0,4.7,3.8,8.5,8.5,8.5h59.2c4.7,0,8.5-3.8,8.5-8.5s-3.8-8.5-8.5-8.5h-59.2
				C328.8,458,325,461.8,325,466.5z"/>
			<path id="Shape_113_" class="st3" d="M426.6,458c-4.7,0-8.5,3.8-8.5,8.5s3.8,8.5,8.5,8.5h16.9c4.7,0,8.5-3.8,8.5-8.5
				s-3.8-8.5-8.5-8.5H426.6z"/>
			<path id="Shape_112_" class="st3" d="M147.3,288.8c-4.7,0-8.5,3.8-8.5,8.5s3.8,8.5,8.5,8.5c14,0,25.4-11.4,25.4-25.4v-33.9
				c0-14-11.4-25.4-25.4-25.4H79.6c-14,0-25.4,11.4-25.4,25.4v33.9c0,14,11.4,25.4,25.4,25.4H105c4.7,0,8.5-3.8,8.5-8.5
				s-3.8-8.5-8.5-8.5H79.6c-4.7,0-8.5-3.8-8.5-8.5v-33.9c0-4.7,3.8-8.5,8.5-8.5h67.7c4.7,0,8.5,3.8,8.5,8.5v33.9
				C155.8,285,152,288.8,147.3,288.8z"/>
			<path id="Shape_111_" class="st3" d="M435.1,288.8c-4.7,0-8.5,3.8-8.5,8.5s3.8,8.5,8.5,8.5c14,0,25.4-11.4,25.4-25.4v-33.9
				c0-14-11.4-25.4-25.4-25.4h-67.7c-14,0-25.4,11.4-25.4,25.4v33.9c0,14,11.4,25.4,25.4,25.4h25.4c4.7,0,8.5-3.8,8.5-8.5
				s-3.8-8.5-8.5-8.5h-25.4c-4.7,0-8.5-3.8-8.5-8.5v-33.9c0-4.7,3.8-8.5,8.5-8.5h67.7c4.7,0,8.5,3.8,8.5,8.5v33.9
				C443.5,285,439.7,288.8,435.1,288.8z"/>
			<path id="Shape_110_" class="st3" d="M291.2,288.8c-4.7,0-8.5,3.8-8.5,8.5s3.8,8.5,8.5,8.5c14,0,25.4-11.4,25.4-25.4v-33.9
				c0-14-11.4-25.4-25.4-25.4h-67.7c-14,0-25.4,11.4-25.4,25.4v33.9c0,14,11.4,25.4,25.4,25.4h25.4c4.7,0,8.5-3.8,8.5-8.5
				s-3.8-8.5-8.5-8.5h-25.4c-4.7,0-8.5-3.8-8.5-8.5v-33.9c0-4.7,3.8-8.5,8.5-8.5h67.7c4.7,0,8.5,3.8,8.5,8.5v33.9
				C299.6,285,295.8,288.8,291.2,288.8z"/>
			<path id="Shape_109_" class="st3" d="M54.2,398.8c0,14,11.4,25.4,25.4,25.4H105c4.7,0,8.5-3.8,8.5-8.5s-3.8-8.5-8.5-8.5H79.6
				c-4.7,0-8.5-3.8-8.5-8.5v-33.9c0-4.7,3.8-8.5,8.5-8.5h67.7c4.7,0,8.5,3.8,8.5,8.5v33.9c0,4.7-3.8,8.5-8.5,8.5
				c-4.7,0-8.5,3.8-8.5,8.5s3.8,8.5,8.5,8.5c14,0,25.4-11.4,25.4-25.4v-33.9c0-14-11.4-25.4-25.4-25.4H79.6
				c-14,0-25.4,11.4-25.4,25.4V398.8z"/>
			<path id="Shape_108_" class="st3" d="M342,398.8c0,14,11.4,25.4,25.4,25.4h25.4c4.7,0,8.5-3.8,8.5-8.5s-3.8-8.5-8.5-8.5h-25.4
				c-4.7,0-8.5-3.8-8.5-8.5v-33.9c0-4.7,3.8-8.5,8.5-8.5h67.7c4.7,0,8.5,3.8,8.5,8.5v33.9c0,4.7-3.8,8.5-8.5,8.5s-8.5,3.8-8.5,8.5
				s3.8,8.5,8.5,8.5c14,0,25.4-11.4,25.4-25.4v-33.9c0-14-11.4-25.4-25.4-25.4h-67.7c-14,0-25.4,11.4-25.4,25.4V398.8z"/>
			<path id="Shape_107_" class="st3" d="M198.1,398.8c0,14,11.4,25.4,25.4,25.4h25.4c4.7,0,8.5-3.8,8.5-8.5s-3.8-8.5-8.5-8.5h-25.4
				c-4.7,0-8.5-3.8-8.5-8.5v-33.9c0-4.7,3.8-8.5,8.5-8.5h67.7c4.7,0,8.5,3.8,8.5,8.5v33.9c0,4.7-3.8,8.5-8.5,8.5
				c-4.7,0-8.5,3.8-8.5,8.5s3.8,8.5,8.5,8.5c14,0,25.4-11.4,25.4-25.4v-33.9c0-14-11.4-25.4-25.4-25.4h-67.7
				c-14,0-25.4,11.4-25.4,25.4V398.8z"/>
		</g>
	</g>
</g>
</svg>
