<?xml version="1.0" encoding="utf-8"?>
<!-- Generator: Adobe Illustrator 22.0.1, SVG Export Plug-In . SVG Version: 6.00 Build 0)  -->
<svg version="1.1" id="Layer_1" xmlns="http://www.w3.org/2000/svg" xmlns:xlink="http://www.w3.org/1999/xlink" x="0px" y="0px"
	 viewBox="0 0 514.6 509.8" style="enable-background:new 0 0 514.6 509.8;" xml:space="preserve">
<style type="text/css">
	.st0{fill:#D7F7FF;}
	.st1{fill:#8AE9FF;}
	.st2{fill:#FFFFFF;}
	.st3{fill:#1E85D2;}
</style>
<g id="Page-1_1_">
	<g id="_x30_50---Language-Tutor_1_">
		<path id="Shape_86_" class="st0" d="M299.3,464.1v19.1c0,9.3-7.5,16.9-16.8,16.9H30.8c-9.3,0-16.8-7.6-16.8-16.9v-19.1
			c0-8.1,3.8-15.7,10.3-20.5c3.7-2.8,8-4.4,12.6-4.8l77.8-6.3c0,0,7,25.4,42,25.4s42-25.4,42-25.4l77.8,6.3
			c4.6,0.4,8.9,2.1,12.6,4.8C295.5,448.4,299.3,456,299.3,464.1L299.3,464.1z"/>
		<path id="Shape_85_" class="st1" d="M289,443.6c-3.7-2.8-8-4.4-12.6-4.8l-77.8-6.3c0,0-0.2,0.8-0.7,2l53.3,4.3
			c4.6,0.4,8.9,2.1,12.6,4.8c6.5,4.8,10.3,12.4,10.3,20.5v19.1c0,9.3-7.5,16.9-16.8,16.9h25.2c9.3,0,16.8-7.6,16.8-16.9v-19.1
			C299.3,456,295.5,448.4,289,443.6z"/>
		<path id="Shape_84_" class="st0" d="M257.3,280.3l0,42.3c-8.9-0.2-17.7-1.4-26.3-3.7c-30.4-9.3-56.7-28.9-74.4-55.5
			C139,289.7,113,309.2,83,318.7c-8.8,2.4-17.9,3.7-27,3.9l0-42.3c0-38.1,21.1-72.9,54.7-90.3s74-14.3,104.7,7.9
			c11.6,8.4,21.3,19.2,28.5,31.7C252.7,245,257.4,262.5,257.3,280.3z"/>
		<path id="Shape_42_" class="st0" d="M243.9,229.5c-7.2-12.5-16.9-23.3-28.5-31.7c-17.1-12.4-37.7-19.1-58.7-19
			c-4.2,0-8.4,0.3-12.5,0.8c16.6,2.1,32.5,8.3,46.1,18.2c11.6,8.4,21.3,19.2,28.5,31.7c8.8,15.4,13.5,32.9,13.4,50.7v38.8
			c8.2,2.2,16.7,3.3,25.2,3.5l0-42.3C257.4,262.5,252.7,245,243.9,229.5L243.9,229.5z"/>
		<path id="Shape_41_" class="st1" d="M114.7,397v35.5l-77.8,6.3c-4.6,0.4-8.9,2.1-12.6,4.8c-1.3-3.6-1.9-7.4-1.9-11.2
			c0-18.7,15-33.8,33.6-33.8v-76.1c9.1-0.2,18.2-1.5,27-3.9c0.3,4.7,0.4,9.5,0.4,12.3C83.6,352.5,97.8,378.1,114.7,397L114.7,397z"
			/>
		<path id="Shape_40_" class="st2" d="M231.1,318.8c-0.3,4.7-0.4,9.3-0.4,12.1c-0.3,21.6-14.8,47.4-32.1,66.3
			c-14.3,15.7-30.5,26.8-42,26.8s-27.7-11.2-42-27.1c-16.9-18.9-31-44.5-31.3-66c0-2.8-0.2-7.5-0.4-12.3c30.1-9.4,56.1-29,73.7-55.3
			C174.4,289.9,200.6,309.5,231.1,318.8L231.1,318.8z"/>
		<path id="Shape_39_" class="st2" d="M198.6,397.2v35.3c0,0-7,25.4-42,25.4s-42-25.4-42-25.4V397c14.3,15.9,30.5,27.1,42,27.1
			S184.3,412.9,198.6,397.2z"/>
		<path id="Shape_38_" class="st1" d="M290.9,432.5c0,3.8-0.6,7.6-1.9,11.2c-3.7-2.8-8-4.4-12.6-4.8l-77.8-6.3v-35.3
			c17.3-18.9,31.7-44.6,32.1-66.3c0-2.8,0.2-7.4,0.4-12.1c8.6,2.3,17.4,3.6,26.3,3.7v76.1C275.9,398.6,290.9,413.8,290.9,432.5z"/>
		<path id="Shape_37_" class="st0" d="M257.3,398.6v-76.1c-8.9-0.2-17.7-1.4-26.3-3.7c-0.1,1.2-0.1,2.4-0.2,3.6
			c0.4,0,0.8,0.1,1.3,0.1v76.1c18.5,0,33.6,15.1,33.6,33.8c0,1.8-0.2,3.6-0.5,5.4l11.1,0.9c4.6,0.4,8.9,2.1,12.6,4.8
			c1.3-3.6,1.9-7.4,1.9-11.2C290.9,413.8,275.9,398.6,257.3,398.6L257.3,398.6z"/>
		<path id="Shape_36_" class="st2" d="M500.7,26.6v186c0,9.3-7.5,16.9-16.8,16.9H366.4l-53.2,48.6c-2.5,2.2-6,2.7-9,1.4
			c-3-1.4-4.9-4.4-4.9-7.7v-42.3h-55.4c-7.2-12.5-16.9-23.3-28.5-31.7V26.6c0-9.3,7.5-16.9,16.8-16.9h251.7
			C493.1,9.7,500.6,17.3,500.7,26.6L500.7,26.6z"/>
		<path id="Shape_35_" class="st0" d="M299.3,267.9v3.9c0,3.3,1.9,6.3,4.9,7.7c3,1.4,6.5,0.8,9-1.4l53.2-48.6h-25.2L299.3,267.9z"/>
		<path id="Shape_34_" class="st0" d="M483.9,9.7h-25.2c9.3,0,16.8,7.6,16.8,16.9v186c0,9.3-7.5,16.9-16.8,16.9h25.2
			c9.3,0,16.8-7.6,16.8-16.9v-186C500.6,17.3,493.1,9.7,483.9,9.7z"/>
		<path id="Shape_33_" class="st1" d="M30.8,500.1h25.2c-9.3,0-16.8-7.6-16.8-16.9v-19.1c0-8.1,3.8-15.7,10.3-20.5
			c-1.3-3.6-1.9-7.4-1.9-11.2c0-18.7,15-33.8,33.6-33.8V280.3c-0.1-51.2,37.7-94.4,88.2-100.6c-4.2-0.5-8.4-0.8-12.6-0.8
			c-2.7,0-5.3,0.2-7.9,0.4c-52.4,4-92.9,48.1-92.7,101.1v118.4c-18.5,0-33.6,15.1-33.6,33.8c0,3.8,0.6,7.6,1.9,11.2
			C17.8,448.4,14,456,14,464.1v19.1C14,492.5,21.5,500.1,30.8,500.1L30.8,500.1z"/>
		<path id="Shape_32_" class="st0" d="M71,212.3l13.2,10.4c-12.8,16.4-19.8,36.6-19.8,57.5H47.5C47.6,255.6,55.9,231.7,71,212.3z"/>
		<g>
			<path id="Shape_31_" class="st3" d="M61.6,255.4c-3,0-5.8-1.6-7.3-4.2s-1.5-5.8,0-8.5c1.5-2.6,4.2-4.2,7.2-4.3h0.1
				c4.6,0,8.4,3.8,8.4,8.5C70,251.6,66.3,255.4,61.6,255.4z"/>
			<path id="Shape_30_" class="st3" d="M483.9,1.2H232.1c-13.9,0-25.2,11.4-25.2,25.4v156.2c-15.5-8.2-32.8-12.5-50.3-12.5
				c-33.4,0.1-64.9,15.6-85.6,42c-1.5,1.8-2.2,4.1-1.8,6.4s1.6,4.4,3.5,5.7c3.7,2.5,8.6,1.8,11.5-1.6
				c24.3-31.2,65.5-43.4,102.7-30.4s62.1,48.3,62.1,87.9v33.2c-53.9-5.5-84.9-54.1-85.2-54.6c-1.5-2.5-4.2-4-7.1-4
				c-2.9,0-5.6,1.5-7.1,4c-0.3,0.5-31,49.1-85.2,54.6v-33.2c0-4.7-3.8-8.5-8.4-8.5s-8.4,3.8-8.4,8.5V391C28,395.1,14,412.4,14,432.5
				c0,2.8,0.3,5.5,0.9,8.3c-6,6.3-9.3,14.7-9.3,23.4v19.1c0,14,11.3,25.4,25.2,25.4h251.7c13.9,0,25.2-11.4,25.2-25.4v-19.1
				c0-8.7-3.3-17.1-9.3-23.3c0.6-2.7,0.9-5.5,0.9-8.3c0-20.1-14-37.4-33.6-41.4V280.3c0-14.5-2.8-28.9-8.4-42.3h33.6v33.8
				c-0.1,6.7,3.8,12.7,9.9,15.4c6,2.8,13.2,1.7,18.1-2.8l50.8-46.4h114.2c13.9,0,25.2-11.4,25.2-25.4v-186
				C509.1,12.6,497.8,1.2,483.9,1.2L483.9,1.2z M156.6,277.7c17,21.8,39.8,38.2,65.7,47.4c-0.1,2.2-0.1,4.2-0.1,5.7
				c-0.5,35.5-45.9,84.7-65.6,84.7c-20,0-64.4-48.4-64.9-84.6c0-1.5-0.1-3.6-0.1-6C117.3,315.7,139.8,299.3,156.6,277.7L156.6,277.7
				z M190.2,416.7V431c-1.6,3.9-9,18.3-33.6,18.3s-32.1-14.6-33.6-18.3v-14c9.1,8.8,21,14.3,33.6,15.4
				C169.2,431,181,425.4,190.2,416.7z M47.8,408.6c0.6,4,4.1,7,8.1,7c4.6,0,8.4-3.8,8.4-8.5v-76.5c3.6-0.3,7.2-0.7,10.6-1.4v1.8
				c0.3,20.1,13.7,47.5,31.3,68.8v24.8l-70.2,5.7c-1.8,0.2-3.5,0.5-5.2,1C31.3,421,38.1,411.9,47.8,408.6L47.8,408.6z M290.9,464.1
				v19.1c0,4.7-3.8,8.5-8.4,8.5H30.8c-4.6,0-8.4-3.8-8.4-8.5v-19.1c0-8.7,6.6-16,15.2-16.8l71.9-5.9c5,9.3,17.8,25,47.2,25
				s42.2-15.6,47.2-24.9l71.8,5.9C284.3,448,290.9,455.3,290.9,464.1z M257.3,415.6c4,0,7.4-3,8.1-7c9.8,3.4,16.5,12.4,17,22.8
				c-1.7-0.5-3.5-0.8-5.3-1l-70.1-5.7v-24.4c17.6-20.2,31.7-46.6,32.1-69.3c0-0.5,0-1,0-1.6c3.2,0.5,6.5,1,9.9,1.2v76.6
				c0,2.2,0.9,4.4,2.5,6S255.1,415.6,257.3,415.6z M492.3,212.6c0,4.7-3.8,8.5-8.4,8.5H349.6c-3.9,0-7.2,2.6-8.1,6.4
				c-0.9,3.8,0.9,7.7,4.3,9.5l-38.1,34.9V238h8.4c4.6,0,8.4-3.8,8.4-8.5c0-4.7-3.8-8.5-8.4-8.5h-67.7c-6.6-10.4-15-19.6-24.6-27.3
				V26.6c0-4.7,3.8-8.5,8.4-8.5h251.7c4.6,0,8.4,3.8,8.4,8.5V212.6z"/>
			<path id="Shape_29_" class="st3" d="M256.9,122.3l6.5-19.6h21.5l6.5,19.6c0.9,2.9,3.3,5,6.3,5.6c2.9,0.6,6-0.4,8-2.7
				c2-2.3,2.6-5.4,1.7-8.3l-25.2-76.1c-1.1-3.5-4.3-5.8-8-5.8s-6.8,2.3-8,5.8L241,116.9c-0.9,2.9-0.3,6,1.7,8.3c2,2.3,5,3.3,8,2.7
				C253.6,127.3,256,125.2,256.9,122.3L256.9,122.3z M274.1,70.3l5.1,15.5H269L274.1,70.3z"/>
			<path id="Shape_28_" class="st3" d="M467.1,43.5h-25.2c0-4.7-3.8-8.5-8.4-8.5c-4.6,0-8.4,3.8-8.4,8.5H400c-4.6,0-8.4,3.8-8.4,8.5
				s3.8,8.5,8.4,8.5h0.9c2.9,15.3,10,29.6,20.4,41.2c-5.2,4-10.8,7.5-16.6,10.4c-4.1,2.1-5.8,7.2-3.8,11.3s7.1,5.9,11.3,3.8
				c7.6-3.8,14.8-8.5,21.4-13.8c6.6,5.4,13.8,10,21.4,13.9c2.7,1.4,5.9,1.2,8.4-0.5c2.5-1.7,3.9-4.6,3.8-7.6c-0.2-3-1.9-5.7-4.6-7.1
				c-5.9-2.9-11.4-6.4-16.6-10.4c10.4-11.6,17.4-25.9,20.4-41.2h0.9c4.6,0,8.4-3.8,8.4-8.5S471.7,43.5,467.1,43.5z M433.5,90.1
				c-7.5-8.5-12.9-18.6-15.5-29.7h31C446.4,71.5,441,81.6,433.5,90.1z"/>
			<path id="Shape_27_" class="st3" d="M363.9,54.5c-3.3-3.2-8.5-3.2-11.8,0.1c-3.2,3.3-3.3,8.5-0.1,11.9l2.5,2.5h-30.1
				c-4.6,0-8.4,3.8-8.4,8.5s3.8,8.5,8.4,8.5h30.1l-2.5,2.5c-2.2,2.1-3.1,5.3-2.3,8.2c0.8,3,3.1,5.3,6,6c2.9,0.8,6.1-0.1,8.2-2.3
				l16.8-16.9c3.3-3.3,3.3-8.7,0-12L363.9,54.5z"/>
			<path id="Shape_26_" class="st3" d="M366.4,145H257.3c-4.6,0-8.4,3.8-8.4,8.5c0,4.7,3.8,8.5,8.4,8.5h109.1c4.6,0,8.4-3.8,8.4-8.5
				C374.8,148.8,371,145,366.4,145z"/>
			<path id="Shape_25_" class="st3" d="M458.7,145H400c-4.6,0-8.4,3.8-8.4,8.5c0,4.7,3.8,8.5,8.4,8.5h58.7c4.6,0,8.4-3.8,8.4-8.5
				C467.1,148.8,463.3,145,458.7,145z"/>
			<path id="Shape_24_" class="st3" d="M332.8,178.8h-58.7c-4.6,0-8.4,3.8-8.4,8.5s3.8,8.5,8.4,8.5h58.7c4.6,0,8.4-3.8,8.4-8.5
				S337.5,178.8,332.8,178.8z"/>
		</g>
	</g>
</g>
</svg>
