<?xml version="1.0" encoding="utf-8"?>
<!-- Generator: Adobe Illustrator 22.0.1, SVG Export Plug-In . SVG Version: 6.00 Build 0)  -->
<svg version="1.1" id="Layer_1" xmlns="http://www.w3.org/2000/svg" xmlns:xlink="http://www.w3.org/1999/xlink" x="0px" y="0px"
	 viewBox="0 0 514.6 509.8" style="enable-background:new 0 0 514.6 509.8;" xml:space="preserve">
<style type="text/css">
	.st0{fill:#D7F7FF;}
	.st1{fill:#8AE9FF;}
	.st2{fill:#F5F5F5;}
	.st3{fill:#1E85D2;}
</style>
<g transform="translate(0 -1)">
	<g transform="translate(1 2)">
		<path class="st0" d="M368.4,365h58.6c6.3-0.1,12.1,3.3,15.2,8.7l50.6,90.5c2.8,5.2,2.6,11.5-0.6,16.5c-3.1,5-8.7,7.9-14.6,7.7H35
			c-5.9,0.3-11.5-2.7-14.6-7.7c-3.1-5-3.4-11.3-0.6-16.5l50.6-90.5c3.1-5.4,8.9-8.8,15.2-8.7H368.4z"/>
		<path class="st1" d="M477.7,488.5H132.9c0,0,164.6-16.5,205.7-123.4h88.5c6.3-0.1,12.1,3.3,15.2,8.7l50.6,90.5
			c2.8,5.2,2.6,11.5-0.6,16.5C489.2,485.8,483.6,488.7,477.7,488.5z"/>
		<path class="st0" d="M444.8,488.5H132.9c0,0,164.6-16.5,205.7-123.4h55.5c6.3-0.1,12.1,3.3,15.2,8.7l50.6,90.5
			c2.8,5.2,2.6,11.5-0.6,16.5C456.3,485.8,450.7,488.7,444.8,488.5z"/>
		<path class="st1" d="M412.7,176c0,21.6-9.8,48.9-24.4,77.7c-15.9,30.1-33.8,59-53.7,86.6c-19.6,27.6-39.1,52.4-53.7,70.4
			c-4.4,5.5-8.5,10.3-11.9,14.4c-3.1,3.7-7.6,5.8-12.4,5.9c-4.8,0-9.4-2-12.5-5.6l-0.2-0.2c-3.4-4.1-7.4-8.9-11.9-14.4
			c-14.6-17.9-34.2-42.8-53.7-70.4c-19.9-27.6-37.9-56.5-53.7-86.6C109.8,224.9,100,197.6,100,176c-0.1-62.9,37.5-119.8,95.5-144.3
			c15.4-6.6,31.8-10.6,48.6-11.9c4-0.3,8.2-0.5,12.3-0.5c41.5,0,81.3,16.5,110.6,45.8C396.3,94.6,412.8,134.5,412.7,176z"/>
		<path class="st0" d="M388,176c0,21.6-9.8,48.9-24.4,77.7c-15.9,30.1-33.8,59-53.7,86.6c-19.6,27.6-39.1,52.4-53.7,70.4
			c-4.4,5.5-8.5,10.3-11.9,14.4l-0.2,0.2l-0.2-0.2c-3.4-4.1-7.4-8.9-11.9-14.4c-14.6-17.9-34.2-42.8-53.7-70.4
			c-19.9-27.6-37.9-56.5-53.7-86.6C109.8,224.9,100,197.6,100,176c-0.1-62.9,37.5-119.8,95.5-144.3c15.4-6.6,31.8-10.6,48.6-11.9
			c16.7,1.3,33.1,5.3,48.6,11.9C350.5,56.2,388.1,113.1,388,176z"/>
		<path class="st1" d="M330.4,167.5c-0.1,40.9-33.2,74-74.1,74.1c-4.1,0-8.3-0.3-12.3-1c-35.6-6.1-61.6-37-61.6-73.1
			s26-67,61.6-73.1c4.1-0.7,8.2-1,12.3-1C297.2,93.5,330.3,126.6,330.4,167.5z"/>
		<path class="st2" d="M305.7,167.5c-0.1,36.1-26.1,66.9-61.7,73.1c-35.6-6.1-61.6-37-61.6-73.1s26-67,61.6-73.1
			C279.6,100.6,305.6,131.4,305.7,167.5z"/>
		<g>
			<path class="st0" d="M35,488.5h24.7c-5.9,0.3-11.5-2.7-14.6-7.7c-3.1-5-3.4-11.3-0.6-16.5L95,373.7c3.1-5.4,8.9-8.8,15.2-8.7
				l-24.7,0c-6.3,0-12.1,3.3-15.2,8.7l-50.6,90.5c-2.8,5.2-2.6,11.5,0.6,16.5C23.5,485.8,29,488.7,35,488.5z"/>
			<path class="st1" d="M178.1,340.2c6.1,8.6,12.1,16.8,18.1,24.8h24.7c-5.9-7.9-12-16.2-18.1-24.8c-19.9-27.6-37.9-56.5-53.7-86.6
				c-14.6-28.8-24.4-56.1-24.4-77.7c-0.1-62.9,37.5-119.8,95.5-144.3c15.2-6.4,31.3-10.4,47.8-11.8c-3.8-0.3-7.7-0.6-11.6-0.6
				c-4.1,0-8.3,0.2-12.3,0.5c-16.7,1.3-33.1,5.3-48.6,11.9c-58,24.5-95.6,81.3-95.5,144.3c0,21.6,9.8,48.9,24.4,77.7
				C140.3,283.8,158.2,312.7,178.1,340.2z"/>
		</g>
	</g>
	<g>
		<path class="st0" d="M86.5,375.2c-2.4,0-4.7,0.9-6.5,2.5c-0.4,0.4-0.8,0.8-1.1,1.3c-0.2,0.2-0.3,0.5-0.5,0.7l-0.8,1.5l-3.3,5.8
			l-13,23.3l-26.1,46.7l-7.4,13.2l-14.3-8l7.4-13.2L47,402.4l13-23.3l3.3-5.8l0.8-1.5c0.4-0.7,0.8-1.4,1.3-2.1
			c1-1.4,2.1-2.6,3.3-3.8c4.8-4.5,11.1-7.1,17.7-7.1L86.5,375.2L86.5,375.2z"/>
		<g>
			<path class="st3" d="M60.2,395.6c4,2.2,9,0.8,11.2-3.2l4-7.2l2-3.6l1-1.8c0.2-0.3,0.4-0.6,0.6-0.9c1.8-2.4,4.6-3.7,7.5-3.7h58.6
				c4.5,0,8.2-3.7,8.2-8.2c0-4.5-3.7-8.2-8.2-8.2H86.5c-8.2,0-16,3.9-20.8,10.5c-0.6,0.8-1.1,1.7-1.6,2.5l-0.9,1.8l-2,3.6l-4,7.2
				c-1.1,1.9-1.4,4.2-0.8,6.3C56.9,392.8,58.3,394.5,60.2,395.6z"/>
			<path class="st3" d="M41.7,422.2c0.7,0.9,1.5,1.6,2.4,2.1c1.9,1,4.2,1.3,6.3,0.8c4.4-1.3,6.9-5.8,5.7-10.2l-0.6-1.5
				c-0.3-0.5-0.6-1-0.9-1.4c-0.3-0.4-0.6-0.8-1.1-1.2c-0.4-0.3-0.9-0.7-1.3-0.9c-1.9-1-4.2-1.3-6.3-0.8c-2.7,0.7-4.8,2.7-5.7,5.4
				C39.4,417.2,39.9,420.1,41.7,422.2z"/>
			<path class="st3" d="M172.4,347c20.3,28.7,40.6,54.3,54.1,70.8c2,2.4,3.8,4.6,5.6,6.8h-40.6c-4.5,0-8.2,3.7-8.2,8.2
				s3.7,8.2,8.2,8.2h131.7c4.5,0,8.2-3.7,8.2-8.2s-3.7-8.2-8.2-8.2h-40.6c1.8-2.1,3.6-4.4,5.6-6.8c13.4-16.5,33.7-42.2,54.1-70.8
				c20.2-27.9,38.4-57.2,54.4-87.6c16.8-33,25.3-60.4,25.3-81.4c0.1-43.7-17.3-85.6-48.2-116.5c-2.1-2.1-5.1-3-8-2.2
				c-2.9,0.8-5.1,3-5.9,5.9s0.1,5.9,2.2,8c27.8,27.8,43.4,65.6,43.4,104.9c0,18.4-7.9,43.3-23.5,74c-15.7,29.8-33.4,58.4-53.1,85.6
				c-20.1,28.3-40.1,53.7-53.4,69.9c-4.4,5.4-8.4,10.2-11.8,14.3c-1.6,1.8-3.9,2.8-6.3,2.8s-4.7-1-6.3-2.8c-3.4-4-7.4-8.8-11.8-14.3
				c-13.3-16.3-33.3-41.6-53.4-69.9c-19.7-27.2-37.5-55.8-53.1-85.6c-15.6-30.7-23.5-55.5-23.5-74c0-59.6,35.6-113.4,90.5-136.7
				c36.9-15.5,78.4-15.5,115.3,0c2.7,1.1,5.8,0.8,8.2-1c2.3-1.8,3.6-4.7,3.2-7.6c-0.4-2.9-2.2-5.4-5-6.6
				C237.6-9.2,141,30,105.7,113.8c-8.6,20.3-13,42.1-12.9,64.1c0,21,8.5,48.4,25.3,81.5C134.1,289.9,152.2,319.2,172.4,347z"/>
			<path class="st3" d="M257.3,103.7c4.5,0,8.2-3.7,8.2-8.2c0-4.5-3.7-8.2-8.2-8.2c-39.3,0-73.1,27.7-80.7,66.2
				c-7.7,38.5,12.9,77.1,49.2,92.1c36.3,15,78.1,2.3,99.9-30.3s17.5-76.1-10.2-103.9c-2.1-2.1-5.1-3-8-2.2c-2.9,0.8-5.1,3-5.9,5.9
				s0.1,5.9,2.2,8c22.2,22.2,25.6,57,8.2,83.1c-17.4,26.1-50.9,36.3-79.9,24.2c-29-12-45.5-42.9-39.4-73.7
				C198.9,125.9,225.9,103.7,257.3,103.7z"/>
			<path class="st3" d="M36,498.7h442.7c9.1,0.1,17.5-4.7,22.2-12.5c4.4-7.4,4.5-16.5,0.3-24l-50.6-90.5c-4.6-8-13.1-13-22.4-12.9
				h-58.6c-4.5,0-8.2,3.7-8.2,8.2c0,4.5,3.7,8.2,8.2,8.2h58.6c3.3-0.1,6.4,1.7,8,4.5l50.6,90.5c1.4,2.4,1.3,5.3-0.1,7.6
				c-1.7,2.8-4.7,4.4-8,4.4H36c-3.2,0.1-6.3-1.6-8-4.4c-1.4-2.3-1.5-5.2-0.1-7.6l7.4-13.2l4-7.2c2.2-4,0.8-9-3.2-11.2
				c-4-2.2-9-0.8-11.2,3.2l-4,7.2l-7.4,13.2c-4.2,7.5-4.1,16.6,0.3,24C18.4,494,26.9,498.8,36,498.7z"/>
			<path class="st3" d="M413.7,399.9h-32.9c-1.6,0-3.2,0.5-4.6,1.4l-24.7,16.5c-3.8,2.5-4.8,7.6-2.3,11.4c2.5,3.8,7.6,4.8,11.4,2.3
				l22.6-15.1h30.4c4.5,0,8.2-3.7,8.2-8.2S418.2,399.9,413.7,399.9z"/>
			<path class="st3" d="M364.3,457.5c0,4.5,3.7,8.2,8.2,8.2h65.8c4.5,0,8.2-3.7,8.2-8.2c0-4.5-3.7-8.2-8.2-8.2h-65.8
				C368,449.3,364.3,453,364.3,457.5z"/>
			<path class="st3" d="M158.6,432.9c3.6,0,6.8-2.4,7.9-5.8c1.1-3.5-0.3-7.2-3.3-9.2l-24.7-16.5c-1.4-0.9-2.9-1.4-4.6-1.4H101
				c-4.5,0-8.2,3.7-8.2,8.2c0,4.5,3.7,8.2,8.2,8.2h30.4l22.6,15.1C155.4,432.4,156.9,432.8,158.6,432.9z"/>
			<path class="st3" d="M76.3,449.3c-4.5,0-8.2,3.7-8.2,8.2c0,4.5,3.7,8.2,8.2,8.2h65.8c4.5,0,8.2-3.7,8.2-8.2
				c0-4.5-3.7-8.2-8.2-8.2H76.3z"/>
		</g>
	</g>
</g>
</svg>
