<?xml version="1.0" encoding="utf-8"?>
<!-- Generator: Adobe Illustrator 22.0.1, SVG Export Plug-In . SVG Version: 6.00 Build 0)  -->
<svg version="1.1" id="Layer_1" xmlns="http://www.w3.org/2000/svg" xmlns:xlink="http://www.w3.org/1999/xlink" x="0px" y="0px"
	 viewBox="0 0 514.6 509.8" style="enable-background:new 0 0 514.6 509.8;" xml:space="preserve">
<style type="text/css">
	.st0{fill:#D7F7FF;}
	.st1{fill:#FFFFFF;}
	.st2{fill:#8AE9FF;}
	.st3{fill:#1E85D2;}
</style>
<g id="_x30_05---Fast-Cash">
	<g id="Icons_copy" transform="translate(4 1)">
		<path id="Shape_141_" class="st0" d="M132.2,275.6l21.3,87.3l2,7.9l-24.7,13.7c-8.3,4.5-18.6,1.5-23.2-6.7l-74-134.6
			c-4.5-8.3-1.5-18.7,6.7-23.2l255-140.2l14.2-7.8c4-2.2,8.6-2.7,13-1.4c4.4,1.3,8,4.2,10.2,8.2l63.1,114.7l-27.2,6.7l-223.8,54.9
			C135.5,257.2,130,266.5,132.2,275.6z"/>
		<path id="Shape_140_" class="st0" d="M132.2,275.6l21.3,87.3l-23.6,17.5l-10.6,5.9c-5-1-9.3-4.1-11.8-8.5l-74-134.6
			c-4.5-8.3-1.5-18.7,6.7-23.2l255-140.2c5,1,9.3,4.1,11.8,8.5l61.4,111.8l-223.8,54.9C135.5,257.2,130,266.5,132.2,275.6z"/>
		<g>
			<path id="Shape_139_" class="st1" d="M344.5,206c2.2-5.8,6.3-10.6,11.7-13.6l-32.9-59.8c-5.9,3.3-13,4.1-19.5,2.1
				c-6.5-1.9-12-6.3-15.3-12.3L94.2,229.3c6.8,12.4,2.2,27.9-10.2,34.7l32.9,59.8c8.8-4.8,19.6-4,27.6,2"/>
			<path id="Shape_100_" class="st0" d="M272.3,223.7L172.8,248c-0.4-0.9-0.9-1.9-1.2-2.8c-10.9-27.1-3-56.9,19.7-69.3
				c1.5-0.8,2.9-1.5,4.4-2.1c24.1-10.1,54.3,2.6,69.3,29.8C268.5,209.9,270.9,216.7,272.3,223.7L272.3,223.7z"/>
			<path id="Shape_99_" class="st0" d="M487.8,364.2l-298.4,73.1c-4.1,1-8.4,0.5-12.1-1.5c-4.3-2.3-7.4-6.3-8.5-11l-13.2-54l-2-7.9
				l-21.3-87.3c-2.3-9.1,3.3-18.4,12.5-20.7l223.8-54.9l27.2-6.7l36.4-9l10.9-2.6c9.2-2.2,18.4,3.4,20.7,12.5l36.5,149.2
				c1.1,4.4,0.4,9-1.9,12.9C496,360.3,492.2,363.1,487.8,364.2L487.8,364.2z"/>
		</g>
		<path id="Shape_98_" class="st0" d="M468.4,364.4l-291.2,71.4c-4.3-2.3-7.4-6.3-8.5-11l-36.5-149.2c-2.3-9.1,3.3-18.4,12.5-20.7
			l287.5-70.5c1.1,1.1,1.9,2.5,2.3,4.1l40.4,165.1C476.1,358.4,473.2,363.2,468.4,364.4L468.4,364.4z"/>
		<path id="Shape_97_" class="st1" d="M191.8,375.2l-16.2-66.3c6.6-1.6,12.3-5.8,15.8-11.6c3.5-5.8,4.6-12.8,3-19.4l215.5-52.8
			c1.6,6.6,5.8,12.3,11.6,15.8c5.8,3.5,12.8,4.6,19.4,3l16.3,66.3c-6.6,1.6-12.3,5.8-15.8,11.6c-3.5,5.8-4.6,12.8-3,19.4L222.7,394
			C219.4,380.3,205.5,371.9,191.8,375.2L191.8,375.2z"/>
		<path id="Shape_96_" class="st2" d="M330.5,367.6c-6.5,1.6-13.2,1.7-19.7,0.3c-22.3-5.7-39.5-23.6-44.2-46.2
			c-7.8-31.6,7.6-62.6,34.4-69.9c0.4-0.2,0.7-0.3,1.1-0.3c27.5-6.7,56.1,13.8,63.9,45.8C373.8,329.4,357.9,360.8,330.5,367.6
			L330.5,367.6z"/>
		<path id="Shape_95_" class="st0" d="M310.7,367.9c-22.3-5.7-39.5-23.6-44.2-46.2c-7.8-31.6,7.6-62.6,34.4-69.9
			c22.3,5.7,39.5,23.6,44.2,46.2C353,329.7,337.5,360.7,310.7,367.9z"/>
	</g>
	<path id="Shape_94_" class="st0" d="M140.2,382.5l-5.4,3c-8.3,4.5-18.7,1.5-23.2-6.7l-74-134.6c-7.3-13.4,5.1-32.3,27.9-23.3
		c-4.9,6.8-5.7,15.7-2.3,23.3C143.6,390.3,137.3,379.8,140.2,382.5L140.2,382.5z"/>
	<path id="Rectangle-path_2_" class="st0" d="M191.3,430l66.3-16.2l4.1,16.6l-66.3,16.2L191.3,430z"/>
	<g>
		<path id="Shape_93_" class="st3" d="M226.6,421.7c-4.7,0.1-8.5,3.9-8.4,8.6c0,4.7,3.9,8.5,8.6,8.5c4.7,0,8.5-3.8,8.5-8.5
			C235.2,425.5,231.4,421.6,226.6,421.7z"/>
		<path id="Shape_92_" class="st3" d="M177.5,301.7c-2.2,0.5-4.1,1.9-5.3,3.9c-1.2,1.9-1.5,4.3-1,6.5l16.2,66.3
			c1.1,4.6,5.7,7.4,10.3,6.3c4.4-1.1,9-0.4,12.9,1.9c3.9,2.3,6.7,6.1,7.8,10.5c1.1,4.6,5.7,7.4,10.3,6.3l215.5-52.8
			c2.2-0.5,4.1-1.9,5.3-3.9c1.2-1.9,1.5-4.3,1-6.5c-2.2-9.1,3.3-18.3,12.5-20.6c2.2-0.5,4.1-1.9,5.3-3.9c1.2-1.9,1.5-4.3,1-6.5
			L453,242.9c-0.5-2.2-1.9-4.1-3.9-5.3s-4.3-1.5-6.5-1c-9.2,2.2-18.4-3.4-20.6-12.5c-0.5-2.2-1.9-4.1-3.9-5.3
			c-1.9-1.2-4.3-1.5-6.5-1l-215.4,52.9c-4.6,1.1-7.4,5.7-6.3,10.3C192.2,290.2,186.6,299.4,177.5,301.7L177.5,301.7z M408.6,236.2
			c5.9,10.9,17.3,17.8,29.7,18l12.7,51.8c-10.9,5.9-17.8,17.2-18,29.7l-62.3,15.3c19.5-34.4,8.8-78-24.3-99.5L408.6,236.2z
			 M308.9,289.6c1.8-2.9,5.2-4.5,8.6-4c3.4,0.5,6.2,3,7,6.4c0.5,2.2,1.9,4.1,3.9,5.3c1.9,1.2,4.3,1.5,6.5,1
			c13.7-3.4,3.8-27.6-16.1-29.6l-2.2-8.8c8.6,0.1,16.9,2.9,23.8,8c30.5,21.9,30.8,73.4,0.1,89.4l-2.2-8.8
			c10.3-6.9,14.1-20.1,9.2-31.5c-4.9-11.3-17.3-17.5-29.3-14.7c-3.3,0.8-6.9-0.5-8.9-3.2C307.3,296.3,307.1,292.5,308.9,289.6
			L308.9,289.6z M282.6,282c3.7-7.7,9.8-14.1,17.3-18.1l2.1,8.8c-10.4,6.8-14.4,20.2-9.4,31.6s17.5,17.6,29.5,14.6
			c3.4-0.8,6.9,0.5,8.9,3.2s2.2,6.5,0.4,9.5c-1.8,3-5.2,4.5-8.6,4c-3.4-0.5-6.2-3.1-7-6.4c-0.5-2.2-1.9-4.1-3.9-5.3
			c-1.9-1.2-4.3-1.5-6.5-1c-13.8,3.4-3.8,27.6,16.1,29.6l2.2,8.8C289.9,361.3,265.4,316.2,282.6,282L282.6,282z M207.5,285.5
			l62.2-15.2c-19.5,34.4-8.8,78.1,24.5,99.5L232,385c-5.9-11-17.3-17.9-29.7-18l-12.7-51.8C200.5,309.2,207.4,297.9,207.5,285.5z"/>
		<path id="Shape_91_" class="st3" d="M30.1,248.3l74,134.5c4.5,8.2,13.1,13.3,22.5,13.3c8.6,0,12.9-3.5,27.3-11.4l10.6,43.2
			c6,24.6,41.1,24.4,37.2,8.4c-0.5-2.2-1.9-4.1-3.9-5.3c-1.9-1.2-4.3-1.5-6.5-1c-4.6,1.1-9.2-1.7-10.3-6.3l-36.6-149.2
			c-0.5-2.2-0.2-4.5,1-6.5c1.2-1.9,3.1-3.3,5.3-3.9l298.4-73.2c4.6-1.1,9.2,1.7,10.3,6.3L496,346.6c1.1,4.6-1.7,9.2-6.3,10.3
			l-232.1,56.9c-4.6,1.1-7.4,5.7-6.3,10.3c1.1,4.6,5.7,7.4,10.3,6.3l232.1-56.9c6.6-1.6,12.3-5.8,15.8-11.6c3.5-5.8,4.6-12.8,3-19.4
			L476,193.3c-3.4-13.7-17.2-22.1-31-18.8l-41,10L344.2,75.6c-6.8-12.4-22.4-16.9-34.8-10.1l-27.1,14.9H146.4
			c-4.7,0-8.5,3.8-8.5,8.5s3.8,8.5,8.5,8.5h104.8l-31,17.1H52.5c-4.7,0-8.5,3.8-8.5,8.5c0,4.7,3.8,8.5,8.5,8.5h136.6L127,165.8h-66
			c-4.7,0-8.5,3.8-8.5,8.5s3.8,8.5,8.5,8.5h35l-55.9,30.7C27.9,220.4,23.4,235.9,30.1,248.3L30.1,248.3z M146.7,247.7
			c-6.6,1.6-12.3,5.8-15.8,11.6c-3.5,5.8-4.6,12.8-3,19.4l8.5,35c-3.9-0.5-7.8-0.2-11.6,0.7l-25.8-46.8c9-8.5,12.7-21.2,9.7-33.3
			l55.9-30.7c-3.5,13-3.2,26.7,0.9,39.6L146.7,247.7z M182.3,238.9c-6.3-17.1-2.4-36.3,10.2-49.5l4.3,7.9
			c-4.8,5.3-7.1,12.3-6.4,19.4s4.3,13.5,9.9,17.8L182.3,238.9z M246.8,223.1c-8-5.5-18.3-6-26.8-1.4c-4.1,2.1-9.1,0.5-11.3-3.5
			c-2.2-4-0.8-9.1,3.1-11.4c2-1.1,4.3-1.4,6.5-0.7c2.2,0.6,4,2.1,5.1,4.1c1.4,2.7,4.2,4.5,7.3,4.5s6-1.5,7.6-4.2
			c1.6-2.6,1.6-5.9,0.1-8.6c-5.2-9.5-15.9-14.6-26.5-12.8l-4.3-7.8c24.7-6.6,49.8,12.2,58.3,37.2L246.8,223.1z M342.8,199.6
			l-60.5,14.8c-6.9-23.3-25-41.8-48.2-49.1l56-30.8c8.5,9.1,21.2,12.8,33.3,9.7l25.7,46.8C346.6,193.5,344.4,196.4,342.8,199.6
			L342.8,199.6z M48.4,228.4l269.1-148c2-1.1,4.3-1.4,6.5-0.7s4,2.1,5.1,4.1l57.7,105l-18.3,4.5c0-3.3,2.1,1.6-33.9-63.8
			c-1.1-2-2.9-3.5-5.1-4.1c-6.6-1.9-9.1,5.2-19.4,2.2c-4.4-1.3-8.1-4.2-10.2-8.2c-1.1-2-2.9-3.5-5.1-4.1c-2.2-0.6-4.5-0.4-6.5,0.7
			L94,222.8c-4.1,2.3-5.7,7.4-3.4,11.6c4.5,8.3,1.5,18.6-6.7,23.2c-2,1.1-3.5,2.9-4.1,5.1s-0.4,4.5,0.7,6.5l32.9,59.8
			c2.3,4.1,7.4,5.7,11.6,3.4c5-2.7,11.1-2.6,16.1,0.1l8.6,35l-19,10.5c-4.1,2.3-9.4,0.8-11.6-3.4L45.1,240.1c-1.1-2-1.4-4.3-0.7-6.5
			S46.4,229.5,48.4,228.4L48.4,228.4z"/>
		<path id="Shape_90_" class="st3" d="M154.9,438.8c0-4.7-3.8-8.5-8.5-8.5H61.1c-4.7,0-8.5,3.8-8.5,8.5s3.8,8.5,8.5,8.5h85.3
			C151.1,447.4,154.9,443.5,154.9,438.8z"/>
		<path id="Shape_89_" class="st3" d="M9.9,447.4h17.1c4.7,0,8.5-3.8,8.5-8.5s-3.8-8.5-8.5-8.5H9.9c-4.7,0-8.5,3.8-8.5,8.5
			S5.1,447.4,9.9,447.4z"/>
		<path id="Shape_88_" class="st3" d="M9.9,182.8h17.1c4.7,0,8.5-3.8,8.5-8.5s-3.8-8.5-8.5-8.5H9.9c-4.7,0-8.5,3.8-8.5,8.5
			S5.1,182.8,9.9,182.8z"/>
		<path id="Shape_87_" class="st3" d="M26.9,396.2h51.2c4.7,0,8.5-3.8,8.5-8.5c0-4.7-3.8-8.5-8.5-8.5H26.9c-4.7,0-8.5,3.8-8.5,8.5
			C18.4,392.3,22.2,396.2,26.9,396.2z"/>
		<path id="Shape_83_" class="st3" d="M61.1,336.4c0-4.7-3.8-8.5-8.5-8.5H18.4c-4.7,0-8.5,3.8-8.5,8.5s3.8,8.5,8.5,8.5h34.1
			C57.2,345,61.1,341.1,61.1,336.4z"/>
		<path id="Shape_82_" class="st3" d="M9.9,293.8h17.1c4.7,0,8.5-3.8,8.5-8.5s-3.8-8.5-8.5-8.5H9.9c-4.7,0-8.5,3.8-8.5,8.5
			S5.1,293.8,9.9,293.8z"/>
	</g>
</g>
</svg>
