<?xml version="1.0" encoding="utf-8"?>
<!-- Generator: Adobe Illustrator 22.0.1, SVG Export Plug-In . SVG Version: 6.00 Build 0)  -->
<svg version="1.1" id="Layer_1" xmlns="http://www.w3.org/2000/svg" xmlns:xlink="http://www.w3.org/1999/xlink" x="0px" y="0px"
	 viewBox="0 0 514.6 509.8" style="enable-background:new 0 0 514.6 509.8;" xml:space="preserve">
<style type="text/css">
	.st0{fill:#D7F7FF;}
	.st1{fill:#8AE9FF;}
	.st2{fill:#FFFFFF;}
	.st3{fill:#A4C2F7;}
	.st4{fill:#1E85D2;}
</style>
<g id="_x30_06---Thunder" transform="translate(-1)">
	<path id="Shape_206_" class="st0" d="M153.7,358.9c-23.5-0.1-45.4-11.7-58.7-31S78.6,284,86.8,262c-36-5.8-62.1-37.6-60.6-74.1
		c1.5-36.5,30-66.1,66.4-68.9c9.3-45.8,44.2-82,89.7-92.9s93,5.6,122.1,42.2c26.1-18.7,61.5-17.9,86.7,2s34.1,54.2,21.9,83.9
		c50.6,13.3,83.4,62.1,76.6,114c-6.7,51.9-50.9,90.6-103.2,90.6H153.7z"/>
	<path id="Shape_205_" class="st1" d="M412.9,154.3c10-24.2,6.1-52-10.3-72.5c-16.4-20.5-42.6-30.4-68.5-25.9
		c21.6,3.6,40.5,16.8,51.1,36c10.7,19.2,12,42.2,3.6,62.4c50.6,13.3,83.4,62.1,76.6,114s-50.9,90.6-103.2,90.6h24
		c52.3,0,96.5-38.8,103.2-90.6C496.3,216.5,463.5,167.7,412.9,154.3L412.9,154.3z"/>
	<path id="Shape_179_" class="st2" d="M219.3,162l38.9,160c0.3,1.2,0,2.5-0.8,3.5c-0.8,1-2,1.5-3.2,1.5h-30.9
		c-1.2,0-2.3,0.5-3.1,1.4s-1.1,2.1-0.9,3.2l23.7,150.8c0.2,1.9-0.8,3.7-2.6,4.3s-3.8,0-4.8-1.5L116.3,301.1
		c-0.8-1.2-0.8-2.8-0.1-4.1c0.7-1.3,2.1-2.1,3.6-2h26.6c1.4,0,2.7-0.7,3.5-1.9c0.7-1.2,0.8-2.7,0.1-4L82.8,164.8
		c-0.7-1.3-0.6-2.8,0.1-4c0.7-1.2,2.1-1.9,3.5-1.9h128.9C217.2,158.9,218.8,160.1,219.3,162L219.3,162z"/>
	<path id="Shape_178_" class="st1" d="M223.3,326.9h-24c-1.2,0-2.3,0.5-3.1,1.4c-0.8,0.9-1.1,2.1-0.9,3.2l19,120.8l21.3,32.9
		c1.1,1.6,3.1,2.2,4.8,1.5c1.8-0.7,2.9-2.5,2.6-4.3l-23.8-150.8c-0.2-1.2,0.2-2.4,0.9-3.2C221,327.4,222.1,326.9,223.3,326.9
		L223.3,326.9z"/>
	<path id="Shape_177_" class="st1" d="M258.2,322l-38.9-160c-0.5-1.8-2.1-3.1-4-3.1l-24,0c1.9,0,3.5,1.2,4,3.1l38.9,160
		c0.3,1.2,0,2.5-0.8,3.5c-0.8,1-2,1.5-3.2,1.5h24c1.2,0,2.4-0.5,3.2-1.5C258.2,324.5,258.5,323.2,258.2,322L258.2,322z"/>
	<path id="Shape_174_" class="st2" d="M290.3,455c0,17.7,14.3,32,32,32c17.7,0,32-14.3,32-32c0-14.1-20.5-46.7-28.7-59.1
		c-0.7-1.1-2-1.8-3.3-1.8s-2.6,0.7-3.3,1.8C310.8,408.3,290.3,440.8,290.3,455z"/>
	<path id="Shape_173_" class="st1" d="M325.7,395.9c-0.7-1.1-2-1.8-3.3-1.8s-2.6,0.7-3.3,1.8c-2.2,3.4-5.3,8.2-8.7,13.7
		c9.1,14.9,20,35,20,45.4c0,13-7.9,24.7-20,29.6c9.9,4,21.1,2.9,29.9-3.1c8.8-5.9,14.1-15.9,14.1-26.6
		C354.4,440.8,333.9,408.3,325.7,395.9L325.7,395.9z"/>
	<path id="Shape_172_" class="st2" d="M98.3,455c0,17.7,14.3,32,32,32s32-14.3,32-32c0-14.1-20.5-46.7-28.7-59.1
		c-0.7-1.1-2-1.8-3.3-1.8c-1.3,0-2.6,0.7-3.3,1.8C118.8,408.3,98.3,440.8,98.3,455z"/>
	<path id="Shape_171_" class="st1" d="M133.6,395.9c-0.7-1.1-2-1.8-3.3-1.8c-1.3,0-2.6,0.7-3.3,1.8c-2.2,3.4-5.3,8.2-8.7,13.7
		c9.1,14.9,20,35,20,45.4c0,13-7.9,24.7-20,29.6c9.9,4,21.1,2.9,29.9-3.1c8.8-5.9,14.1-15.9,14.1-26.6
		C162.3,440.8,141.8,408.3,133.6,395.9L133.6,395.9z"/>
	<path id="Shape_170_" class="st3" d="M26.3,414.9c0,13.3,10.7,24,24,24s24-10.7,24-24c0-10.2-14.1-32.9-20.7-43
		c-0.7-1.1-2-1.8-3.3-1.8s-2.6,0.7-3.3,1.8C40.4,382,26.3,404.8,26.3,414.9z"/>
	<path id="Shape_169_" class="st1" d="M53.6,371.9c-0.7-1.1-2-1.8-3.3-1.8s-2.6,0.7-3.3,1.8c-2.3,3.5-5.5,8.6-8.7,14.1
		c5.9,8.7,10,18.6,12,29c0,8.5-4.6,16.4-12,20.7c3.6,2.2,7.8,3.3,12,3.3c13.3,0,24-10.7,24-24C74.3,404.8,60.2,382,53.6,371.9z"/>
	<path id="Shape_168_" class="st2" d="M394.4,438.9c0,13.3,10.7,24,24,24c13.3,0,24-10.7,24-24c0-10.2-14.1-32.9-20.7-43
		c-0.7-1.1-2-1.8-3.3-1.8c-1.3,0-2.6,0.7-3.3,1.8C408.5,406,394.4,428.8,394.4,438.9z"/>
	<path id="Shape_154_" class="st1" d="M421.7,395.9c-0.7-1.1-2-1.8-3.3-1.8c-1.3,0-2.6,0.7-3.3,1.8c-2.3,3.5-5.5,8.6-8.7,14.1
		c5.9,8.7,10,18.6,12,29c0,8.5-4.6,16.4-12,20.7c3.6,2.2,7.8,3.3,12,3.3c13.3,0,24-10.7,24-24C442.4,428.8,428.3,406,421.7,395.9z"
		/>
	<path id="Shape_153_" class="st2" d="M38.3,435.6c7.5,4.1,16.6,4.1,24.1,0h-0.1c-7.4-4.3-12-12.1-12-20.7c2-10.4,6.1-20.2,12-29
		c-3.2-5.5-6.4-10.6-8.7-14.1c-0.7-1.1-2-1.8-3.3-1.8s-2.6,0.7-3.3,1.8c-5.8,8.8-20.7,32.6-20.7,43
		C26.3,423.5,30.9,431.4,38.3,435.6z"/>
	<path id="Shape_152_" class="st1" d="M86.8,262c-8.1,22-5,46.6,8.3,65.8c13.3,19.3,35.2,30.9,58.7,31.1l60.5,93.4l21.3,32.9
		c1.1,1.6,3.1,2.2,4.8,1.5c1.8-0.7,2.9-2.5,2.6-4.3l-4.7-30l-60.5-93.4c-23.4-0.2-45.3-11.8-58.7-31.1
		c-13.3-19.3-16.4-43.8-8.3-65.8c-36-5.8-62.1-37.6-60.6-74.1c1.5-36.5,30-66.1,66.4-68.9c10.3-52,53.7-91,106.6-95.6
		c-61.7-6.7-118.3,34.8-130.6,95.6c-36.4,2.8-64.9,32.4-66.4,68.9C24.7,224.4,50.7,256.3,86.8,262L86.8,262z"/>
	<path id="Shape_151_" class="st0" d="M115.2,57.3L127.1,68c-6.7,7.4-12.3,15.7-16.9,24.5c-4.4,8.9-7.7,18.4-9.8,28.1l-15.7-3.2
		c2.4-11.1,6.2-21.9,11.2-32.2C101.1,75.2,107.6,65.8,115.2,57.3z"/>
	<g>
		<path id="Shape_150_" class="st4" d="M103.3,96.9c-4.4,0-8-3.5-8-8c0-4.4,3.5-8,8-8h0.1c4.4,0,8,3.6,8,8S107.7,96.9,103.3,96.9z"
			/>
		<path id="Shape_149_" class="st4" d="M76.6,268c-1.5,6.2-2.3,12.6-2.3,18.9c0.1,42.2,32.9,77,75,79.8l79.7,123
			c2.2,3.3,6,5.3,10,5.3c1.5,0,3.1-0.3,4.5-0.9c5.2-2,8.4-7.4,7.5-13l-18-114.2h153.4c54.7,0,101.4-39.4,110.5-93.3
			c9.1-53.9-22-106.5-73.7-124.5c9.1-31.5-1.9-65.3-27.7-85.4c-25.8-20.1-61.3-22.4-89.6-5.9c-24.2-27.4-59-43.1-95.6-43
			c-17.9,0.1-35.7,3.9-52.1,11.1c-16.4,7.3-31,18-43,31.3c-1.5,1.6-2.3,3.7-2.1,5.9c0.2,2.2,1.2,4.2,2.9,5.6
			c3.3,2.6,8.1,2.3,11.1-0.8c21.3-23.6,51.5-37.1,83.2-37.2c34.2-0.1,66.6,15.6,87.7,42.5c0.1,0.1,0.2,0.1,0.3,0.2
			c6.1,7.7,11.1,16.2,15,25.2c1.9,3.9,6.4,5.6,10.3,3.9c3.9-1.7,5.9-6.1,4.4-10.2c-3.3-7.6-7.3-14.9-12-21.8
			c9.3-5.1,19.7-7.8,30.3-7.8c20.2,0,39.2,9.5,51.2,25.7c12.1,16.2,15.8,37.1,10.2,56.4c-21.7-4.2-44.1-1.9-64.5,6.5
			c-2.7,1-4.7,3.5-5.1,6.4c-0.4,2.9,0.8,5.8,3.1,7.5c2.3,1.7,5.4,2.1,8.1,0.9c19.3-8,40.7-9.5,61-4.4c0.2,0.1,0.3,0.2,0.5,0.2
			c46.7,12.3,76.9,57.4,70.7,105.2c-6.2,47.9-47,83.7-95.3,83.7H230.4l-2.5-16h26.3c3.7,0,7.2-1.7,9.5-4.6c2.3-2.9,3.1-6.6,2.2-10.2
			l-38.9-160c-1.3-5.4-6.2-9.2-11.8-9.2H86.4c-4.3,0-8.2,2.2-10.4,5.9c-2.2,3.6-2.3,8.1-0.3,11.8l64,118.4h-20
			c-4.4,0-8.5,2.4-10.6,6.3c-2.1,3.8-1.9,8.5,0.5,12.2l28,43.2c-27.8-7.6-47.2-32.8-47.3-61.7c0-7.5,1.4-15,4-22.1
			c0.8-2.3,0.6-4.8-0.6-6.8c-1.2-2.1-3.3-3.5-5.7-3.9c-31.8-5.2-54.8-33.1-53.7-65.3c1.1-32.2,25.8-58.6,57.9-61.6
			c11.9-1.1,23.8,1,34.5,6.3c2.6,1.3,5.6,1.1,8-0.5s3.8-4.3,3.6-7.2c-0.2-2.9-1.9-5.4-4.5-6.7c-13-6.4-27.4-9.1-41.9-7.9v-0.1
			c-0.4,0-0.9,0.1-1.3,0.2c-0.4,0-0.8,0-1.2,0c-0.2,0-0.4,0.1-0.6,0.2c-38,4.4-67.5,35.1-70.5,73.2C15.4,222.7,39.8,257.7,76.6,268
			L76.6,268z M146.4,302.9c4.3,0,8.2-2.2,10.4-5.9c2.2-3.6,2.3-8.1,0.3-11.8L93,166.9h119.2l37,152h-25.9c-3.5,0-6.9,1.5-9.2,4.2
			c-2.3,2.6-3.3,6.2-2.7,9.6l20.9,132.5L127,302.9H146.4z"/>
		<path id="Shape_145_" class="st4" d="M312.3,391.5c-13.7,20.8-30,48.6-30,63.5c0,22.1,17.9,40,40,40c22.1,0,40-17.9,40-40
			c0-14.8-16.3-42.7-30-63.5c-2.3-3.2-6.1-5.1-10-5.1C318.4,386.4,314.7,388.3,312.3,391.5z M346.3,455c0,13.3-10.7,24-24,24
			c-13.3,0-24-10.7-24-24c0-7.4,9.3-26.6,24-49.5C337,428.4,346.3,447.5,346.3,455z"/>
		<path id="Shape_144_" class="st4" d="M120.3,391.5c-13.7,20.8-30,48.6-30,63.5c0,22.1,17.9,40,40,40s40-17.9,40-40
			c0-14.8-16.3-42.7-30-63.5c-2.3-3.2-6.1-5.1-10-5.1C126.3,386.4,122.6,388.3,120.3,391.5z M154.3,455c0,13.3-10.7,24-24,24
			s-24-10.7-24-24c0-7.4,9.3-26.6,24-49.5C145,428.4,154.3,447.5,154.3,455z"/>
		<path id="Shape_143_" class="st4" d="M50.3,447c17.7,0,32-14.3,32-32c0-9.1-7.4-25-22-47.4c-2.3-3.2-6.1-5.1-10-5.1
			s-7.7,1.9-10,5.1c-14.6,22.4-22,38.3-22,47.4C18.3,432.6,32.6,447,50.3,447z M50.3,381.6c11,17.6,16,29.3,16,33.4
			c0,8.8-7.2,16-16,16s-16-7.2-16-16C34.3,410.9,39.3,399.2,50.3,381.6z"/>
		<path id="Shape_142_" class="st4" d="M408.3,391.6c-14.6,22.4-22,38.3-22,47.4c0,17.7,14.3,32,32,32c17.7,0,32-14.3,32-32
			c0-9.1-7.4-25-22-47.4c-2.3-3.2-6.1-5.1-10-5.1C414.4,386.4,410.7,388.3,408.3,391.6L408.3,391.6z M434.4,438.9
			c0,8.8-7.2,16-16,16c-8.8,0-16-7.2-16-16c0-4.1,5-15.8,16-33.4C429.4,423.2,434.4,434.9,434.4,438.9z"/>
	</g>
</g>
</svg>
