<?xml version="1.0" encoding="utf-8"?>
<!-- Generator: Adobe Illustrator 22.0.1, SVG Export Plug-In . SVG Version: 6.00 Build 0)  -->
<svg version="1.1" id="Layer_1" xmlns="http://www.w3.org/2000/svg" xmlns:xlink="http://www.w3.org/1999/xlink" x="0px" y="0px"
	 viewBox="0 0 514.6 509.8" style="enable-background:new 0 0 514.6 509.8;" xml:space="preserve">
<style type="text/css">
	.st0{fill:#FFFFFF;}
	.st1{fill:#8AE9FF;}
	.st2{fill:#D7F7FF;}
	.st3{fill:#1E85D2;}
</style>
<g id="_x30_15--Dollar-Down_1_">
	<g id="Layer_4_1_" transform="translate(14 1)">
		<path id="Shape_138_" class="st0" d="M328.7,256.1c-14.8-10.7-31.8-18.2-49.8-21.9v-64.5c0-4.7-3.8-8.5-8.5-8.5V97.1
			c29.3,8.2,51.1,30.2,54.5,56.9c0.6,4.2,4.1,7.3,8.4,7.3h34.4c2.4,0,4.7-1.1,6.3-2.9c1.6-1.8,2.4-4.2,2.2-6.6
			C371.4,98.6,327.4,55.2,270.3,45V17.3c0-4.7-3.8-8.5-8.5-8.5h-34.1c-4.7,0-8.5,3.8-8.5,8.5v27.6C158.7,55.7,113,103.8,113,161.3
			c1.3,46.2,29.5,87.6,72.2,105.9c8.1,3.7,16.6,6.4,25.3,8v38.5h-33.3c-1.7,0-3.2,1-3.8,2.5c-0.7,1.5-0.4,3.3,0.7,4.5l45,50.8v40.2
			c-29.3-8.2-51.1-30.2-54.5-56.9c-0.6-4.2-4.1-7.3-8.4-7.3h-34.4c-2.4,0-4.7,1.1-6.3,2.9c-1.6,1.8-2.4,4.2-2.2,6.6
			c4.7,53.3,48.7,96.7,105.8,106.9v27.7c0,4.7,3.8,8.5,8.5,8.5h34.1c4.7,0,8.5-3.8,8.5-8.5V464c60.5-10.8,106.1-58.9,106.1-116.4
			C375.8,311.4,358.1,277.5,328.7,256.1L328.7,256.1z M210.6,169.8v52.8c-1.4-0.4-2.7-1-4-1.6c-24.6-10-41.1-33.3-42.4-59.6
			c0-29.8,23-55.2,54.9-64.2v64.2C214.4,161.3,210.6,165.1,210.6,169.8z M270.3,411.8v-44.5l17.1-19.7l24.1-26.8
			c1.1-1.2,1.4-3,0.7-4.5s-2.2-2.5-3.8-2.5h-29.4V287c6.8,2.3,13.3,5.7,19.1,9.9c6.3,4.7,11.8,10.4,16.3,16.9l1.5,2.3
			c6.1,9.4,9.5,20.4,9.6,31.6C325.3,377.4,302.2,402.8,270.3,411.8z"/>
		<g>
			<path id="Shape_137_" class="st1" d="M376.1,151.9c0.2,2.4-0.6,4.8-2.2,6.6c-1.6,1.8-3.9,2.8-6.3,2.9H342c2.4,0,4.7-1.1,6.3-2.9
				c1.6-1.8,2.4-4.2,2.2-6.6C345.8,98.6,301.8,55.2,244.7,45V17.3c0-4.5-3.6-8.3-8.2-8.5h25.2c4.7,0,8.5,3.8,8.5,8.5V45
				C327.4,55.2,371.4,98.6,376.1,151.9z"/>
			<path id="Shape_136_" class="st1" d="M376.4,347.6c0,57.5-45.6,105.6-106.1,116.4v27.6c0,4.7-3.8,8.5-8.5,8.5h-25.6
				c4.7,0,8.5-3.8,8.5-8.5V464c60.5-10.8,106.1-58.9,106.1-116.4c-0.6-36.2-18.3-70.1-47.8-91.5c-14.8-10.7-31.8-18.2-49.8-21.9
				v-64.5c0-4.7-3.8-8.5-8.5-8.5V97.1c9.2,2.5,17.8,6.5,25.6,11.9v52.3c4.7,0,8.5,3.8,8.5,8.5v64.5c18,3.7,35,11.2,49.8,21.9
				C358.1,277.5,375.8,311.4,376.4,347.6L376.4,347.6z"/>
			<path id="Shape_135_" class="st1" d="M311.4,320.8l-24.1,26.8l-17.1,19.7l-24.2,27.4c-0.4,0.4-0.8,0.8-1.4,1
				c-1.7,0.9-3.8,0.4-5.1-1l-9.6-10.8l-10.9-12.4l-45-50.8c-1.1-1.2-1.4-3-0.7-4.5c0.7-1.5,2.2-2.5,3.8-2.5h33.3v-144
				c0-4.7,3.8-8.5,8.5-8.5h51.2c4.7,0,8.5,3.8,8.5,8.5v144h29.4c1.7,0,3.2,1,3.8,2.5S312.5,319.5,311.4,320.8L311.4,320.8z"/>
		</g>
		<path id="Shape_134_" class="st2" d="M285.9,320.8l-24.1,26.8l-17.1,19.7L230.1,384l-10.9-12.4l-45-50.8c-1.1-1.2-1.4-3-0.7-4.5
			c0.7-1.5,2.2-2.5,3.8-2.5h33.3v-144c0-4.7,3.8-8.5,8.5-8.5h25.6c4.7,0,8.5,3.8,8.5,8.5v144h29.4c1.7,0,3.2,1,3.8,2.5
			S287,319.5,285.9,320.8z"/>
	</g>
	<g id="Layer_3_1_" transform="translate(14 1)">
		<path id="Shape_133_" class="st2" d="M210.9,267.2c-42.8-18.3-71-59.6-72.2-105.9c0-57.5,45.6-105.6,106.1-116.4V17.3
			c0-4.5-3.6-8.3-8.2-8.5h-8.9c-4.7,0-8.5,3.8-8.5,8.5v27.6C158.7,55.7,113,103.8,113,161.3c1.3,46.2,29.5,87.6,72.2,105.9
			c8.1,3.7,16.6,6.4,25.3,8L210.9,267.2z"/>
		<path id="Shape_132_" class="st2" d="M227.7,500.1h8.5c4.7,0,8.5-3.8,8.5-8.5v-27.7C187.7,453.8,143.7,410.3,139,357
			c-0.2-2.4,0.6-4.8,2.2-6.6c1.6-1.8,3.9-2.8,6.3-2.9h-25.6c-2.4,0-4.7,1.1-6.3,2.9c-1.6,1.8-2.4,4.2-2.2,6.6
			c4.7,53.3,48.7,96.7,105.8,106.9v27.7C219.2,496.3,223,500.1,227.7,500.1z"/>
	</g>
	<path id="Shape_131_" class="st2" d="M140.7,93.9l14,9.7c-12.3,17.1-18.9,37.6-19.1,58.6h-17.1C118.7,137.8,126.4,113.9,140.7,93.9
		L140.7,93.9z"/>
	<g>
		<path id="Shape_130_" class="st3" d="M506.1,433.3h-59.7c-4.7,0-8.5,3.8-8.5,8.5s3.8,8.5,8.5,8.5h59.7c4.7,0,8.5-3.8,8.5-8.5
			S510.8,433.3,506.1,433.3z"/>
		<path id="Shape_129_" class="st3" d="M395.2,450.3h17.1c4.7,0,8.5-3.8,8.5-8.5s-3.8-8.5-8.5-8.5h-17.1c-4.7,0-8.5,3.8-8.5,8.5
			S390.5,450.3,395.2,450.3z"/>
		<path id="Shape_106_" class="st3" d="M506.1,475.7H369.6c-4.7,0-8.5,3.8-8.5,8.5c0,4.7,3.8,8.5,8.5,8.5h136.5
			c4.7,0,8.5-3.8,8.5-8.5C514.6,479.5,510.8,475.7,506.1,475.7z"/>
		<path id="Shape_105_" class="st3" d="M11.4,450.3h59.7c4.7,0,8.5-3.8,8.5-8.5s-3.8-8.5-8.5-8.5H11.4c-4.7,0-8.5,3.8-8.5,8.5
			S6.7,450.3,11.4,450.3z"/>
		<path id="Shape_104_" class="st3" d="M105.2,433.3c-4.7,0-8.5,3.8-8.5,8.5s3.8,8.5,8.5,8.5h17.1c4.7,0,8.5-3.8,8.5-8.5
			s-3.8-8.5-8.5-8.5H105.2z"/>
		<path id="Shape_103_" class="st3" d="M11.4,492.6h136.5c4.7,0,8.5-3.8,8.5-8.5c0-4.7-3.8-8.5-8.5-8.5H11.4c-4.7,0-8.5,3.8-8.5,8.5
			C2.9,488.8,6.7,492.6,11.4,492.6z"/>
		<path id="Shape_102_" class="st3" d="M241.7,509.6h34.1c9.4,0,17.1-7.6,17.1-16.9v-20.7c61.9-14,106.1-64.9,106.1-123.3
			c-0.6-38.9-19.6-75.3-51.2-98.3c-13.9-10.1-29.7-17.4-46.4-21.6v-58c0-6-3.3-11.6-8.5-14.6v-19.3c4.7,0,8.5-3.8,8.5-8.5
			c0-4.7-3.8-8.5-8.5-8.5v-9.7c19.7,7.7,33.9,25.1,37.5,45.8c1.1,8.4,8.3,14.7,16.8,14.7h34.4c4.8,0,9.3-2,12.5-5.5
			c3.3-3.6,4.9-8.3,4.5-13.1c-4.8-54.3-47.9-99.8-105.8-113V18.3c0-9.4-7.6-16.9-17.1-16.9h-34.1c-9.4,0-17.1,7.6-17.1,16.9v20.9
			c-33.8,7.4-63.7,26.9-84,54.8c-1.4,1.9-2,4.2-1.5,6.5s1.9,4.3,3.9,5.5c3.9,2.3,8.9,1.3,11.6-2.2c19.1-26.2,47.9-44,80-49.4v-0.2
			c4-0.7,7-4.1,7-8.2V18.3h34.1V46c0,0.3,0.1,0.6,0.2,0.9c0.1,1.1,0.4,2.2,1,3.1c0.5,1,1.2,1.8,2.1,2.4c0.4,0.3,0.9,0.6,1.3,0.8
			c0.5,0.3,1,0.5,1.6,0.6c0.3,0.1,0.6,0.3,0.9,0.3c53.9,9.6,94.5,50.5,98.8,99.5l-34.3,0.1c-5.4-31.1-28.8-56-59.6-63.6
			c-0.3-0.1-0.6-0.2-1-0.3c-0.4-0.1-0.8-0.1-1.2-0.1c-0.4-0.1-0.8-0.2-1.2-0.3c-0.2,0-0.4,0.1-0.5,0.1c-1.1,0.2-2.2,0.4-3.2,0.8
			c-0.4,0.2-0.9,0.5-1.2,0.8c-0.5,0.3-0.9,0.7-1.3,1.1c-0.3,0.4-0.6,0.8-0.9,1.3c-0.3,0.5-0.6,1-0.8,1.6c-0.1,0.2-0.2,0.3-0.2,0.5
			c-0.1,0.4-0.1,0.8-0.1,1.2c-0.1,0.4-0.2,0.7-0.2,1.1v21.9h-34.1V98.1c0-0.4-0.1-0.8-0.2-1.2c0-0.4,0-0.8-0.1-1.2
			c-0.1-0.2-0.2-0.3-0.2-0.5c-0.2-0.6-0.5-1.1-0.9-1.6c-0.2-0.5-0.5-0.9-0.9-1.3c-0.4-0.4-0.8-0.7-1.3-1c-0.4-0.3-0.8-0.6-1.3-0.8
			c-0.5-0.2-1-0.4-1.5-0.5c-0.6-0.2-1.1-0.3-1.7-0.3c-0.2,0-0.3-0.1-0.5-0.1c-0.8,0.2-1.5,0.3-2.3,0.3
			c-36.5,10.3-61.1,39.3-61.1,72.3c1.2,29.3,19.3,55.3,46.4,66.8v36.2c-4.5-1.3-9-2.9-13.3-4.9c-39.7-16.9-66-55.2-67.3-98.2
			c0-4.7-3.8-8.5-8.5-8.5s-8.5,3.8-8.5,8.5c1.3,49.5,31.4,93.8,77.2,113.6c6.6,2.9,13.4,5.3,20.4,6.9v23.5H182c-3.3,0-6.4,1.9-7.8,5
			c-1.4,3-0.8,6.6,1.4,9.1l49.1,55.5v25c-19.7-7.8-33.9-25.2-37.5-45.9c-1.1-8.4-8.3-14.7-16.8-14.7h-34.4c-4.8,0-9.3,2-12.5,5.5
			c-3.3,3.6-4.9,8.3-4.5,13.1c4.8,54.3,47.8,99.9,105.8,113.1v20.8C224.6,502,232.3,509.6,241.7,509.6L241.7,509.6z M330.7,348.6
			c-1.1,23.3-15.9,43.8-37.9,52.1v-29.2l34.8-39.4C329.6,337.5,330.7,343,330.7,348.6z M301.4,301.3c1.9,1,3.7,2.2,5.5,3.4
			c0.7,0.5,1.2,1.1,1.8,1.6h-7.3V301.3z M275.8,136.9v16.9h-34.1v-16.9H275.8z M186.8,162.3c1.1-23.3,15.9-43.8,37.9-52.1v9.8
			c-4.7,0-8.5,3.8-8.5,8.5c0,4.7,3.8,8.5,8.5,8.5v19.3c-5.3,3-8.5,8.6-8.5,14.6v39.2C198.7,200.1,187.6,182.1,186.8,162.3z
			 M224.6,323.2c4.7,0,8.5-3.8,8.5-8.5v-144h51.2v144c0,4.7,3.8,8.5,8.5,8.5h20l-56,63.4L239.6,367l-0.1-0.1l-38.7-43.7H224.6z
			 M135.9,357.1l34.3-0.1c5.5,31.5,29.4,56.6,60.6,64c2.6,0.7,5.3,0.2,7.5-1.4c2.1-1.6,3.4-4.1,3.4-6.8v-17.7l8.8,9.9
			c1.6,1.8,3.9,2.9,6.4,2.9c2.4,0,4.8-1,6.4-2.9l12.6-14.2v22c0,0.4,0.1,0.8,0.2,1.2c0,0.4,0,0.8,0.1,1.2c0.1,0.2,0.2,0.3,0.3,0.5
			c0.1,0.4,0.3,0.7,0.5,1.1c0.3,0.6,0.7,1.1,1.1,1.6c0.2,0.3,0.5,0.5,0.8,0.8c0.5,0.4,1.1,0.8,1.7,1.1c0.3,0.2,0.6,0.3,0.9,0.4
			c1.7,0.7,3.6,0.8,5.4,0.3c36.6-10.3,61.1-39.3,61.1-72.4c-0.1-10.8-2.9-21.5-8.1-31c0.8-2,0.7-4.3-0.2-6.3
			c-1.3-2.8-4.1-4.7-7.2-4.9c-4.4-5.7-9.6-10.9-15.4-15.2c-4.9-3.5-10.1-6.4-15.6-8.7v-36.2c13,3.7,25.3,9.7,36.2,17.7
			c27.3,19.8,43.7,51.1,44.4,84.7c0,52.4-41.7,97.8-99.1,108c-4.1,0.7-7,4.2-7,8.3v27.6h-34.1v-27.7c0-4.1-3-7.6-7-8.3
			C180.8,447,140.2,406.2,135.9,357.1L135.9,357.1z"/>
		<path id="Shape_101_" class="st3" d="M130.2,137.1c4.4,1.1,8.9-1.4,10.3-5.7c1.4-4.3-0.9-8.9-5.2-10.5c-3-1.1-6.3-0.5-8.6,1.6
			c-2.4,2.1-3.4,5.3-2.6,8.3C124.7,134,127.1,136.3,130.2,137.1z"/>
	</g>
</g>
</svg>
