<?xml version="1.0" encoding="utf-8"?>
<!-- Generator: Adobe Illustrator 22.0.1, SVG Export Plug-In . SVG Version: 6.00 Build 0)  -->
<svg version="1.1" id="Layer_1" xmlns="http://www.w3.org/2000/svg" xmlns:xlink="http://www.w3.org/1999/xlink" x="0px" y="0px"
	 viewBox="0 0 514.6 509.8" style="enable-background:new 0 0 514.6 509.8;" xml:space="preserve">
<style type="text/css">
	.st0{fill:#D7F7FF;}
	.st1{fill:#8AE9FF;}
	.st2{fill:#E8ECF7;}
	.st3{fill:#FFFFFF;}
	.st4{fill:#CCD8EF;}
	.st5{fill:#1E85D2;}
	.st6{fill:none;stroke:#1E85D2;stroke-width:16;stroke-miterlimit:10;}
</style>
<g id="Page-1_8_">
	<g id="_083---Money-Bag">
		<path id="Shape_270_" class="st0" d="M-1187.5,836.4h-11.6c-9.3,0-16.9,7.4-17.1,16.8v239.2c-28.7,14.9-64.1,20.4-102.4,20.4
			c-94.3,0-170.7-33.5-170.7-150.7c0-41.3,13.1-81.6,37.2-115.1c13.5-18.7,28.5-36.2,45-52.3h178.1c2.1,0,4.3-0.3,6.3-0.9l-1.5,1.4
			C-1211.1,807.9-1198.8,821.8-1187.5,836.4L-1187.5,836.4z"/>
		<path id="Shape-2" class="st1" d="M-1224.2,795l1.5-1.4c-2.1,0.6-4.2,0.9-6.3,0.9h-20.3l-0.6,0.5c13.1,13,25.4,26.8,36.7,41.4
			h-11.6c-9.3,0-16.9,7.4-17.1,16.8v239.2c-28,13.3-58.6,20.2-89.6,20.2c4.3,0.2,8.5,0.2,12.8,0.2c38.3,0,73.7-5.5,102.4-20.4V853.1
			c0.1-9.3,7.8-16.8,17.1-16.8h11.6C-1198.8,821.8-1211.1,807.9-1224.2,795z"/>
		<path id="Shape-3" class="st2" d="M-1224.2,795l-0.5-0.5"/>
		<path id="Shape-4" class="st0" d="M-1207.7,773.6c-0.1,9.2-6.2,17.3-15,20c-2.1,0.6-4.2,0.9-6.3,0.9h-179.2
			c-11.6,0.3-21.1-8.9-21.4-20.5s8.9-21.1,20.5-21.4c0.3,0,0.6,0,0.9,0h179.2c5.6,0,11.1,2.2,15.1,6.1
			C-1209.9,762.6-1207.7,768-1207.7,773.6z"/>
		<path id="Shape-5" class="st0" d="M-1213.9,758.7c-4-3.9-9.5-6.1-15.1-6.1h-25.6c10.5-0.1,19.5,7.5,21.1,17.8
			c1.5,10.3-4.8,20.2-14.8,23.2c-2.1,0.6-4.2,0.9-6.3,0.9h25.6c2.1,0,4.3-0.3,6.3-0.9c7.1-2.1,12.5-7.8,14.4-15
			C-1206.5,771.4-1208.6,763.9-1213.9,758.7z"/>
		<path id="Rectangle-path_9_" class="st0" d="M-1199.1,836.4h187.7c9.3-0.1,17,7.4,17.1,16.7c0,0,0,0,0,0V1096
			c-0.1,9.3-7.7,16.8-17.1,16.8c0,0,0,0,0,0h-187.7c-9.3,0.1-17-7.4-17.1-16.7c0,0,0,0,0,0V853.1
			C-1216.1,843.8-1208.5,836.3-1199.1,836.4C-1199.1,836.4-1199.1,836.4-1199.1,836.4z"/>
		<path id="Shape-6" class="st3" d="M-1011.4,836.4h-25.6c9.3,0,16.9,7.4,17.1,16.8V1096c-0.1,9.3-7.8,16.8-17.1,16.8h25.6
			c9.3,0,16.9-7.4,17.1-16.8V853.1C-994.5,843.8-1002.1,836.3-1011.4,836.4z"/>
		<path id="Rectangle-path-2" class="st3" d="M-1165,878.2h119.5c4.7,0,8.5,3.7,8.5,8.4c0,0,0,0,0,0v33.5c0,4.7-3.9,8.4-8.5,8.4
			c0,0,0,0,0,0H-1165c-4.7,0-8.5-3.7-8.5-8.4c0,0,0,0,0,0v-33.5C-1173.5,881.9-1169.7,878.2-1165,878.2
			C-1165,878.2-1165,878.2-1165,878.2z"/>
		<path id="Shape-7" class="st1" d="M-1045.5,878.2h-25.6c4.7,0,8.5,3.7,8.5,8.4c0,0,0,0,0,0v33.5c0,4.7-3.9,8.4-8.5,8.4
			c0,0,0,0,0,0h25.6c4.7,0,8.5-3.7,8.5-8.4c0,0,0,0,0,0v-33.5C-1037,881.9-1040.8,878.2-1045.5,878.2
			C-1045.5,878.2-1045.5,878.2-1045.5,878.2z"/>
		<path id="Shape-8" class="st1" d="M-1250.3,752.6h-136.5c0,0-73.7-97-51.2-117.2c11.4-10.3,29.9,16.8,59.6,16.8
			s29.9-25.2,59.7-25.2s29.9,25.1,59.8,25.1c30,0,48.3-27,59.7-16.8C-1176.6,655.7-1250.3,752.6-1250.3,752.6z"/>
		<path id="Shape-9" class="st3" d="M-1199.1,635.4c-5.7-5.1-13-1-22.6,4.3c11.1,27-54.2,112.9-54.2,112.9h25.6
			C-1250.3,752.6-1176.6,655.7-1199.1,635.4z"/>
		<path id="Shape-10" class="st3" d="M-1284.5,652.1c4.5,0,8.9-0.6,13.2-1.8c-18.3-5.7-22.4-23.3-47.4-23.3c-4.3,0-8.7,0.7-12.8,2
			C-1313.6,634.8-1309.4,652.1-1284.5,652.1z"/>
		<path id="Shape-11" class="st4" d="M-1404,652.1c4.2,0,8.4-0.6,12.4-1.8c-22.2-5.8-36.8-23.6-46.4-14.9c-1.3,1.2-2.3,2.7-3,4.3
			C-1430,647.1-1417.2,651.4-1404,652.1z"/>
		<path id="Shape-12" class="st3" d="M-1331.4,1112.5c8.3,0.3,16.8,0.3,25.3,0c-88.2-3.1-157.6-38.7-157.6-150.5
			c0-70,33.8-119,82.2-167.5c-7.6,0.2-14.7-3.6-18.8-10c-4-6.4-4.2-14.4-0.6-20.9c3.7-6.6,10.6-10.8,18.2-10.9h21.3
			c0,0-65.3-85.9-54.2-112.9c-5.3-3.9-11.7-6.1-18.3-6.4c-3.4,0.7-6.1,3.2-7.3,6.5c-11.1,26.9,54.2,112.9,54.2,112.9h-21.3
			c-7.6,0.2-14.5,4.3-18.2,10.9c-3.6,6.6-3.4,14.6,0.6,20.9c4,6.4,11.2,10.2,18.8,10c-48.4,48.5-82.2,97.5-82.2,167.5
			C-1489.3,1073.9-1419.7,1109.4-1331.4,1112.5z"/>
		<path id="Shape-13" class="st3" d="M-1470.5,1024.9l-16,5.8c-7.7-22.1-11.5-45.3-11.3-68.7h17.1
			C-1480.9,983.4-1477.5,1004.6-1470.5,1024.9z"/>
		<path id="Shape-14" class="st5" d="M-1267.4,907.5c0.2,4.7,4.1,8.4,8.8,8.2c4.5-0.2,8.1-3.8,8.2-8.2c0-27.7-26.1-50.6-59.7-54
			v-8.9c-0.2-4.7-4.1-8.4-8.8-8.2c-4.5,0.2-8.1,3.8-8.2,8.2v8.9c-33.6,3.3-59.7,26.3-59.7,54s26.1,50.6,59.7,54v75.2
			c-24.2-3-42.7-18.5-42.7-37.1c0-4.7-3.8-8.5-8.5-8.5c-4.7,0-8.5,3.8-8.5,8.5c0,27.7,26.1,50.6,59.7,54v8.9
			c0.2,4.7,4.1,8.4,8.8,8.2c4.5-0.2,8.1-3.8,8.2-8.2v-8.9c33.6-3.3,59.7-26.3,59.7-54c0-27.7-26.1-50.6-59.7-54v-75.2
			C-1285.9,873.4-1267.4,888.9-1267.4,907.5z M-1369.8,907.5c0-18.6,18.5-34.1,42.7-37.1v74.2
			C-1351.3,941.7-1369.8,926.2-1369.8,907.5z M-1267.4,999.7c0,18.6-18.5,34.1-42.7,37.1v-74.2
			C-1285.9,965.5-1267.4,981-1267.4,999.7z"/>
		<path id="Shape-15" class="st5" d="M-1481.4,1019.9c-2.2,0.7-4,2.2-5,4.3c-1,2-1,4.4-0.1,6.5c2.9,8,6.6,15.7,10.9,23.1l7.4,10.6
			c2.6,3.4,5.5,6.7,8.5,9.8c12.1,12.4,26.4,22.4,42.3,29.4c15.7,6.5,32.1,11.2,48.9,13.8c16.6,2.4,33.3,3.7,50,3.7
			c24,0.4,48-2.4,71.3-8.1c4.5-1.1,7.2-5.7,6-10.2c0,0,0,0,0-0.1c-1.3-4.5-5.9-7.2-10.4-6c-21.9,5.3-44.4,7.8-66.9,7.5
			c-15.8,0-31.6-1.2-47.3-3.5c-15.3-2.4-30.3-6.6-44.6-12.6c-28-11.8-49.7-34.8-60-63.4C-1472.3,1020.6-1477.1,1018.5-1481.4,1019.9
			L-1481.4,1019.9z"/>
		<path id="Shape-16" class="st5" d="M-1486.6,1003.8c-4.6,0-8.4-3.7-8.4-8.4s3.7-8.4,8.4-8.4l0,0h0.1c4.6-0.2,8.5,3.5,8.7,8.1
			c0.2,4.6-3.5,8.5-8.1,8.7C-1486.2,1003.7-1486.4,1003.7-1486.6,1003.8L-1486.6,1003.8z"/>
		<path id="Shape-17" class="st5" d="M-1467.1,871.3c-4.3-1.9-9.3-0.1-11.3,4.1c-12.8,27.1-19.4,56.7-19.3,86.6
			c0,4.7,3.9,8.4,8.5,8.4c4.7,0,8.5-3.7,8.5-8.4c0,0,0,0,0,0c-0.1-27.5,5.9-54.7,17.8-79.5c1.9-4.2,0.1-9.1-4.1-11.1
			C-1467,871.3-1467.1,871.3-1467.1,871.3z"/>
		<path id="Shape-18" class="st5" d="M-1011.4,828h-187.7c-14-0.1-25.5,11.1-25.6,25.1c0,0,0,0,0,0V1096c0.1,14,11.6,25.2,25.6,25.1
			h187.7c14,0.1,25.5-11.1,25.6-25.1V853.1C-985.9,839.1-997.4,827.9-1011.4,828C-1011.4,828-1011.4,828-1011.4,828z M-1002.9,1096
			c0,4.7-3.9,8.4-8.5,8.4c0,0,0,0,0,0h-187.7c-4.7,0-8.5-3.7-8.5-8.4V853.1c0-4.7,3.9-8.4,8.5-8.4h187.7c4.7,0,8.5,3.7,8.5,8.4
			c0,0,0,0,0,0V1096z"/>
		<path id="Shape-19" class="st5" d="M-1165,936.9h119.5c9.3,0.1,17-7.4,17.1-16.8v-33.5c-0.1-9.3-7.7-16.8-17.1-16.7H-1165
			c-9.3-0.1-17,7.4-17.1,16.7c0,0,0,0,0,0v33.5C-1182,929.4-1174.3,936.9-1165,936.9z M-1165,886.6h119.5v33.5H-1165V886.6z"/>
		<path id="Shape-20" class="st5" d="M-1147.9,962h-25.6c-4.6-0.2-8.5,3.5-8.7,8.1c-0.2,4.6,3.5,8.5,8.1,8.7c0.2,0,0.4,0,0.6,0h25.6
			c4.6,0.2,8.5-3.5,8.7-8.1c0.2-4.6-3.5-8.5-8.1-8.7C-1147.5,962-1147.7,962-1147.9,962z"/>
		<path id="Shape-21" class="st5" d="M-1147.9,995.5h-25.6c-4.6,0-8.4,3.7-8.4,8.4s3.7,8.4,8.4,8.4c0,0,0,0,0,0h25.6
			c4.6,0,8.4-3.7,8.4-8.4S-1143.3,995.5-1147.9,995.5C-1147.9,995.5-1147.9,995.5-1147.9,995.5z"/>
		<path id="Shape-22" class="st5" d="M-1147.9,1029h-25.6c-4.6-0.2-8.5,3.5-8.7,8.1c-0.2,4.6,3.5,8.5,8.1,8.7c0.2,0,0.4,0,0.6,0
			h25.6c4.6,0.2,8.5-3.5,8.7-8.1c0.2-4.6-3.5-8.5-8.1-8.7C-1147.5,1029-1147.7,1029-1147.9,1029z"/>
		<path id="Shape-23" class="st5" d="M-1147.9,1062.5h-25.6c-4.6-0.2-8.5,3.5-8.7,8.1c-0.2,4.6,3.5,8.5,8.1,8.7c0.2,0,0.4,0,0.6,0
			h25.6c4.6,0.2,8.5-3.5,8.7-8.1c0.2-4.6-3.5-8.5-8.1-8.7C-1147.5,1062.5-1147.7,1062.5-1147.9,1062.5z"/>
		<path id="Shape-24" class="st5" d="M-1088.2,962h-25.6c-4.6-0.2-8.5,3.5-8.7,8.1c-0.2,4.6,3.5,8.5,8.1,8.7c0.2,0,0.4,0,0.6,0h25.6
			c4.6,0.2,8.5-3.5,8.7-8.1c0.2-4.6-3.5-8.5-8.1-8.7C-1087.8,962-1088,962-1088.2,962z"/>
		<path id="Shape-25" class="st5" d="M-1088.2,995.5h-25.6c-4.6,0-8.4,3.7-8.4,8.4s3.7,8.4,8.4,8.4c0,0,0,0,0,0h25.6
			c4.6,0,8.4-3.7,8.4-8.4C-1079.8,999.2-1083.6,995.5-1088.2,995.5C-1088.2,995.5-1088.2,995.5-1088.2,995.5z"/>
		<path id="Shape-26" class="st5" d="M-1088.2,1029h-25.6c-4.6-0.2-8.5,3.5-8.7,8.1s3.5,8.5,8.1,8.7c0.2,0,0.4,0,0.6,0h25.6
			c4.6,0.2,8.5-3.5,8.7-8.1c0.2-4.6-3.5-8.5-8.1-8.7C-1087.8,1029-1088,1029-1088.2,1029z"/>
		<path id="Shape-27" class="st5" d="M-1088.2,1062.5h-25.6c-4.6-0.2-8.5,3.5-8.7,8.1s3.5,8.5,8.1,8.7c0.2,0,0.4,0,0.6,0h25.6
			c4.6,0.2,8.5-3.5,8.7-8.1c0.2-4.6-3.5-8.5-8.1-8.7C-1087.8,1062.5-1088,1062.5-1088.2,1062.5z"/>
		<path id="Shape-28" class="st5" d="M-1028.5,962h-25.6c-4.6-0.2-8.5,3.5-8.7,8.1c-0.2,4.6,3.5,8.5,8.1,8.7c0.2,0,0.4,0,0.6,0h25.6
			c4.6,0.2,8.5-3.5,8.7-8.1s-3.5-8.5-8.1-8.7C-1028.1,962-1028.3,962-1028.5,962z"/>
		<path id="Shape-29" class="st5" d="M-1028.5,995.5h-25.6c-4.6,0-8.4,3.7-8.4,8.4s3.7,8.4,8.4,8.4c0,0,0,0,0,0h25.6
			c4.6,0,8.4-3.7,8.4-8.4S-1023.8,995.5-1028.5,995.5C-1028.4,995.5-1028.5,995.5-1028.5,995.5z"/>
		<path id="Shape-30" class="st5" d="M-1028.5,1029h-25.6c-4.6-0.2-8.5,3.5-8.7,8.1s3.5,8.5,8.1,8.7c0.2,0,0.4,0,0.6,0h25.6
			c4.6,0.2,8.5-3.5,8.7-8.1s-3.5-8.5-8.1-8.7C-1028.1,1029-1028.3,1029-1028.5,1029z"/>
		<path id="Shape-31" class="st5" d="M-1028.5,1062.5h-25.6c-4.6-0.2-8.5,3.5-8.7,8.1s3.5,8.5,8.1,8.7c0.2,0,0.4,0,0.6,0h25.6
			c4.6,0.2,8.5-3.5,8.7-8.1s-3.5-8.5-8.1-8.7C-1028.1,1062.5-1028.3,1062.5-1028.5,1062.5z"/>
		<path id="Shape-32" class="st5" d="M-1443.8,629.2c-22.5,20.2,17,82.5,40.3,115h-4.6c-7.9,0-15.5,3-21.1,8.5
			c-11.4,11.1-11.6,29.4-0.5,40.9c2,2,4.3,3.8,6.7,5.1c-10,10.3-19.3,21.2-28.1,32.5c-2.8,3.6-2.1,8.8,1.6,11.6
			c0.1,0,0.1,0.1,0.2,0.1c3.8,2.8,9.1,2.1,12-1.7c10.5-13.5,21.9-26.4,34.1-38.5h174.4c10.6,0,20.5-5.5,25.9-14.6
			c5.3-9,5.3-20.3,0-29.3c-5.4-9.1-15.3-14.7-25.9-14.7h-4.6c23.3-32.5,62.7-94.8,40.3-115c-10.3-9.3-22.4-2.5-33,3.4
			c-9.7,6.5-20.9,10.3-32.5,11.1c-9.2,0-18-3.8-24.3-10.6c-19.6-19.4-51.2-19.4-70.8,0c-6.3,6.7-15.1,10.6-24.4,10.6
			c-11.6-0.8-22.8-4.7-32.5-11.2C-1421.5,626.7-1433.5,620-1443.8,629.2z M-1219.9,764.7c3.7,3.6,4.8,9,2.8,13.7
			c-2,4.7-6.7,7.8-11.9,7.8h-179.2c-6.9,0.2-12.7-5.3-12.9-12.2c-0.2-6.9,5.3-12.7,12.2-12.9c0.2,0,0.5,0,0.7,0h179.2
			C-1225.6,761-1222.4,762.3-1219.9,764.7z M-1378.4,660.5c13.3,0,26-5.2,35.4-14.5c12.6-13.4,33.7-14.1,47.1-1.6
			c0.5,0.5,1.1,1,1.6,1.6c9.4,9.4,22.2,14.6,35.5,14.6c14.6-0.8,28.8-5.4,41-13.3c3.9-2.7,8.3-4.6,13-5.6
			c8.8,7.9-14.4,55.3-49.8,102.7h-21.3v-41.9c-0.2-4.7-4.1-8.4-8.8-8.2c-4.5,0.2-8.1,3.8-8.2,8.2v41.9h-51.2v-41.9
			c0-4.7-3.8-8.5-8.5-8.5c-4.7,0-8.5,3.8-8.5,8.5v41.9h-21.3c-35.4-47.3-58.5-94.8-49.7-102.8c4.6,1.2,8.9,3.1,12.8,5.7
			C-1407.1,655.2-1393,659.8-1378.4,660.5L-1378.4,660.5z"/>
	</g>
</g>
<g>
	<path class="st3" d="M487.4,11.4H27.3c-9.8,0.5-17.4,8.6-17,18.3v334.4h34.1c0-2,0.5-4,1.4-5.8c0.5-0.9,1.2-1.8,1.9-2.6h283.1
		c0.8,0.8,1.4,1.7,1.9,2.6c0.9,1.8,1.4,3.8,1.4,5.8h170.4V29.7C504.8,20,497.2,11.8,487.4,11.4z"/>
	<path id="Shape_299_" class="st3" d="M139.8,497.9h25.6c-9.4-0.1-17-7.5-17-16.8c0-9.3,7.6-16.8,17-16.8h-25.6
		c-9.4,0-17,7.5-17,16.8C122.8,490.3,130.4,497.8,139.8,497.9z"/>
	<path id="Shape_298_" class="st0" d="M504.4,364.1v32.1c0.4,9.7-7.2,17.9-17,18.3H27.3c-9.8-0.5-17.4-8.6-17-18.3v-32.1H504.4z"/>
	<path id="Shape_297_" class="st3" d="M478.8,364.1v32.1c0.4,9.7-7.2,17.9-17,18.3h25.6c9.8-0.5,17.4-8.6,17-18.3v-32.1H478.8z"/>
	<path id="Shape_296_" class="st3" d="M487.4,11.4h-25.6c9.8,0.5,17.4,8.6,17,18.3v334.4h25.6V29.7C504.8,20,497.2,11.8,487.4,11.4z
		"/>
	<path id="Shape_295_" class="st0" d="M351,464.8H163.6l25.6-50.4h136.3L351,464.8z"/>
	<path id="Shape_294_" class="st3" d="M325.5,414.5h-25.6l25.6,50.4H351L325.5,414.5z"/>
	<path id="Shape_293_" class="st1" d="M402.2,481.6c0,9.3-7.6,16.8-17,16.8H129.5c-9.4-0.1-17-7.5-17-16.8c0-9.3,7.6-16.8,17-16.8
		h255.6C394.5,464.9,402.1,472.4,402.2,481.6z"/>
	<path id="Shape_292_" class="st3" d="M397.1,469.8c-3.2-3.2-7.5-5-12-5l-25.6,0c9.4,0.1,17,7.5,17,16.8c0,9.3-7.6,16.8-17,16.8
		h25.6c9.4,0,17-7.5,17-16.8C402.2,477.2,400.4,472.9,397.1,469.8z"/>
	<path id="Shape_291_" class="st3" d="M189.2,464.8l25.6-50.4h-25.6l-25.6,50.4H189.2z"/>
	<path id="Shape_290_" class="st3" d="M129.5,498.4h25.6c-9.4-0.1-17-7.5-17-16.8c0-9.3,7.6-16.8,17-16.8h-25.6
		c-9.4,0-17,7.5-17,16.8C112.5,490.9,120.1,498.4,129.5,498.4z"/>
	<path id="Shape_289_" class="st0" d="M27.3,414.5h25.6c-9.8-0.5-17.4-8.6-17-18.3V29.7c-0.4-9.7,7.2-17.9,17-18.3H27.3
		c-9.8,0.5-17.4,8.6-17,18.3v366.5C9.8,405.8,17.5,414,27.3,414.5z"/>
	<path class="st5" d="M512.9,29.7c0.4-14.3-11-26.3-25.6-26.7v0H27.3C12.7,3.4,1.3,15.4,1.7,29.7c0,4.6,3.8,8.4,8.5,8.4
		c4.7,0,8.5-3.8,8.5-8.4c-0.3-5,3.4-9.4,8.5-9.9h460.1c5.1,0.5,8.8,4.9,8.5,9.9v326h-34.1c-4.7,0-8.5,3.8-8.5,8.4
		c0,4.6,3.8,8.4,8.5,8.4h34.1v23.7c0.3,5-3.4,9.4-8.5,9.9H27.3c-5.1-0.5-8.8-4.9-8.5-9.9v-23.7h409c4.7,0,8.5-3.8,8.5-8.4
		c0-4.6-3.8-8.4-8.5-8.4h-71.6h-15.4H22v0h-3.3V96.9c0-4.6-3.8-8.4-8.5-8.4c-4.7,0-8.5,3.8-8.5,8.4v299.3
		c-0.4,14.3,11,26.3,25.6,26.7h148.1l-17,33.6h-28.8c-14.1,0-25.6,11.3-25.6,25.2c0,13.9,11.4,25.2,25.6,25.2h255.6
		c14.1,0,25.6-11.3,25.6-25.2c0-13.9-11.4-25.2-25.6-25.2h-28.8l-17-33.6h148.1c14.5-0.5,26-12.4,25.6-26.7V29.7z M194.4,422.9
		h125.8l17,33.6H177.4L194.4,422.9z M385.1,473.2c4.7,0,8.5,3.8,8.5,8.4s-3.8,8.4-8.5,8.4H129.5c-4.7,0-8.5-3.8-8.5-8.4
		s3.8-8.4,8.5-8.4H385.1z"/>
	<g>
		<path id="Shape_230_" class="st1" d="M321,78.3L296,85l-51.4,13.7c-1,0.2-2,0.2-2.9,0L190.3,85l-25-6.7c-2.6-0.7-4.4-3-4.4-5.7
			s1.8-5,4.4-5.7l76.4-20.4c1-0.2,2-0.2,2.9,0L321,67c2.6,0.7,4.4,3,4.4,5.7S323.6,77.7,321,78.3L321,78.3z"/>
		<path id="Shape_229_" class="st0" d="M312.2,68.5l-76.4-20.4c-1-0.2-2-0.2-2.9,0l-7.3,2l69.1,18.5c2.6,0.7,4.4,3,4.4,5.7
			c0,2.7-1.8,5-4.4,5.7l-25,6.7l-44,11.8l7.3,2c1,0.2,2,0.2,2.9,0l51.4-13.7l25-6.7c2.6-0.7,4.4-3,4.4-5.7S314.8,69.2,312.2,68.5
			L312.2,68.5z"/>
		<path id="Shape_228_" class="st1" d="M296,85v31.4c0,0-12,11.7-52.8,11.7s-52.9-11.7-52.9-11.7V85l51.4,13.7c1,0.2,2,0.2,2.9,0
			L296,85z"/>
		<path class="st5" d="M189.1,121.8c0,0,13.4,12.2,54.1,12.2s52.8-11.7,52.8-11.7c5-3.7,5.9-5.8,5.9-5.8l0-0.1v-27l11.7-3.1v14.1v0
			c0,6,3,11.6,8,14.9c2.7,1.8,6.3,1.1,8.1-1.6s1.1-6.3-1.6-8.1c-1.8-1.2-2.8-3.1-2.8-5.2v0V82.7c4.1-2.4,6.4-6.9,5.8-11.6
			c-0.6-4.7-4-8.5-8.6-9.8l-76.4-20.4c-2-0.5-4.1-0.5-6,0l-76.4,20.4c-5.1,1.4-8.7,6-8.7,11.3s3.6,9.9,8.7,11.3l20.7,5.5v27
			C184.4,118.5,189.1,121.8,189.1,121.8z M290.1,113.5c-4.5,2.7-18,8.8-46.9,8.8c-28.9,0-42.5-6.2-47-8.8V92.6l43.9,11.7
			c1,0.3,2,0.4,3,0.4c1,0,2-0.1,3-0.4l44-11.7V113.5z M319.5,72.7l-76.3,20.4l-76.4-20.5l76.3-20.4L319.5,72.7L319.5,72.7z"/>
	</g>
	<g>
		<path class="st5" d="M94.5,225.7c-17.7,0-32-14.4-32-32c0-17.7,14.4-32,32-32s32,14.4,32,32C126.5,211.4,112.2,225.7,94.5,225.7z
			 M94.5,177.7c-8.8,0-16,7.2-16,16s7.2,16,16,16c8.8,0,16-7.2,16-16S103.4,177.7,94.5,177.7z"/>
	</g>
	<path class="st5" d="M429,220.9h-69.8c-5.5,0-9.9-4.5-9.9-9.9v0c0-5.5,4.5-9.9,9.9-9.9H429c5.5,0,9.9,4.5,9.9,9.9v0
		C438.9,216.4,434.4,220.9,429,220.9z"/>
	<g>
		<path class="st5" d="M94.5,325.6c-17.7,0-32-14.4-32-32c0-17.7,14.4-32,32-32s32,14.4,32,32C126.5,311.3,112.2,325.6,94.5,325.6z
			 M94.5,277.6c-8.8,0-16,7.2-16,16s7.2,16,16,16c8.8,0,16-7.2,16-16S103.4,277.6,94.5,277.6z"/>
	</g>
	<path class="st5" d="M429,287.6H149.2c-5.5,0-9.9-4.5-9.9-9.9v0c0-5.5,4.5-9.9,9.9-9.9H429c5.5,0,9.9,4.5,9.9,9.9v0
		C438.9,283.2,434.4,287.6,429,287.6z"/>
	<path class="st5" d="M312.3,320.8H149.2c-5.5,0-9.9-4.5-9.9-9.9v0c0-5.5,4.5-9.9,9.9-9.9h163.1c5.5,0,9.9,4.5,9.9,9.9v0
		C322.2,316.3,317.8,320.8,312.3,320.8z"/>
	<circle class="st0" cx="401.3" cy="299.6" r="94.6"/>
	<g>
		<path class="st5" d="M401.3,389.4c-49.5,0-89.8-40.3-89.8-89.8s40.3-89.8,89.8-89.8s89.8,40.3,89.8,89.8S450.8,389.4,401.3,389.4z
			 M401.3,225.7c-40.7,0-73.8,33.1-73.8,73.8s33.1,73.8,73.8,73.8c40.7,0,73.8-33.1,73.8-73.8S442,225.7,401.3,225.7z"/>
	</g>
	<path class="st5" d="M429,187.7H149.2c-5.5,0-9.9-4.5-9.9-9.9v0c0-5.5,4.5-9.9,9.9-9.9H429c5.5,0,9.9,4.5,9.9,9.9v0
		C438.9,183.3,434.4,187.7,429,187.7z"/>
	<path class="st5" d="M318.9,220.9H149.2c-5.5,0-9.9-4.5-9.9-9.9v0c0-5.5,4.5-9.9,9.9-9.9h169.6c5.5,0,9.9,4.5,9.9,9.9v0
		C328.8,216.4,324.3,220.9,318.9,220.9z"/>
	<circle class="st3" cx="397.6" cy="308" r="68.9"/>
	<g>
		<g>
			<path class="st5" d="M343.8,319.3c6.9,6.8,13.6,13.7,20.6,20.4c6.5,6.2,14.9,7.1,21.9,1.2c1.4-1.1,2.7-2.4,4.1-3.6
				c17.3-15.3,34.7-30.6,52-45.9c5.5-4.8,10.9-9.7,16.4-14.5c8.7-7.7-4.1-20.4-12.7-12.7c-12.6,11.1-25.2,22.2-37.7,33.3
				c-8.4,7.4-16.9,14.9-25.3,22.3c-2.5,2.2-5,4.4-7.6,6.7c-0.4,0.4-1.4,0.9-1.6,1.4c0,0.1-0.2,0.1-0.2,0.2c1.3-2.8,4.8,1.3,4.2-0.6
				c-0.5-1.4-3.4-3.3-4.4-4.4c-2.4-2.3-4.7-4.7-7.1-7c-3.2-3.2-6.5-6.4-9.7-9.6C348.3,298.4,335.6,311.2,343.8,319.3L343.8,319.3z"
				/>
		</g>
	</g>
	<circle class="st6" cx="401.3" cy="299.6" r="81.8"/>
</g>
</svg>
