<?xml version="1.0" encoding="utf-8"?>
<!-- Generator: Adobe Illustrator 22.0.1, SVG Export Plug-In . SVG Version: 6.00 Build 0)  -->
<svg version="1.1" id="Layer_1" xmlns="http://www.w3.org/2000/svg" xmlns:xlink="http://www.w3.org/1999/xlink" x="0px" y="0px"
	 viewBox="0 0 514.6 509.8" style="enable-background:new 0 0 514.6 509.8;" xml:space="preserve">
<style type="text/css">
	.st0{fill:#D7F7FF;}
	.st1{fill:#8AE9FF;}
	.st2{fill:#E8ECF7;}
	.st3{fill:#FFFFFF;}
	.st4{fill:#CCD8EF;}
	.st5{fill:#1E85D2;}
	.st6{fill:#7FACFA;}
</style>
<g id="Page-1_8_">
	<g id="_083---Money-Bag">
		<path id="Shape_270_" class="st0" d="M-1187.5,836.4h-11.6c-9.3,0-16.9,7.4-17.1,16.8v239.2c-28.7,14.9-64.1,20.4-102.4,20.4
			c-94.3,0-170.7-33.5-170.7-150.7c0-41.3,13.1-81.6,37.2-115.1c13.5-18.7,28.5-36.2,45-52.3h178.1c2.1,0,4.3-0.3,6.3-0.9l-1.5,1.4
			C-1211.1,807.9-1198.8,821.8-1187.5,836.4L-1187.5,836.4z"/>
		<path id="Shape-2" class="st1" d="M-1224.2,795l1.5-1.4c-2.1,0.6-4.2,0.9-6.3,0.9h-20.3l-0.6,0.5c13.1,13,25.4,26.8,36.7,41.4
			h-11.6c-9.3,0-16.9,7.4-17.1,16.8v239.2c-28,13.3-58.6,20.2-89.6,20.2c4.3,0.2,8.5,0.2,12.8,0.2c38.3,0,73.7-5.5,102.4-20.4V853.1
			c0.1-9.3,7.8-16.8,17.1-16.8h11.6C-1198.8,821.8-1211.1,807.9-1224.2,795z"/>
		<path id="Shape-3" class="st2" d="M-1224.2,795l-0.5-0.5"/>
		<path id="Shape-4" class="st0" d="M-1207.7,773.6c-0.1,9.2-6.2,17.3-15,20c-2.1,0.6-4.2,0.9-6.3,0.9h-179.2
			c-11.6,0.3-21.1-8.9-21.4-20.5s8.9-21.1,20.5-21.4c0.3,0,0.6,0,0.9,0h179.2c5.6,0,11.1,2.2,15.1,6.1
			C-1209.9,762.6-1207.7,768-1207.7,773.6z"/>
		<path id="Shape-5" class="st0" d="M-1213.9,758.7c-4-3.9-9.5-6.1-15.1-6.1h-25.6c10.5-0.1,19.5,7.5,21.1,17.8
			c1.5,10.3-4.8,20.2-14.8,23.2c-2.1,0.6-4.2,0.9-6.3,0.9h25.6c2.1,0,4.3-0.3,6.3-0.9c7.1-2.1,12.5-7.8,14.4-15
			C-1206.5,771.4-1208.6,763.9-1213.9,758.7z"/>
		<path id="Rectangle-path_9_" class="st0" d="M-1199.1,836.4h187.7c9.3-0.1,17,7.4,17.1,16.7c0,0,0,0,0,0V1096
			c-0.1,9.3-7.7,16.8-17.1,16.8c0,0,0,0,0,0h-187.7c-9.3,0.1-17-7.4-17.1-16.7c0,0,0,0,0,0V853.1
			C-1216.1,843.8-1208.5,836.3-1199.1,836.4C-1199.1,836.4-1199.1,836.4-1199.1,836.4z"/>
		<path id="Shape-6" class="st3" d="M-1011.4,836.4h-25.6c9.3,0,16.9,7.4,17.1,16.8V1096c-0.1,9.3-7.8,16.8-17.1,16.8h25.6
			c9.3,0,16.9-7.4,17.1-16.8V853.1C-994.5,843.8-1002.1,836.3-1011.4,836.4z"/>
		<path id="Rectangle-path-2" class="st3" d="M-1165,878.2h119.5c4.7,0,8.5,3.7,8.5,8.4c0,0,0,0,0,0v33.5c0,4.7-3.9,8.4-8.5,8.4
			c0,0,0,0,0,0H-1165c-4.7,0-8.5-3.7-8.5-8.4c0,0,0,0,0,0v-33.5C-1173.5,881.9-1169.7,878.2-1165,878.2
			C-1165,878.2-1165,878.2-1165,878.2z"/>
		<path id="Shape-7" class="st1" d="M-1045.5,878.2h-25.6c4.7,0,8.5,3.7,8.5,8.4c0,0,0,0,0,0v33.5c0,4.7-3.9,8.4-8.5,8.4
			c0,0,0,0,0,0h25.6c4.7,0,8.5-3.7,8.5-8.4c0,0,0,0,0,0v-33.5C-1037,881.9-1040.8,878.2-1045.5,878.2
			C-1045.5,878.2-1045.5,878.2-1045.5,878.2z"/>
		<path id="Shape-8" class="st1" d="M-1250.3,752.6h-136.5c0,0-73.7-97-51.2-117.2c11.4-10.3,29.9,16.8,59.6,16.8
			s29.9-25.2,59.7-25.2s29.9,25.1,59.8,25.1c30,0,48.3-27,59.7-16.8C-1176.6,655.7-1250.3,752.6-1250.3,752.6z"/>
		<path id="Shape-9" class="st3" d="M-1199.1,635.4c-5.7-5.1-13-1-22.6,4.3c11.1,27-54.2,112.9-54.2,112.9h25.6
			C-1250.3,752.6-1176.6,655.7-1199.1,635.4z"/>
		<path id="Shape-10" class="st3" d="M-1284.5,652.1c4.5,0,8.9-0.6,13.2-1.8c-18.3-5.7-22.4-23.3-47.4-23.3c-4.3,0-8.7,0.7-12.8,2
			C-1313.6,634.8-1309.4,652.1-1284.5,652.1z"/>
		<path id="Shape-11" class="st4" d="M-1404,652.1c4.2,0,8.4-0.6,12.4-1.8c-22.2-5.8-36.8-23.6-46.4-14.9c-1.3,1.2-2.3,2.7-3,4.3
			C-1430,647.1-1417.2,651.4-1404,652.1z"/>
		<path id="Shape-12" class="st3" d="M-1331.4,1112.5c8.3,0.3,16.8,0.3,25.3,0c-88.2-3.1-157.6-38.7-157.6-150.5
			c0-70,33.8-119,82.2-167.5c-7.6,0.2-14.7-3.6-18.8-10c-4-6.4-4.2-14.4-0.6-20.9c3.7-6.6,10.6-10.8,18.2-10.9h21.3
			c0,0-65.3-85.9-54.2-112.9c-5.3-3.9-11.7-6.1-18.3-6.4c-3.4,0.7-6.1,3.2-7.3,6.5c-11.1,26.9,54.2,112.9,54.2,112.9h-21.3
			c-7.6,0.2-14.5,4.3-18.2,10.9c-3.6,6.6-3.4,14.6,0.6,20.9c4,6.4,11.2,10.2,18.8,10c-48.4,48.5-82.2,97.5-82.2,167.5
			C-1489.3,1073.9-1419.7,1109.4-1331.4,1112.5z"/>
		<path id="Shape-13" class="st3" d="M-1470.5,1024.9l-16,5.8c-7.7-22.1-11.5-45.3-11.3-68.7h17.1
			C-1480.9,983.4-1477.5,1004.6-1470.5,1024.9z"/>
		<path id="Shape-14" class="st5" d="M-1267.4,907.5c0.2,4.7,4.1,8.4,8.8,8.2c4.5-0.2,8.1-3.8,8.2-8.2c0-27.7-26.1-50.6-59.7-54
			v-8.9c-0.2-4.7-4.1-8.4-8.8-8.2c-4.5,0.2-8.1,3.8-8.2,8.2v8.9c-33.6,3.3-59.7,26.3-59.7,54s26.1,50.6,59.7,54v75.2
			c-24.2-3-42.7-18.5-42.7-37.1c0-4.7-3.8-8.5-8.5-8.5c-4.7,0-8.5,3.8-8.5,8.5c0,27.7,26.1,50.6,59.7,54v8.9
			c0.2,4.7,4.1,8.4,8.8,8.2c4.5-0.2,8.1-3.8,8.2-8.2v-8.9c33.6-3.3,59.7-26.3,59.7-54c0-27.7-26.1-50.6-59.7-54v-75.2
			C-1285.9,873.4-1267.4,888.9-1267.4,907.5z M-1369.8,907.5c0-18.6,18.5-34.1,42.7-37.1v74.2
			C-1351.3,941.7-1369.8,926.2-1369.8,907.5z M-1267.4,999.7c0,18.6-18.5,34.1-42.7,37.1v-74.2
			C-1285.9,965.5-1267.4,981-1267.4,999.7z"/>
		<path id="Shape-15" class="st5" d="M-1481.4,1019.9c-2.2,0.7-4,2.2-5,4.3c-1,2-1,4.4-0.1,6.5c2.9,8,6.6,15.7,10.9,23.1l7.4,10.6
			c2.6,3.4,5.5,6.7,8.5,9.8c12.1,12.4,26.4,22.4,42.3,29.4c15.7,6.5,32.1,11.2,48.9,13.8c16.6,2.4,33.3,3.7,50,3.7
			c24,0.4,48-2.4,71.3-8.1c4.5-1.1,7.2-5.7,6-10.2c0,0,0,0,0-0.1c-1.3-4.5-5.9-7.2-10.4-6c-21.9,5.3-44.4,7.8-66.9,7.5
			c-15.8,0-31.6-1.2-47.3-3.5c-15.3-2.4-30.3-6.6-44.6-12.6c-28-11.8-49.7-34.8-60-63.4C-1472.3,1020.6-1477.1,1018.5-1481.4,1019.9
			L-1481.4,1019.9z"/>
		<path id="Shape-16" class="st5" d="M-1486.6,1003.8c-4.6,0-8.4-3.7-8.4-8.4s3.7-8.4,8.4-8.4l0,0h0.1c4.6-0.2,8.5,3.5,8.7,8.1
			c0.2,4.6-3.5,8.5-8.1,8.7C-1486.2,1003.7-1486.4,1003.7-1486.6,1003.8L-1486.6,1003.8z"/>
		<path id="Shape-17" class="st5" d="M-1467.1,871.3c-4.3-1.9-9.3-0.1-11.3,4.1c-12.8,27.1-19.4,56.7-19.3,86.6
			c0,4.7,3.9,8.4,8.5,8.4c4.7,0,8.5-3.7,8.5-8.4c0,0,0,0,0,0c-0.1-27.5,5.9-54.7,17.8-79.5c1.9-4.2,0.1-9.1-4.1-11.1
			C-1467,871.3-1467.1,871.3-1467.1,871.3z"/>
		<path id="Shape-18" class="st5" d="M-1011.4,828h-187.7c-14-0.1-25.5,11.1-25.6,25.1c0,0,0,0,0,0V1096c0.1,14,11.6,25.2,25.6,25.1
			h187.7c14,0.1,25.5-11.1,25.6-25.1V853.1C-985.9,839.1-997.4,827.9-1011.4,828C-1011.4,828-1011.4,828-1011.4,828z M-1002.9,1096
			c0,4.7-3.9,8.4-8.5,8.4c0,0,0,0,0,0h-187.7c-4.7,0-8.5-3.7-8.5-8.4V853.1c0-4.7,3.9-8.4,8.5-8.4h187.7c4.7,0,8.5,3.7,8.5,8.4
			c0,0,0,0,0,0V1096z"/>
		<path id="Shape-19" class="st5" d="M-1165,936.9h119.5c9.3,0.1,17-7.4,17.1-16.8v-33.5c-0.1-9.3-7.7-16.8-17.1-16.7H-1165
			c-9.3-0.1-17,7.4-17.1,16.7c0,0,0,0,0,0v33.5C-1182,929.4-1174.3,936.9-1165,936.9z M-1165,886.6h119.5v33.5H-1165V886.6z"/>
		<path id="Shape-20" class="st5" d="M-1147.9,962h-25.6c-4.6-0.2-8.5,3.5-8.7,8.1c-0.2,4.6,3.5,8.5,8.1,8.7c0.2,0,0.4,0,0.6,0h25.6
			c4.6,0.2,8.5-3.5,8.7-8.1c0.2-4.6-3.5-8.5-8.1-8.7C-1147.5,962-1147.7,962-1147.9,962z"/>
		<path id="Shape-21" class="st5" d="M-1147.9,995.5h-25.6c-4.6,0-8.4,3.7-8.4,8.4s3.7,8.4,8.4,8.4c0,0,0,0,0,0h25.6
			c4.6,0,8.4-3.7,8.4-8.4S-1143.3,995.5-1147.9,995.5C-1147.9,995.5-1147.9,995.5-1147.9,995.5z"/>
		<path id="Shape-22" class="st5" d="M-1147.9,1029h-25.6c-4.6-0.2-8.5,3.5-8.7,8.1c-0.2,4.6,3.5,8.5,8.1,8.7c0.2,0,0.4,0,0.6,0
			h25.6c4.6,0.2,8.5-3.5,8.7-8.1c0.2-4.6-3.5-8.5-8.1-8.7C-1147.5,1029-1147.7,1029-1147.9,1029z"/>
		<path id="Shape-23" class="st5" d="M-1147.9,1062.5h-25.6c-4.6-0.2-8.5,3.5-8.7,8.1c-0.2,4.6,3.5,8.5,8.1,8.7c0.2,0,0.4,0,0.6,0
			h25.6c4.6,0.2,8.5-3.5,8.7-8.1c0.2-4.6-3.5-8.5-8.1-8.7C-1147.5,1062.5-1147.7,1062.5-1147.9,1062.5z"/>
		<path id="Shape-24" class="st5" d="M-1088.2,962h-25.6c-4.6-0.2-8.5,3.5-8.7,8.1c-0.2,4.6,3.5,8.5,8.1,8.7c0.2,0,0.4,0,0.6,0h25.6
			c4.6,0.2,8.5-3.5,8.7-8.1c0.2-4.6-3.5-8.5-8.1-8.7C-1087.8,962-1088,962-1088.2,962z"/>
		<path id="Shape-25" class="st5" d="M-1088.2,995.5h-25.6c-4.6,0-8.4,3.7-8.4,8.4s3.7,8.4,8.4,8.4c0,0,0,0,0,0h25.6
			c4.6,0,8.4-3.7,8.4-8.4C-1079.8,999.2-1083.6,995.5-1088.2,995.5C-1088.2,995.5-1088.2,995.5-1088.2,995.5z"/>
		<path id="Shape-26" class="st5" d="M-1088.2,1029h-25.6c-4.6-0.2-8.5,3.5-8.7,8.1s3.5,8.5,8.1,8.7c0.2,0,0.4,0,0.6,0h25.6
			c4.6,0.2,8.5-3.5,8.7-8.1c0.2-4.6-3.5-8.5-8.1-8.7C-1087.8,1029-1088,1029-1088.2,1029z"/>
		<path id="Shape-27" class="st5" d="M-1088.2,1062.5h-25.6c-4.6-0.2-8.5,3.5-8.7,8.1s3.5,8.5,8.1,8.7c0.2,0,0.4,0,0.6,0h25.6
			c4.6,0.2,8.5-3.5,8.7-8.1c0.2-4.6-3.5-8.5-8.1-8.7C-1087.8,1062.5-1088,1062.5-1088.2,1062.5z"/>
		<path id="Shape-28" class="st5" d="M-1028.5,962h-25.6c-4.6-0.2-8.5,3.5-8.7,8.1c-0.2,4.6,3.5,8.5,8.1,8.7c0.2,0,0.4,0,0.6,0h25.6
			c4.6,0.2,8.5-3.5,8.7-8.1s-3.5-8.5-8.1-8.7C-1028.1,962-1028.3,962-1028.5,962z"/>
		<path id="Shape-29" class="st5" d="M-1028.5,995.5h-25.6c-4.6,0-8.4,3.7-8.4,8.4s3.7,8.4,8.4,8.4c0,0,0,0,0,0h25.6
			c4.6,0,8.4-3.7,8.4-8.4S-1023.8,995.5-1028.5,995.5C-1028.4,995.5-1028.5,995.5-1028.5,995.5z"/>
		<path id="Shape-30" class="st5" d="M-1028.5,1029h-25.6c-4.6-0.2-8.5,3.5-8.7,8.1s3.5,8.5,8.1,8.7c0.2,0,0.4,0,0.6,0h25.6
			c4.6,0.2,8.5-3.5,8.7-8.1s-3.5-8.5-8.1-8.7C-1028.1,1029-1028.3,1029-1028.5,1029z"/>
		<path id="Shape-31" class="st5" d="M-1028.5,1062.5h-25.6c-4.6-0.2-8.5,3.5-8.7,8.1s3.5,8.5,8.1,8.7c0.2,0,0.4,0,0.6,0h25.6
			c4.6,0.2,8.5-3.5,8.7-8.1s-3.5-8.5-8.1-8.7C-1028.1,1062.5-1028.3,1062.5-1028.5,1062.5z"/>
		<path id="Shape-32" class="st5" d="M-1443.8,629.2c-22.5,20.2,17,82.5,40.3,115h-4.6c-7.9,0-15.5,3-21.1,8.5
			c-11.4,11.1-11.6,29.4-0.5,40.9c2,2,4.3,3.8,6.7,5.1c-10,10.3-19.3,21.2-28.1,32.5c-2.8,3.6-2.1,8.8,1.6,11.6
			c0.1,0,0.1,0.1,0.2,0.1c3.8,2.8,9.1,2.1,12-1.7c10.5-13.5,21.9-26.4,34.1-38.5h174.4c10.6,0,20.5-5.5,25.9-14.6
			c5.3-9,5.3-20.3,0-29.3c-5.4-9.1-15.3-14.7-25.9-14.7h-4.6c23.3-32.5,62.7-94.8,40.3-115c-10.3-9.3-22.4-2.5-33,3.4
			c-9.7,6.5-20.9,10.3-32.5,11.1c-9.2,0-18-3.8-24.3-10.6c-19.6-19.4-51.2-19.4-70.8,0c-6.3,6.7-15.1,10.6-24.4,10.6
			c-11.6-0.8-22.8-4.7-32.5-11.2C-1421.5,626.7-1433.5,620-1443.8,629.2z M-1219.9,764.7c3.7,3.6,4.8,9,2.8,13.7
			c-2,4.7-6.7,7.8-11.9,7.8h-179.2c-6.9,0.2-12.7-5.3-12.9-12.2c-0.2-6.9,5.3-12.7,12.2-12.9c0.2,0,0.5,0,0.7,0h179.2
			C-1225.6,761-1222.4,762.3-1219.9,764.7z M-1378.4,660.5c13.3,0,26-5.2,35.4-14.5c12.6-13.4,33.7-14.1,47.1-1.6
			c0.5,0.5,1.1,1,1.6,1.6c9.4,9.4,22.2,14.6,35.5,14.6c14.6-0.8,28.8-5.4,41-13.3c3.9-2.7,8.3-4.6,13-5.6
			c8.8,7.9-14.4,55.3-49.8,102.7h-21.3v-41.9c-0.2-4.7-4.1-8.4-8.8-8.2c-4.5,0.2-8.1,3.8-8.2,8.2v41.9h-51.2v-41.9
			c0-4.7-3.8-8.5-8.5-8.5c-4.7,0-8.5,3.8-8.5,8.5v41.9h-21.3c-35.4-47.3-58.5-94.8-49.7-102.8c4.6,1.2,8.9,3.1,12.8,5.7
			C-1407.1,655.2-1393,659.8-1378.4,660.5L-1378.4,660.5z"/>
	</g>
</g>
<g id="Page-1_2_">
	<g id="_x30_31---World-Location" transform="translate(0 -1)">
		<path id="Shape_267_" class="st3" d="M304.6,490.2c-48.6,16.8-101.9,13.9-148.4-7.9l7-4c22.3-12.6,48.4-17.2,73.7-13
			c7.9,1.3,15.7,3.4,23.1,6.4l31.4,12.4C291.4,484.1,297.2,486.6,304.6,490.2L304.6,490.2z"/>
		<path id="Shape_266_" class="st0" d="M436.3,306.6c0,39.2-11.9,77.5-34.3,109.8c-8.7-7.4-19.4-12.1-30.8-13.3
			c-6.3-1.6-12.9-2.1-19.4-1.4c-9.6,2.5-18.5,7-26.2,13.1c-9.8,6.2-21.7,12.3-22.8,25.1c-1.1,12.1,6.8,23.3,18.7,26.3l22.2,5.5
			c-12.2,7.7-25.3,13.9-39,18.5c-7.4-3.5-13.2-6.1-13.2-6.1L260,471.7c-7.4-3-15.2-5.1-23.1-6.4c-25.3-4.2-51.4,0.4-73.7,13l-7,4
			c-9.3-4.4-18.2-9.5-26.8-15.3c5.5-6,9.9-12.9,12.8-20.5c5.8-16,7-33.2,3.7-49.8c-7.8-35.1-47.9-48.5-61.4-79.9
			c-5.3-12.3,4.1-27,18.2-21.5c4.9,2.5,9.7,5.4,14.1,8.6c7.1,4.1,16.1,3.4,22.4-1.9c2.9-3.3,4.4-7.7,4-12.1
			c-0.3-6.5-3.2-12.5-3.5-19c-0.3-9.2,6.8-14.2,12.4-20.5c8.5-9.6,24.7-22,18-36.6c-4.2-9.1-15.4-11.2-23.9-14.6
			c-8.6-3.3-16.9-7.4-24.8-12.2c-7.6-4.9-14.8-10.2-22.1-15.5c10.4-10.7,22-20.1,34.6-28.2l16.4,10.8c15.2,10,33.1,15.3,51.3,15.3
			c5,0,10-0.4,15-1.2l18.2-3c4.2,24.4,12.2,48.1,23.8,70.1c-0.8,0.2-1.5,0.4-2.2,0.7c-15.4,5.2-28.2,16-35.6,30.3
			c-8.4,18.6-0.1,27.8,12.4,40.9c11.1,12.1,18.5,27.1,21.1,43.3c2.6,14.9-2.9,33.4,17.5,37.4c21,4.2,26.6-18.9,30.1-34.3
			c2.9-15.2,6.8-30.2,11.7-45c11.6,11.7,24.2,22.3,37.7,31.8c30.9-22,57.4-49.5,78.3-81c0.3-0.3,0.5-0.8,0.8-1.1
			C434.2,274.1,436.3,290.3,436.3,306.6L436.3,306.6z"/>
		<g>
			<path id="Shape_265_" class="st6" d="M325.5,340.4c0,0,5-3.3,12.8-9.6c-8.7-7-17-14.4-24.9-22.2c-2.2,6-4,12.1-5.5,18.3
				C318.5,335.8,325.5,340.4,325.5,340.4z"/>
			<path id="Shape_264_" class="st6" d="M113.7,302l0.1-0.1c-3.4-2.6-7.1-4.9-11.1-6.7c-6.1-2.9-13.4-0.7-16.9,5
				c1.8,1.3,3.6,2.5,5.5,3.6C98.4,308,107.4,307.2,113.7,302z"/>
			<path id="Shape_263_" class="st1" d="M232.9,235.3c-0.8,0.2-1.5,0.4-2.2,0.7c-15.4,5.2-28.2,16-35.6,30.3
				c-8.4,18.6-0.1,27.8,12.4,40.9c11.1,12.1,18.5,27.1,21.1,43.3c2.6,14.9-2.9,33.4,17.5,37.4c5.8,1.5,12,0.1,16.5-3.8
				c-9.5-7.2-6.3-21.6-8.4-33.7c-2.7-16.1-10-31.2-21.1-43.3c-12.4-13.1-20.8-22.3-12.4-40.9c7.5-14.3,20.2-25.2,35.6-30.3
				c0.7-0.3,1.5-0.5,2.2-0.7c-11.6-22-19.6-45.6-23.8-70.1l-18.2,3c-2.2,0.4-4.4,0.6-6.6,0.8C214.3,192.2,222.1,214.5,232.9,235.3
				L232.9,235.3z"/>
			<path id="Shape_262_" class="st6" d="M124.7,154.1c15.2,10,33.1,15.3,51.3,15.3c4.3,0,8.5-0.3,12.8-0.9c-3.3-0.4-6.5-1-9.7-1.8
				c-10.3-2.5-20-6.8-28.8-12.6l-16.4-10.8c-4.3,2.7-8.4,5.7-12.4,8.7L124.7,154.1z"/>
			<path id="Shape_261_" class="st1" d="M430.1,258.3c-0.3,0.3-0.5,0.8-0.8,1.1c-6.1,9.2-12.7,18.1-19.8,26.6
				c4.7,41.8-4.6,83.9-26.4,119.9c7.1,1.9,13.5,5.5,18.9,10.5C433.9,370.2,444.1,312.5,430.1,258.3L430.1,258.3z"/>
			<path id="Shape_260_" class="st1" d="M302.7,439.9c1.1-12.8,13-18.9,22.8-25.1c6.4-4.6,13.4-8.5,20.7-11.6l-0.6-0.1
				c-6.3-1.6-12.9-2.1-19.4-1.4c-9.6,2.5-18.5,7-26.2,13.1c-9.8,6.2-21.7,12.3-22.8,25.1c-1.1,12.1,6.8,23.3,18.7,26.3l22.2,5.5
				c-8,5-16.4,9.4-25.1,13.1c2.2,1,6.5,2.9,11.7,5.4c13.7-4.6,26.8-10.8,39-18.5l-22.2-5.5C309.5,463.1,301.6,452,302.7,439.9z"/>
			<path id="Shape_259_" class="st6" d="M143.1,475.4c4.3,2.4,8.6,4.7,13,6.8l7-4c13.1-7.3,27.5-12,42.5-13.7
				C184.1,462.1,162.4,465.9,143.1,475.4L143.1,475.4z"/>
		</g>
		<path id="Shape_258_" class="st0" d="M152.2,250.4c-5.5,6.3-12.6,11.2-12.4,20.5c0.3,6.5,3.2,12.5,3.5,19c0.4,4.4-1.1,8.8-4,12.1
			c-6.3,5.3-15.3,6-22.4,1.9c-4.5-3.2-9.2-6.1-14.1-8.6c-14.1-5.6-23.5,9.2-18.2,21.5c13.5,31.4,53.5,44.9,61.4,79.9
			c3.4,16.6,2.1,33.8-3.7,49.8c-2.9,7.6-7.2,14.6-12.8,20.5c-47.6-32.4-78.3-83.8-84.1-140.8s14-113.5,54.1-154.6
			c7.2,5.2,14.5,10.6,22.1,15.5c7.9,4.8,16.2,8.9,24.8,12.2c8.5,3.5,19.8,5.5,23.9,14.6C176.9,228.4,160.7,240.8,152.2,250.4z"/>
		<path id="Shape_257_" class="st1" d="M234.7,165.2l-18.2,3c-5,0.8-10,1.2-15,1.2c-18.2,0-36.1-5.3-51.3-15.3l-16.4-10.8
			c29.6-19,63.8-29.7,99-30.9c-0.8,5.5-1.2,11.1-1.2,16.7C231.7,141.2,232.7,153.3,234.7,165.2z"/>
		<path id="Shape_255_" class="st0" d="M402,416.4c-15.4,22.3-35.2,41.1-58.4,55.3l-22.2-5.5c-11.9-3-19.8-14.2-18.7-26.3
			c1.1-12.8,13-18.9,22.8-25.1c7.7-6.1,16.7-10.6,26.2-13.1c6.5-0.7,13.1-0.2,19.4,1.4C382.6,404.3,393.4,409,402,416.4L402,416.4z"
			/>
		<path id="Shape_254_" class="st0" d="M313.4,308.6c-4.8,14.7-8.7,29.7-11.7,45c-3.5,15.4-9,38.5-30.1,34.3
			c-20.4-4.1-14.8-22.6-17.5-37.4c-2.7-16.1-10-31.2-21.1-43.3c-12.4-13.1-20.8-22.3-12.4-40.9c7.5-14.3,20.2-25.2,35.6-30.3
			c0.7-0.3,1.5-0.5,2.2-0.7c3.6,6.8,7.3,13.4,11.2,19.5c0.9,1.6,2,3,3,4.6C284.5,277.1,298.2,293.6,313.4,308.6L313.4,308.6z"/>
		<path id="Shape_253_" class="st1" d="M272.7,259.4c-1-1.5-2-3-3-4.6c-3.9-6.2-7.7-12.7-11.2-19.5c-0.8,0.2-1.5,0.4-2.2,0.7
			c-6.3,2.3-12.3,5.5-17.7,9.5c1.9,3.2,3.7,6.3,5.7,9.4c0.9,1.6,2,3,3,4.6c11.8,17.8,25.4,34.3,40.6,49.3
			c-4.8,14.7-8.7,29.7-11.7,45c-2.3,10.1-5.6,23.7-13.6,30.5c2.7,1.9,5.8,3.2,9.1,3.8c21,4.2,26.6-18.9,30.1-34.3
			c2.9-15.2,6.8-30.2,11.7-45C298.2,293.6,284.6,277.1,272.7,259.4L272.7,259.4z"/>
		<path id="Shape_252_" class="st3" d="M459.8,80.5C440.5,38.1,398,10.8,351.1,10.8s-89.5,27.3-108.7,69.7
			c-4.7,10.1-7.8,20.8-9.4,31.9c-0.8,5.5-1.2,11.1-1.2,16.7c0,12.1,1,24.2,3,36.1c4.2,24.4,12.2,48.1,23.8,70.1
			c3.6,6.8,7.3,13.4,11.2,19.5c0.9,1.6,2,3,3,4.6c11.8,17.8,25.4,34.3,40.6,49.3c11.6,11.7,24.2,22.3,37.7,31.8
			c30.9-22,57.4-49.5,78.3-81c0.3-0.3,0.5-0.8,0.8-1.1c0.8-1.1,1.5-2.3,2.2-3.5c24.4-37.5,37.6-81.1,38-125.7
			C470.4,112.4,466.8,95.8,459.8,80.5L459.8,80.5z M351.1,205.2c-42.4,0-76.7-34.1-76.7-76.1s34.3-76.1,76.7-76.1
			s76.7,34.1,76.7,76.1c0,20.2-8.1,39.5-22.5,53.8C390.9,197.2,371.4,205.2,351.1,205.2z"/>
		<path id="Shape_251_" class="st1" d="M459.8,80.5c-21-46.8-70.2-74.8-121.5-69c42.1,4.5,78.6,30.7,96,69
			c7,15.3,10.6,31.8,10.6,48.6c-0.4,44.6-13.6,88.2-38,125.7c-0.7,1.2-1.4,2.4-2.2,3.5c-0.3,0.3-0.5,0.8-0.8,1.1
			c-18,27-40.1,51.1-65.5,71.5c7.8,6.2,12.8,9.6,12.8,9.6c30.9-22,57.4-49.5,78.3-81c0.3-0.3,0.5-0.8,0.8-1.1
			c0.8-1.1,1.5-2.3,2.2-3.5c24.4-37.5,37.6-81.1,38-125.7C470.4,112.4,466.8,95.8,459.8,80.5L459.8,80.5z"/>
		<ellipse id="Oval" class="st3" cx="351.1" cy="129.1" rx="76.7" ry="76.1"/>
		<path id="Shape_250_" class="st1" d="M351.1,53.1c-4.3,0-8.6,0.4-12.8,1.1c36.9,6.1,63.9,37.8,63.9,74.9s-27,68.8-63.9,74.9
			c28.6,5,57.6-6.5,74.9-29.7c17.3-23.2,19.9-54,6.7-79.7S380.1,52.9,351.1,53.1L351.1,53.1z"/>
		<path id="Shape_249_" class="st3" d="M232.9,112.4c-105.3,4-188.6,89.7-188.7,194.2c0.1,53.7,22.5,105,62,141.8
			s92.6,55.7,146.6,52.3C152.4,494,73.3,412.8,70.1,312.9c-3.2-99.9,70.5-186,170.4-199L232.9,112.4z"/>
		<path id="Shape_248_" class="st3" d="M48.2,237.5l16,5.8c-7.4,20.3-11.3,41.7-11.4,63.3h-17C35.9,283,40.1,259.7,48.2,237.5z"/>
		<path id="Shape_247_" class="st5" d="M47.5,281.4c-4.7,0-8.5-3.7-8.6-8.4c0-4.7,3.8-8.5,8.5-8.5h0.1c4.7,0,8.5,3.8,8.5,8.5
			S52.2,281.4,47.5,281.4z"/>
		<path id="Shape_50_" class="st5" d="M478.9,129.1c0.1-18-3.8-35.7-11.3-52.1C446.9,31.6,401.3,2.4,351.1,2.4
			c-50.3,0-95.9,29.2-116.5,74.7c-4,8.8-7,18-8.8,27.5c-17.8,1.4-35.4,4.9-52.5,10.4c-14.9,5.3-29.2,12.3-42.6,20.7
			c-1,0.4-1.8,1-2.6,1.7c-2.8,1.8-5.6,3.6-8.3,5.5c-8.8,6.5-17.2,13.7-24.9,21.5c-1,0.6-1.8,1.4-2.5,2.3c-0.2,0.2-0.2,0.5-0.3,0.7
			c-19.4,20.1-34.4,44-43.9,70.2c-0.8,2.1-0.8,4.5,0.2,6.5c1,2.1,2.7,3.6,4.9,4.3c4.4,1.4,9.2-0.8,10.9-5.1
			c8-22.3,20.4-42.8,36.4-60.3c5.2,3.8,10.6,7.6,16.1,11.2c8.3,5.1,17.1,9.4,26.2,12.9c1.8,0.7,3.8,1.4,5.7,2.1
			c7.1,2.5,11.9,4.4,13.7,8.2c3,6.4-2.9,13.3-11.6,22.2c-1.8,1.9-3.5,3.6-5,5.3c-1,1.1-2,2.2-3.1,3.3c-7,5.7-11.2,14.1-11.4,23.1
			c0.3,3.9,0.9,7.7,2,11.4c0.7,2.5,1.2,5,1.5,7.6c0.2,2.1-0.3,4.2-1.6,5.9c-3.6,2.4-8.2,2.6-11.9,0.5c-1.6-0.9-3-1.9-4.5-3
			c-3.3-2.5-7-4.6-10.8-6.2c-8.3-3.7-18.1-1.8-24.5,4.6c-7,7.5-8.9,18.5-4.7,27.9c7.5,14.8,18.2,27.9,31.3,38.3
			c13.3,12.2,25.9,23.7,29.6,40.2c3,15.1,1.9,30.7-3.4,45.2c-1.5,4.2-3.7,8.1-6.3,11.6c-47.2-35.1-75-90.2-75-148.7
			c0-4.7-3.8-8.5-8.5-8.5s-8.5,3.8-8.5,8.5c0,66.4,32.9,128.6,87.9,166.5c0.1,0.1,0.1,0.2,0.2,0.2c0.3,0.2,0.6,0.3,0.9,0.5
			c92.7,63.2,219.4,40.1,283.5-51.6c33.3-47.2,44.5-106.3,31-162.4c0.1-0.2,0.3-0.4,0.3-0.5C464.9,220.5,478.6,175.4,478.9,129.1
			L478.9,129.1z M250.1,84c17.9-39.4,57.4-64.8,101-64.8s83.1,25.4,101,64.8c6.5,14.2,9.8,29.6,9.8,45.1
			c-0.4,43.1-13.2,85.3-36.9,121.4c-0.6,1.1-1.3,2.1-2,3.1l-0.7,1.1c-19.3,28.9-43.4,54.3-71.2,75.3c-27.8-21-51.9-46.5-71.2-75.4
			l-0.7-1c-0.7-1-1.4-2-2.2-3.3c-23.6-36.1-36.4-78.2-36.7-121.2C240.2,113.6,243.6,98.2,250.1,84L250.1,84z M262.4,259
			c0.9,1.4,1.7,2.8,2.6,4.1l0.6,0.8c11.2,16.8,23.9,32.5,38,46.9c-3.4,10.3-5.8,21-8.1,31.3c-0.7,3.2-1.4,6.4-2.1,9.5
			c-5.2,22.8-10.2,29.9-20.1,27.9c-8.1-1.6-9.1-5.2-9.7-18.5c-0.4-22.2-9.1-43.5-24.4-59.7c-12.6-13.3-16.7-18.6-10.8-31.7
			c5.6-10.8,14.9-19.3,26.2-23.9C257.1,250.3,259.6,254.7,262.4,259L262.4,259z M178.9,131c14.5-4.7,29.5-7.8,44.8-9.3
			c-0.2,2.5-0.4,4.9-0.4,7.5c0,9.7,0.7,19.5,2,29.1l-10.1,1.7c-11.3,1.8-22.9,1.3-34-1.4c-9.3-2.3-18.1-6.1-26.1-11.4l-4.8-3.2
			C159.4,138.8,169,134.5,178.9,131L178.9,131z M176,481.3c18.6-8.3,39.3-11,59.5-7.7c7.3,1.2,14.4,3.2,21.3,5.9l22.6,8.9
			C245,495.7,209.1,493.3,176,481.3L176,481.3z M342.1,462.6l-18.7-4.6c-7.8-2-13-9.4-12.2-17.4c0.6-6.9,6.4-11,16-16.9l2.9-1.8
			c1.6-1,3.1-2,4.7-3c5.4-4.2,11.7-7.2,18.4-8.9c5.5-0.5,11.1,0,16.5,1.4c7.2,1,14.2,3.3,20.6,6.7
			C376.9,435.6,360.7,450.7,342.1,462.6L342.1,462.6z M399.8,404.1c-8.3-4.7-17.4-7.9-26.9-9.2c-7.3-1.8-14.9-2.3-22.5-1.5
			c-9.1,2-17.7,5.9-25.1,11.5c-1.4,0.9-2.9,1.9-4.4,2.8l-2.7,1.7c-9.6,5.9-22.7,14-24,29.8c-1.4,16.3,9.2,31.2,25.1,35.3l1.1,0.3
			c-5,2.3-10.1,4.5-15.3,6.4c-6-2.8-10.3-4.7-10.6-4.8l-31.4-12.4c-8-3.2-16.3-5.5-24.9-6.9c-27.3-4.5-55.3,0.5-79.4,14l-2.9,1.7
			c-4.8-2.4-9.5-5-14.1-7.8c3.5-4.8,6.3-10,8.4-15.6c6.3-17.4,7.7-36.3,3.9-54.4c-4.9-21.8-20-35.6-34.7-49
			c-11.2-8.8-20.5-19.8-27.1-32.4c-1.5-3.2-1-6.9,1.3-9.6c0.9-1,2.6-2.1,6-0.7c2.6,1.2,5.1,2.6,7.3,4.4c1.8,1.3,3.7,2.5,5.7,3.7
			c10.5,6,23.6,4.7,32.7-3.2c4.7-5,7-11.7,6.5-18.5c-0.3-3.7-1-7.4-2-11c-0.8-2.5-1.3-5.2-1.5-7.8c-0.1-3.7,2.2-6.3,6.6-10.8
			c1.2-1.3,2.4-2.5,3.6-3.8c1.3-1.5,2.9-3.1,4.5-4.8c9.1-9.4,22.8-23.5,14.8-40.9c-5-8.8-13.6-15-23.5-17.1c-1.7-0.6-3.4-1.2-5-1.8
			c-8.1-3.1-15.9-6.9-23.3-11.5c-4.5-2.9-8.9-6-13.3-9.2c5.4-5.1,11.2-9.9,17.1-14.3c1.4-1,2.9-1.9,4.3-2.8l11.4,7.5
			c16.6,11,36.1,16.8,56,16.7c5.5,0,11-0.4,16.4-1.3l10-1.7c4,19.3,10.3,38,18.8,55.8c-14.8,6.4-26.8,17.8-33.9,32.1
			c-10.9,24,1.7,37.3,13.9,50.2c10,10.9,16.6,24.4,18.9,38.9c0.5,3.3,0.8,6.6,0.9,9.9c0.5,11.9,1.3,29.9,23.3,34.3
			c2.2,0.5,4.5,0.7,6.8,0.7c23.9,0,30.4-28.6,33.3-41.4c0.7-3.1,1.4-6.4,2.2-9.7c1.6-7.2,3.3-14.5,5.2-21.6
			c9.1,8.4,18.8,16.2,29,23.2c2.9,1.9,6.6,1.9,9.4,0c26.7-19,50.3-42,69.9-68.2c1.3,9,2,18.2,2,27.3
			C427.8,341,418.1,374.8,399.8,404.1L399.8,404.1z"/>
		<path id="Shape_49_" class="st5" d="M351.1,213.6c47.1,0,85.2-37.8,85.2-84.5s-38.2-84.5-85.2-84.5s-85.2,37.8-85.2,84.5
			C265.9,175.8,304,213.6,351.1,213.6z M351.1,61.5c37.7,0,68.2,30.3,68.2,67.6s-30.5,67.6-68.2,67.6s-68.2-30.3-68.2-67.6
			C282.9,91.8,313.4,61.6,351.1,61.5z"/>
	</g>
</g>
</svg>
