<?xml version="1.0" encoding="utf-8"?>
<!-- Generator: Adobe Illustrator 22.0.1, SVG Export Plug-In . SVG Version: 6.00 Build 0)  -->
<svg version="1.1" id="Layer_1" xmlns="http://www.w3.org/2000/svg" xmlns:xlink="http://www.w3.org/1999/xlink" x="0px" y="0px"
	 viewBox="0 0 514.6 509.8" style="enable-background:new 0 0 514.6 509.8;" xml:space="preserve">
<style type="text/css">
	.st0{fill:#D7F7FF;}
	.st1{fill:#8AE9FF;}
	.st2{fill:#E8ECF7;}
	.st3{fill:#FFFFFF;}
	.st4{fill:#CCD8EF;}
	.st5{fill:#1E85D2;}
</style>
<g id="Page-1_8_">
	<g id="_083---Money-Bag">
		<path id="Shape_270_" class="st0" d="M-1187.5,836.4h-11.6c-9.3,0-16.9,7.4-17.1,16.8v239.2c-28.7,14.9-64.1,20.4-102.4,20.4
			c-94.3,0-170.7-33.5-170.7-150.7c0-41.3,13.1-81.6,37.2-115.1c13.5-18.7,28.5-36.2,45-52.3h178.1c2.1,0,4.3-0.3,6.3-0.9l-1.5,1.4
			C-1211.1,807.9-1198.8,821.8-1187.5,836.4L-1187.5,836.4z"/>
		<path id="Shape-2" class="st1" d="M-1224.2,795l1.5-1.4c-2.1,0.6-4.2,0.9-6.3,0.9h-20.3l-0.6,0.5c13.1,13,25.4,26.8,36.7,41.4
			h-11.6c-9.3,0-16.9,7.4-17.1,16.8v239.2c-28,13.3-58.6,20.2-89.6,20.2c4.3,0.2,8.5,0.2,12.8,0.2c38.3,0,73.7-5.5,102.4-20.4V853.1
			c0.1-9.3,7.8-16.8,17.1-16.8h11.6C-1198.8,821.8-1211.1,807.9-1224.2,795z"/>
		<path id="Shape-3" class="st2" d="M-1224.2,795l-0.5-0.5"/>
		<path id="Shape-4" class="st0" d="M-1207.7,773.6c-0.1,9.2-6.2,17.3-15,20c-2.1,0.6-4.2,0.9-6.3,0.9h-179.2
			c-11.6,0.3-21.1-8.9-21.4-20.5s8.9-21.1,20.5-21.4c0.3,0,0.6,0,0.9,0h179.2c5.6,0,11.1,2.2,15.1,6.1
			C-1209.9,762.6-1207.7,768-1207.7,773.6z"/>
		<path id="Shape-5" class="st0" d="M-1213.9,758.7c-4-3.9-9.5-6.1-15.1-6.1h-25.6c10.5-0.1,19.5,7.5,21.1,17.8
			c1.5,10.3-4.8,20.2-14.8,23.2c-2.1,0.6-4.2,0.9-6.3,0.9h25.6c2.1,0,4.3-0.3,6.3-0.9c7.1-2.1,12.5-7.8,14.4-15
			C-1206.5,771.4-1208.6,763.9-1213.9,758.7z"/>
		<path id="Rectangle-path_9_" class="st0" d="M-1199.1,836.4h187.7c9.3-0.1,17,7.4,17.1,16.7c0,0,0,0,0,0V1096
			c-0.1,9.3-7.7,16.8-17.1,16.8c0,0,0,0,0,0h-187.7c-9.3,0.1-17-7.4-17.1-16.7c0,0,0,0,0,0V853.1
			C-1216.1,843.8-1208.5,836.3-1199.1,836.4C-1199.1,836.4-1199.1,836.4-1199.1,836.4z"/>
		<path id="Shape-6" class="st3" d="M-1011.4,836.4h-25.6c9.3,0,16.9,7.4,17.1,16.8V1096c-0.1,9.3-7.8,16.8-17.1,16.8h25.6
			c9.3,0,16.9-7.4,17.1-16.8V853.1C-994.5,843.8-1002.1,836.3-1011.4,836.4z"/>
		<path id="Rectangle-path-2" class="st3" d="M-1165,878.2h119.5c4.7,0,8.5,3.7,8.5,8.4c0,0,0,0,0,0v33.5c0,4.7-3.9,8.4-8.5,8.4
			c0,0,0,0,0,0H-1165c-4.7,0-8.5-3.7-8.5-8.4c0,0,0,0,0,0v-33.5C-1173.5,881.9-1169.7,878.2-1165,878.2
			C-1165,878.2-1165,878.2-1165,878.2z"/>
		<path id="Shape-7" class="st1" d="M-1045.5,878.2h-25.6c4.7,0,8.5,3.7,8.5,8.4c0,0,0,0,0,0v33.5c0,4.7-3.9,8.4-8.5,8.4
			c0,0,0,0,0,0h25.6c4.7,0,8.5-3.7,8.5-8.4c0,0,0,0,0,0v-33.5C-1037,881.9-1040.8,878.2-1045.5,878.2
			C-1045.5,878.2-1045.5,878.2-1045.5,878.2z"/>
		<path id="Shape-8" class="st1" d="M-1250.3,752.6h-136.5c0,0-73.7-97-51.2-117.2c11.4-10.3,29.9,16.8,59.6,16.8
			s29.9-25.2,59.7-25.2s29.9,25.1,59.8,25.1c30,0,48.3-27,59.7-16.8C-1176.6,655.7-1250.3,752.6-1250.3,752.6z"/>
		<path id="Shape-9" class="st3" d="M-1199.1,635.4c-5.7-5.1-13-1-22.6,4.3c11.1,27-54.2,112.9-54.2,112.9h25.6
			C-1250.3,752.6-1176.6,655.7-1199.1,635.4z"/>
		<path id="Shape-10" class="st3" d="M-1284.5,652.1c4.5,0,8.9-0.6,13.2-1.8c-18.3-5.7-22.4-23.3-47.4-23.3c-4.3,0-8.7,0.7-12.8,2
			C-1313.6,634.8-1309.4,652.1-1284.5,652.1z"/>
		<path id="Shape-11" class="st4" d="M-1404,652.1c4.2,0,8.4-0.6,12.4-1.8c-22.2-5.8-36.8-23.6-46.4-14.9c-1.3,1.2-2.3,2.7-3,4.3
			C-1430,647.1-1417.2,651.4-1404,652.1z"/>
		<path id="Shape-12" class="st3" d="M-1331.4,1112.5c8.3,0.3,16.8,0.3,25.3,0c-88.2-3.1-157.6-38.7-157.6-150.5
			c0-70,33.8-119,82.2-167.5c-7.6,0.2-14.7-3.6-18.8-10c-4-6.4-4.2-14.4-0.6-20.9c3.7-6.6,10.6-10.8,18.2-10.9h21.3
			c0,0-65.3-85.9-54.2-112.9c-5.3-3.9-11.7-6.1-18.3-6.4c-3.4,0.7-6.1,3.2-7.3,6.5c-11.1,26.9,54.2,112.9,54.2,112.9h-21.3
			c-7.6,0.2-14.5,4.3-18.2,10.9c-3.6,6.6-3.4,14.6,0.6,20.9c4,6.4,11.2,10.2,18.8,10c-48.4,48.5-82.2,97.5-82.2,167.5
			C-1489.3,1073.9-1419.7,1109.4-1331.4,1112.5z"/>
		<path id="Shape-13" class="st3" d="M-1470.5,1024.9l-16,5.8c-7.7-22.1-11.5-45.3-11.3-68.7h17.1
			C-1480.9,983.4-1477.5,1004.6-1470.5,1024.9z"/>
		<path id="Shape-14" class="st5" d="M-1267.4,907.5c0.2,4.7,4.1,8.4,8.8,8.2c4.5-0.2,8.1-3.8,8.2-8.2c0-27.7-26.1-50.6-59.7-54
			v-8.9c-0.2-4.7-4.1-8.4-8.8-8.2c-4.5,0.2-8.1,3.8-8.2,8.2v8.9c-33.6,3.3-59.7,26.3-59.7,54s26.1,50.6,59.7,54v75.2
			c-24.2-3-42.7-18.5-42.7-37.1c0-4.7-3.8-8.5-8.5-8.5c-4.7,0-8.5,3.8-8.5,8.5c0,27.7,26.1,50.6,59.7,54v8.9
			c0.2,4.7,4.1,8.4,8.8,8.2c4.5-0.2,8.1-3.8,8.2-8.2v-8.9c33.6-3.3,59.7-26.3,59.7-54c0-27.7-26.1-50.6-59.7-54v-75.2
			C-1285.9,873.4-1267.4,888.9-1267.4,907.5z M-1369.8,907.5c0-18.6,18.5-34.1,42.7-37.1v74.2
			C-1351.3,941.7-1369.8,926.2-1369.8,907.5z M-1267.4,999.7c0,18.6-18.5,34.1-42.7,37.1v-74.2
			C-1285.9,965.5-1267.4,981-1267.4,999.7z"/>
		<path id="Shape-15" class="st5" d="M-1481.4,1019.9c-2.2,0.7-4,2.2-5,4.3c-1,2-1,4.4-0.1,6.5c2.9,8,6.6,15.7,10.9,23.1l7.4,10.6
			c2.6,3.4,5.5,6.7,8.5,9.8c12.1,12.4,26.4,22.4,42.3,29.4c15.7,6.5,32.1,11.2,48.9,13.8c16.6,2.4,33.3,3.7,50,3.7
			c24,0.4,48-2.4,71.3-8.1c4.5-1.1,7.2-5.7,6-10.2c0,0,0,0,0-0.1c-1.3-4.5-5.9-7.2-10.4-6c-21.9,5.3-44.4,7.8-66.9,7.5
			c-15.8,0-31.6-1.2-47.3-3.5c-15.3-2.4-30.3-6.6-44.6-12.6c-28-11.8-49.7-34.8-60-63.4C-1472.3,1020.6-1477.1,1018.5-1481.4,1019.9
			L-1481.4,1019.9z"/>
		<path id="Shape-16" class="st5" d="M-1486.6,1003.8c-4.6,0-8.4-3.7-8.4-8.4s3.7-8.4,8.4-8.4l0,0h0.1c4.6-0.2,8.5,3.5,8.7,8.1
			c0.2,4.6-3.5,8.5-8.1,8.7C-1486.2,1003.7-1486.4,1003.7-1486.6,1003.8L-1486.6,1003.8z"/>
		<path id="Shape-17" class="st5" d="M-1467.1,871.3c-4.3-1.9-9.3-0.1-11.3,4.1c-12.8,27.1-19.4,56.7-19.3,86.6
			c0,4.7,3.9,8.4,8.5,8.4c4.7,0,8.5-3.7,8.5-8.4c0,0,0,0,0,0c-0.1-27.5,5.9-54.7,17.8-79.5c1.9-4.2,0.1-9.1-4.1-11.1
			C-1467,871.3-1467.1,871.3-1467.1,871.3z"/>
		<path id="Shape-18" class="st5" d="M-1011.4,828h-187.7c-14-0.1-25.5,11.1-25.6,25.1c0,0,0,0,0,0V1096c0.1,14,11.6,25.2,25.6,25.1
			h187.7c14,0.1,25.5-11.1,25.6-25.1V853.1C-985.9,839.1-997.4,827.9-1011.4,828C-1011.4,828-1011.4,828-1011.4,828z M-1002.9,1096
			c0,4.7-3.9,8.4-8.5,8.4c0,0,0,0,0,0h-187.7c-4.7,0-8.5-3.7-8.5-8.4V853.1c0-4.7,3.9-8.4,8.5-8.4h187.7c4.7,0,8.5,3.7,8.5,8.4
			c0,0,0,0,0,0V1096z"/>
		<path id="Shape-19" class="st5" d="M-1165,936.9h119.5c9.3,0.1,17-7.4,17.1-16.8v-33.5c-0.1-9.3-7.7-16.8-17.1-16.7H-1165
			c-9.3-0.1-17,7.4-17.1,16.7c0,0,0,0,0,0v33.5C-1182,929.4-1174.3,936.9-1165,936.9z M-1165,886.6h119.5v33.5H-1165V886.6z"/>
		<path id="Shape-20" class="st5" d="M-1147.9,962h-25.6c-4.6-0.2-8.5,3.5-8.7,8.1c-0.2,4.6,3.5,8.5,8.1,8.7c0.2,0,0.4,0,0.6,0h25.6
			c4.6,0.2,8.5-3.5,8.7-8.1c0.2-4.6-3.5-8.5-8.1-8.7C-1147.5,962-1147.7,962-1147.9,962z"/>
		<path id="Shape-21" class="st5" d="M-1147.9,995.5h-25.6c-4.6,0-8.4,3.7-8.4,8.4s3.7,8.4,8.4,8.4c0,0,0,0,0,0h25.6
			c4.6,0,8.4-3.7,8.4-8.4S-1143.3,995.5-1147.9,995.5C-1147.9,995.5-1147.9,995.5-1147.9,995.5z"/>
		<path id="Shape-22" class="st5" d="M-1147.9,1029h-25.6c-4.6-0.2-8.5,3.5-8.7,8.1c-0.2,4.6,3.5,8.5,8.1,8.7c0.2,0,0.4,0,0.6,0
			h25.6c4.6,0.2,8.5-3.5,8.7-8.1c0.2-4.6-3.5-8.5-8.1-8.7C-1147.5,1029-1147.7,1029-1147.9,1029z"/>
		<path id="Shape-23" class="st5" d="M-1147.9,1062.5h-25.6c-4.6-0.2-8.5,3.5-8.7,8.1c-0.2,4.6,3.5,8.5,8.1,8.7c0.2,0,0.4,0,0.6,0
			h25.6c4.6,0.2,8.5-3.5,8.7-8.1c0.2-4.6-3.5-8.5-8.1-8.7C-1147.5,1062.5-1147.7,1062.5-1147.9,1062.5z"/>
		<path id="Shape-24" class="st5" d="M-1088.2,962h-25.6c-4.6-0.2-8.5,3.5-8.7,8.1c-0.2,4.6,3.5,8.5,8.1,8.7c0.2,0,0.4,0,0.6,0h25.6
			c4.6,0.2,8.5-3.5,8.7-8.1c0.2-4.6-3.5-8.5-8.1-8.7C-1087.8,962-1088,962-1088.2,962z"/>
		<path id="Shape-25" class="st5" d="M-1088.2,995.5h-25.6c-4.6,0-8.4,3.7-8.4,8.4s3.7,8.4,8.4,8.4c0,0,0,0,0,0h25.6
			c4.6,0,8.4-3.7,8.4-8.4C-1079.8,999.2-1083.6,995.5-1088.2,995.5C-1088.2,995.5-1088.2,995.5-1088.2,995.5z"/>
		<path id="Shape-26" class="st5" d="M-1088.2,1029h-25.6c-4.6-0.2-8.5,3.5-8.7,8.1s3.5,8.5,8.1,8.7c0.2,0,0.4,0,0.6,0h25.6
			c4.6,0.2,8.5-3.5,8.7-8.1c0.2-4.6-3.5-8.5-8.1-8.7C-1087.8,1029-1088,1029-1088.2,1029z"/>
		<path id="Shape-27" class="st5" d="M-1088.2,1062.5h-25.6c-4.6-0.2-8.5,3.5-8.7,8.1s3.5,8.5,8.1,8.7c0.2,0,0.4,0,0.6,0h25.6
			c4.6,0.2,8.5-3.5,8.7-8.1c0.2-4.6-3.5-8.5-8.1-8.7C-1087.8,1062.5-1088,1062.5-1088.2,1062.5z"/>
		<path id="Shape-28" class="st5" d="M-1028.5,962h-25.6c-4.6-0.2-8.5,3.5-8.7,8.1c-0.2,4.6,3.5,8.5,8.1,8.7c0.2,0,0.4,0,0.6,0h25.6
			c4.6,0.2,8.5-3.5,8.7-8.1s-3.5-8.5-8.1-8.7C-1028.1,962-1028.3,962-1028.5,962z"/>
		<path id="Shape-29" class="st5" d="M-1028.5,995.5h-25.6c-4.6,0-8.4,3.7-8.4,8.4s3.7,8.4,8.4,8.4c0,0,0,0,0,0h25.6
			c4.6,0,8.4-3.7,8.4-8.4S-1023.8,995.5-1028.5,995.5C-1028.4,995.5-1028.5,995.5-1028.5,995.5z"/>
		<path id="Shape-30" class="st5" d="M-1028.5,1029h-25.6c-4.6-0.2-8.5,3.5-8.7,8.1s3.5,8.5,8.1,8.7c0.2,0,0.4,0,0.6,0h25.6
			c4.6,0.2,8.5-3.5,8.7-8.1s-3.5-8.5-8.1-8.7C-1028.1,1029-1028.3,1029-1028.5,1029z"/>
		<path id="Shape-31" class="st5" d="M-1028.5,1062.5h-25.6c-4.6-0.2-8.5,3.5-8.7,8.1s3.5,8.5,8.1,8.7c0.2,0,0.4,0,0.6,0h25.6
			c4.6,0.2,8.5-3.5,8.7-8.1s-3.5-8.5-8.1-8.7C-1028.1,1062.5-1028.3,1062.5-1028.5,1062.5z"/>
		<path id="Shape-32" class="st5" d="M-1443.8,629.2c-22.5,20.2,17,82.5,40.3,115h-4.6c-7.9,0-15.5,3-21.1,8.5
			c-11.4,11.1-11.6,29.4-0.5,40.9c2,2,4.3,3.8,6.7,5.1c-10,10.3-19.3,21.2-28.1,32.5c-2.8,3.6-2.1,8.8,1.6,11.6
			c0.1,0,0.1,0.1,0.2,0.1c3.8,2.8,9.1,2.1,12-1.7c10.5-13.5,21.9-26.4,34.1-38.5h174.4c10.6,0,20.5-5.5,25.9-14.6
			c5.3-9,5.3-20.3,0-29.3c-5.4-9.1-15.3-14.7-25.9-14.7h-4.6c23.3-32.5,62.7-94.8,40.3-115c-10.3-9.3-22.4-2.5-33,3.4
			c-9.7,6.5-20.9,10.3-32.5,11.1c-9.2,0-18-3.8-24.3-10.6c-19.6-19.4-51.2-19.4-70.8,0c-6.3,6.7-15.1,10.6-24.4,10.6
			c-11.6-0.8-22.8-4.7-32.5-11.2C-1421.5,626.7-1433.5,620-1443.8,629.2z M-1219.9,764.7c3.7,3.6,4.8,9,2.8,13.7
			c-2,4.7-6.7,7.8-11.9,7.8h-179.2c-6.9,0.2-12.7-5.3-12.9-12.2c-0.2-6.9,5.3-12.7,12.2-12.9c0.2,0,0.5,0,0.7,0h179.2
			C-1225.6,761-1222.4,762.3-1219.9,764.7z M-1378.4,660.5c13.3,0,26-5.2,35.4-14.5c12.6-13.4,33.7-14.1,47.1-1.6
			c0.5,0.5,1.1,1,1.6,1.6c9.4,9.4,22.2,14.6,35.5,14.6c14.6-0.8,28.8-5.4,41-13.3c3.9-2.7,8.3-4.6,13-5.6
			c8.8,7.9-14.4,55.3-49.8,102.7h-21.3v-41.9c-0.2-4.7-4.1-8.4-8.8-8.2c-4.5,0.2-8.1,3.8-8.2,8.2v41.9h-51.2v-41.9
			c0-4.7-3.8-8.5-8.5-8.5c-4.7,0-8.5,3.8-8.5,8.5v41.9h-21.3c-35.4-47.3-58.5-94.8-49.7-102.8c4.6,1.2,8.9,3.1,12.8,5.7
			C-1407.1,655.2-1393,659.8-1378.4,660.5L-1378.4,660.5z"/>
	</g>
</g>
<g>
	<path class="st3" d="M487.4,11.4H27.3c-9.8,0.5-17.4,8.6-17,18.3v334.4h34.1c0-2,0.5-4,1.4-5.8c0.5-0.9,1.2-1.8,1.9-2.6h283.1
		c0.8,0.8,1.4,1.7,1.9,2.6c0.9,1.8,1.4,3.8,1.4,5.8h170.4V29.7C504.8,20,497.2,11.8,487.4,11.4z M470.3,238.1
		c0,13.9-11.4,25.2-25.6,25.2h-104V45h104c14.1,0,25.6,11.3,25.6,25.2V238.1z"/>
	<path id="Shape_282_" class="st3" d="M139.8,497.9h25.6c-9.4-0.1-17-7.5-17-16.8c0-9.3,7.6-16.8,17-16.8h-25.6
		c-9.4,0-17,7.5-17,16.8C122.8,490.3,130.4,497.8,139.8,497.9z"/>
	<path id="Rectangle-path_14_" class="st3" d="M12,29.1h17v67.2H12V29.1z"/>
	<path id="Shape_280_" class="st0" d="M504.4,364.1v32.1c0.4,9.7-7.2,17.9-17,18.3H27.3c-9.8-0.5-17.4-8.6-17-18.3v-32.1H504.4z"/>
	<path id="Shape_277_" class="st3" d="M478.8,364.1v32.1c0.4,9.7-7.2,17.9-17,18.3h25.6c9.8-0.5,17.4-8.6,17-18.3v-32.1H478.8z"/>
	<path id="Shape_272_" class="st3" d="M470.3,70.2v168c0,13.9-11.4,25.2-25.6,25.2H351V45h93.7C458.9,45,470.3,56.2,470.3,70.2z"/>
	<path id="Shape_269_" class="st3" d="M487.4,11.4h-25.6c9.8,0.5,17.4,8.6,17,18.3v334.4h25.6V29.7C504.8,20,497.2,11.8,487.4,11.4z
		"/>
	<path id="Shape_268_" class="st0" d="M351,464.8H163.6l25.6-50.4h136.3L351,464.8z"/>
	<path id="Shape_256_" class="st3" d="M325.5,414.5h-25.6l25.6,50.4H351L325.5,414.5z"/>
	<path id="Shape_246_" class="st1" d="M402.2,481.6c0,9.3-7.6,16.8-17,16.8H129.5c-9.4-0.1-17-7.5-17-16.8c0-9.3,7.6-16.8,17-16.8
		h255.6C394.5,464.9,402.1,472.4,402.2,481.6z"/>
	<path id="Shape_245_" class="st3" d="M397.1,469.8c-3.2-3.2-7.5-5-12-5l-25.6,0c9.4,0.1,17,7.5,17,16.8c0,9.3-7.6,16.8-17,16.8
		h25.6c9.4,0,17-7.5,17-16.8C402.2,477.2,400.4,472.9,397.1,469.8z"/>
	<path id="Shape_244_" class="st0" d="M470.3,70.2v168c0,13.9-11.4,25.2-25.6,25.2H351V45h93.7C458.9,45,470.3,56.2,470.3,70.2z"/>
	<path id="Shape_243_" class="st1" d="M444.8,45h-25.6c14.1,0,25.6,11.3,25.6,25.2v168c0,13.9-11.4,25.2-25.6,25.2h25.6
		c14.1,0,25.6-11.3,25.6-25.2v-168C470.3,56.2,458.9,45,444.8,45z"/>
	<path id="Shape_63_" class="st0" d="M351,45v218.3h-25.6c-4.7,0-8.5-3.8-8.5-8.4V53.4c0-4.6,3.8-8.4,8.5-8.4H351z"/>
	<path id="Rectangle-path_10_" class="st3" d="M393.6,87h34.1c4.7,0,8.5,3.8,8.5,8.4v25.2c0,4.6-3.8,8.4-8.5,8.4h-34.1
		c-4.7,0-8.5-3.8-8.5-8.4V95.4C385.1,90.7,388.9,87,393.6,87z"/>
	<path id="Shape_62_" class="st3" d="M189.2,464.8l25.6-50.4h-25.6l-25.6,50.4H189.2z"/>
	<path id="Shape_61_" class="st3" d="M129.5,498.4h25.6c-9.4-0.1-17-7.5-17-16.8c0-9.3,7.6-16.8,17-16.8h-25.6
		c-9.4,0-17,7.5-17,16.8C112.5,490.9,120.1,498.4,129.5,498.4z"/>
	<path id="Shape_60_" class="st0" d="M27.3,414.5h25.6c-9.8-0.5-17.4-8.6-17-18.3V29.7c-0.4-9.7,7.2-17.9,17-18.3H27.3
		c-9.8,0.5-17.4,8.6-17,18.3v366.5C9.8,405.8,17.5,414,27.3,414.5z"/>
	<g>
		<path id="Shape_59_" class="st5" d="M10.4,71.7c-4.7,0-8.5-3.7-8.6-8.4c0-4.6,3.8-8.4,8.5-8.4h0.1c4.7,0,8.5,3.8,8.5,8.4
			S15.1,71.7,10.4,71.7z"/>
		<path id="Shape_58_" class="st5" d="M444.8,271.7c18.8,0,34.1-15,34.1-33.6v-168c0-18.6-15.3-33.6-34.1-33.6H325.5
			c-9.4,0-17,7.5-17,16.8v201.5c0,9.3,7.6,16.8,17,16.8H444.8z M359.6,53.4h85.2c9.4,0,17,7.5,17,16.8v168c0,9.3-7.6,16.8-17,16.8
			h-85.2V53.4z M325.5,53.4h17v201.5h-17V53.4z"/>
		<path id="Shape_57_" class="st5" d="M393.6,137.3h34.1c9.4,0,17-7.5,17-16.8V95.4c0-9.3-7.6-16.8-17-16.8h-34.1
			c-9.4,0-17,7.5-17,16.8v25.2C376.6,129.8,384.2,137.3,393.6,137.3z M393.6,95.4h34.1v25.2h-34.1V95.4z"/>
		<path id="Shape_56_" class="st5" d="M436.2,170.9h-51.1c-4.7,0-8.5,3.8-8.5,8.4c0,4.6,3.8,8.4,8.5,8.4h51.1c4.7,0,8.5-3.8,8.5-8.4
			C444.8,174.7,441,170.9,436.2,170.9z"/>
		<path id="Shape_54_" class="st5" d="M419.2,204.5h-17c-4.7,0-8.5,3.8-8.5,8.4c0,4.6,3.8,8.4,8.5,8.4h17c4.7,0,8.5-3.8,8.5-8.4
			C427.7,208.3,423.9,204.5,419.2,204.5z"/>
	</g>
	<g>
		<path id="Shape_53_" class="st3" d="M253.1,220.8c-2.5,9.3-8.9,17.1-17.5,21.3c2,13.9-3,27.9-13.5,37.3c-1,0.9-1.8,1.8-2.6,2.7
			c-15,16-15.9,31.1-32.6,31.1h-17.5c-16.7,0-17.6-15.2-32.6-31.1c-0.8-0.9-1.7-1.8-2.6-2.7c-10.5-9.4-15.6-23.4-13.5-37.3
			c-8.7-4.3-15-12-17.5-21.3c0,0-3.2-21.3,3.2-23.6c3.5-1.1,7.4-0.5,10.4,1.6c-0.4-4.3-0.6-9.5-0.7-15.9c0,0,14.3,13.7,62.1,13.7
			s62-13.7,62-13.7c-0.1,6.4-0.3,11.5-0.6,15.8c3-2.1,6.8-2.6,10.3-1.6C256.3,199.6,253.1,220.8,253.1,220.8L253.1,220.8z"/>
		<path id="Shape_52_" class="st1" d="M249.9,197.3c-3.5-1.1-7.3-0.5-10.3,1.6c0.3-4.3,0.6-9.5,0.6-15.8c-6.2,4.7-13.3,7.8-20.9,9.3
			c-0.1,2.4-0.2,4.6-0.4,6.6c3-2.1,6.8-2.6,10.3-1.6c6.5,2.3,3.2,23.6,3.2,23.6c-2.5,9.3-8.9,17.1-17.5,21.3
			c2,13.9-3,27.9-13.5,37.3c-1,0.9-1.8,1.8-2.6,2.7c-14.5,15.4-16,29.9-31,31c0.6,0,1,0.2,1.6,0.2h17.5c16.7,0,17.6-15.2,32.6-31.1
			c0.8-0.9,1.7-1.8,2.6-2.7c10.5-9.4,15.6-23.4,13.5-37.3c8.7-4.3,15-12,17.5-21.3C253.1,220.8,256.3,199.6,249.9,197.3L249.9,197.3
			z"/>
		<path id="Shape_51_" class="st3" d="M219.4,282.2V327l-41.3,41.2L136.7,327v-44.9c15,16,15.9,31.1,32.6,31.1h17.5
			C203.5,313.3,204.4,298.2,219.4,282.2z"/>
		<path id="Shape_48_" class="st0" d="M178.1,368.2h-138V353c0-10.8,8.4-19.8,19.2-20.5l77.3-5.5L178.1,368.2z"/>
		<path id="Shape_47_" class="st1" d="M269.5,138.2l-29.4,7.9l-60.3,16.1c-1.1,0.3-2.3,0.3-3.4,0L116,146.1l-29.4-7.9
			c-3.1-0.8-5.2-3.5-5.2-6.7c0-3.1,2.2-5.9,5.2-6.7l89.7-24c1.1-0.3,2.3-0.3,3.4,0l89.7,24c3.1,0.8,5.2,3.5,5.2,6.7
			C274.7,134.7,272.6,137.4,269.5,138.2L269.5,138.2z"/>
		<path id="Shape_46_" class="st0" d="M269.5,124.9l-89.7-24c-1.1-0.3-2.3-0.3-3.4,0l-8.6,2.3l81.1,21.7c3.1,0.8,5.2,3.5,5.2,6.7
			s-2.2,5.9-5.2,6.7l-29.4,7.9l-51.7,13.8l8.6,2.3c1.1,0.3,2.3,0.3,3.4,0l60.3-16.1l29.4-7.9c3.1-0.8,5.2-3.5,5.2-6.7
			C274.7,128.4,272.6,125.6,269.5,124.9L269.5,124.9z"/>
		<path id="Shape_45_" class="st1" d="M240.1,146.1V183c0,0-14.1,13.7-62,13.7S116,183,116,183v-36.9l60.3,16.1
			c1.1,0.3,2.3,0.3,3.4,0L240.1,146.1z"/>
		<path id="Shape_44_" class="st0" d="M219.4,151.6V183c0,0-12.1,11.7-51.7,13.5c3.3,0.2,6.7,0.3,10.3,0.3c47.9,0,62-13.7,62-13.7
			v-36.9L219.4,151.6z"/>
		<path id="Rectangle-path_7_" class="st0" d="M58.8,325.6l55-3.9l1,13.7l-55,3.9L58.8,325.6z"/>
		<path id="Shape_43_" class="st5" d="M87.1,337.4c-3.8,0-6.9-3-6.9-6.8c0-3.8,3.1-6.9,6.9-6.9h0.1c3.8,0,6.9,3.1,6.9,6.9
			C94,334.4,90.9,337.4,87.1,337.4L87.1,337.4z"/>
		<g>
			<path class="st5" d="M47,360.3v-7.2c0-7.2,5.6-13.1,12.8-13.7c3.8-0.3,6.7-3.6,6.4-7.3c-0.3-3.8-3.6-6.6-7.4-6.4
				c-14.4,1.1-25.6,13-25.6,27.4v7.2H47z"/>
			<path class="st5" d="M84.8,144.8l24.3,6.5V183v0.1c0,2.4,0.1,4.7,0.1,6.8c-1.8,0-3.6,0.3-5.3,1c-9.8,3.5-9.6,18.8-7.7,31.3
				c2.5,9.9,8.6,18.4,17.2,23.9c-1,14.5,4.8,28.7,15.7,38.4c0.2,0.2,0.3,0.4,0.5,0.6v35.7l-15.9,1.1c-2.5,0.1-4.8,1.6-5.9,3.8
				c-1.1,2.2-0.9,4.9,0.5,7c1.4,2.1,3.9,3.2,6.4,2.9l19.2-1.4l26.4,26.2h35.4l26.2-26.2l74.4,5.3c7.2,0.5,12.7,6.4,12.8,13.6v7.3
				H323v-7.4c-0.2-14.3-11.3-26.1-25.7-27.2l-71-5V285c0.2-0.2,0.3-0.4,0.5-0.5c11-9.7,16.8-23.9,15.7-38.4
				c8.7-5.5,14.9-14.2,17.3-24.1c1.9-12.2,2.1-27.6-7.5-31c-1.8-0.7-3.6-1-5.5-1c0.1-2.1,0.1-4.4,0.1-6.8l0-0.1v-31.7l13.8-3.7v16.6
				v0c0,7,3.5,13.6,9.4,17.5c3.2,2.1,7.5,1.3,9.6-1.9s1.3-7.4-1.9-9.5c-2.1-1.4-3.3-3.7-3.3-6.1v0v-20.9c4.8-2.8,7.5-8.2,6.8-13.7
				c-0.7-5.5-4.7-10-10.1-11.5l-89.7-24c-2.3-0.6-4.8-0.6-7.1,0l-89.7,24c-6,1.6-10.2,7.1-10.2,13.3
				C74.6,137.7,78.8,143.2,84.8,144.8z M212.5,324.2l-34.4,34.3l-34.6-34.3V303c5.6,8.7,11.8,17.1,25.7,17.1h17.5
				c13.9,0,20.1-8.5,25.7-17.1V324.2z M246.3,219.6c-2.1,7.2-7.2,13.2-13.9,16.5c-0.2,0.1-0.4,0.2-0.5,0.3l-0.2,0.1
				c-2.8,1.7-4,5.1-2.9,8.2c1.4,11.2-2.9,22.4-11.5,29.9c-5.9,5.9-11.1,12.5-15.4,19.6c-5.9,9.1-8.2,12.2-15,12.2h-17.5
				c-6.8,0-9.2-3.1-15-12.3c-4.3-7.1-9.5-13.7-15.4-19.6c-8.7-7.6-13.1-19.1-11.5-30.5h0c0.7-3-0.6-6.1-3.2-7.7
				c-0.1-0.1-0.3-0.2-0.4-0.2c-6.7-3.3-11.7-9.2-13.9-16.3c-0.9-5.4-1-10.9-0.2-16.3c1.3,0.2,2.5,0.6,3.6,1.3c2.2,1.2,5,1.2,7.1-0.2
				c2.2-1.4,3.3-3.9,3.1-6.4c-0.1-1-0.2-2.1-0.3-3.3c17.5,6.4,36.2,9.3,54.9,8.6c18.6,0.7,37.2-2.2,54.7-8.6
				c-0.1,1.1-0.1,2.3-0.2,3.3c-0.2,2.5,1,4.9,3.1,6.3s4.8,1.5,7.1,0.3c1.1-0.7,2.3-1.1,3.6-1.3C247.3,208.9,247.2,214.3,246.3,219.6
				z M122.9,179.5V155l51.6,13.8c1.2,0.3,2.4,0.5,3.6,0.5c1.2,0,2.4-0.2,3.5-0.5l51.6-13.8v24.5c-5.3,3.2-21.1,10.4-55.1,10.4
				S128.2,182.6,122.9,179.5z M178,107.5l89.8,24h-0.1l-89.6,24l-89.7-24.1L178,107.5z"/>
		</g>
	</g>
	<path class="st5" d="M512.9,29.7c0.4-14.3-11-26.3-25.6-26.7v0H27.3C12.7,3.4,1.3,15.4,1.7,29.7c0,4.6,3.8,8.4,8.5,8.4
		c4.7,0,8.5-3.8,8.5-8.4c-0.3-5,3.4-9.4,8.5-9.9h460.1c5.1,0.5,8.8,4.9,8.5,9.9v326h-34.1c-4.7,0-8.5,3.8-8.5,8.4
		c0,4.6,3.8,8.4,8.5,8.4h34.1v23.7c0.3,5-3.4,9.4-8.5,9.9H27.3c-5.1-0.5-8.8-4.9-8.5-9.9v-23.7h409c4.7,0,8.5-3.8,8.5-8.4
		c0-4.6-3.8-8.4-8.5-8.4h-71.6h-15.4H22v0h-3.3V96.9c0-4.6-3.8-8.4-8.5-8.4c-4.7,0-8.5,3.8-8.5,8.4v299.3
		c-0.4,14.3,11,26.3,25.6,26.7h148.1l-17,33.6h-28.8c-14.1,0-25.6,11.3-25.6,25.2c0,13.9,11.4,25.2,25.6,25.2h255.6
		c14.1,0,25.6-11.3,25.6-25.2c0-13.9-11.4-25.2-25.6-25.2h-28.8l-17-33.6h148.1c14.5-0.5,26-12.4,25.6-26.7V29.7z M194.4,422.9
		h125.8l17,33.6H177.4L194.4,422.9z M385.1,473.2c4.7,0,8.5,3.8,8.5,8.4s-3.8,8.4-8.5,8.4H129.5c-4.7,0-8.5-3.8-8.5-8.4
		s3.8-8.4,8.5-8.4H385.1z"/>
</g>
</svg>
