<?xml version="1.0" encoding="utf-8"?>
<!-- Generator: Adobe Illustrator 22.0.1, SVG Export Plug-In . SVG Version: 6.00 Build 0)  -->
<svg version="1.1" id="Layer_1" xmlns="http://www.w3.org/2000/svg" xmlns:xlink="http://www.w3.org/1999/xlink" x="0px" y="0px"
	 viewBox="0 0 514.6 509.8" style="enable-background:new 0 0 514.6 509.8;" xml:space="preserve">
<style type="text/css">
	.st0{fill:#D7F7FF;}
	.st1{fill:#8AE9FF;}
	.st2{fill:#E8ECF7;}
	.st3{fill:#FFFFFF;}
	.st4{fill:#CCD8EF;}
	.st5{fill:#1E85D2;}
	.st6{fill:#CAD9FC;}
</style>
<g id="Page-1_8_">
	<g id="_083---Money-Bag">
		<path id="Shape_270_" class="st0" d="M-1187.5,836.4h-11.6c-9.3,0-16.9,7.4-17.1,16.8v239.2c-28.7,14.9-64.1,20.4-102.4,20.4
			c-94.3,0-170.7-33.5-170.7-150.7c0-41.3,13.1-81.6,37.2-115.1c13.5-18.7,28.5-36.2,45-52.3h178.1c2.1,0,4.3-0.3,6.3-0.9l-1.5,1.4
			C-1211.1,807.9-1198.8,821.8-1187.5,836.4L-1187.5,836.4z"/>
		<path id="Shape-2" class="st1" d="M-1224.2,795l1.5-1.4c-2.1,0.6-4.2,0.9-6.3,0.9h-20.3l-0.6,0.5c13.1,13,25.4,26.8,36.7,41.4
			h-11.6c-9.3,0-16.9,7.4-17.1,16.8v239.2c-28,13.3-58.6,20.2-89.6,20.2c4.3,0.2,8.5,0.2,12.8,0.2c38.3,0,73.7-5.5,102.4-20.4V853.1
			c0.1-9.3,7.8-16.8,17.1-16.8h11.6C-1198.8,821.8-1211.1,807.9-1224.2,795z"/>
		<path id="Shape-3" class="st2" d="M-1224.2,795l-0.5-0.5"/>
		<path id="Shape-4" class="st0" d="M-1207.7,773.6c-0.1,9.2-6.2,17.3-15,20c-2.1,0.6-4.2,0.9-6.3,0.9h-179.2
			c-11.6,0.3-21.1-8.9-21.4-20.5s8.9-21.1,20.5-21.4c0.3,0,0.6,0,0.9,0h179.2c5.6,0,11.1,2.2,15.1,6.1
			C-1209.9,762.6-1207.7,768-1207.7,773.6z"/>
		<path id="Shape-5" class="st0" d="M-1213.9,758.7c-4-3.9-9.5-6.1-15.1-6.1h-25.6c10.5-0.1,19.5,7.5,21.1,17.8
			c1.5,10.3-4.8,20.2-14.8,23.2c-2.1,0.6-4.2,0.9-6.3,0.9h25.6c2.1,0,4.3-0.3,6.3-0.9c7.1-2.1,12.5-7.8,14.4-15
			C-1206.5,771.4-1208.6,763.9-1213.9,758.7z"/>
		<path id="Rectangle-path_9_" class="st0" d="M-1199.1,836.4h187.7c9.3-0.1,17,7.4,17.1,16.7c0,0,0,0,0,0V1096
			c-0.1,9.3-7.7,16.8-17.1,16.8c0,0,0,0,0,0h-187.7c-9.3,0.1-17-7.4-17.1-16.7c0,0,0,0,0,0V853.1
			C-1216.1,843.8-1208.5,836.3-1199.1,836.4C-1199.1,836.4-1199.1,836.4-1199.1,836.4z"/>
		<path id="Shape-6" class="st3" d="M-1011.4,836.4h-25.6c9.3,0,16.9,7.4,17.1,16.8V1096c-0.1,9.3-7.8,16.8-17.1,16.8h25.6
			c9.3,0,16.9-7.4,17.1-16.8V853.1C-994.5,843.8-1002.1,836.3-1011.4,836.4z"/>
		<path id="Rectangle-path-2" class="st3" d="M-1165,878.2h119.5c4.7,0,8.5,3.7,8.5,8.4c0,0,0,0,0,0v33.5c0,4.7-3.9,8.4-8.5,8.4
			c0,0,0,0,0,0H-1165c-4.7,0-8.5-3.7-8.5-8.4c0,0,0,0,0,0v-33.5C-1173.5,881.9-1169.7,878.2-1165,878.2
			C-1165,878.2-1165,878.2-1165,878.2z"/>
		<path id="Shape-7" class="st1" d="M-1045.5,878.2h-25.6c4.7,0,8.5,3.7,8.5,8.4c0,0,0,0,0,0v33.5c0,4.7-3.9,8.4-8.5,8.4
			c0,0,0,0,0,0h25.6c4.7,0,8.5-3.7,8.5-8.4c0,0,0,0,0,0v-33.5C-1037,881.9-1040.8,878.2-1045.5,878.2
			C-1045.5,878.2-1045.5,878.2-1045.5,878.2z"/>
		<path id="Shape-8" class="st1" d="M-1250.3,752.6h-136.5c0,0-73.7-97-51.2-117.2c11.4-10.3,29.9,16.8,59.6,16.8
			s29.9-25.2,59.7-25.2s29.9,25.1,59.8,25.1c30,0,48.3-27,59.7-16.8C-1176.6,655.7-1250.3,752.6-1250.3,752.6z"/>
		<path id="Shape-9" class="st3" d="M-1199.1,635.4c-5.7-5.1-13-1-22.6,4.3c11.1,27-54.2,112.9-54.2,112.9h25.6
			C-1250.3,752.6-1176.6,655.7-1199.1,635.4z"/>
		<path id="Shape-10" class="st3" d="M-1284.5,652.1c4.5,0,8.9-0.6,13.2-1.8c-18.3-5.7-22.4-23.3-47.4-23.3c-4.3,0-8.7,0.7-12.8,2
			C-1313.6,634.8-1309.4,652.1-1284.5,652.1z"/>
		<path id="Shape-11" class="st4" d="M-1404,652.1c4.2,0,8.4-0.6,12.4-1.8c-22.2-5.8-36.8-23.6-46.4-14.9c-1.3,1.2-2.3,2.7-3,4.3
			C-1430,647.1-1417.2,651.4-1404,652.1z"/>
		<path id="Shape-12" class="st3" d="M-1331.4,1112.5c8.3,0.3,16.8,0.3,25.3,0c-88.2-3.1-157.6-38.7-157.6-150.5
			c0-70,33.8-119,82.2-167.5c-7.6,0.2-14.7-3.6-18.8-10c-4-6.4-4.2-14.4-0.6-20.9c3.7-6.6,10.6-10.8,18.2-10.9h21.3
			c0,0-65.3-85.9-54.2-112.9c-5.3-3.9-11.7-6.1-18.3-6.4c-3.4,0.7-6.1,3.2-7.3,6.5c-11.1,26.9,54.2,112.9,54.2,112.9h-21.3
			c-7.6,0.2-14.5,4.3-18.2,10.9c-3.6,6.6-3.4,14.6,0.6,20.9c4,6.4,11.2,10.2,18.8,10c-48.4,48.5-82.2,97.5-82.2,167.5
			C-1489.3,1073.9-1419.7,1109.4-1331.4,1112.5z"/>
		<path id="Shape-13" class="st3" d="M-1470.5,1024.9l-16,5.8c-7.7-22.1-11.5-45.3-11.3-68.7h17.1
			C-1480.9,983.4-1477.5,1004.6-1470.5,1024.9z"/>
		<path id="Shape-14" class="st5" d="M-1267.4,907.5c0.2,4.7,4.1,8.4,8.8,8.2c4.5-0.2,8.1-3.8,8.2-8.2c0-27.7-26.1-50.6-59.7-54
			v-8.9c-0.2-4.7-4.1-8.4-8.8-8.2c-4.5,0.2-8.1,3.8-8.2,8.2v8.9c-33.6,3.3-59.7,26.3-59.7,54s26.1,50.6,59.7,54v75.2
			c-24.2-3-42.7-18.5-42.7-37.1c0-4.7-3.8-8.5-8.5-8.5c-4.7,0-8.5,3.8-8.5,8.5c0,27.7,26.1,50.6,59.7,54v8.9
			c0.2,4.7,4.1,8.4,8.8,8.2c4.5-0.2,8.1-3.8,8.2-8.2v-8.9c33.6-3.3,59.7-26.3,59.7-54c0-27.7-26.1-50.6-59.7-54v-75.2
			C-1285.9,873.4-1267.4,888.9-1267.4,907.5z M-1369.8,907.5c0-18.6,18.5-34.1,42.7-37.1v74.2
			C-1351.3,941.7-1369.8,926.2-1369.8,907.5z M-1267.4,999.7c0,18.6-18.5,34.1-42.7,37.1v-74.2
			C-1285.9,965.5-1267.4,981-1267.4,999.7z"/>
		<path id="Shape-15" class="st5" d="M-1481.4,1019.9c-2.2,0.7-4,2.2-5,4.3c-1,2-1,4.4-0.1,6.5c2.9,8,6.6,15.7,10.9,23.1l7.4,10.6
			c2.6,3.4,5.5,6.7,8.5,9.8c12.1,12.4,26.4,22.4,42.3,29.4c15.7,6.5,32.1,11.2,48.9,13.8c16.6,2.4,33.3,3.7,50,3.7
			c24,0.4,48-2.4,71.3-8.1c4.5-1.1,7.2-5.7,6-10.2c0,0,0,0,0-0.1c-1.3-4.5-5.9-7.2-10.4-6c-21.9,5.3-44.4,7.8-66.9,7.5
			c-15.8,0-31.6-1.2-47.3-3.5c-15.3-2.4-30.3-6.6-44.6-12.6c-28-11.8-49.7-34.8-60-63.4C-1472.3,1020.6-1477.1,1018.5-1481.4,1019.9
			L-1481.4,1019.9z"/>
		<path id="Shape-16" class="st5" d="M-1486.6,1003.8c-4.6,0-8.4-3.7-8.4-8.4s3.7-8.4,8.4-8.4l0,0h0.1c4.6-0.2,8.5,3.5,8.7,8.1
			c0.2,4.6-3.5,8.5-8.1,8.7C-1486.2,1003.7-1486.4,1003.7-1486.6,1003.8L-1486.6,1003.8z"/>
		<path id="Shape-17" class="st5" d="M-1467.1,871.3c-4.3-1.9-9.3-0.1-11.3,4.1c-12.8,27.1-19.4,56.7-19.3,86.6
			c0,4.7,3.9,8.4,8.5,8.4c4.7,0,8.5-3.7,8.5-8.4c0,0,0,0,0,0c-0.1-27.5,5.9-54.7,17.8-79.5c1.9-4.2,0.1-9.1-4.1-11.1
			C-1467,871.3-1467.1,871.3-1467.1,871.3z"/>
		<path id="Shape-18" class="st5" d="M-1011.4,828h-187.7c-14-0.1-25.5,11.1-25.6,25.1c0,0,0,0,0,0V1096c0.1,14,11.6,25.2,25.6,25.1
			h187.7c14,0.1,25.5-11.1,25.6-25.1V853.1C-985.9,839.1-997.4,827.9-1011.4,828C-1011.4,828-1011.4,828-1011.4,828z M-1002.9,1096
			c0,4.7-3.9,8.4-8.5,8.4c0,0,0,0,0,0h-187.7c-4.7,0-8.5-3.7-8.5-8.4V853.1c0-4.7,3.9-8.4,8.5-8.4h187.7c4.7,0,8.5,3.7,8.5,8.4
			c0,0,0,0,0,0V1096z"/>
		<path id="Shape-19" class="st5" d="M-1165,936.9h119.5c9.3,0.1,17-7.4,17.1-16.8v-33.5c-0.1-9.3-7.7-16.8-17.1-16.7H-1165
			c-9.3-0.1-17,7.4-17.1,16.7c0,0,0,0,0,0v33.5C-1182,929.4-1174.3,936.9-1165,936.9z M-1165,886.6h119.5v33.5H-1165V886.6z"/>
		<path id="Shape-20" class="st5" d="M-1147.9,962h-25.6c-4.6-0.2-8.5,3.5-8.7,8.1c-0.2,4.6,3.5,8.5,8.1,8.7c0.2,0,0.4,0,0.6,0h25.6
			c4.6,0.2,8.5-3.5,8.7-8.1c0.2-4.6-3.5-8.5-8.1-8.7C-1147.5,962-1147.7,962-1147.9,962z"/>
		<path id="Shape-21" class="st5" d="M-1147.9,995.5h-25.6c-4.6,0-8.4,3.7-8.4,8.4s3.7,8.4,8.4,8.4c0,0,0,0,0,0h25.6
			c4.6,0,8.4-3.7,8.4-8.4S-1143.3,995.5-1147.9,995.5C-1147.9,995.5-1147.9,995.5-1147.9,995.5z"/>
		<path id="Shape-22" class="st5" d="M-1147.9,1029h-25.6c-4.6-0.2-8.5,3.5-8.7,8.1c-0.2,4.6,3.5,8.5,8.1,8.7c0.2,0,0.4,0,0.6,0
			h25.6c4.6,0.2,8.5-3.5,8.7-8.1c0.2-4.6-3.5-8.5-8.1-8.7C-1147.5,1029-1147.7,1029-1147.9,1029z"/>
		<path id="Shape-23" class="st5" d="M-1147.9,1062.5h-25.6c-4.6-0.2-8.5,3.5-8.7,8.1c-0.2,4.6,3.5,8.5,8.1,8.7c0.2,0,0.4,0,0.6,0
			h25.6c4.6,0.2,8.5-3.5,8.7-8.1c0.2-4.6-3.5-8.5-8.1-8.7C-1147.5,1062.5-1147.7,1062.5-1147.9,1062.5z"/>
		<path id="Shape-24" class="st5" d="M-1088.2,962h-25.6c-4.6-0.2-8.5,3.5-8.7,8.1c-0.2,4.6,3.5,8.5,8.1,8.7c0.2,0,0.4,0,0.6,0h25.6
			c4.6,0.2,8.5-3.5,8.7-8.1c0.2-4.6-3.5-8.5-8.1-8.7C-1087.8,962-1088,962-1088.2,962z"/>
		<path id="Shape-25" class="st5" d="M-1088.2,995.5h-25.6c-4.6,0-8.4,3.7-8.4,8.4s3.7,8.4,8.4,8.4c0,0,0,0,0,0h25.6
			c4.6,0,8.4-3.7,8.4-8.4C-1079.8,999.2-1083.6,995.5-1088.2,995.5C-1088.2,995.5-1088.2,995.5-1088.2,995.5z"/>
		<path id="Shape-26" class="st5" d="M-1088.2,1029h-25.6c-4.6-0.2-8.5,3.5-8.7,8.1s3.5,8.5,8.1,8.7c0.2,0,0.4,0,0.6,0h25.6
			c4.6,0.2,8.5-3.5,8.7-8.1c0.2-4.6-3.5-8.5-8.1-8.7C-1087.8,1029-1088,1029-1088.2,1029z"/>
		<path id="Shape-27" class="st5" d="M-1088.2,1062.5h-25.6c-4.6-0.2-8.5,3.5-8.7,8.1s3.5,8.5,8.1,8.7c0.2,0,0.4,0,0.6,0h25.6
			c4.6,0.2,8.5-3.5,8.7-8.1c0.2-4.6-3.5-8.5-8.1-8.7C-1087.8,1062.5-1088,1062.5-1088.2,1062.5z"/>
		<path id="Shape-28" class="st5" d="M-1028.5,962h-25.6c-4.6-0.2-8.5,3.5-8.7,8.1c-0.2,4.6,3.5,8.5,8.1,8.7c0.2,0,0.4,0,0.6,0h25.6
			c4.6,0.2,8.5-3.5,8.7-8.1s-3.5-8.5-8.1-8.7C-1028.1,962-1028.3,962-1028.5,962z"/>
		<path id="Shape-29" class="st5" d="M-1028.5,995.5h-25.6c-4.6,0-8.4,3.7-8.4,8.4s3.7,8.4,8.4,8.4c0,0,0,0,0,0h25.6
			c4.6,0,8.4-3.7,8.4-8.4S-1023.8,995.5-1028.5,995.5C-1028.4,995.5-1028.5,995.5-1028.5,995.5z"/>
		<path id="Shape-30" class="st5" d="M-1028.5,1029h-25.6c-4.6-0.2-8.5,3.5-8.7,8.1s3.5,8.5,8.1,8.7c0.2,0,0.4,0,0.6,0h25.6
			c4.6,0.2,8.5-3.5,8.7-8.1s-3.5-8.5-8.1-8.7C-1028.1,1029-1028.3,1029-1028.5,1029z"/>
		<path id="Shape-31" class="st5" d="M-1028.5,1062.5h-25.6c-4.6-0.2-8.5,3.5-8.7,8.1s3.5,8.5,8.1,8.7c0.2,0,0.4,0,0.6,0h25.6
			c4.6,0.2,8.5-3.5,8.7-8.1s-3.5-8.5-8.1-8.7C-1028.1,1062.5-1028.3,1062.5-1028.5,1062.5z"/>
		<path id="Shape-32" class="st5" d="M-1443.8,629.2c-22.5,20.2,17,82.5,40.3,115h-4.6c-7.9,0-15.5,3-21.1,8.5
			c-11.4,11.1-11.6,29.4-0.5,40.9c2,2,4.3,3.8,6.7,5.1c-10,10.3-19.3,21.2-28.1,32.5c-2.8,3.6-2.1,8.8,1.6,11.6
			c0.1,0,0.1,0.1,0.2,0.1c3.8,2.8,9.1,2.1,12-1.7c10.5-13.5,21.9-26.4,34.1-38.5h174.4c10.6,0,20.5-5.5,25.9-14.6
			c5.3-9,5.3-20.3,0-29.3c-5.4-9.1-15.3-14.7-25.9-14.7h-4.6c23.3-32.5,62.7-94.8,40.3-115c-10.3-9.3-22.4-2.5-33,3.4
			c-9.7,6.5-20.9,10.3-32.5,11.1c-9.2,0-18-3.8-24.3-10.6c-19.6-19.4-51.2-19.4-70.8,0c-6.3,6.7-15.1,10.6-24.4,10.6
			c-11.6-0.8-22.8-4.7-32.5-11.2C-1421.5,626.7-1433.5,620-1443.8,629.2z M-1219.9,764.7c3.7,3.6,4.8,9,2.8,13.7
			c-2,4.7-6.7,7.8-11.9,7.8h-179.2c-6.9,0.2-12.7-5.3-12.9-12.2c-0.2-6.9,5.3-12.7,12.2-12.9c0.2,0,0.5,0,0.7,0h179.2
			C-1225.6,761-1222.4,762.3-1219.9,764.7z M-1378.4,660.5c13.3,0,26-5.2,35.4-14.5c12.6-13.4,33.7-14.1,47.1-1.6
			c0.5,0.5,1.1,1,1.6,1.6c9.4,9.4,22.2,14.6,35.5,14.6c14.6-0.8,28.8-5.4,41-13.3c3.9-2.7,8.3-4.6,13-5.6
			c8.8,7.9-14.4,55.3-49.8,102.7h-21.3v-41.9c-0.2-4.7-4.1-8.4-8.8-8.2c-4.5,0.2-8.1,3.8-8.2,8.2v41.9h-51.2v-41.9
			c0-4.7-3.8-8.5-8.5-8.5c-4.7,0-8.5,3.8-8.5,8.5v41.9h-21.3c-35.4-47.3-58.5-94.8-49.7-102.8c4.6,1.2,8.9,3.1,12.8,5.7
			C-1407.1,655.2-1393,659.8-1378.4,660.5L-1378.4,660.5z"/>
	</g>
</g>
<g>
	<path class="st3" d="M487.4,11.4H27.3c-9.8,0.5-17.4,8.6-17,18.3v334.4h34.1c0-2,0.5-4,1.4-5.8c0.5-0.9,1.2-1.8,1.9-2.6h283.1
		c0.8,0.8,1.4,1.7,1.9,2.6c0.9,1.8,1.4,3.8,1.4,5.8h170.4V29.7C504.8,20,497.2,11.8,487.4,11.4z"/>
	<path id="Shape_307_" class="st3" d="M139.8,497.9h25.6c-9.4-0.1-17-7.5-17-16.8c0-9.3,7.6-16.8,17-16.8h-25.6
		c-9.4,0-17,7.5-17,16.8C122.8,490.3,130.4,497.8,139.8,497.9z"/>
	<path id="Rectangle-path_8_" class="st3" d="M12,29.1h17v67.2H12V29.1z"/>
	<path id="Shape_306_" class="st0" d="M504.4,364.1v32.1c0.4,9.7-7.2,17.9-17,18.3H27.3c-9.8-0.5-17.4-8.6-17-18.3v-32.1H504.4z"/>
	<path id="Shape_305_" class="st3" d="M478.8,364.1v32.1c0.4,9.7-7.2,17.9-17,18.3h25.6c9.8-0.5,17.4-8.6,17-18.3v-32.1H478.8z"/>
	<path id="Shape_304_" class="st3" d="M487.4,11.4h-25.6c9.8,0.5,17.4,8.6,17,18.3v334.4h25.6V29.7C504.8,20,497.2,11.8,487.4,11.4z
		"/>
	<path id="Shape_303_" class="st0" d="M351,464.8H163.6l25.6-50.4h136.3L351,464.8z"/>
	<path id="Shape_302_" class="st3" d="M325.5,414.5h-25.6l25.6,50.4H351L325.5,414.5z"/>
	<path id="Shape_301_" class="st1" d="M402.2,481.6c0,9.3-7.6,16.8-17,16.8H129.5c-9.4-0.1-17-7.5-17-16.8c0-9.3,7.6-16.8,17-16.8
		h255.6C394.5,464.9,402.1,472.4,402.2,481.6z"/>
	<path id="Shape_300_" class="st3" d="M397.1,469.8c-3.2-3.2-7.5-5-12-5l-25.6,0c9.4,0.1,17,7.5,17,16.8c0,9.3-7.6,16.8-17,16.8
		h25.6c9.4,0,17-7.5,17-16.8C402.2,477.2,400.4,472.9,397.1,469.8z"/>
	<path id="Shape_288_" class="st3" d="M189.2,464.8l25.6-50.4h-25.6l-25.6,50.4H189.2z"/>
	<path id="Shape_287_" class="st3" d="M129.5,498.4h25.6c-9.4-0.1-17-7.5-17-16.8c0-9.3,7.6-16.8,17-16.8h-25.6
		c-9.4,0-17,7.5-17,16.8C112.5,490.9,120.1,498.4,129.5,498.4z"/>
	<path id="Shape_286_" class="st0" d="M27.3,414.5h25.6c-9.8-0.5-17.4-8.6-17-18.3V29.7c-0.4-9.7,7.2-17.9,17-18.3H27.3
		c-9.8,0.5-17.4,8.6-17,18.3v366.5C9.8,405.8,17.5,414,27.3,414.5z"/>
	<path class="st5" d="M512.9,29.7c0.4-14.3-11-26.3-25.6-26.7v0H27.3C12.7,3.4,1.3,15.4,1.7,29.7c0,4.6,3.8,8.4,8.5,8.4
		c4.7,0,8.5-3.8,8.5-8.4c-0.3-5,3.4-9.4,8.5-9.9h460.1c5.1,0.5,8.8,4.9,8.5,9.9v326h-34.1c-4.7,0-8.5,3.8-8.5,8.4
		c0,4.6,3.8,8.4,8.5,8.4h34.1v23.7c0.3,5-3.4,9.4-8.5,9.9H27.3c-5.1-0.5-8.8-4.9-8.5-9.9v-23.7h409c4.7,0,8.5-3.8,8.5-8.4
		c0-4.6-3.8-8.4-8.5-8.4h-71.6h-15.4H22v0h-3.3V96.9c0-4.6-3.8-8.4-8.5-8.4c-4.7,0-8.5,3.8-8.5,8.4v299.3
		c-0.4,14.3,11,26.3,25.6,26.7h148.1l-17,33.6h-28.8c-14.1,0-25.6,11.3-25.6,25.2c0,13.9,11.4,25.2,25.6,25.2h255.6
		c14.1,0,25.6-11.3,25.6-25.2c0-13.9-11.4-25.2-25.6-25.2h-28.8l-17-33.6h148.1c14.5-0.5,26-12.4,25.6-26.7V29.7z M194.4,422.9
		h125.8l17,33.6H177.4L194.4,422.9z M385.1,473.2c4.7,0,8.5,3.8,8.5,8.4s-3.8,8.4-8.5,8.4H129.5c-4.7,0-8.5-3.8-8.5-8.4
		s3.8-8.4,8.5-8.4H385.1z"/>
	<path class="st0" d="M464.7,420.7c-8.6,0-16.9-3.5-22.8-9.7l-41.4-41.4c-3.9-3.9-5.8-9.2-5.4-14.6l-11.4-11.3l2.9-4
		c0.6-0.8,2.9-4,2.9-4c0.3-0.4,0.6-0.8,0.9-1.1c1-2.3,2.8-4.4,4.5-6.1l4-4l10,10l1.2-1.2l-10.1-10.1l4.1-4c3-2.9,6.2-5.8,9.8-9
		l4-3.5l12.7,12.7c0.5,0,1-0.1,1.4-0.1c5,0,9.6,1.9,13.1,5.4l41.5,41.5c8.2,7.9,11.5,19.7,8.6,30.8c-2.9,11.1-11.6,19.8-22.7,22.7
		C470.1,420.4,467.4,420.7,464.7,420.7C464.7,420.7,464.7,420.7,464.7,420.7z M459.1,393.8c1.4,1.3,3.3,2.1,5.3,2.1
		c2,0,3.8-0.7,5.2-2.1c2.8-2.9,2.8-7.5,0-10.4L432.2,346l-10.4,10.4L459.1,393.8z"/>
	<g id="Page-1_4_">
		<g id="_x30_26---Searching-Web_1_">
			<path id="Shape_285_" class="st0" d="M326.1,154.2c14-13.5,19.7-33.5,14.9-52.4c-2.8-10.3-8.7-19.6-11.2-30
				c-1.7-6.3-1.4-12.9,0.7-19.1c-23.3-14.7-50.3-22.5-77.8-22.4c-3,0-6,0.1-9,0.3c-4.7,14.5-10.6,28.5-17.8,41.9
				c-2.3,5.5-6.4,10-11.7,12.8c-8.3,3.3-18.3-2.3-26.6,1.2c-4.7,2.3-8,6.7-8.7,11.9c-0.8,5.1-0.1,10.3,1.8,15.1
				c3.5,9.6,9.8,17.9,18.1,23.8c9.2,6.6,21.2,10.6,26.3,20.6c5.1,10,1.4,22.5-5.1,31.6s-15.6,16-22.8,24.8
				c-4.6,5.7-8.5,11.9-11.5,18.6c-2.5,5.5-6.3,12.3-12.3,11.6c-4.2-1.1-7.2-4.7-7.4-9.1c-0.1-4.2,0.2-8.4,1.1-12.6
				c1.3-10.7-1.6-21.5-8.1-30.1c-6.6-8.9-17.4-16.5-17.2-27.6c1-6.8,3.9-13.2,8.5-18.4c4.6-5.2,6.8-12.2,5.9-19.1
				c-2.5-6.2-7.3-11.2-13.4-14.1c-5.7-3.5-11.3-7-16.9-10.6c-26.4,45.3-26.6,101.3-0.4,146.8s74.6,73.5,127.1,73.5
				c2.8,0,5.5-0.1,8.3-0.3c-29.2-27.2-38.9-69.3-24.5-106.5C250.8,179.6,286.3,154.8,326.1,154.2L326.1,154.2z M252.5,113.1
				c-0.7-4.6,3.1-8.7,6.5-12c7.9-7.4,16.5-18.4,26-23.5c12.2-6.7,10.6,9.2,8.9,16.3c-1.3,5.7-0.9,11.6,1,17.1
				c1.3,2.8,2.3,5.6,3.1,8.6c0.8,3-0.1,6.3-2.3,8.5c-3,2-6.9,2-10,0.1c-3.1-1.6-5.9-4-9.1-5.3c-4.5-1.1-9.1-1.7-13.7-1.9
				C258,120.8,253.9,117.7,252.5,113.1L252.5,113.1z"/>
			<g>
				<path id="Shape_284_" class="st3" d="M265.5,77.6c-9.5,5.1-18,16.2-26,23.5c-3.5,3.3-7.2,7.4-6.5,12c1.4,4.5,5.5,7.7,10.2,7.9
					c4.6,0.2,9.2,0.8,13.7,1.9c3.3,1.3,6,3.7,9.1,5.3c3.1,1.9,7,1.8,10-0.1c1.2-1.1,2-2.6,2.3-4.2c-0.6-0.4-1.3-0.7-2-0.9
					c-4.5-1.1-9.1-1.7-13.7-1.9c-4.7-0.2-8.8-3.4-10.2-7.9c-0.7-4.6,3.1-8.7,6.5-12c5.2-4.8,10.7-11.2,16.5-16.5
					C275.5,78.5,273.5,73.3,265.5,77.6L265.5,77.6z"/>
				<path id="Shape_281_" class="st6" d="M194.6,85.5c-2.2-0.1-4.4,0.3-6.5,1.1C190.4,86.6,192.6,86.2,194.6,85.5z"/>
				<path id="Shape_242_" class="st1" d="M326.1,154.2c14-13.5,19.7-33.5,14.9-52.4c-2.8-10.3-8.7-19.6-11.2-30
					c-1.7-6.3-1.4-12.9,0.7-19.1c-23.3-14.7-50.3-22.5-77.8-22.4c-3,0-6,0.1-9,0.3v0.1c23.9,1.7,47,9.2,67.3,22
					c-2.2,6.1-2.4,12.8-0.7,19.1c2.5,10.4,8.4,19.7,11.2,30c4.8,18.9-0.9,38.8-14.9,52.4c-39.8,0.6-75.3,25.2-89.6,62.4
					c-14.4,37.1-4.8,79.2,24.3,106.4c3.8,0.3,7.6,0.5,11.5,0.5c2.8,0,5.5-0.1,8.3-0.3c-29.2-27.2-38.9-69.3-24.5-106.5
					C250.8,179.6,286.3,154.8,326.1,154.2L326.1,154.2z"/>
				<path id="Shape_241_" class="st1" d="M123.5,113.8c6.1,2.8,10.8,7.9,13.4,14.1c0.8,6.9-1.3,13.9-5.9,19.1
					c-4.6,5.2-7.6,11.5-8.5,18.4c-0.2,11.1,10.6,18.7,17.2,27.6c6.5,8.6,9.4,19.4,8.1,30.1c-0.9,4.1-1.3,8.4-1.1,12.6
					c0.2,4.3,3.2,8,7.4,9.1c5.8,0.7,9.5-5.7,12-11c0.2-3.6,0.6-7.1,1.2-10.6c1.3-10.7-1.6-21.5-8.1-30.1
					c-6.6-8.9-17.4-16.5-17.2-27.6c1-6.8,3.9-13.2,8.5-18.4c4.6-5.2,6.8-12.2,5.9-19.1c-2.5-6.2-7.3-11.2-13.4-14.1
					c-5.7-3.5-11.3-7-16.9-10.6c-1.7,3-3.4,6-4.9,9.1L123.5,113.8z"/>
			</g>
			<path id="Shape_240_" class="st1" d="M225.2,158.1c5.1,10,1.4,22.5-5.1,31.6s-15.6,16-22.8,24.8c-4.6,5.7-8.5,11.9-11.5,18.6
				c-2.5,5.5-6.3,12.3-12.3,11.6c-4.2-1.1-7.2-4.7-7.4-9.1c-0.1-4.2,0.2-8.4,1.1-12.6c1.3-10.7-1.6-21.5-8.1-30.1
				c-6.6-8.9-17.4-16.5-17.2-27.6c1-6.8,3.9-13.2,8.5-18.4c4.6-5.2,6.8-12.2,5.9-19.1c-2.5-6.2-7.3-11.2-13.4-14.1
				c-5.7-3.5-11.3-7-16.9-10.6c24.6-42.3,68.8-69.6,117.6-72.5c-4.7,14.5-10.6,28.5-17.8,41.9c-2.3,5.5-6.4,10-11.7,12.8
				c-8.3,3.3-18.3-2.3-26.6,1.2c-4.7,2.3-8,6.7-8.7,11.9c-0.8,5.1-0.1,10.3,1.8,15.1c3.5,9.6,9.8,17.9,18.1,23.8
				C208.1,144.1,220.1,148.1,225.2,158.1L225.2,158.1z"/>
			<path id="Shape_239_" class="st1" d="M399.3,177c0,2.8-0.1,5.5-0.3,8.3c-18.4-19.8-44.3-31.1-71.4-31.1c-0.5,0-1,0-1.5,0.1
				c14-13.5,19.7-33.5,14.9-52.4c-2.8-10.3-8.7-19.6-11.2-30c-1.7-6.3-1.4-12.9,0.7-19.1C373.3,79.6,399.3,126.5,399.3,177z"/>
			<path id="Shape_238_" class="st3" d="M295.6,128.1c-3,2-6.9,2-10,0.1c-3.1-1.6-5.9-4-9.1-5.3c-4.5-1.1-9.1-1.7-13.7-1.9
				c-4.7-0.2-8.8-3.4-10.2-7.9c-0.7-4.6,3.1-8.7,6.5-12c7.9-7.4,16.5-18.4,26-23.5c12.2-6.7,10.6,9.2,8.9,16.3
				c-1.3,5.7-0.9,11.6,1,17.1c1.3,2.8,2.3,5.6,3.1,8.6C298.7,122.7,297.8,125.9,295.6,128.1L295.6,128.1z"/>
			<path id="Shape_237_" class="st0" d="M399,185.3L399,185.3c-18.4-19.9-44.3-31.2-71.4-31.1c-0.5,0-1,0-1.5,0.1
				c-39.9,0.6-75.3,25.3-89.7,62.5c-14.3,37.2-4.6,79.4,24.5,106.5h0.1c34.8,32.6,88,35.2,125.8,6.3c7-5.3,13.2-11.5,18.4-18.4
				C434.2,273.3,431.6,220.1,399,185.3L399,185.3z M327.6,323.5c-35.9,0-66.2-26.6-71-62.1c-0.4-3.2-0.7-6.3-0.7-9.5
				c0-36.2,27-66.7,62.9-71.1c2.9-0.4,5.8-0.6,8.7-0.6c39.6,0,71.7,32.1,71.7,71.7S367.2,323.5,327.6,323.5z"/>
			<path id="Shape_236_" class="st3" d="M399.3,251.9c-0.1,37.7-29.3,68.9-66.9,71.4c-37.6,2.5-70.7-24.5-75.8-61.9
				c5.5-4.8,12.1-8,19.3-9.2c11.5-2.1,23.5-1.1,34.8-3.9c11.3-2.8,22.8-11.3,23.4-23c-0.6-8.1-3.6-15.9-8.7-22.3
				c-4.9-6.3-7.2-14.2-6.6-22.1c2.9-0.4,5.8-0.6,8.7-0.6C367.2,180.3,399.2,212.3,399.3,251.9z"/>
			<path id="Shape_235_" class="st1" d="M334.1,225.2c-0.6,11.7-12.1,20.2-23.4,23c-11.3,2.8-23.3,1.8-34.8,3.9
				c-7.1,1.3-13.8,4.5-19.3,9.2c-0.4-3.2-0.7-6.3-0.7-9.5c0-36.2,27-66.7,62.9-71.1c-0.6,7.9,1.7,15.8,6.6,22.1
				C330.5,209.3,333.5,217.1,334.1,225.2L334.1,225.2z"/>
			<path id="Shape_234_" class="st3" d="M325.5,203c-4.9-6.3-7.2-14.2-6.6-22.1c-6.8,0.8-13.5,2.6-19.8,5.4c1,6,3.3,11.7,6.8,16.8
				c5.1,6.4,8.1,14.1,8.7,22.3c-0.6,11.7-12.1,20.2-23.4,23c-11.3,2.8-23.3,1.8-34.8,3.9l-0.4,0.1c0,3.1,0.2,6.1,0.7,9.2
				c5.5-4.8,12.1-8,19.3-9.2c11.5-2.1,23.5-1.1,34.8-3.9c11.3-2.8,22.8-11.3,23.4-23C333.5,217.1,330.5,209.3,325.5,203L325.5,203z"
				/>
			<path id="Shape_233_" class="st1" d="M427.5,333.4l-18.4,18.4l-22.3-22.3c7-5.3,13.2-11.5,18.4-18.4L427.5,333.4z"/>
			<path id="Shape_232_" class="st0" d="M478.2,402.5c-7.6,7.6-20,7.6-27.6,0l-41.5-41.4c-2.5-2.6-2.5-6.7,0-9.2l18.4-18.4
				c2.6-2.5,6.7-2.5,9.2,0l41.4,41.5C485.8,382.5,485.8,394.9,478.2,402.5L478.2,402.5z"/>
			<path id="Shape_231_" class="st3" d="M252.7,323.5c5.9,0,7.7-0.3,8.3-0.3c20.5,19.3,48.4,28.7,76.4,25.8
				c-21.3-2.1-41.3-11.1-56.9-25.8c-0.7,0-2.5,0.3-8.3,0.3c-114.4,0-182.8-124.6-126.6-220.3c24.4-42,68.1-69.2,116.6-72.5
				c-3.1-0.2-6.3-0.3-9.5-0.3c-52.2,0-100.4,27.7-126.6,72.8C69.9,198.9,138.3,323.5,252.7,323.5L252.7,323.5z"/>
			<path id="Shape_227_" class="st3" d="M121.5,225.7l-12.2,4.6c-6.3-17.1-9.6-35.1-9.7-53.3h13
				C112.8,193.6,115.8,210.1,121.5,225.7z"/>
			<path id="Shape_226_" class="st5" d="M108.7,209.4c-3.6,0-6.5-2.9-6.5-6.5c0-3.6,2.9-6.5,6.5-6.5h0.1c3.6,0,6.5,2.9,6.5,6.5
				S112.3,209.4,108.7,209.4z"/>
			<path id="Shape_225_" class="st5" d="M296.5,71.6c-4.4-3-10.3-2.9-14.6,0.3c-7.5,4.7-14.3,10.5-20.1,17.3
				c-2.5,2.6-4.9,5.1-7.2,7.2c-5.6,4.1-8.8,10.8-8.5,17.8c1.8,7.4,8.1,12.8,15.7,13.4c1.8,0.3,3.7,0.4,5.5,0.5c2.3,0,4.6,0.4,6.8,1
				c1.4,0.6,2.8,1.4,4.1,2.3c1.5,1,3,1.9,4.5,2.7c2.6,1.3,5.4,2,8.3,2.1c3.2,0.1,6.3-1,8.8-3.1c4-3.7,5.8-9.3,4.6-14.7
				c-0.5-2.4-1.3-4.8-2.3-7.1c-0.3-0.8-0.7-1.7-1-2.5c-1.5-4.3-1.8-9-0.8-13.5C301.8,88.7,303.3,76.8,296.5,71.6L296.5,71.6z
				 M291.5,123.1c-1,0.1-2.1-0.1-3-0.7c-1.1-0.6-2.2-1.2-3.2-2c-2-1.4-4.2-2.6-6.5-3.6c-3.5-1.2-7.1-1.8-10.7-1.9
				c-1.5-0.1-2.9-0.2-4.3-0.4c-2.8-0.4-4.7-1.8-4.8-2.5c-0.1-0.7,0.4-2.3,4.5-6.2c2.5-2.3,5.1-5,7.7-7.8
				c4.9-5.7,10.6-10.7,16.9-14.8c0.1-0.1,0.3-0.1,0.4-0.2c0.2,3.2-0.1,6.3-0.9,9.4c-1.5,6.9-1.1,14.1,1.2,20.7
				c0.4,1,0.8,2.1,1.2,3.1c0.7,1.4,1.2,2.9,1.6,4.5C291.7,121.5,291.7,122.3,291.5,123.1L291.5,123.1z"/>
			<path id="Shape_224_" class="st5" d="M327.6,173.7c-43.2,0-78.2,35-78.2,78.2s35,78.2,78.2,78.2s78.2-35,78.2-78.2
				C405.7,208.7,370.8,173.8,327.6,173.7z M312.4,188.6c1.4,6.5,4.1,12.7,7.8,18.3c4.1,5.2,6.7,11.4,7.4,18
				c-0.4,8.3-9.6,14.8-18.4,17c-5.9,1.2-11.8,2-17.8,2.1c-5.6,0.2-11.2,0.8-16.7,1.7c-4.2,0.8-8.2,2.1-12.1,4
				C263.6,220.5,284,195.5,312.4,188.6z M327.6,317c-31.2,0-58-22.2-63.9-52.9c4-2.8,8.6-4.7,13.4-5.6c5-0.8,10-1.3,15.1-1.5
				c6.8-0.2,13.6-1,20.2-2.5c13.5-3.4,27.6-13.6,28.3-29c-0.4-9.5-3.8-18.5-9.6-26c-2.6-3.9-4.5-8.2-5.7-12.7c0.8,0,1.5-0.1,2.3-0.1
				c36,0,65.1,29.2,65.1,65.1S363.6,317,327.6,317L327.6,317z"/>
			<path id="Shape_65_" class="st5" d="M441.4,328.8c-3.3-3.3-8.1-4.5-12.5-3.3l-15.1-15.1c26.8-39.3,23.5-91.9-8.2-127.5
				c0.1-2,0.2-4,0.2-6c0-84.5-68.5-153-153.1-153.1c-3.2,0-6.3,0.1-9.5,0.3H243c-50.8,3.3-96.7,31.6-122.4,75.5l0,0l0,0.1
				c-13.7,23.4-20.9,50-20.9,77.1c0,3.6,2.9,6.5,6.5,6.5s6.5-2.9,6.5-6.5c0-22.5,5.4-44.6,15.9-64.5c3.7,2.3,7.4,4.6,11.1,6.9
				c4.7,2.9,9.5,6.1,10.5,10.2c0.8,3.3-0.7,7.7-4.9,13.7l-0.8,1.1c-5,5.9-8.2,13.2-9,20.9c-0.2,10.7,6.8,18.3,12.9,25
				c2.1,2.3,4,4.4,5.6,6.5c5.4,7.3,7.9,16.4,6.8,25.4c-0.1,1.1-0.3,2.2-0.5,3.3c-0.7,3.6-1,7.3-0.7,10.9c0.5,7.3,5.9,13.3,13.1,14.7
				c0.6,0.1,1.2,0.1,1.8,0.1c10.1,0,15.2-11.1,17.2-15.4c2.8-6.2,6.4-11.9,10.6-17.2c3-3.6,6.2-6.9,9.8-10.3
				c4.8-4.6,9.2-9.5,13.2-14.8c7.2-10,12.4-25.3,5.6-38.3c-4.8-7.8-11.9-14.1-20.3-17.9c-2.9-1.7-5.6-3.3-8-5
				c-7.2-5.2-12.7-12.4-15.8-20.8c-1.5-3.7-2.1-7.8-1.5-11.7c0.4-3,2.2-5.6,4.9-7.1c3.3-0.9,6.7-1,10-0.2c5.4,1.1,11,0.8,16.3-1
				c6.8-3.2,12.1-8.8,15.1-15.8c6.6-12.4,12.1-25.3,16.7-38.6c1.5,0,2.9-0.2,4.4-0.2c24.7,0,48.9,6.5,70.2,19
				c-1.1,5.8-0.9,11.8,0.6,17.5c1.6,5.7,3.6,11.3,6.1,16.6c2,4.4,3.7,8.9,5.1,13.5c3.9,15.8-0.5,32.5-11.6,44.3
				c-39.2,1.6-74.1,25.1-90.3,60.7s-11.1,77.4,13.4,108.1c-12-0.7-23.8-2.7-35.3-6.1c-13.5-4.4-26.3-10.7-38-18.7
				c-23.4-16.3-41.3-39.4-51.3-66.2c-1.3-3.3-5-5-8.3-3.8c-1.7,0.6-3,1.8-3.8,3.4c-0.7,1.6-0.8,3.4-0.1,5
				c10.9,29.3,30.4,54.5,56,72.4c12.8,8.8,26.8,15.7,41.6,20.5c14.9,4.4,30.3,6.8,45.8,7c2,0,4-0.1,6-0.2
				c35.6,31.7,88.1,35,127.4,8.2l15.1,15.1c-1.2,4.5,0.1,9.2,3.3,12.5l41.5,41.5c6.5,6.8,16.2,9.5,25.3,7.1s16.2-9.5,18.6-18.6
				s-0.3-18.8-7.1-25.3L441.4,328.8z M220.2,69.6c-1.6,4.1-4.6,7.5-8.4,9.8c-3.3,0.8-6.7,0.8-10,0.1c-5.6-1.1-11.4-0.7-16.8,1.2
				c-6.7,3.1-11.4,9.4-12.5,16.6c-1,6.3-0.3,12.7,2.1,18.6c4,10.8,11.1,20.2,20.5,26.9c2.9,2.1,6.1,3.9,9.1,5.6
				c6.1,2.7,11.4,7.1,15.2,12.6c4.1,7.8,0.3,17.9-4.6,24.8c-3.6,4.7-7.6,9.1-11.9,13.2c-3.6,3.5-7.2,7.2-10.6,11.3
				c-4.9,6.1-9.1,12.8-12.4,20c-3.7,7.9-5.4,7.8-5.6,7.8c-1.1-0.8-1.7-2-1.8-3.3c-0.1-2.4,0.1-4.9,0.6-7.2c0.2-1.3,0.4-2.5,0.5-3.7
				c1.5-12.4-1.8-24.8-9.3-34.8c-2-2.6-4.2-5.1-6.4-7.5c-5.2-5.7-9.6-10.5-9.5-16c0.9-5.1,3.2-9.8,6.6-13.7l0.8-1.1
				c5.7-6.8,8.2-15.6,6.9-24.4c-2.9-7.9-8.7-14.4-16.3-18c-3.8-2.3-7.5-4.7-11.3-7.1c22.2-34.4,58.4-57.4,99-62.9
				C230.2,49,225.5,59.5,220.2,69.6L220.2,69.6z M336.1,70.3c-0.5-2.1-0.8-4.2-0.8-6.4c34.3,24.9,55.4,64.2,57.2,106.6
				c-15.3-12.3-33.8-20-53.3-22.1c9.3-14.2,12.2-31.7,8.1-48.2c-1.5-5.2-3.5-10.3-5.8-15.3C339.3,80.2,337.5,75.3,336.1,70.3
				L336.1,70.3z M236.4,251.9c0-50.4,40.8-91.2,91.2-91.2s91.2,40.8,91.2,91.2s-40.8,91.2-91.2,91.2
				C277.3,343,236.5,302.2,236.4,251.9z M405.7,320.7l12.7,12.7l-9.2,9.2l-12.7-12.7C399.7,327.1,402.8,324,405.7,320.7z
				 M473.6,397.9c-5.2,4.9-13.3,4.9-18.4,0l-41.5-41.5l18.4-18.4l41.4,41.5C478.7,384.5,478.7,392.8,473.6,397.9z"/>
		</g>
	</g>
</g>
</svg>
