<?xml version="1.0" encoding="utf-8"?>
<!-- Generator: Adobe Illustrator 22.0.1, SVG Export Plug-In . SVG Version: 6.00 Build 0)  -->
<svg version="1.1"
	 id="svg2816" inkscape:version="0.47 r22583" sodipodi:docname="Australia-climate-map_MJC01.png" xmlns:cc="http://creativecommons.org/ns#" xmlns:dc="http://purl.org/dc/elements/1.1/" xmlns:inkscape="http://www.inkscape.org/namespaces/inkscape" xmlns:rdf="http://www.w3.org/1999/02/22-rdf-syntax-ns#" xmlns:sodipodi="http://sodipodi.sourceforge.net/DTD/sodipodi-0.dtd" xmlns:svg="http://www.w3.org/2000/svg"
	 xmlns="http://www.w3.org/2000/svg" xmlns:xlink="http://www.w3.org/1999/xlink" x="0px" y="0px" viewBox="0 0 1000 905"
	 style="enable-background:new 0 0 1000 905;" xml:space="preserve">
<style type="text/css">
	.st0{fill:#808080;}
</style>
<defs>
	
	
		<inkscape:perspective  id="perspective2824" inkscape:persp3d-origin="0.5 : 0.33333333 : 1" inkscape:vp_x="0 : 0.5 : 1" inkscape:vp_y="0 : 1000 : 0" inkscape:vp_z="1 : 0.5 : 1" sodipodi:type="inkscape:persp3d">
		</inkscape:perspective>
</defs>
<sodipodi:namedview  bordercolor="#666666" borderopacity="1" gridtolerance="10" guidetolerance="10" id="namedview2818" inkscape:current-layer="svg2816" inkscape:cx="363.56412" inkscape:cy="489.60966" inkscape:pageopacity="0" inkscape:pageshadow="2" inkscape:window-height="712" inkscape:window-maximized="1" inkscape:window-width="1024" inkscape:window-x="-4" inkscape:window-y="-4" inkscape:zoom="0.56880292" objecttolerance="10" pagecolor="#ffffff" showgrid="false">
	</sodipodi:namedview>
<g id="g4506" transform="matrix(1.0169725,0,0,1.0152155,-0.57980272,-23.269317)">
</g>
<g>
	<path class="st0" d="M102.5,698.1c-0.7-5.6-1-6.5-5.2-12c-3.1-4.1-3.6-5.3-4.1-9.3c-0.5-4.2-2.3-10.6-3.3-11.5
		c-0.2-0.2-1.5-1.8-2.9-3.6c-1.4-1.8-2.8-3.6-3.2-4c-0.4-0.4-2.5-2.9-4.7-5.4c-7-8.1-11.3-12.2-12.7-12.2c-0.8,0-2.4,0.8-3.5,1.8
		c-2.1,1.7-2.1,1.9-1.2,4.1c0.5,1.3,1.4,4.4,1.9,6.9c0.6,2.7,2.1,6.4,3.8,9.4c1.6,2.7,3.5,6.3,4.2,8.1c0.7,1.8,2,4.4,2.9,5.8
		c0.9,1.4,1.8,3.5,2.1,4.7c0.9,4.5,2.6,7.3,4.7,8.1c1.7,0.6,2.1,1.2,2.1,3c0,3.1,6.9,12.2,11.6,15.1c2.4,1.5,8.5,2.3,9.6,1.2
		c0.2-0.2,0-1.7-0.5-3.2C103.4,703.6,102.7,700.5,102.5,698.1z"/>
	<path class="st0" d="M48.6,558c-2.9-2-6-2-6-0.1c0,0.6-0.4,1.7-0.9,2.3c-0.6,0.7-1.1,4.7-1.3,11.5c-0.5,11.6,0.6,19.6,3.5,26.4
		c1.6,3.7,3.4,5.1,3.4,2.5c0-0.7-0.8-4.2-1.8-7.8c-3-10.8-2.9-11.2,4.7-19.1c3.6-3.7,6.5-7.2,6.5-7.6C56.6,564.9,52,560.4,48.6,558z
		"/>
	<path class="st0" d="M832.3,788.7c1-2.1,3.5-5.5,5.4-7.6c2-2.1,3.4-3.9,3.2-4.2c-0.2-0.2-2.4-0.4-4.8-0.4c-4.2,0-4.5-0.1-7.8-3.2
		c-2.1-2-3.6-4.1-3.9-5.6c-0.3-1.3-1.1-3.2-1.9-4.1c-1.6-2.1-1.8-8.2-0.3-10.9c0.4-0.7,0.7-1.4,0.9-2c0.7-2,2.7-9.2-1-13.1
		c0.5-2.4-0.1-4.9-1.7-7.9c-1.1-2-2.1-2.7-5.5-3.8c-4-1.2-4.5-1.2-9-0.1c-3.3,0.8-6.4,2.3-10.1,4.9c-3,2.1-7.4,4.9-9.8,6.4
		c-2.4,1.5-6,4.1-7.9,6c-2,1.8-4.7,4.3-6.1,5.6c-2.8,2.5-9.4,10.7-10.7,13.2c-0.5,0.9-0.8,2.3-0.8,3.1c0,1.5-5.3,11.9-8.2,16.2
		c-3.3,4.8-8.2,10-12.7,13.4c-2.6,2-7.5,6.6-10.9,10.4c-3.4,3.7-6.3,6.7-6.4,6.5c-1-1,10.1-12.9,18.2-19.4
		c5.8-4.6,16.8-22.5,17.7-28.6c0.2-1.4,1.4-4.1,2.6-6.1c1.3-2,2.9-5.3,3.6-7.2c2.5-6.7,9.6-14.8,13-14.8c1.5,0,1.9-0.6,3.2-4.9
		c0.8-2.7,1.8-6.5,2.1-8.4c0.4-1.9,1.3-4.3,2-5.3c2.5-3.4,16-8.5,43.9-16.5c4.8-1.4,10.9-3.2,13.7-4c7.4-2.2,19.1-8.5,19.9-10.7
		c0.4-1,2.1-4.7,3.9-8.3c1.8-3.6,3.4-7.6,3.6-9c0.4-3,4.4-7.5,11-12.5c2.5-1.9,4.5-3.6,4.5-3.8c0,0,0.5-0.6,1.4-2.5l0.6,0.7l2.2-2.3
		c2.5-2.6,7.4-10.1,7.4-11.3c0-1.6-3.1-6.7-5.4-9.1c-3.1-3.1-4.5-7.5-3.3-10.1c0.5-1,0.8-2,0.7-2c-0.1-0.1-2.2-1.2-4.5-2.5
		c-2.4-1.3-5.1-3-6.1-3.7c-1.8-1.4-5.4-1.7-8.7-0.7c-1.5,0.4-2.1,0.1-3.5-1.9c-1.4-2-2.1-2.4-4.3-2.4c-2.4,0-3.2,0.6-8.2,5.9
		c-3.9,4.1-5.7,6.7-6,8.4c-0.5,2.8-7.9,10.6-9.5,10c-1.8-0.7-0.2-5,3.2-8.7c1.9-2,4.3-4.6,5.5-5.9c1.2-1.3,3.9-4.3,6-6.7
		c2.1-2.4,4.8-4.7,5.9-5.2c2-0.8,3.2-3.5,2.2-4.9c-0.2-0.4-2.8-1.3-5.7-2.1c-4.1-1.1-5.5-1.3-6.2-0.6c-2.2,2.2-4,2.6-6.8,1.5
		c-1.5-0.6-5.6-1.2-9.2-1.3l-6.4-0.3l-2.8-3c-1.5-1.6-3.3-3-4.1-3c-0.7,0-4.8-1.2-9.1-2.7c-6.7-2.3-7.8-3-8.2-4.5
		c-0.2-1-0.8-2.6-1.3-3.6c-0.8-1.5-0.8-2.3,0.1-5.3c1-3.2,0.9-3.7-0.2-4.9c-0.7-0.7-2.7-1.8-4.6-2.3c-3.1-0.9-3.4-1.1-3.7-3.8
		c-0.2-1.6-1.1-4.2-2-5.9c-1.4-2.6-2-3.1-4.5-3.5c-2.3-0.4-3.3-1-4.5-2.9c-0.9-1.3-2.1-2.4-2.8-2.4c-0.8,0-1.8-1.3-2.8-3.6
		c-1-2.4-2.4-4.1-4-5.1c-1.3-0.8-3.1-2.5-3.9-3.6c-0.8-1.2-2.1-2.1-2.7-2.1c-0.7,0-2.6-1.9-4.3-4.3c-2.9-4-11.3-11.5-12.1-10.7
		c0,0-2.2,2.7-3.6,6.3c-0.7,1-1.3,2.6-1.6,4.4c-0.4,2.2-0.8,4.3-0.9,4.7s0.2,1.4,0.6,2.2c1.2,2.2,1.3,9.7,0.2,13.2
		c-0.6,1.9-1.6,3.4-2.6,3.9c-1.1,0.5-1.8,1.6-2.1,3.7c-0.4,2.2-1.3,3.8-3.7,6c-3.1,3-4.6,3.8-4.6,2.4c0-0.4-0.9-0.9-2-1.1
		s-3.7-2-5.8-3.8c-3.7-3.1-4-3.2-7.4-2.8l-3.6,0.4l-1.4-3.2c-0.8-1.8-2.3-4.1-3.3-5.1c-1.1-1.1-1.8-2.6-1.8-3.8c0-1.1-0.3-3-0.7-4.1
		c-3.3-9.4-3.9-11.9-3.4-15.7l0.5-3.9l-3.5-1.1c-1.9-0.6-6.8-1.5-10.9-2c-6.7-0.8-7.5-1.1-8.6-2.7c-0.7-1-1.2-2.7-1.1-3.6
		c0.1-1.5-0.7-2.3-4.2-4.7c-4.6-3.1-18.6-10.4-19.9-10.5c-0.4,0-2.1,1.3-3.6,2.8s-3.8,3.2-4.9,3.6c-2.3,0.9-8.1,0.4-12.2-1.1
		c-3.1-1.1-7.7-1.3-13.2-0.6c-3.2,0.4-3.5,0.6-5.3,4.3l-1.9,3.8l2.1,4.9c1.1,2.7,2.5,5.5,3,6.1c0.7,0.9,1,3.5,1,9.4
		c0,7.4,0.2,8.4,1.6,10.4c2.2,2.9,4.1,6.6,4.5,8.8c0.2,1,0.8,3.1,1.4,4.8c1,2.8,0.9,3.1-0.4,4.5c-1,1.1-1.4,2.5-1.4,5
		c0,2.6-0.4,3.7-1.5,4.6c-0.8,0.7-1.6,1.7-1.7,2.3c-0.1,0.6-0.7,2.3-1.4,3.9c-0.7,1.5-1.1,3.8-1.1,4.9c0.2,2.8,4.5,7.1,10.1,10.1
		c4.7,2.5,11.1,9.4,11.9,12.8c0.2,1.1,1.3,4.6,2.4,7.8c1.5,4.3,2,7.5,2.1,12c0.1,5.5-0.1,6.7-2.5,12.6c-1.8,4.3-3.7,7.6-5.9,10
		c-1.8,1.9-4.3,4.8-5.5,6.3c-1.3,1.5-3.9,3.7-5.9,5c-4.1,2.5-7.6,5.6-7.6,6.7c0,0.4,0.7,1.5,1.4,2.5c0.8,1,1.4,2.7,1.4,3.8
		c0,1.2,0.6,2.3,1.4,2.7c2.6,1.4,4.5,5.5,4.3,9.3c-0.1,2.4,0.2,4.1,1,5.2c0.7,1,1.6,3.1,2,4.6c0.4,1.6,2.1,5.7,3.7,9s2.9,7,2.9,8
		c0,1-0.9,3.2-2,4.8c-1.6,2.4-1.9,3.5-1.5,5.2c0.5,2,0.3,2.3-1.8,2.7c-0.9,0.2-1.4,0.3-1.7,0.6l0,0c0,0,0,0,0,0
		c-0.4,0.3-0.4,0.8-0.2,1.7c0,0.1,0.1,0.3,0.1,0.6c-0.2,1-0.8,2.2-2,3.4l0-0.1l-4.5,0.3l-4.5,0.3l-1.4-4.1c-1.3-3.8-5.9-9.8-7.6-9.8
		c-0.9,0-9.5-10.5-12.3-14.9c-1.7-2.7-2.1-4-1.9-6.7c0.1-1.8-0.1-3.9-0.4-4.6c-0.7-1.4-0.8-1.9-1.6-7.7c-0.2-1.8-1.1-4.3-1.8-5.5
		c-0.8-1.3-1.1-2.5-0.7-2.9c0.3-0.3,0.8-3.4,1.1-6.9l0.5-6.3l-3-1.5c-2.6-1.3-4.7-1.6-16.5-2l-13.5-0.5l-3.9-3.5
		c-2.2-1.9-4.6-3.5-5.4-3.6c-3.4-0.1-5.2-0.8-7.2-2.8c-1.5-1.4-3.5-2.3-6.5-2.9c-3.2-0.6-4.9-1.4-6.7-3.1c-1.3-1.3-2.4-2.7-2.4-3.1
		c0-0.7-2.2-3-4.6-5l0,0c0,0,0,0,0,0c-1.1-0.9-2.3-1.8-3.2-2.3l-0.6-0.3c-2.3-1.4-5.2-3-7.7-3.7c0,0,0,0,0,0c-1.2-0.4-2.6-0.8-4-1.1
		c-5-0.8-6.4-1.3-7.2-2.5c-0.7-1-1.8-1.3-5.3-1.2c-2.4,0.1-4.6,0.5-4.9,0.9c-0.6,0.9-8.9,1.9-10.6,1.3c-0.7-0.3-0.9-0.9-0.5-1.9
		c0.6-1.5,0.4-2.4-1.6-12.1c-1.5-6.9-1.8-9-2.3-13c-0.6-4.6-2.4-6-10-7.5c-4.8-1-6.5-1.7-7.1-2.8c-0.9-1.7-0.9-7.4,0-15.1l0.6-4.9
		l-0.2,0c0.1-0.8,0.1-1.5,0.1-2.2h0.2l-0.1-2.5c0.1-2.5,0.2-4.1,0.2-4.1l0,0c0.4-2.1,1.3-4.4,3.5-9c2.1-4.3,3.7-8.5,3.7-9.2
		c0-1.8,1.7-4.9,3.6-6.6c0.9-0.8,2.3-2.9,3.2-4.7c2-3.8,6.2-9.4,9.8-13c2.5-2.4,2.6-2.6,1.5-4.2c-1.2-1.8-1.5-1.7,4.2-1.9
		c5-0.2,7.7-1.6,8.7-4.5c0.7-2.2,0.6-7.9-0.1-8.5c-0.1-0.1-1.3-0.9-2.6-1.8c-2.7-1.9-2.5-3.1,0.4-2.4c1.1,0.2,3.4,0.5,5.2,0.5
		c3.2,0,3.3,0,3.5-2.5c0.4-4,1.8-5.1,7-5.1c7,0,8.2-0.7,11.9-7.1c1.8-3.1,3.9-6.6,4.6-7.7s2-3,2.6-4c0.6-1,1.3-3.1,1.4-4.7
		c0.2-2.4-0.1-3.1-1.8-4.5c-1.1-0.9-1.7-1.6-1.2-1.6c0.5,0,1-0.8,1.3-1.8c0.3-1,2.2-3.9,4.3-6.4c2.8-3.3,4-5.4,4.4-7.6
		c0.5-2.8,0.3-3.2-2.1-5.5c-2.3-2.2-2.5-2.5-1.3-3.1c0.7-0.4,2.6-0.9,4.2-1.1c2.4-0.4,3.1-0.2,4,1.1c0.6,0.8,2.2,2,3.5,2.6
		c2.1,0.9,2.6,0.9,3.6,0c1.1-1,2.2-1,4.9-0.2c2.6,0.8,3.4-0.5,2.1-3.5l-1.1-2.7l1.9,1.3c1.1,0.7,3.2,1.4,4.7,1.5
		c3.1,0.3,3.6-0.2,9.6-10.5c5.1-8.7,5.1-16,0-19.5c-1.6-1.1-2.5-2.4-2.8-4c-0.2-1.3-1.3-3.3-2.2-4.5c-2.2-2.5-2.3-3.9-0.4-3.9
		c0.8,0,1.8-0.7,2.2-1.5c0.4-0.8,1.8-1.8,3-2.3c2-0.7,2.1-0.9,1.7-3.4c-0.3-1.4-1.1-3.6-2-4.7c-1.4-1.9-1.4-2.2-0.3-3
		c0.7-0.5,1.2-1.2,1.2-1.5c0-1.3-2.7-3.8-5.7-5.3c-1.7-0.9-4.2-2.7-5.5-4.1c-1.3-1.3-3-2.5-3.7-2.5s-3.3-1-5.5-2.2
		c-3.1-1.6-5-2.2-7.9-2.2c-4.1,0-5.6,1-6.6,4c-0.7,2.3,1.4,11,3.1,12.8c2,2.2,1.9,3.8-0.7,7.6c-1.2,1.8-2.8,5.5-3.6,8.3
		c-0.8,2.8-1.9,6.1-2.5,7.3c-0.6,1.2-1.2,4.1-1.5,6.4c-0.2,2.3-0.7,5-1.1,5.9c-0.6,1.5-3.3,3.9-4.4,3.9c-0.3,0-1.6-1.7-2.9-3.8
		c-1.3-2.1-2.6-4-2.8-4.2c-0.8-0.6-2.1-5.2-2.1-7.3c0-1.1,0.6-2.7,1.4-3.5c1.6-1.6,1.8-4.4,0.7-8.9c-0.5-2.1-2.2-4.6-5.6-8.3
		l-4.9-5.3l-2.5,1.1c-2.9,1.2-3.8,3.5-4.7,11c-0.5,4.8-1.7,7.8-1.8,4.7c-0.3-5.8-0.9-7.8-3.5-11.6c-3.4-4.9-3-6.1,2.1-6.8
		c1.8-0.2,3.7-0.9,4.3-1.4c0.9-0.8,0.6-1.2-1.7-2.1c-5.5-2.3-8-2.8-10.7-2c-2.2,0.6-2.9,0.5-4.3-0.6c-1.5-1.2-1.5-1.5-0.6-4.2
		c0.5-1.6,0.8-3.9,0.6-5.1c-0.3-2-0.2-2.1,1.3-1.6c3.8,1.4,3.3-2.6-1.2-10.1c-3.6-6-3.7-6.3-3.9-12.5c-0.3-7-1-8.5-5.9-12.8
		c-1.5-1.3-3.1-3.2-3.5-4.3c-0.6-1.3-1.6-2.1-3.2-2.4c-2.6-0.5-2.1-0.9-7.8,6.1c-2.1,2.6-2.3,3.2-1.7,4.7c0.7,1.6,0.5,1.9-2.3,3.4
		c-2.6,1.4-3.3,2.3-4.4,5.7l-1.4,4.1l1.9,4.5c1.5,3.5,1.8,4.8,1.2,5.9c-0.4,0.8-0.8,3.3-0.8,5.6c0,3.6,0.3,4.8,2.5,8.1
		c2,3.2,3.1,4.1,5.6,5c4.1,1.4,8.6,5.4,7.3,6.6c-1.5,1.5-1.1,6.7,0.6,8.2c1.1,1,1.4,2.2,1.4,5.4c0,3.4-0.4,4.6-2.2,7.1
		c-2.3,3.2-7.4,5.7-10,5.1c-2.6-0.7-3.4,0.6-3.3,5.8c0,2.9,0.5,5.8,1.1,7.1c0.7,1.4,0.9,2.9,0.6,4.3l-0.5,2.2l-0.9-2.4
		c-0.5-1.3-1.7-2.7-2.6-3c-0.9-0.4-1.6-1.1-1.4-1.6c1.5-4.6,4.1-14.4,3.9-14.6c-0.1-0.1-1.9-1.1-4-2.1c-4.9-2.5-9.4-4-13.5-4.5
		c-3.2-0.4-3.3-0.4-3.3,1.4c0,1-0.5,3.1-1.1,4.7c-0.6,1.5-1.2,4-1.3,5.4c-0.1,1.4-0.1,2.6-0.1,2.6c0,0-2.3-0.6-5.1-1.4
		c-2.8-0.8-7.2-1.4-9.8-1.4c-2.6,0-6.8-0.2-9.2-0.5l-4.4-0.5l-3-4.6c-1.6-2.5-3.4-4.6-3.8-4.7c-0.4-0.1-1.1-0.2-1.5-0.3
		c-0.4-0.1-1.5-0.2-2.4-0.3c-1.9-0.1-7.4-5.4-9.2-8.9c-0.7-1.3-1.3-3.4-1.4-4.7c-0.2-3.2-2.1-5.9-4.5-6.2c-1.1-0.1-3.7,0.3-5.7,1
		c-2,0.7-5,1.3-6.5,1.4c-7.3,0.5-11.4,7.4-6.6,11c1.8,1.4,2.2,1.4,5.8,0.5c2.1-0.5,5.1-1.5,6.8-2.2c2.8-1.2,3-1.2,2.7,0
		c-0.2,0.7-3.6,2.9-7.9,5l-7.6,3.8l0.4,7.4c0.3,4.6,0.2,7.8-0.3,8.4c-0.6,0.8-0.7,0.5-0.4-1.1c0.4-2.8-1.5-6.4-7.1-13.8
		c-2.4-3.1-4.9-6.5-5.5-7.5c-1-1.6-1.4-1.7-3.1-0.9c-1.1,0.5-4,1.2-6.6,1.6c-5.2,0.8-7.4,0.5-18.8-3c-6.2-1.9-7.5-2.6-8.8-4.5
		c-0.9-1.3-1.6-2.7-1.6-3.1c0-1.4,3.3-3,7.2-3.5c3.9-0.5,5.8-1.6,5.8-3.5c0-1.4-2.8-7.6-4.5-10.1c-0.8-1.1-2.8-3.1-4.5-4.6
		c-2.8-2.3-3.4-2.5-4.7-1.8c-1.2,0.6-2,0.6-3.5,0c-3.4-1.6-8.7-6-10.6-9c-2.8-4.4-9.8-10.7-10.7-9.7c0,0,0.7-5-7.1-10.4
		c-0.7-1.1-1.2-1.9-1.2-2.1c0-0.3-0.4-0.6-0.8-0.6s-1.7-0.6-2.7-1.4c-1.1-0.7-3.2-1.5-4.8-1.7c-2.5-0.3-3.3,0-5.9,2.1
		c-2.6,2.1-3.2,2.3-4.9,1.7c-2.4-0.9-2.4-1.5,0.2-4c1.2-1.1,1.9-2.4,1.6-2.8c-0.3-0.4-0.5-2.5-0.5-4.5c0-6.3-1-6.3-7.3,0
		c-3,3-5.7,5.5-5.9,5.5c-0.5,0-2.7-2.4-2.8-3c0-0.3-0.1-4.8-0.2-9.9c-0.1-9.2-0.1-9.3-1.9-10.1c-2.6-1.2-3.8-1.1-5.9,0.6
		c-1.4,1.1-2.8,1.4-5.3,1.3c-2.3-0.1-3.3-0.4-2.8-0.9c0.3-0.4,0.8-1.7,1-2.8c0.3-1.8,0-2.2-3-3.7c-3.3-1.7-8.6-2-13.1-0.9
		c-1,0.3-5.2,0.6-9.4,0.9c-5.5,0.3-7.7,0.7-8.1,1.5c-0.3,0.6-1.6,1-2.7,1c-2,0-2.1-0.2-2.1-3.1c0-3.5-0.1-4.6-2.8-4.7
		c-1.2,0-3,0.2-5.5,0.5c-3.9,0.5-7.5,1-8,1.2c-0.7,0.3-0.9,1.3-0.6,3.9c0.4,4.1-0.5,5.1-2.2,2.5c-0.5-0.8-1.1-1.5-1.5-1.7l-2.2-2.6
		l0,0c-0.3-0.5-1-1.2-2.3-2.2c-2.2-1.9-3.1-3.3-3.4-5.3c-0.3-1.5-1.2-4.3-2.2-6.1c-0.9-1.8-1.9-5.2-2.2-7.6
		c-0.5-4.6-1.9-6.2-6.6-7.9l-2.3-0.8l-8.9,13.1c-19.7,29.2-34.3,50.8-45.6,67.6c-14.2,21.1-32.6,48.3-42.5,62.9
		c-5.4,7.9-7.1,11-6.7,12.1c0.4,1.4,2.9,2.7,4.2,2.4c0.3-0.1,0.8,0.5,1,1.3c0.3,1.1,1,1.5,2.6,1.5c8.2,0.3,10.6,2.4,6.5,5.7
		c-1.8,1.4-3.5,3.8-4.2,5.7c0,0,0,0,0,0c-1.4,2.6-0.3,6.8-0.4,7c0,0,0,0,0,0c-0.8,1.6-0.7,6.3,0.5,8.1c1.4,2.1,2,10.8,1.1,14.4
		c-0.3,1.3-0.6,2.3-0.5,2.3s1.4-0.6,3-1.4c1.6-0.7,4.8-2.1,7.2-2.9c3.2-1.2,4.7-2.2,5.7-3.8c1.4-2.4,2.1-2.4,7.1-0.3
		c1.7,0.7,2.8,1.7,3,2.7c0.2,0.9,1.3,5.7,2.5,10.6c1.2,5,2.3,10.3,2.6,11.8c0.2,1.5,0.6,3.5,0.7,4.3c0.2,0.8,0.5,4.6,0.7,8.4
		c0.2,3.8,0.8,8.7,1.2,10.9c0.7,3.6,0.6,5-1.2,12.2c-1.7,7-1.8,8.6-1.1,11.3c1.2,4.7,5.5,12.9,8,15.1c2,1.7,2.2,2.3,2.2,6.4
		c0,4-0.2,4.7-2.3,6.9c-2.7,3-4.2,6.3-4.2,9.2c0,2.8-4.1,6.5-9.3,8.4c-2.1,0.8-4.7,2.3-5.7,3.3c-1.8,1.8-1.8,2.1-1.9,11.2
		c0,8,0.2,9.8,1.4,12.2c2.5,4.9,2.6,6,1,7.4c-0.8,0.7-1.7,2.3-1.9,3.7c-0.3,2.1,0.1,3.1,2.5,6.6c2.2,3.2,2.9,4.8,2.9,7
		c0,1.6,0.4,3.9,0.8,5.1c0.7,2.1,0.6,2.4-1.4,4.1c-2.1,1.8-2.2,2-2.3,8.5c-0.1,7.7-0.1,9,0.3,11c0.2,0.8,0.3,1.8,0.4,2.3
		s1.6,1.8,3.5,2.9c1.9,1.1,3.5,2.2,3.7,2.6c0.1,0.3,0.7,0.6,1.3,0.6c0.9,0,1,0.7,0.7,3.5c-0.4,3.5-0.4,3.5,3.4,7.4
		c4.3,4.3,6.7,9,7.4,14.4c0.4,3.3,3,7.2,4.7,7.2c0.3,0,0.6,0.7,0.6,1.5c0,1.4,1.5,3.1,5.7,6.6c1,0.9,1.5,2.1,1.5,4
		c0,3.3,0.5,4.1,3.2,5.1c1.2,0.4,4.6,1.7,7.6,2.9c17.4,6.8,59.6,22.6,63.5,23.8c9.3,2.9,20.7,6.4,25.2,7.8l0,0l0,0
		c1.1,0.3,1.8,0.5,1.9,0.6c0.2,0.1,0.4,0.1,0.5,0.1l8.3,2.3l0,0c4.7,1.5,13.4,3.7,30.1,8.1c4.4,1.2,8.2,2.2,9.8,2.6l0,0
		c0,0,0.3,0.1,0.9,0.3c0.1,0,0.1,0.1,0.2,0c1.8,0.5,5.4,1.5,7,1.6c0,0,0,0,0,0c0.3,0.1,0.7,0.2,1.1,0.3c3.1,0.7,6.3,1.4,7.1,1.5
		c0.8,0.1,3.6,0.7,6.1,1.4c4.2,1,6.1,1.4,9.4,2.1c0.6,0.1,9,2,18.8,4.2c9.7,2.2,19.8,4.2,22.4,4.5c2.6,0.3,5.5,0.6,6.5,0.7
		c1,0.1,3.9,0.5,6.5,0.7s5.5,0.6,6.5,0.7c0.8,0.1,3.1,0.4,5.6,0.6l0,0l8.1,0.9c0.5,0.5,1,0.5,1.3,0.2l3.5,0.4l0,0.1l4.3,0.4
		c6.9,0.7,13.6,1.5,15.5,1.7c1,0.1,3.6,0.5,5.8,0.7c4.2,0.5,6.6,0.7,13,1.5c2.2,0.3,7.1,0.7,10.8,0.9c3.8,0.3,10.2,0.6,14.2,0.7
		l6.8,0.2c0,0,0,0,0,0l0,0l0.5,0l0.1-0.7c0.4-0.4,1.2-0.9,2.5-1.7c1.3-0.8,2.7-1,3.9-1c1.4,0.8,1.6,1.7,2,5.2c0.6,5,1,5.6,4.9,6.3
		c1.5,0.3,3.3,1,3.8,1.5c0.7,0.7,2.9,1,7.7,1c6.6,0,6.6,0,9.3,2.5c1.6,1.5,3.4,2.5,4.5,2.5c1,0,1.9,0.3,1.9,0.6
		c0,1.6,4.8,3.3,9.7,3.4c2.8,0.1,7.5,0.5,10.5,1c10.4,1.7,10.7,1.7,13.6-1.5c1.4-1.5,4.8-4.2,7.5-5.9c4.4-2.9,4.7-3.3,3.7-4.3
		c-1-1-0.9-1.3,1.8-3l3-1.9l4.2,2.1c3.9,2,4.6,2.1,10,1.7l5.8-0.4l0.5,2.1c0.3,1.1,0.6,3.3,0.7,4.9c0.1,1.5,0.6,3.2,1.2,3.7
		c1.9,1.8,9.5,5.4,12.3,5.9c2.4,0.4,2.9,0.8,4.2,3.6c0.8,1.8,2.1,4.1,2.9,5.3c1.8,2.5,1.9,4.1,0.3,4.7c-1,0.4-0.9,0.8,0.9,2.6
		c1.1,1.2,2.1,3,2.2,4.1c0.1,1.6,0.8,2.3,3.9,3.9c2.1,1.1,4.3,2.6,4.9,3.5c1,1.4,1.8,1.5,11.7,1.5c7.5,0,11.8,0.3,14.6,1.1
		c2.2,0.6,6.1,1.4,8.7,1.7c2.6,0.3,5.4,1,6.1,1.6c2,1.5,9.9,10,11.8,12.8c2.9,4.2,0.7,10.9-3.2,9.8c-3.9-1.1-7.8-3.6-11.6-7.5
		c-2.3-2.4-4.5-4.3-4.8-4.3c-1.1,0-0.5,2,1,3.3c0.9,0.8,2.1,2.7,2.8,4.2l1.3,2.9l-2.6,4.6c-2.4,4.3-2.6,5-2.5,10.5
		c0.1,3.2,0.2,7,0.3,8.3c0.2,2.6-2,6.8-4.6,8.6c-0.7,0.5-1.5,2.1-1.8,3.6c-0.3,1.5-0.8,3.3-1.2,4c-0.5,1-0.4,1.5,0.2,1.9
		c1.1,0.7,0.4,5.7-0.9,6.6c-0.5,0.3-2.2,0.8-3.7,1.1c-2,0.3-3,1-3.8,2.5l-1,2l2.3-0.2c1.3-0.1,3.5-0.3,4.9-0.3
		c2.2-0.1,3.3-0.8,7.9-5.7c8.5-8.9,10.1-9.7,17-8c1.8,0.4,4.1,0.6,5.2,0.3l2-0.5l-1.8-1.4c-1.6-1.2-1.7-1.5-0.7-2.4
		c2-1.9,9.9-4.8,12.8-4.8c4.9,0,5.3-0.4,3.9-3.4c-0.9-1.9-1.5-2.4-2.6-2.1c-0.8,0.2-2.5-0.1-3.9-0.7c-2.7-1.1-2.8-2.2-0.1-6.5
		c2.6-4.4,15.1-9.5,23.7-9.7c4.8-0.1,10.6-2.3,9.7-3.7c-0.4-0.7,2.5-3.4,3.7-3.5c0.4,0,3-2.9,5.8-6.3c5.3-6.6,9.1-10.6,13.6-14.4
		c0.8-0.7,1.3-1.2,1.7-1.6c0,0,0,0,0,0s3.9,0.5,8.7,0c2.1,0,9.1-1.2,15.5-2.6c6.4-1.4,12.4-2.7,13.2-2.9c0.8-0.2,2.3-1.4,3.2-2.7
		c0.9-1.3,2.8-3.2,4.3-4.2c2.9-2,5-6.8,5.6-12.4c0.2-1.7,0.6-5.2,1-7.8c0.4-2.6,0.9-6.2,1.1-7.9c0.6-4.4,3.6-14.4,5.1-16.4
		c0.9-1.2,1.7-1.5,3.1-1.3c1.1,0.2,3.2,0.1,4.7-0.1l2.8-0.4l-0.1-1.3c0.6-0.1,1.4-0.2,2.3-0.2l0,0.2l2,0c1.2,0.2,2.5,0.5,4,1.1
		c1.7,0.8,3.6,2.1,5.2,3.5c1.2,1.1,1.6,2.4,1.6,4.8c0,7,4.7,19.1,7.6,19.8c0.9,0.2,2,1.3,2.5,2.4c1.2,2.8,3.2,5,4.8,5.4
		c4.6,1.2,9.3-0.3,10.6-3.2c0.7-1.5,1.4-2,3-2C820.7,803.3,829.8,794.2,832.3,788.7z M384.1,597.7c1.2,2,1.2,2.1-0.8,4.6
		c-1.1,1.4-2.4,3.1-2.9,3.8c-0.3,0.4-0.6,2.1-0.8,4.6c-0.5,2.2-1.3,4.7-2.7,6.2c-0.6,0.7-1.1,1.2-1.4,1.6c-0.6,0.1-2.1,0.9-3.3,1.9
		c-1.9,1.6-2.4,1.7-2.9,0.9c-0.4-0.7,0.1-1.7,1.7-3.4c2.5-2.5,2.8-5,1.1-10.1c-0.6-1.8-0.5-3,0.2-4.6c0.9-2.3,5.3-7.1,6.4-7.1
		c0.3,0,0.5-0.1,0.8-0.3c3.3-0.6,3.8-0.3,3.9-0.1c0,0.1,0,0.1,0,0.2c0,0,0,0,0,0l0,0C383.4,596.5,383.7,597,384.1,597.7z
		 M270.6,472.9c-2-4.1-2.3-6.1-1-6.1c0.3,0,1.6,1.5,2.9,3.3s3.5,4.3,4.9,5.6c3.9,3.5,6.7,6.7,8.5,9.7c1.4,2.4,2.2,2.8,6.4,3.9
		c4.5,1.1,5.1,1.1,9,0c2.9-0.8,4.7-1.9,5.8-3.2c2.2-2.8,4.9-4,9.5-4.3c3.9-0.2,3.9-0.2,3.8,1.8c-0.2,2.9-3.1,6.1-6.2,7
		c-1.5,0.4-4.1,2.1-5.8,3.7c-1.7,1.6-5.2,3.9-7.8,5.1c-2.6,1.2-5.9,2.8-7.4,3.6c-1.6,0.8-3.5,1.3-4.6,1.1c-1.3-0.2-2.5,0.2-4.1,1.6
		c-1.3,1.1-3.5,2.5-5.1,3.2c-1.5,0.6-3.7,1.1-4.7,1c-13.3-1.2-14.6-1.7-21-7.6c-5.7-5.3-5.7-6.7,0.3-6.7c2.2,0,4.7,0.3,5.4,0.7
		c1.6,0.9,3.6,0,6.7-2.8c1.6-1.5,2.6-1.8,4.9-1.6c3.3,0.2,5-0.8,5-3.1C276.1,486.7,273.2,478.3,270.6,472.9z M226.3,374.4
		c0.4-0.3,8.8-0.4,18.7-0.4c18.8,0.1,20.3,0.3,20.3,3.3c0,0.7-1.5,2.6-3.4,4.2c-2.3,1.9-3.2,3.2-2.7,3.6c0.9,0.9,10.8,4.9,15.7,6.4
		c3.4,1,3.5,1.1,3,3.4c-0.5,2.5-1.6,4.1-2.6,4.1c-0.4,0-1.9,0.8-3.5,1.9l-2.8,1.9l-4.2-1.9c-2.3-1.1-4.8-2.3-5.6-2.7
		c-1.8-1-2.8,0.2-4.4,5c-1.5,4.5-1.7,4.7-7.4,6.7c-2.5,0.8-4.8,1.5-5.2,1.5c-1.4,0-0.8-2.1,1.3-4.5c4.2-5,4.2-4.9,1.7-4.9
		c-1.3,0-3.1,0.8-4.4,1.9c-3.6,3-6.3,3.4-9.5,1.6c-1.5-0.9-3.1-2.4-3.6-3.4c-0.8-1.7-0.5-2.1,4.3-6.7c2.8-2.7,6.5-5.6,8.3-6.4
		c1.8-0.8,3.3-2.1,3.5-2.8c0.5-2.1-2.3-4.3-5.7-4.4c-1.6,0-4.9-0.8-7.5-1.6c-3.8-1.3-4.7-1.9-4.9-3.3
		C225.7,375.6,225.9,374.6,226.3,374.4z M337.5,561c-4.1-1.9-4.7-1.9-10-1.3c-3.1,0.4-7.2,0.4-9.2,0.1c-1.9-0.3-5.2-0.7-7.3-0.8
		l-3.7-0.3c0,0-1.8-0.7-3.3,1.6c-0.2-0.2-0.5,0.3-0.8,1.1c0,0.1-0.1,0.2-0.1,0.3c-0.2,0.3-0.4,0.6-0.6,1c-0.5,0.6-1.1,1.3-1.8,1.7
		c-2,1.4-2.2,1.4-4.7,0.2c-1.4-0.7-2.6-1.6-2.6-2c0-1.3,7.6-8.8,9.4-9.3c1-0.3,2.1-0.7,2.6-1c0,0,0.1-0.1,0.2-0.2l3.9-2.5l0,0
		c0.2,0.1,0.6,0,1.2-0.3c2.1-1.1,4.2-0.9,5.8,0.7c0.8,0.8,2.2,1.4,3.1,1.4c0.9,0,2.9,0.4,4.5,0.8c3.8,1,19.1,8.5,19.1,9.3
		C343.3,562.9,341.6,562.8,337.5,561z M428.5,743.2c-1,0.1-2.3,1-3.1,2c-1.6,2-2.9,2.2-4.4,0.7c-1.2-1.2-0.9-6.4,0.6-8.7
		c0.5-0.8,1.1-2.4,1.3-3.5c0.2-1.1,0.8-2.5,1.3-3.1c1.4-1.7,1.4-3.4-0.1-4.4c-1.2-0.7-1.5-0.7-2.3,0.6c-1,1.6-2.7,1.9-2.7,0.6
		c0-0.5,0.4-1.9,0.8-3.1c1.9-5.4-1.2-10-5.8-8.4c-1.8,0.6-2.4,0.5-3.6-0.8c-0.8-0.9-1.9-3.1-2.5-5c-0.6-1.9-1.9-4.5-2.9-5.8
		c-1.3-1.7-1.7-3-1.5-4.5c0.3-2,0-2.3-3.2-4c-4.7-2.5-6.6-1.7-6.7,2.5c-0.1,1.6-0.2,4.6-0.3,6.6c-0.6,9.9-0.6,9.9,2.3,12.3
		c6.3,5,6.8,5.7,7.9,10.1c0.5,2.4,1,5.5,1,6.9c0,1.4,0.8,4.3,1.9,6.3c2.4,4.8,2.5,8.5,0.2,9.1c-2.4,0.6-3.3,0.6-3.9-0.4
		c-0.5-0.8-2.5-10-3.9-17.9c-0.8-4.5-1.8-5.8-6.9-9.1c-4-2.6-5.9-4.6-5.7-6c0.1-0.5,0.2-1.5,0.2-2.3c0-0.8,0.5-1.8,1.1-2.4
		c0.6-0.6,1-2.7,0.9-5.8c0-4.8,0-4.8-2.8-6.3c-3.1-1.7-4.2-3.4-4.2-6.1c0-1.5,0.4-1.9,1.8-1.9c2.7,0,3.6-2.3,1.8-4.6
		c-0.8-1-1.4-2.2-1.4-2.6c0-0.9,3.4-2.4,5.3-2.3c1.7,0.1,5.5,3.6,5.5,5.2c0,0.7,0.8,1.9,1.7,2.8l1.6,1.6l1-2.6
		c1.6-4.5,4.5-8.2,6.9-8.7c1.2-0.3,2.2-0.4,3.1-0.4c2.8,0,4.7,1.3,6,4.1c0.8,1.6,1.7,3.1,2,3.3c1.4,0.9,4.7,9.7,4,10.7
		c-0.4,0.6,0.9,4.6,2.3,7.2c0.5,0.9,0.8,3.3,0.7,5.4c-0.2,4,2.2,12.9,4.5,16.8c0.9,1.6,1.3,4.1,1.5,9
		C430.3,742.9,430.2,743,428.5,743.2z M798.7,633.8c-1.5,3.3-4.1,4.6-7.5,3.5c-2.6-0.8-6.3,0.5-7.9,2.9c-1.4,2-5.7,2.5-7.4,1
		c-1.9-1.7-1.8-2.6,0.8-4.3c1.2-0.8,2.4-2,2.6-2.7c0.3-0.9,2.4-2.8,5.2-4.8c1.7-0.6,3.5-1,5-1.2c0,0,0,0,0,0
		c0.8,0.3,1.9,0.4,3.5,0.4c1.5,0,3-0.6,4-1.5c0.9-0.9,1.8-1.2,2.1-0.9C800.1,627.3,799.9,631,798.7,633.8z"/>
	<path class="st0" d="M966.2,702.1c-0.1-2.6-0.4-5.1-0.7-5.4c-0.3-0.3-1.5,0.2-2.7,1c-3,2.2-4,2-5-1.3c-0.5-1.6-1.3-2.9-1.9-2.9
		c-1.1,0-4.7,4.3-4.7,5.7c0,1.2-1.2,1-1.7-0.3c-0.2-0.6-0.4-2.3-0.4-3.6c0-1.4-0.4-2.5-0.8-2.5c-0.5,0-0.2-0.6,0.6-1.3
		c2.4-2.1,3.9-4.7,3.9-6.8c0-2.4-0.8-2.7-5.4-2c-3.1,0.5-3.8,0.4-5.1-0.9c-1.2-1.2-1.3-1.7-0.6-2.8c1.1-1.8,0.4-5.6-1.2-6.5
		c-3-1.5-6.2-1.5-9.8,0.2c-2,0.9-5.2,2.1-7.1,2.6c-1.9,0.5-3.6,1.2-3.8,1.6c-0.2,0.3-2,0.6-4,0.6h-3.6l0.1-2.3
		c0.2-3.7,0.1-3.8-2.5-4.8c-2.4-0.9-5.4-0.6-5.4,0.5c0,0.3-0.8,1.5-1.9,2.7l-1.8,2.2l0.5-4.3c0.3-2.4,0.6-4.6,0.9-5s0.5-4.5,0.7-9.2
		c0.3-8.8-0.2-11.4-2.9-13.6c-0.9-0.8-1.7-0.5-4.5,1.7c-5.2,4-6.5,6.4-7.2,13.1c-0.3,3.2-0.6,6.4-0.7,7.2
		c-1.2,11.8-1.4,23.6-0.7,33.7c0.4,5.6,0.3,6.5-1.1,8.7c-1.9,3.1-1.9,4.6-0.1,5.2c2,0.6,1.7,4.3-0.5,7.4c-2.1,2.9-2.1,5.9-0.2,8.5
		c0.8,1.1,1.9,1.8,2.3,1.6c0.4-0.2,4.1-1.6,8.1-3.2c4-1.6,8.4-3.1,9.7-3.3c1.4-0.2,3.4-0.6,4.5-0.7c1.1-0.2,3.8-1.4,6-2.7
		c7.3-4.4,8.5-4.9,9.4-4.2c0.9,0.7,4,0.1,6.7-1.4c1.5-0.8,1.5-0.7,1.5,2c0,2.3-0.5,3.3-2.5,5.2c-3.8,3.6-3.4,4.7,1.5,4.6
		c5.7-0.1,7.4-2,8.4-9c0.7-4.8,1-5.5,3.6-8c2.3-2.2,2.8-3.2,2.8-5.3c0-1.5,0.3-2.6,0.6-2.6c1.4,0,2.3,2.2,2.9,7.8
		c0.9,7.7,2.5,9.9,4.4,6.3c1.2-2.3,1.7-2.3,2.8,0c0.7,1.5,1.3,1.8,3.1,1.6c3-0.2,6-4.5,5.8-8.4C966.5,708.1,966.3,704.7,966.2,702.1
		z"/>
	<path class="st0" d="M870.5,776.2c-1.8-0.1-3.9-0.3-4.5-0.6c-0.7-0.3-2.2,0.2-3.7,1.2c-2.5,1.7-10.2,2.9-17.1,2.7
		c-2.2-0.1-3,0.4-6.2,4.1c-7.3,8.3-8.3,14.7-1.6,10.8c3.8-2.2,7.1-3.5,7.1-2.7c0,0.9-6.3,5.1-8.3,5.6c-1,0.3-2.3,1.1-2.8,1.8
		c-0.5,0.8-2.2,2.8-3.8,4.4c-3.1,3.4-7.9,10.5-9,13.3c-0.5,1.3-0.4,3,0.5,5.9c1.7,6,3.8,8.4,8,9.3c1.9,0.4,3.6,0.8,3.6,0.9
		c0.1,0.1,2.3-2.1,4.9-4.7c3.6-3.7,5.3-6.1,6.9-10.1c1.2-2.9,2.2-5.6,2.2-6s0.4-1.5,0.8-2.5c0.7-1.5,1.2-1.7,3.1-1.4
		c2.1,0.3,2.4,0,4.4-3.3c1.2-2.1,2.8-3.8,3.7-4c1.5-0.4,7.8-5.2,10.4-7.9c0.6-0.6,3.2-3.2,5.7-5.8c4.3-4.3,4.6-4.8,3.8-6.5
		C877.3,778,874.3,776.3,870.5,776.2z"/>
	<path class="st0" d="M884.7,759.6c-2.1-0.5-2.8-2-2.8-6.1c0-2.5-1.6-5.8-2.9-5.8c-1,0-3.4,5-5.8,12.5c-1.2,3.7-2.6,7.1-3,7.6
		c-0.5,0.7,0.2,1.9,2.8,4.7c1.9,2.1,4,4.2,4.6,4.7c1.6,1.3,1.9,1.2,3.6-1.2c1-1.3,2.2-2.2,3.2-2.2c1.2,0,2.3-1,3.9-3.5
		c1.2-1.9,2.2-4.1,2.2-4.9C890.6,763.5,887.2,760.2,884.7,759.6z"/>
	<path class="st0" d="M274,273.9c0.4,3.4,0.9,6.7,1.1,7.2c0.3,0.8,1.6,0.9,5.9,0.6c3.1-0.2,6.4-0.6,7.4-0.8c5.3-1.2,6.1-1.3,6.1-1.1
		c0,0.1,0.7-0.2,1.6-0.6c0.9-0.5,2.7-3,4.2-5.7c2.1-3.9,3.6-5.6,7.4-8.5c2.7-2,5.6-4.3,6.6-5.2c1-0.9,2.8-2,4-2.5
		c1.2-0.5,2.4-1.1,2.6-1.3c1.2-1.5,6.2-3.7,11.3-4.9c10.9-2.6,11.5-4,7.2-17.1c-3.4-10.3-4.2-11.2-10.1-11c-4.2,0.1-4.2,0.1-8.1-3.8
		c-2.1-2.2-4.3-5-4.7-6.3c-0.7-1.9-1.4-2.5-3.8-3.1c-1.7-0.4-4.7-1.4-6.8-2.3c-2.1-0.8-5-1.7-6.5-1.8s-3-0.4-3.5-0.6
		c-1.1-0.3-3.3,2.1-3.1,3.4c0.1,0.5,0.1,2.8,0,5.1c-0.1,3.9-0.3,4.4-5.4,11.2c-2.9,3.9-5.9,7.7-6.7,8.5c-0.8,0.8-3.1,4.3-5.3,7.8
		c-2.2,3.5-4.8,6.9-5.8,7.5c-2.2,1.4-4.3,3.8-4.3,4.9c0,0.4,1.8,3.8,4,7.5C273,267.1,273.4,268.3,274,273.9z"/>
	<path class="st0" d="M358.7,179.1c-0.7,1-1.8,1.8-2.5,1.8c-1.6,0-5.7,4.9-5.7,6.8c0,0.8-0.8,2.3-1.9,3.4c-1.6,1.7-2.2,2.9-2.4,5.2
		c0,0.3-0.5,0.5-1,0.5c-1.7,0-3.6,2.7-3.1,4.5c0.5,2,7.2,10,9.3,11.1c2,1.1,6.2,0.6,7.9-0.9c1.4-1.2,1.5-1.2,2.8,0.5
		c1.1,1.4,2,1.8,4.4,1.8c5.9,0,3.8,2.4-3.5,3.9c-4.5,0.9-7.4,2.7-7.4,4.4c0,0.7,1.5,3,3.3,5l3.3,3.7h5c4.7,0,5.3-0.2,9.2-2.9
		c2.3-1.6,4.6-2.9,5.2-2.9c0.8,0,1.7-2.5,3.3-9.2c2.4-9.8,2.3-10.3-1.3-10.3c-3.5,0-4.5-1.5-4.6-6.6c-0.1-5.7-1.9-9.4-5.5-11.8
		c-2.3-1.5-2.8-2.2-2.8-4.3c0-3.5-2.7-5.5-7.3-5.5C360.5,177.3,359.7,177.6,358.7,179.1z"/>
	<path class="st0" d="M348.2,183.2c-1-1.3-2.6-1.1-7.5,0.8c-5.6,2.3-7.1,4.2-6.1,7.8c0.4,1.5,1.3,2.8,2,3c0.7,0.2,1.4,0.4,1.6,0.4
		c0.2,0,1.5-1,3-2.3c1.4-1.3,3.7-3.2,5.1-4.3C348.8,186.8,349.5,184.9,348.2,183.2z"/>
	<path class="st0" d="M324.9,178c3.7,0,4,0.1,4,1.8c0,1,0.5,2.3,1.1,2.9c2.4,2.4,4.5,1.4,11.4-5.5c7.2-7.2,9.8-9.5,9.8-8.6
		c0,0.3-0.6,1.1-1.4,1.8c-1.7,1.5-2,6.4-0.4,7.7c1.3,1.1,3.8,0.4,4.7-1.4c0.4-0.8,2.2-2.2,3.9-3.2c2.9-1.7,3.2-2.1,3.5-5.5
		c0.2-2.4,0.8-3.9,1.5-4.4c3.5-1.9,5-6,3.6-9.6c-0.6-1.6-3.9-3.1-6-2.8c-1,0.2-3.8,0.3-6.3,0.2c-5.5-0.1-6.6,0.4-13.2,6.7
		c-2.9,2.7-5.5,4.7-5.8,4.5c-0.3-0.2-2.2,0.5-4.1,1.6c-1.9,1.1-4.9,2.3-6.7,2.8c-2.4,0.6-3.7,1.5-4.9,3.2
		C316.4,174.8,318.5,178,324.9,178z"/>
	<path class="st0" d="M378.6,151.1c0.8,0.5,1.5,1.3,1.5,1.9s0.7,2.7,1.6,4.8c1.3,3.1,2.1,4,4.4,5.1c3.3,1.5,7.2,1.3,9.1-0.4
		c1.2-1,2.1-3.9,3.2-9.4c0.2-0.8,0.6-2.8,1-4.6c0.6-2.4,0.5-3.2-0.2-3.5c-1.2-0.5-13.7,0.1-16.8,0.8c-1.7,0.4-2.3,0.3-2.3-0.4
		c0-1.4-2.2-3.6-3.7-3.6C373.1,141.9,374.7,148.7,378.6,151.1z"/>
	<path class="st0" d="M390.2,137.2c1.4-0.3,2.3,0,3.2,1c0.7,0.8,2.2,1.8,3.4,2.3c1.2,0.5,2.1,1.2,2.1,1.5s0.4,0.6,0.9,0.6
		c0.8,0,3.6-10.7,3-11.4c-0.7-0.8-6.2-0.9-7.2-0.2c-0.6,0.5-1.4,0.7-1.8,0.4c-1.8-1.1-7.3,3.6-6.2,5.4
		C388,137.3,389.1,137.4,390.2,137.2z"/>
	<path class="st0" d="M412.9,350.6c0.5,0,1.2,0.3,1.5,0.7c0.4,0.4,2.5,0.9,4.8,1.1c4,0.5,4.1,0.4,4.8-1.7c1.6-4.6-1.1-9.4-8.8-15.8
		c-6.6-5.5-11.2-11.5-11.8-15.4c-0.3-1.9,0.1-3.7,1.3-6.5c1.6-3.5,1.7-4.1,0.8-6.7c-1.4-4.2-2.1-10.2-2.3-20.3l-0.2-9l4-4.9
		c5-6.2,5.7-9.2,2.9-12.7c-3-3.9-5.8-5.2-9.7-4.5c-4.3,0.8-6.6,3.4-5.7,6.5c0.3,1.2,1.1,3,1.8,4.1c1.1,1.8,1.1,1.8-0.6-0.1
		c-1-1.2-2.9-2.3-4.6-2.7c-2.6-0.6-3-0.5-5.1,1.7l-2.3,2.4l0.3,9c0.2,4.9,0.4,11.4,0.6,14.3c0.2,4.6,0,5.5-1.2,6.8
		c-2.5,2.5-3.3,0.3-2.9-8c0.3-6.8,0.2-7.2-2.6-14.2c-1.6-4-3-6.7-3.2-6.1c0,0-2.3-4.1-3.6-2.2c0,0,0,0,0,0c-0.7,0.3-1.7,0.9-3.2,1.9
		c-0.1,0.1,0.3,1.6,0.8,3.3c0.6,1.7,0.9,3.4,0.6,3.6c-0.3,0.3-1.8,0.8-3.4,1.2l-3,0.7l1.5-3.5l1.5-3.5l-1.8-1.5
		c-1-0.8-3.8-2.6-6.3-4.1l-4.5-2.6l-3.3,2.7c-1.8,1.5-3.5,2.5-3.7,2.3c-0.2-0.2,0.3-1.8,1.1-3.4c2.2-4.2,3-8.4,2.1-11
		c-0.7-2.1-0.9-2.1-4.1-1.7c-1.8,0.2-6.5,1.1-10.5,1.9c-10.7,2.2-21.4,8-21.4,11.7c0,1.9-1.1,3.8-4,6.9c-3.1,3.3-3.7,5.9-2,8.6
		c0.7,1.1,1.7,2.3,2.2,2.6c0.5,0.3,0.7,1,0.5,1.6c-0.7,1.9,1.6,5.1,3.8,5.3c1.1,0.1,3.2,0.4,4.6,0.8l2.5,0.6l-3.2,0.9
		c-9.6,2.6-13,3.8-13,4.6c0,0.5,0.6,2.8,1.3,5.1c1.3,4,1.5,4.3,4.9,5.7c4.6,1.9,16,4.8,18.5,4.8c3.4,0,6.9,1.9,11.4,6.2
		c2.4,2.3,4.2,4.2,4,4.4c-0.5,0.5-9.4-2.1-12.7-3.7c-2.7-1.3-4.8-1.7-11.2-2c-4.4-0.2-9.1-0.1-10.5,0.1c0,0-7-0.4-6.5,2.1
		c0,0.3,0.6,3.1,1.3,6.3c0.7,3.2,1.4,6,1.4,6.3s0.1,0.8,0.1,1.2c0,2.3,8.7,8.4,13,9.1c3.8,0.7,5.1,2.4,5.5,7.3
		c0.2,2.3,0.5,5.6,0.6,7.1c0.2,1.6,0.3,3.3,0.3,3.8c0.1,2,4.6,2.8,20,3.5c10.3,0.5,14.2,0,16.4-2.2c0.5-0.5,2.9-1.1,5.3-1.3
		c5-0.4,8.7-2.1,9.3-4.2c0.5-1.6,3.5-1.8,3.7-0.1c0,0.5,0.1,1.3,0.2,1.9c0,0.5,1.4,1.6,3,2.3c1.6,0.7,3.8,2.2,5,3.2
		c3.8,3.4,9.1,6.5,12.7,7.3c3.7,0.9,6.2,0.7,8.9-0.6c5.8-2.7,6.6-6.6,2.7-12.9C411.3,352.9,411,350.6,412.9,350.6z M370.1,276.6
		L370.1,276.6C370.1,276.6,370.1,276.6,370.1,276.6L370.1,276.6z"/>
	<path class="st0" d="M603.3,697.3c2.4,1,5.3,1.7,6.3,1.7c2.8-0.1,2.9-3,0.3-6c-1.9-2.2-2.3-2.3-5.6-1.9c-5,0.5-5.4,0.7-5.4,2.7
		C598.9,695.3,599.6,695.8,603.3,697.3z"/>
	<path class="st0" d="M602.3,520.3c3-2.8,4.1-11.1,1.8-13.2c-2.3-2-4.1-2.1-5.8-0.4c-4,4.3-4.2,11.4-0.3,13.8
		C600.5,522,600.5,522,602.3,520.3z"/>
	<path class="st0" d="M574.1,497.8c-5.6-0.1-6.4,0-9.2,2c-3.5,2.4-5.9,9.5-4.2,12.6c0.7,1.3,1.3,1.5,4.5,1.2
		c4.8-0.4,9.1-3.2,12.1-7.9c2.1-3.2,2.2-3.7,1.4-5.7C577.9,498,577.5,497.9,574.1,497.8z"/>
	<path class="st0" d="M588.2,485.3c3-1.7,3.5-2.5,3.8-6.2c0.2-2.2-0.1-2.8-2.4-4.6c-2.4-1.8-3.1-2-6.5-1.6c-3.3,0.4-3.8,0.3-3.8-0.8
		c0-0.7-0.8-2.6-1.8-4.2c-1-1.6-1.8-3.4-1.8-4c0-0.6-2-2.5-4.5-4.2c-2.5-1.7-7.3-5-10.6-7.4c-4-2.8-6.9-4.3-8.3-4.3
		c-1.9,0-2.3-0.5-3.4-3.1c-0.7-1.7-2-4-2.9-5.1c-1.4-1.8-2-2-4.2-1.6c-2.3,0.4-2.6,0.8-3.5,4.2c-2.8,11-3.2,15.5-2.8,29.7
		c0.1,4.1-0.4,5.4-3.1,8.3c-4.7,5.1-3.4,7,5.1,7.1c2.2,0,4.4,0.5,4.9,0.9c0.5,0.5,0.9,2.4,0.9,4.3c0,2.7,0.3,3.5,1.3,3.7
		c1.1,0.2,2.9,0.2,4.7-0.1c0.7-0.1,3.5-3.1,5.8-6.1c0.9-1.2,2.5-3,3.6-4.1c2.2-2.1,3.5-5,3.5-7.6c0-0.9,0.5-2.1,1.1-2.6
		c1.5-1.3,8,2,7.7,3.9c-0.1,0.7,0.5,2,1.3,2.9c1.2,1.3,2.1,1.6,4.2,1.3c1.7-0.2,3.8,0.2,5.9,1.1
		C585.5,486.8,585.5,486.8,588.2,485.3z"/>
	<path class="st0" d="M433.5,370.7c0,1.3,3.4,4.4,4.8,4.4c0.3,0,1.6,0.9,2.8,2c3.1,2.9,6.2,4.9,8.6,5.7c3.9,1.3,6.4,1.1,9.2-0.8
		c2.1-1.4,2.8-2.3,2.8-3.8c0-2.2-2-7.8-5-13.8c-1.9-3.9-8.6-10.9-10.4-10.9C445,353.5,433.5,368.9,433.5,370.7z"/>
	<path class="st0" d="M611.2,292.1c-1.5,0-3.3-1.9-4-4.3c-0.7-2.4-3.9-5-6.1-5c-1,0-2.9-0.7-4.3-1.5c-2.3-1.4-2.8-1.4-6.9-0.6
		c-5.1,1.1-9.5,4.6-8.7,7.1c0.4,1.2,0,1.6-2.3,2.2c-1.5,0.4-3.5,0.8-4.3,0.8c-2.1,0-4.8-3.4-4.3-5.5c0.4-1.5-1.7-7.1-4.4-12.2
		c-4.4-8.1-5.6-9.9-6.9-10.4c-2.2-0.8-9.1,0.5-12.3,2.3c-3,1.7-8.5,9.5-8.5,12.1c0,0.8-0.3,1.5-0.7,1.5s-1,0.6-1.2,1.3
		c-0.3,0.7-1.1,1.8-2,2.5c-1.1,0.9-1.5,2-1.4,4.7c0.1,3.4,0.8,5.8,2.6,8.3c0.7,1,0.6,1.5-0.3,2.5c-0.6,0.7-1.4,2.2-1.7,3.3
		c-0.3,1.3-1,2-1.8,2c-1.9,0-2.2-0.9-2.4-6.8c-0.1-2.9-0.4-5.6-0.6-6c-0.6-0.9,1.2-8.5,2.5-10.5c0.6-0.9,1.3-2.9,1.6-4.4
		c0.3-1.6,1.6-3.9,3-5.5c2.1-2.3,2.4-3,1.9-4.8c-1.2-4.6-11.7-5.7-18.2-1.9c-4.1,2.4-7.4,8.5-11.9,21.6c-3.1,9-3.4,10.7-4.3,25.6
		c-0.2,3.1,0.9,9.2,2.1,12.3c0.4,0.9,1.3,1.3,3.6,1.3c3.5,0,7.5,1.2,9,2.6c0.9,0.8,0.6,1-1.9,1c-1.6,0-4.4,0.2-6.3,0.5
		c-2.6,0.4-3.4,0.7-3.4,1.8c0,3.4,3.9,9,8.7,12.5c2.2,1.6,2.6,1.6,11.1,0.9c1.8-0.2,2.2,0.2,2.9,2.2c1.2,3.7,3.7,5.2,6.8,4.3
		c1.6-0.4,5.5-0.5,10.2-0.2c4.2,0.3,10.3,0.6,13.7,0.6c5.3,0.1,6.1-0.1,6-1.1c-0.1-1,0.7-1.2,4.7-1.1c2.6,0.1,8.1,0,12.2-0.1
		l7.4-0.2v-2.5c0-1.4,0.4-2.6,0.9-2.8c0.9-0.3,4.3,2.3,10.1,8c3.2,3.1,3.4,3.4,2,4c-1,0.4-1.5,1.3-1.5,2.7c0,2.6,1.4,3.2,4.2,1.7
		c2.7-1.4,3.7-1.4,5.5,0c1.4,1.1,1.4,1.1-0.8,3c-2.6,2.3-3.6,4.9-2.4,6.3c0.7,0.9,1.3,0.8,3.9-0.5c1.6-0.8,3.5-1.9,4.1-2.4
		c0.6-0.5,2-1,3.2-1.2c1.9-0.2,2.2,0,2.7,2.3c0.5,2,1.3,2.9,4.2,4.5c2,1.1,4.3,3.1,5.3,4.7c0.9,1.5,2.3,3.2,3,3.8
		c3.6,3,7.8,9.7,9.1,14.5l1.4,5.1l-3.7,7.3c-2.1,4-4.2,8.3-4.8,9.4c-0.6,1.1-1.2,3.3-1.4,4.8c-0.4,2.6-0.2,2.9,2.6,4.7
		c1.6,1.1,3,2.2,3,2.4c0.1,0.6,0.5,2.3,1.1,4.2c0.4,1.3,0.2,1.6-1.1,1.6c-1.8,0-5.2,1.6-8.4,4c-2,1.5-3.1,1.7-10.8,1.8
		c-4.7,0.1-9.1,0.4-9.8,0.8c-0.9,0.5-1.3,1.5-1.3,3.4c0,2.1-0.5,3.2-2.2,4.8c-2,1.9-2.2,2.4-1.9,5.5c0.9,8.9,3.2,10.7,13.1,10.7h6
		l3.1-2.9c2.6-2.5,3.6-2.9,6.2-2.9c2.3,0,3.6-0.4,4.8-1.6c1.4-1.4,2.2-1.6,5.2-1.3c4.1,0.4,7.8,2.7,9.4,5.8c0.7,1.3,1.9,2.2,3.2,2.5
		c1.2,0.3,3.8,1.6,5.8,2.9c2,1.4,3.9,2.5,4.3,2.5c1.2,0,0.9,1.3-0.5,2.1c-1.1,0.6-1.1,1-0.3,3.5c0.8,2.5,1.5,3.1,6,5.2
		c7.6,3.5,9.9,4.2,13.8,4c3-0.2,3.9,0.1,5.9,1.7c1.3,1.1,3,2.5,3.8,3.2c1.2,1,3.6,1.3,11.4,1.7c5.5,0.2,10,0.5,10.2,0.7
		c0.1,0.1,2.1,0.2,4.4,0.2l4.1-0.1l0.2-4.3l0.2-4.3l-7.8-5c-4.3-2.8-10.2-6-13.3-7.1c-4.5-1.7-5.8-2.5-6.8-4.5
		c-0.7-1.3-2.2-2.8-3.3-3.3c-1.9-0.8-2.7-2-1.5-2.2c4.3-0.6,6.4-0.2,8.4,1.5c1.2,1.1,5,3.1,8.4,4.6c7,3,20.1,7.2,20.8,6.7
		c0.3-0.2,0.6-4.8,0.7-10.4l0.1-10.1l-5.1-5.2c-2.8-2.9-5.9-6.5-6.9-8c-1-1.5-2.4-3.2-3.2-3.6c-0.8-0.4-1.6-1.6-1.9-2.6
		c-0.3-1.3-1.2-2-3.4-2.6c-7.6-2-8.5-2.5-11.4-5.6c-1.6-1.8-3.3-3.8-3.8-4.6c-1-1.4-6.2-3.9-6.3-3c0,0.3-0.3-0.1-0.6-0.9
		c-0.4-1.1-0.2-1.6,1-2.2c2.4-1.2,2.4-4.5,0-6.9l-2-2.1l1.9-0.9c1.1-0.5,1.9-1.1,1.9-1.5c0-1.8,4.9-0.1,7.8,2.8
		c0.5,0.5,1.4,0.9,2,0.9c1.6,0,6.6,4.8,9.4,9c2.1,3.2,2.9,3.8,6,4.6c2,0.5,4.7,1.5,6.1,2.3c2.5,1.3,2.6,1.3,5.5-0.1
		c2.9-1.4,3.8-2.9,2.2-3.9c-0.8-0.5-3.1-4.9-3.9-7.4c-0.4-1.4-0.2-1.6,1.3-1.6c2.7,0,5.1-3.7,4.6-7c-0.2-1.4,0-3.3,0.4-4.3
		c0.6-1.4,0.6-2-0.4-3.1c-1.1-1.2-1.1-1.4,0.3-3c1.9-2.2,2.3-3.9,2-8.5c-0.2-3.5-0.4-3.9-2.9-5.3l-2.7-1.6l-5,1.7
		c-2.8,1-5.2,1.5-5.5,1.3s-0.7-1.5-1-2.9c-0.3-1.3-0.9-2.4-1.4-2.5c-0.5,0-2.2-0.1-3.8-0.2c-2.6-0.1-3.4-0.6-6.8-4.1l-3.9-4
		l-4.2,0.3c-2.3,0.2-5,0-6-0.4c-1-0.4-2.9-0.8-4.3-0.9s-3.8-1-5.3-2c-1.5-1.1-4.1-2.3-5.6-2.7c-3.5-1.1-5.9-3.3-5.3-4.8
		c1.2-2.9,1.2-5.9,0.1-7.6c-1.4-2.1-0.9-2.8,1.3-1.8c1.4,0.6,2.3,0.4,5-1.2l3.3-1.9l-1.1-2.2c-0.6-1.2-2.2-2.7-3.6-3.4
		c-2.4-1.1-2.6-1.6-2.8-5.6c-0.1-2.1-1.7-4.7-5-8.1c-3.5-3.6-5.7-4-7.5-1.1c-0.7,1.1-1.7,2.1-2.2,2.2c-1,0.2-0.9-0.7,0.3-5.7
		c0.4-1.7,0.1-2.2-2.6-4.2c-4.2-3.1-6-3.4-8.3-1.6c-2.1,1.7-3.9,1.1-5.4-1.7c-0.5-0.8-1.7-2.1-2.8-2.7c-1.2-0.7-2.6-2.7-3.5-4.8
		c-1.3-3-2-3.7-4.6-4.7c-6.3-2.2-6.9-2.2-8.1,0.4c-0.6,1.3-1.2,2.9-1.4,3.6c-0.3,1.1-1.1,0.6-4.4-2.7c-2.2-2.2-4.3-4-4.6-4
		c-0.3,0-0.8-1.3-1.1-2.9C612.6,292.9,612.1,292.1,611.2,292.1z"/>
	<path class="st0" d="M616.8,489.8c1.5-1.5,1-4-1.2-5.6c-2.5-1.8-3.9-1.9-5.1-0.4c-1.2,1.5-0.4,3.4,2.3,5.2
		C615.6,490.9,615.7,490.9,616.8,489.8z"/>
	<path class="st0" d="M621.3,476.3c-1.4,0.2-1.9,0.7-2.1,2.1c-0.2,1.5,0.1,2,1.4,2.2c3.5,0.7,4.8,0.5,5.2-0.7
		C626.6,478.3,623.8,476.1,621.3,476.3z"/>
	<path class="st0" d="M616.8,401.3c5.6-2.5,5.9-3.2,5.9-12.1c0-7.8,0-8.1-2.1-10.3c-2.6-2.9-6.5-3.8-9.1-2.1
		c-5.8,3.8-7.4,18.8-2.5,23.7C611.4,402.9,613.1,403,616.8,401.3z"/>
	<path class="st0" d="M632.3,386.9c2.2-1.1,2.5-2.2,1.1-4.1c-1.2-1.5-6.9-1.9-7.8-0.5c-0.7,1.2,1.1,3.9,3.2,4.9
		C629.9,387.7,630.9,387.6,632.3,386.9z"/>
	<path class="st0" d="M592.4,352c-1.2,0-2.8,3.6-3.3,7.1c-0.3,2.3-1.1,4.4-2.2,5.7c-1.8,2.1-2,2.6-1.2,3.3c1.9,1.9,6.9-4.4,6.6-8.3
		c-0.1-1.3,0.2-3.1,0.7-3.9C593.8,354.3,593.5,352,592.4,352z"/>
	<path class="st0" d="M458.5,306.4c1.6-2.5,1.8-3.4,1.5-8c-0.3-5-0.9-6.9-3-10.6c-0.6-1-1-2.7-1.1-3.7c0-1.5-0.5-2.1-2.2-2.7
		c-1.2-0.4-2.2-1.1-2.2-1.5s1.5-2.4,3.2-4.4c3.6-4,3.8-4.8,2-6.2c-1.2-0.9-1.2-1,0-1.4c1-0.4,1.3-1.3,1.3-4.3c0-2.2-0.4-4.1-0.9-4.5
		c-1.7-1.4-9.6,0.3-11.4,2.4c-0.7,0.9-1.4,0.7-4.7-1.1c-2.1-1.2-4.3-2.2-4.9-2.2c-1.6,0-3.8,3.5-4.7,7.4c-0.8,3.6,0.1,5.9,3.6,9.7
		c1.2,1.3,1.3,1.9,0.7,4.2c-0.4,1.5-1.3,3.3-1.9,4c-1.1,1.3-1.3,1.2-5.1-1.6c-3.8-2.9-3.9-2.9-5.6-1.6c-1,0.7-2.2,2.8-2.8,4.6
		c-1,3.2-1,3.4,1.3,7.5c1.3,2.4,3.3,5,4.6,5.9c6.6,4.5,7.7,6.5,8.4,14.2c0.1,0.7,1.6,2.5,3.5,4.1c3.2,2.6,3.5,2.7,6,2
		c2.7-0.8,6.4-4.5,5.7-5.6c-0.2-0.4,0.1-0.7,0.8-0.7C452.7,312.3,456.7,309.3,458.5,306.4z"/>
	<path class="st0" d="M466,298.2c0,2.5,0.4,3.4,1.9,4.6c1,0.8,2.7,1.5,3.6,1.5c2.2,0,6-1.9,6-3.1c0.2-4.5,0.9-9.7,1.3-10.1
		c0.3-0.3,2.6-0.7,5.2-1c2.6-0.2,5-0.5,5.4-0.6c0.4-0.1,1.2-2.1,1.7-4.5c0.5-2.4,2-5.8,3.3-7.8c1.3-2,2.6-4.5,2.8-5.7
		c0.2-1.1,0.8-2.6,1.4-3.2c0.6-0.6,1.6-2.2,2.2-3.5c1.2-2.3,1.2-2.3-1.2-4.1c-2.8-2.2-7.1-4-9.2-4c-0.8,0-2.8-0.7-4.4-1.5
		c-2.2-1.1-3.8-1.4-5.9-1.1c-8,1.1-10.2,2.3-10.8,6.1c-0.2,1.5-1.1,4.3-2,6.2c-2.5,5.7-3.8,22.2-2.1,26.7
		C465.7,294.2,466,296.5,466,298.2z"/>
	<path class="st0" d="M564.5,262.1c-0.4,1,4.4,11.4,7.8,16.8c1.8,2.9,4.2,3.1,8.6,0.8c2.3-1.2,4.1-1.5,7.5-1.4
		c5.4,0.2,7.5-1.1,6-3.8c-2.4-4.6-7.6-9.9-11.7-12.2C579.7,260.6,565.1,260.5,564.5,262.1z"/>
	<path class="st0" d="M507.2,244.1c2.8-2.9,3.3-3.1,4-1.1c0.9,2.9,3.6,3.4,15.2,3.1c9.4-0.2,11.3-0.5,14.1-1.9
		c1.8-0.9,3.7-2,4.3-2.6c0.9-0.9,1.2-0.8,1.7,0.5c1.3,3,10.1,3,16.1,0c3-1.5,3.5-2.1,3.7-4.3c0.1-1.4,0.8-3.1,1.4-3.8
		c1-1.1,1-1.7,0.3-3.6c-0.6-1.5-0.6-2.5-0.1-3c2.3-2.3-0.9-7.7-6.9-11.5c-5-3.2-7-3.8-13.8-4c-5.7-0.1-5.9-0.1-8.9,2.4
		c-1.7,1.4-3.4,2.6-3.8,2.6s-2.6,0.9-4.8,1.9l-4,1.9l-6.1-1.2c-3.4-0.7-7.5-1.4-9.2-1.6c-2.6-0.4-3.1-0.7-3.1-2.1
		c0-0.9-1.1-2.7-2.4-4c-2.4-2.3-2.4-2.4-1.4-5.3c1.2-3.5,0.4-5.8-2.3-7.1c-1.3-0.6-1.8-1.4-1.8-2.7c0-3.7-2.5-5.1-8.3-4.6
		c-4.8,0.4-6.7-0.1-7.3-2.1c-1.2-3.8-4.7-6.1-10.7-6.8c-5.7-0.7-7.5-0.1-8.3,3c-0.4,1.4-0.5,3.2-0.3,4.1c0.5,2,7.1,10.4,8.8,11.1
		c0.6,0.3,3.6,0.7,6.6,0.9c4.7,0.4,5.4,0.6,5.7,1.9c0.1,0.8,1.1,2.6,2.2,4c1.7,2.1,1.9,3.2,1.8,6.5c-0.1,2.2-0.5,4.7-0.9,5.5
		c-0.9,1.7-0.4,8.4,0.7,10.5c0.4,0.7,0.8,3.3,1,5.8c0.3,5,1.3,6.3,5,6.3c1.2,0,3.5,0.8,5.1,1.8c1.6,1,3.2,1.8,3.6,1.8
		C504.4,246.6,505.8,245.4,507.2,244.1z"/>
	<path class="st0" d="M482.4,241.1c1.9-1.9,1.9-1.9,1.4-10.3c-0.5-8-0.6-8.5-2.4-10.1c-3.1-2.6-6.5-3.3-9.8-2.2
		c-2.4,0.8-3.2,1.7-5.6,6.3c-3.1,5.8-3.5,8-1.7,9.8c2,2,10,7.5,11.5,7.8C479,243.2,480.6,242.9,482.4,241.1z"/>
	<path class="st0" d="M422.5,199.6c-0.7,1.1-1.2,2.3-1.2,2.5s1.6,1.4,3.6,2.7c4.1,2.5,5,3.9,5,7.3c0,4.6,1.1,5.2,8.7,5l6.7-0.2
		l-2.3,2c-1.3,1.1-2.3,2.6-2.3,3.3c0,1.9,3.5,5.5,6.7,7.1c1.7,0.8,4.4,1.4,6,1.4c3.7,0.1,4.9-1.6,4.2-5.5c-0.3-1.5-0.1-2.9,0.3-3.4
		c0.5-0.6,0.9-6.4,1.2-14.3l0.4-13.4l-1.7-1.1c-1-0.6-3.5-1.3-5.7-1.5c-2.1-0.2-4.8-0.5-5.9-0.7c-1.5-0.2-2.9,0.4-5.6,2.6
		c-2,1.6-3.6,3.3-3.6,3.8s0.9,1.4,2,2.1c4,2.4,5,3.8,4.7,6.6c-0.3,2.3-0.5,2.6-2.4,2.6c-1.6,0-2.9-0.9-5.3-3.4
		c-1.8-1.9-3.2-3.8-3.2-4.3c0-1.3-1.9-2.1-5.8-2.7C423.9,197.6,423.6,197.7,422.5,199.6z"/>
	<path class="st0" d="M402.4,201.7c-1.5-0.2-1.7-0.7-1.8-3.1c0-1.6,0.2-3.4,0.6-4.1c1-1.9,1.2-6.5,0.4-8.2c-0.4-1-0.4-2,0.1-3
		c1.9-3.5-3.8-6.3-5.9-2.9c-1.4,2.2-4.8,19.3-4.8,24.1c0,2.5-0.3,3.8-0.8,3.7c-1.2-0.3-5.1,16.2-4,16.9c0.5,0.3,1.4,0,2-0.5
		c1.9-1.8,3.9-1.7,6.9,0.1c5.4,3.3,12,1.8,15.4-3.5c0.8-1.3,2-3,2.6-3.8c2.3-3.1,1.7-13.1-1-15.8c-1.2-1.2-1.7-1.3-4.6-0.5
		C405.6,201.5,403.4,201.8,402.4,201.7z"/>
	<path class="st0" d="M419.1,226c2-0.1,4-0.6,4.4-0.9c0.4-0.4,0.1-2-0.8-4c-1.4-3.2-1.6-3.4-3.8-3c-1.3,0.2-2.3,0.5-2.3,0.5
		s-0.6,1-1.3,2.1c-0.9,1.5-1,2.4-0.5,3.8C415.4,226.1,415.7,226.3,419.1,226z"/>
	<path class="st0" d="M500.5,61c0.9,0,2.3,0.6,3.1,1.4s1.9,1.4,2.5,1.4c1.7,0,1.3,0.9-1.8,3.7c-2.3,2.1-2.9,3.1-2.9,5.1
		c0,2.3,1.1,4.6,2.3,4.8c0.3,0.1,1.2,0.1,2.1,0.1c1.3,0,1.4,0.2,0.6,1.1c-1.8,2.1,1.7,6.2,6.6,7.6c1.6,0.5,2.4,0.2,3.9-1.1
		c1-0.9,1.8-2.2,1.8-2.7c0-1,2.3-4.1,3.1-4.1c0.2,0-0.1,1.2-0.7,2.6c-0.6,1.4-1,3.8-0.9,5.2c0.3,3.6,2.6,4.4,8.4,3
		c2.3-0.5,5.7-1,7.5-1c5.4-0.1,8.9-3.2,13.3-12c0.9-1.8,1.7-2.7,1.7-2c0,0.7,0.9,2.2,1.9,3.4l1.9,2.2l-2.9,2.9
		c-1.6,1.6-2.9,3.5-2.9,4.4c0,0.9-0.5,1.5-1.3,1.5c-0.7,0-2.6,0.9-4.2,2c-1.6,1.1-4.2,2.6-5.8,3.4c-4,2-4.2,4.2-0.6,8.3
		c2.3,2.6,4.3,7,3.5,7.8c-0.1,0.1-2.2-2.4-4.7-5.6c-5.3-6.9-6.6-7.9-11.4-8.3c-4.6-0.4-5.4,0.4-6,6.7c-0.6,5.3,0.2,8.6,2.3,9.2
		c0.8,0.2,1.4,0.7,1.4,1c0,0.3,1.1,2,2.4,3.7c1.3,1.7,3,4.9,3.7,7c1.6,4.9,6.5,10.4,9.5,10.6c1.1,0.1,2.4,0.2,2.7,0.3
		c0.3,0,0.4,0.6,0.1,1.3c-0.3,0.7-0.5,1.7-0.6,2.2c0,1.1,0.3,1.2-5.8-2l-4.8-2.5l-4.8,2.4c-4.3,2.2-7.6,5.6-6.4,6.8
		c0.2,0.2-0.3,1.7-1.1,3.3c-0.8,1.6-1.5,4.1-1.5,5.4c0,3.6,2,4.8,8.1,4.8h4.9l-1.9,2.5c-1.7,2.3-1.8,2.8-1.1,4.6
		c0.5,1.1,2.3,3.6,4.1,5.4c3.1,3.1,3.1,3.3,1.8,4.1c-1.2,0.6-1.8,0.5-3.2-1c-1-1-2.1-2.9-2.5-4.4c-1.1-4-4-6.2-8.4-6.2
		c-4,0-4.8,0.4-6,2.6c-1.8,3.5-0.6,7.5,3.4,11.4c2.5,2.3,2,4-1.1,4c-1.9,0-6.2,3.9-7.9,7.3c-0.7,1.4-1.1,3.6-0.9,6.2
		c0.2,3.5,0.5,4.3,2.2,5.6c1.8,1.3,3.1,1.5,10.9,1.6c4.9,0.1,9.9,0.3,11.1,0.6c2.9,0.6,5.2-0.8,5.2-3.3c0-1,0.5-2.3,1.1-2.8
		c1-0.8,1.4-0.7,2.7,0.9c0.9,1,2.4,2,3.4,2.2c1,0.2,2.5,0.6,3.4,0.9c1.2,0.4,2,0,3.3-1.3c1.6-1.7,1.8-1.8,3.8-0.7
		c2.4,1.2,3.3,2.3,2.8,3.2c-0.2,0.3-0.2,1.2,0.1,2c1.4,4.4,11.7-2,15-9.2c1.7-3.8,2.1-7.5,1-8.9c-0.4-0.6-1.8-1.6-3.1-2.3
		c-1.2-0.6-2.8-2-3.5-3.1c-1.4-2.1-1.4-2.1,3.1-6.8c1.5-1.6,1.7-2.3,1.4-7.2l-0.2-5.4l2.5-0.2c3.3-0.3,6.5-3.8,6.5-7
		c0-1.9,0.3-2.4,1.8-2.8c1.1-0.3,1.8-1,1.8-1.8c0-0.8-0.8-2-1.8-2.8c-2.2-1.7-2.3-2.4-0.4-3.6c2.4-1.5,2-6.6-0.7-9.5
		c-1.2-1.2-2.7-2.3-3.4-2.4s-1.7-0.2-2.1-0.3c-0.4-0.1-1.2-0.2-1.7-0.3c-0.8-0.1-0.8-0.3,0.2-1.4c1.7-1.9,1.5-4.8-0.4-6.1
		c-1.6-1.1-1.6-1.1-0.2-2.6c0.8-0.8,1.5-1.4,1.7-1.2c0.7,0.7,6.6-1.9,8.1-3.5c0.9-0.9,1.8-2.8,2.1-4.1c0.4-2.2,0.7-2.4,2.7-2.2
		c3.3,0.3,6.7-2.9,7-6.7c0.3-3.9,1.8-11.9,2.8-14.1c0.4-1,2.3-5.2,4.1-9.4c1.9-4.2,3.3-8,3.1-8.4c-0.3-0.9,2-5.6,4.7-9.7
		c1.3-2,1.8-3.6,1.8-6.7c0-2.2-0.2-4.4-0.5-4.8c-0.5-0.8-4-1-4-0.2c0,0.3-1,1.2-2.2,2s-2.5,2.3-2.9,3.2c-0.7,1.6-4.3,5-4.3,4.1
		c0-0.2,0.8-2,1.9-4c2.1-4.2,5.8-8.7,7.1-8.7c0.5,0,1.9-0.9,3.2-2c1.8-1.5,2.7-3.2,3.8-7c1.5-5.5,1.7-9.3,0.7-13.7
		c-0.8-3.4-2-4.7-4.8-5.2c-3.3-0.6-5.3-1.8-6.3-4.1c-1.1-2.4-2.4-2.9-7.8-2.5c-2.2,0.1-4.7-0.1-5.6-0.5c-1.2-0.5-2.8-0.4-5.9,0.6
		c-3,0.9-4.6,1.1-5.6,0.6c-2.2-1.2-7.8-0.4-11.4,1.5c-3.2,1.7-4.9,1.9-10.4,0.9c-2.8-0.5-5.8,1-6.5,3.2c-0.6,1.7-1,2-2.6,1.7
		c-1.5-0.3-2.5,0.2-4.8,2.6c-1.6,1.7-2.9,3.6-2.9,4.3s-1.1,2.9-2.5,4.8c-1.4,2-2.5,4.3-2.5,5.1c0,3.5-0.6,3.9-3.4,2
		c-1.4-1-2.9-1.8-3.4-1.8c-0.4,0-1.4-0.2-2.2-0.3c-1.8-0.3-3.3,0.9-3.3,2.7c0,0.8-1,2.2-2.2,3.2c-1.7,1.4-2.1,2.2-1.7,3.6
		c0.4,1.6,0.3,1.7-2.6,1.7c-2.6,0-3.4,0.4-5.7,2.7c-1.4,1.5-3.8,3.2-5.2,3.7C495.9,54.3,494.2,61,500.5,61z"/>
	<path class="st0" d="M423.4,175.8c2.8-1.5,2.8-6.3-0.1-10.3c-1.9-2.6-3.2-2.6-4.2,0.2c-1.3,3.8-1,7,1,9
		C421.7,176.3,422.2,176.5,423.4,175.8z"/>
	<path class="st0" d="M473.3,173.8c3.3,1.7,6.7,1.5,9.2-0.5c3.9-3.3,3.8-6.5-0.2-9c-3.7-2.3-7.7-2-10.8,0.8
		C467.7,168.6,468.2,171.1,473.3,173.8z"/>
	<path class="st0" d="M459.7,143.5c-0.5,4.4,0,6.2,2.7,9.2c1.4,1.6,2,3,1.8,3.8c-0.7,2.1,0.4,4.2,2.8,5.3c3.2,1.4,3.5,1.3,7.2-1.5
		l3.4-2.6v-5c0-4.6-1-8.7-2.2-8.7c-0.3,0-2.4-1.3-4.8-2.8c-2.3-1.5-5-3-5.8-3.3C462.4,137.2,460.2,139.6,459.7,143.5z"/>
	<path class="st0" d="M430.2,128.7c1.5,1.2,2.8,3.2,3.2,4.8c0.6,2.4,0.6,2.9-0.6,4.2c-0.8,0.8-1.9,1.4-2.5,1.4s-1.4,0.6-1.8,1.4
		c-1.3,2.5-0.8,5.1,1.4,7.4c1.9,1.9,2.6,2.1,6.2,2c4.5-0.2,6.7,1,11.2,6.1c1.4,1.6,3.2,3.6,4.1,4.6c1.4,1.4,1.9,1.6,3.4,0.9
		c1.8-0.8,3.4-3.4,3.4-5.5c0-0.6-1-2.2-2.2-3.6c-2.4-2.8-2.6-3.7-1.1-7.8c1.1-3,0.7-4.4-1.7-7c-0.7-0.7-2-2.7-2.9-4.4
		c-1.6-3-5-6.3-6.7-6.6c-1.7-0.3-2.7-1.3-2.7-2.6c0-2.2-4.1-5.1-7.3-5.1C427.6,118.8,425.6,124.8,430.2,128.7z"/>
	<path class="st0" d="M476.2,115.2c0.4,0,0.3,0.8-0.3,2c-0.8,1.5-0.8,2.4-0.3,3.6c1,2.1,3.2,2.7,7.6,2c1.9-0.3,3.7-0.6,4.1-0.6
		c1.2,0,4.7,1.9,4.7,2.5c0,1.5-2.7,3.5-4.5,3.5c-2.8,0-5.6,2.9-5.6,5.8c0,2.6,2.7,8.2,5.3,11c1,1.1,2,2.6,2.2,3.3
		c0.2,0.7,1.7,2.7,3.4,4.4c2.8,2.9,3.1,3.1,6.7,2.8c3.6-0.2,3.7-0.3,4-2.6c0.2-2.1,0.4-2.3,1.8-1.9c3.1,0.9,3.5,0.7,6.5-3.2
		c1.5-1.9,2.7-4.3,2.7-5.3c0-1.2,0.6-2.1,1.8-2.8c1-0.5,3.8-3.5,6.1-6.7c3.7-4.9,4.3-6.1,4.3-8.8c0-2.7-0.3-3.4-2.9-5.5
		c-6.9-5.8-7.2-6.1-7.2-9.3c0-2.7-0.4-3.5-3.6-6.9c-2.7-2.9-3.6-4.4-3.6-6.1c0-1.6-0.8-3.1-3.2-5.6c-3.2-3.4-6.2-8.1-6.2-9.7
		c0-0.7-1.9-5.4-3.5-8.5c-1.1-2.2-5.3-4.4-8-4.2c-2.4,0.2-2.6,0.4-2.8,2.9c-0.2,2.2-0.7,2.9-2.3,3.8c-1.2,0.6-2.8,2.4-3.6,4
		l-1.5,2.9l2.5,2.7c3.5,3.7,3.3,4.2-1.2,4.7c-2.6,0.3-4,1.7-4.6,4.3c-0.4,1.9-0.2,2.5,1.7,4.1c1.2,1,2.4,2.6,2.7,3.5
		c0.5,1.5,0.3,1.6-2.4,1.6c-2.6,0-2.9,0.2-3.7,2.3c-1.2,3.5-1,6.9,0.7,8.6C474.8,114.5,475.8,115.2,476.2,115.2z"/>
	<path class="st0" d="M404.1,141.9c1.2-1.2,2.4-7.9,1.3-7.9c-0.4,0-0.9,1.2-1.2,2.7c-0.3,1.5-0.7,3.5-0.9,4.5
		C403.1,142.8,403.2,142.9,404.1,141.9z"/>
	<path class="st0" d="M458.1,109.9c1.6,1.3,2.7,1.1,4.3-0.5c1.9-1.9,1.8-2.9-0.5-6.4c-1.5-2.2-2.4-3-3.9-3c-2.1,0-3.1,0.9-3.8,3.4
		C453.9,105,455.6,107.9,458.1,109.9z"/>
	<path class="st0" d="M832.1,772.3c1.4,0.1,2.4,0.3,7.2,1.7c2.2,0.6,6.7,1.3,10,1.4c3.3,0.1,6.2,0.4,6.4,0.6c1,1,2.2-0.6,2.3-3.5
		c0.1-1.8,0.6-4.1,1.2-5.2c0.6-1.1,0.9-2.2,0.7-2.5c-0.3-0.5-6.8,1.1-9.1,2.3c-0.7,0.4-2.8,0.6-4.8,0.6c-2.1,0-3.9,0.4-4.4,1
		c-0.6,0.8-1.4,0.4-4.1-2.2c-1.8-1.7-3.7-3.1-4.2-3.1c-0.5,0-1.7,1.6-2.7,3.7C828.9,771,829.2,772.1,832.1,772.3z"/>
	<path class="st0" d="M848.7,714.9c0-2.3-0.1-2.4-6.7-4.6c-6.6-2.2-10.2-2.7-20-2.4c-3.7,0.1-5.1,0.5-6.8,1.8
		c-3.2,2.6-2.2,4.4,3,5.6c2.3,0.5,4.9,1.5,5.9,2.1c1,0.7,2.6,1.4,3.6,1.5c2,0.3,3.9,0.2,12.6-0.5
		C848.5,717.8,848.7,717.7,848.7,714.9z"/>
</g>
</svg>
