<?xml version="1.0" encoding="utf-8"?>
<!-- Generator: Adobe Illustrator 22.0.1, SVG Export Plug-In . SVG Version: 6.00 Build 0)  -->
<svg version="1.1"
	 id="svg2816" inkscape:version="0.47 r22583" sodipodi:docname="Australia-climate-map_MJC01.png" xmlns:cc="http://creativecommons.org/ns#" xmlns:dc="http://purl.org/dc/elements/1.1/" xmlns:inkscape="http://www.inkscape.org/namespaces/inkscape" xmlns:rdf="http://www.w3.org/1999/02/22-rdf-syntax-ns#" xmlns:sodipodi="http://sodipodi.sourceforge.net/DTD/sodipodi-0.dtd" xmlns:svg="http://www.w3.org/2000/svg"
	 xmlns="http://www.w3.org/2000/svg" xmlns:xlink="http://www.w3.org/1999/xlink" x="0px" y="0px" viewBox="0 0 1000 905"
	 style="enable-background:new 0 0 1000 905;" xml:space="preserve">
<style type="text/css">
	.st0{fill:#808080;}
</style>
<defs>
	
	
		<inkscape:perspective  id="perspective2824" inkscape:persp3d-origin="0.5 : 0.33333333 : 1" inkscape:vp_x="0 : 0.5 : 1" inkscape:vp_y="0 : 1000 : 0" inkscape:vp_z="1 : 0.5 : 1" sodipodi:type="inkscape:persp3d">
		</inkscape:perspective>
</defs>
<sodipodi:namedview  bordercolor="#666666" borderopacity="1" gridtolerance="10" guidetolerance="10" id="namedview2818" inkscape:current-layer="svg2816" inkscape:cx="363.56412" inkscape:cy="489.60966" inkscape:pageopacity="0" inkscape:pageshadow="2" inkscape:window-height="712" inkscape:window-maximized="1" inkscape:window-width="1024" inkscape:window-x="-4" inkscape:window-y="-4" inkscape:zoom="0.56880292" objecttolerance="10" pagecolor="#ffffff" showgrid="false">
	</sodipodi:namedview>
<g id="g4506" transform="matrix(1.0169725,0,0,1.0152155,-0.57980272,-23.269317)">
</g>
<g>
	<path class="st0" d="M620.9,126C611.7,125.3,620.7,136.9,620.9,126L620.9,126z"/>
	<path class="st0" d="M608.2,167C605.4,173.3,611.8,163.9,608.2,167L608.2,167z"/>
	<path class="st0" d="M554.6,42.5C554.3,46.5,556.8,40.7,554.6,42.5L554.6,42.5z"/>
	<path class="st0" d="M605.6,141.8C600.4,142,611.5,151.1,605.6,141.8L605.6,141.8z"/>
	<path class="st0" d="M599.8,111.4C595.8,108.1,595.9,113.3,599.8,111.4L599.8,111.4z"/>
	<path class="st0" d="M604.2,168C603.7,176.4,611.4,165.8,604.2,168L604.2,168z"/>
	<path class="st0" d="M601.1,106.6C604.7,103.6,594.5,107.5,601.1,106.6L601.1,106.6z"/>
	<path class="st0" d="M618.7,172.6c9.6-2.6,4-6.6-5.1-3.9C609.5,170.4,617.5,172.2,618.7,172.6z"/>
	<path class="st0" d="M683.9,205.5C679.6,202.1,683.6,212.4,683.9,205.5L683.9,205.5z"/>
	<path class="st0" d="M691.5,231.9C694.8,227.6,687.8,229.3,691.5,231.9L691.5,231.9z"/>
	<path class="st0" d="M658.1,156.1C654.3,160.7,665.7,161.1,658.1,156.1L658.1,156.1z"/>
	<path class="st0" d="M634.8,123.1c3,0.5,4.3,15.5,10.3,14.7c-4.3-8.6-4.4-15.2-9.5-19.6C631.1,118.9,636,122.3,634.8,123.1z"/>
	<path class="st0" d="M634.8,123.1c-0.3,0-0.5,0-0.8,0.2C634.4,123.3,634.7,123.2,634.8,123.1z"/>
	<path class="st0" d="M625.3,173.4C619.6,173.7,626.8,181.8,625.3,173.4L625.3,173.4z"/>
	<path class="st0" d="M732.3,224.2C733.3,228,737.9,222,732.3,224.2L732.3,224.2z"/>
	<path class="st0" d="M558,452.6C567.4,450.3,554.9,449,558,452.6L558,452.6z"/>
	<path class="st0" d="M298.5,867.5C302.7,858.9,291.8,865,298.5,867.5L298.5,867.5z"/>
	<path class="st0" d="M566.8,479.7c10.9-17,8.7-11.4-1.2-5.9c-0.8-0.1-2.4,0.4-2.2,1.1c-0.5,0.3-1.1,0.5-1.7,0.8
		c-16.6,5.2-8,0.1,1.4-3.9c-1.8-2.8,8.1-6.9,7.3-12.6c-9,7.8-4.7-7.6-11.6,1.3c-5.4-9.1-1.3,9.1-3,5.7c-5.6-2.7-10.3,6.7,0.9,5.1
		c-2.2,0.8-18,14.3-12.2-1c-1.2-0.1,13.9-14.1-3.1-3.7c1.3-10.1,15.5-8.9,11.7-14.8c-11.5,2.6-12.4,15-19,10.4
		c-13.3,16.7-36.2,25.2-29.6-8.9c4.9-11.1-33.9-9.7-13.5-28c28.5,1.9-15.4-5-14.2,7.7c-30.2,3.2-14.4,46.5-32,66.6
		c-29.5,11.2-24.2,40.1-35.7,67.3c-8.9,24.9-33.7,33.3-48.8,50.9c-14.6,14.3-25.5,29.3-45.3,37.4c-7.1,17.6-19.5,19-38.4,22
		c-12,10.1-14,17.4-10.2,23.6c-6.5-3.9-11.3,5.3-13.8,11.4c-2.4,5.3,5.4,7.3,3.6,11.8c-1.6-6.5-12.6-6.6-11.1,0.4
		c-8.3-3.2,1.4,9-2.7,7c-6.3-3.9-1.3,1.3-2.3,3.9c0.1,5.4-3,4.2-2.4-0.7c-6.2-5.7-6.6,8.1-1.4,10.7c-4,5.3-4.8-2.1-5.4-5.5
		c-2.2-3.8-11.7,9.4-5.3,9.3c8.6,1.5,1.3,3.6-3.1,1.7c-7.5,0.6,7.2,4.4,1.7,5.2c-0.1,2-0.5,4.7-3.6,0.2c-7.5-5.8,6,7.1-0.3,4.6
		c-5.9-8.4-5.7,4.4-1.4,6.9c3.2-4.5,8.8,4,4.6,2.3c-6.4-2.4-5.3,3.2-0.9,5.5c5.3,9.6-3.6-0.5-6.3-3c-3.6-5.3-9.2-2.2-9,3.4
		c3.6-2.7,4.5,5.3,6.8,1.9c6.8-3.7,2.3,3.5-2.1,2.7c-7.5-5.9-5.9,4.8-8.4,8.2c2.8,4.7,18.8-12.2,12.8-2.4c1.4,2.2-1.1,3-5.5,3.5
		c-7.2,1.8-2.9,9.1,1.9,3c7.3-4.8,2.8,3.4-1.8,3.3c-8.5,4.1,1.9,2.3,5.4,3.1c0.2,5.4-11.5,4.5-15.9,8c-9.2-4.3-6.7,18.5-0.7,12.1
		c1.2,2.3,2.9-4,4.8-7.6c7.3-6.7-4.2,8.7,4.2,4c5.4,0.7-9.1,3.7-6,9.1c4.7,0.9,7.9-9.3,13.5-11.3c3.3,3.3-6.6,4.9-4.6,9.1
		c-6.1,4.3-8.2,13,2.1,10.9c8.1-1.2,16.3,2.5,24.3-0.3c1.5-4.8,7.2-10.2,13.5-5.2c3.6-5.6,1.2,0.6,2.7,2.7c6.6,2.2-0.3,7.1,5.4,9.5
		c3.4,1.3,8.7-1,12.7-1.2c5.4-8.7,11.3,10.9,13.2,5.4c1.1-6.9,1.9-3.8,4,0.7c0.8,2.2-5.4,5,1.9,4.5c-0.4-3.7,5-6.1,6.5-2.8
		c-2,10,10-7.6,9.8,1.7c0.8,2.6,4.2,6.9,7.6,7.2c1.2,0.1,2.4,0.1,3.7,0.1c5.5,3.8,7.7-9,9-2.1c1.8,1.7,7.8-1.9,11.3-2.5
		c1.2-5.5,7.2-1.3,9.5-5.2c5.3-1.4,0.7-4.8,3-5.4c8.8,0.4,0.1-8.9,8.4-10.8c6-6.3,14.8-11,15.2-20.7c3.5-9.9,15.6-8.4,23.6-11.9
		c0.9-5.9-3.3-4.5-5.6,0c-9.3,4.8-0.1-5.5,2.8-7.1c-8.8-0.3-1.6-5.1-2.2-9.2c5.1-3.9,7.2-10.5,8.6-16.2h-0.1c1.3-9.3,5-21.9,13.8-30
		c-5.8-21.3,14.5-50.4,10.3-59.8c9.1,11.1,39.1-7.2,34.2-20.1c8.5,5.4,13.8,5.2,18.8-6.1c22.3,5.8-16.3,12.2,11.7,7
		c5.8,8.8,14.6-5.6,12.2,0.3c12.5,13,9.1-24.2-2.2-10.5c1.9-9.8-21.2,3-5.4-7c-9.4-19.3-6.5-34.2,14.2-37.5
		c15.4-11.6,20.8-41,30.2-48.4c10.9-11.9,18.1-29.6,28.1-42.2C554.8,498.3,555.8,478.1,566.8,479.7z"/>
	<path class="st0" d="M542.9,454.6c5.1-0.4,10.4-10.5,8.4-15.2c-4.6,11.5-1.2-4-6.3,3.6C547.2,451.6,541.7,444.8,542.9,454.6z"/>
	<path class="st0" d="M257.8,869.8C258.8,862,250.8,869.7,257.8,869.8L257.8,869.8z"/>
	<path class="st0" d="M554.2,435.2C551.7,437.4,558.3,436.7,554.2,435.2L554.2,435.2z"/>
	<path class="st0" d="M795.4,231.4c-5-9.4-27.6,0.9-35.1,9.7c-3.4,13.8-28.5,19.8-32.5,17.6c-15.6-13.1-38-16.5-53.5-30.4
		c-0.7-0.8-1.5-1.6-2.5-2.4c0.8,0.9,1.6,1.7,2.5,2.4c5.2,6.4-7.1,5.8-8.3-5.9c12.5,9.6-8.8-24.2-3-22.5
		c-0.2-11.3-2.7-32.1-11.4-24.1c14.5-16.3,0.1-4.3-4.8-12.9c0.2,4.7-6.9-18.4-14.4-12.9c8.1,8.6,8.6,19.6,5.3,22.1
		c-2.6,4.1,14,26.8,0.1,27.9c-8.5-3.5-16.6-30.7-25.4-20.5c-2.5-6.2-12.4,3.4-6.1-5.7c-12.4-14.9-2.5-13.7-9.1-28.1
		c2.9,0,9.6-8.6,3.4-8.8c8.8-2.3-26.7-25.8-13.2-34.7c-1.4-1.4,3.4-14.6-4.9-29c-12.7-1.3-0.3-22.7-9.8-14.5c-0.4,0-0.7,0.1-1.1,0.1
		c0.2-0.1,0.2-0.4,0.2-1c-3-2.1-1.6,0.6-0.7,1.1c0.2,0,0.4-0.1,0.5-0.1c-0.1,0.2-0.3,0.2-0.5,0.1c-11.1,1.8,3.3,11.7-9.4,2.9
		c-12.4-11.1,12.4-3.5-6.8-12c-9.1-14.5-24.1-6.9-32.4-11.9c7.7-18.4-3.7,4.4-7.7,1.5c-6.2-13.4-3.9-5.5-12-19.6
		c1.2-21.9-0.4-16-19.5-15.4c-0.1,13.2,39.3,34.6,23.1,50.9c-0.8,0,14.3,28.4,12.4,18c9.3,3.1,14.2,34.9,32.6,49.1
		c3.8,25.2,23.7,18,7.6,3.1c-22.9-28.8,19.9,19.3,11.5-0.7c3.1,3.6,12.1-4.2,8.7,2.6c-10.7,11,1.3,3.2,5.9,3.7
		c-11.2,4.9-17.5,11.5-5.5,8c-1.9,1.5,4.9,25.5-1.5,17.4c-12.7-23.7-13.7-4.7,2.2,15.5c-5.2,23.4,24.8,2.8,19.7,9.4
		c11.4,11.3,1.6,2.5-3.7,18.4c-15-25.7-5.3,10.6,4.6,9.7c-12.9,6.9,13.3,35.7,1.5,31.9c-10.1,15.6,8.4,7.4-1.3,18.9
		c-4.1,1-12,23.6-11.8,42.9c-8.2,18.1-26.3,13-38.5,23.4c-27.9,26.6,25.9,33.9,37.9,50.6c25.9,0.5,37.3,35.1,30.1,52.6
		c-7.2,18.2-16.6,35-24.9,42c-15.2,24,12.1-7.7,7.1,14.1c15.5-8.6,13.8,19.2,27.9,12.6c15.9-9.8,31.3-20.5,39.3-38.4
		c5-16.3,20.9-28.4,28.2-40.4c8.3-14.4,18.6-27.6,23.1-44.8c-8.8-13.2-5.2-43.3,24-45.1c25.5-13.9,16.5,26,26.6,8
		c3.7,5.4-4.2-34.3,8-30.7c14.8-9.5,14.8-21.3,16-34.1C790.6,259,820.4,238.3,795.4,231.4z"/>
	<path class="st0" d="M600.4,451.4C607.7,452,604.9,441.9,600.4,451.4L600.4,451.4z"/>
	<path class="st0" d="M249.7,901.6C252.7,894.9,245.7,902.7,249.7,901.6L249.7,901.6z"/>
	<path class="st0" d="M277.8,879.1c-16.5-1.1,14.8-3-6.9-16.5c-1.6-1.7-5.6-1.9-6.2,0.9c-5.1,12.8-1.1,20.7-10.5,33.4
		c-3.6,13.1,8.1-4.6,18.2-4.2C290,890.2,285.9,880.8,277.8,879.1z"/>
	<path class="st0" d="M196.8,803.7C199.2,804.9,198.9,802,196.8,803.7L196.8,803.7z"/>
	<path class="st0" d="M201.2,801.4c0,1.6,1.7-0.3,2.4-0.3c-2.5-5.2,4,0.4,1.4-4.8C202.7,788.1,193,798.3,201.2,801.4z"/>
	<path class="st0" d="M213.2,768.5c4.2,3.3,2.1-1.7,1.1-3.7C214.9,756.1,208.5,766.2,213.2,768.5z"/>
	<path class="st0" d="M195.2,801.4C196.9,803,199,791.3,195.2,801.4L195.2,801.4z"/>
	<path class="st0" d="M205.4,827.5c-0.4-0.1-0.4-0.1-0.6,0.3c-0.3,0.4-0.3,0.4-0.1,0.6c0.1,0.1,0.2,0.1,0.2,0.1
		c0.1,0,0.8-0.3,0.9-0.5c0.1-0.1,0.1-0.2,0-0.3C205.8,827.6,205.6,827.6,205.4,827.5z"/>
</g>
</svg>
