<?xml version="1.0" encoding="utf-8"?>
<!-- Generator: Adobe Illustrator 22.0.1, SVG Export Plug-In . SVG Version: 6.00 Build 0)  -->
<svg version="1.1" id="Layer_1" xmlns="http://www.w3.org/2000/svg" xmlns:xlink="http://www.w3.org/1999/xlink" x="0px" y="0px"
	 viewBox="0 0 514.6 509.8" style="enable-background:new 0 0 514.6 509.8;" xml:space="preserve">
<style type="text/css">
	.st0{fill:#8AE9FF;}
	.st1{fill:#D7F7FF;}
	.st2{fill:#1E85D2;}
</style>
<g>
	<path id="Shape_223_" class="st0" d="M358.9,466.6h-25.4c9.3,0,16.9,7.6,16.9,16.9v16.9h25.4v-16.9
		C375.8,474.1,368.2,466.6,358.9,466.6z"/>
	<path id="Shape_222_" class="st0" d="M257.3,102.5l-12.7,6.8l72,38.7v284.6H342V148.1L257.3,102.5z"/>
	<path id="Shape_221_" class="st1" d="M172.7,238v194.7c-9.3,0-16.9,7.6-16.9,16.9v16.9c-9.3,0-16.9,7.6-16.9,16.9v16.9H45.7
		c-9.3,0-16.9-7.6-16.9-16.9V238H172.7z"/>
	<path id="Shape_220_" class="st0" d="M147.3,238v194.7c-9.3,0-16.9,7.6-16.9,16.9v16.9c-9.3,0-16.9,7.6-16.9,16.9v16.9h25.4v-16.9
		c0-9.3,7.6-16.9,16.9-16.9v-16.9c0-9.3,7.6-16.9,16.9-16.9V238H147.3z"/>
	<circle id="Oval_3_" class="st1" cx="257.3" cy="221" r="50.8"/>
	<path id="Shape_219_" class="st1" d="M257.3,170.2c-4.3,0-8.6,0.6-12.7,1.7c22.4,5.8,38.1,26,38.1,49.1s-15.7,43.4-38.1,49.1
		c19.1,5,39.3-1.5,51.9-16.7c12.6-15.2,15.3-36.3,6.9-54.1C295,181.6,277,170.2,257.3,170.2L257.3,170.2z"/>
	<path id="Shape_218_" class="st1" d="M172.7,204.1V238H20.3c-4.7,0-8.5-3.8-8.5-8.5v-16.9c0-4.7,3.8-8.5,8.5-8.5H172.7z"/>
	<path id="Shape_217_" class="st1" d="M485.9,238v245.5c0,9.3-7.6,16.9-16.9,16.9h-93.1v-16.9c0-9.3-7.6-16.9-16.9-16.9v-16.9
		c0-9.3-7.6-16.9-16.9-16.9V238H485.9z"/>
	<path id="Shape_216_" class="st0" d="M460.5,238v245.5c0,9.3-7.6,16.9-16.9,16.9H469c9.3,0,16.9-7.6,16.9-16.9V238H460.5z"/>
	<path id="Shape_215_" class="st1" d="M502.8,212.6v16.9c0,4.7-3.8,8.5-8.5,8.5H342v-33.9h152.4C499,204.1,502.8,207.9,502.8,212.6z
		"/>
	<path id="Rectangle-path_13_" class="st1" d="M71.1,280.3h59.3c4.7,0,8.5,3.8,8.5,8.5v25.4c0,4.7-3.8,8.5-8.5,8.5H71.1
		c-4.7,0-8.5-3.8-8.5-8.5v-25.4C62.6,284.1,66.4,280.3,71.1,280.3z"/>
	<path id="Rectangle-path_12_" class="st1" d="M71.1,356.5h59.3c4.7,0,8.5,3.8,8.5,8.5v25.4c0,4.7-3.8,8.5-8.5,8.5H71.1
		c-4.7,0-8.5-3.8-8.5-8.5V365C62.6,360.3,66.4,356.5,71.1,356.5z"/>
	<path id="Rectangle-path_11_" class="st1" d="M384.3,280.3h59.3c4.7,0,8.5,3.8,8.5,8.5v25.4c0,4.7-3.8,8.5-8.5,8.5h-59.3
		c-4.7,0-8.5-3.8-8.5-8.5v-25.4C375.8,284.1,379.6,280.3,384.3,280.3z"/>
	<path id="Rectangle-path_5_" class="st1" d="M384.3,356.5h59.3c4.7,0,8.5,3.8,8.5,8.5v25.4c0,4.7-3.8,8.5-8.5,8.5h-59.3
		c-4.7,0-8.5-3.8-8.5-8.5V365C375.8,360.3,379.6,356.5,384.3,356.5z"/>
	<path id="Shape_214_" class="st0" d="M342,432.7h-25.4c9.3,0,16.9,7.6,16.9,16.9v16.9h25.4v-16.9
		C358.9,440.3,351.3,432.7,342,432.7z"/>
	<path id="Shape_213_" class="st0" d="M308.1,356.5v76.2H206.5v-50.8c0,9.4,7.6,16.9,16.9,16.9s16.9-7.6,16.9-16.9
		c0-9.4-7.6-16.9-16.9-16.9c-9.3,0-16.9,7.6-16.9,16.9v-25.4c0-28.1,22.7-50.8,50.8-50.8C285.4,305.7,308.1,328.5,308.1,356.5z"/>
	<path id="Shape_212_" class="st1" d="M325,26.3v33.9c0,4.7-3.8,8.5-8.5,8.5h-59.3V17.9h59.3C321.3,17.9,325,21.6,325,26.3z"/>
	<path id="Shape_211_" class="st1" d="M20.3,238h8.5v245.5c0,9.3,7.6,16.9,16.9,16.9h25.4c-9.3,0-16.9-7.6-16.9-16.9V238h-8.5
		c-4.7,0-8.5-3.8-8.5-8.5v-16.9c0-4.7,3.8-8.5,8.5-8.5H20.3c-4.7,0-8.5,3.8-8.5,8.5v16.9C11.8,234.2,15.6,238,20.3,238z"/>
	<path id="Rectangle-path_4_" class="st1" d="M20.3,238h16.9v67.7H20.3V238z"/>
	<g>
		<path id="Shape_210_" class="st2" d="M28.9,280.3c-4.7,0-8.5-3.7-8.5-8.4s3.7-8.5,8.4-8.5h0.1c4.7,0,8.5,3.8,8.5,8.5
			C37.4,276.5,33.6,280.3,28.9,280.3z"/>
		<path id="Shape_209_" class="st2" d="M257.3,280.3c32.7,0,59.3-26.5,59.3-59.3s-26.5-59.3-59.3-59.3s-59.3,26.5-59.3,59.3
			C198.1,253.8,224.6,280.3,257.3,280.3z M257.3,178.7c23.4,0,42.3,19,42.3,42.3s-19,42.3-42.3,42.3S215,244.4,215,221
			C215,197.7,234,178.7,257.3,178.7z"/>
		<path id="Shape_208_" class="st2" d="M257.3,238c4.7,0,8.5-3.8,8.5-8.5v-5l6-6c3.2-3.3,3.2-8.6-0.1-11.9
			c-3.3-3.3-8.5-3.3-11.9-0.1l-8.5,8.5c-1.6,1.6-2.5,3.7-2.5,6v8.5C248.9,234.2,252.6,238,257.3,238L257.3,238z"/>
		<path id="Shape_207_" class="st2" d="M494.4,195.6H350.4v-33.4l12.9,7c1.2,0.7,2.6,1,4,1c3.9,0,7.3-2.6,8.2-6.4s-0.8-7.7-4.2-9.5
			L265.8,97.4V77.1h50.8c9.4,0,16.9-7.6,16.9-16.9V26.3c0-9.4-7.6-16.9-16.9-16.9h-50.8c0-4.7-3.8-8.5-8.5-8.5s-8.5,3.8-8.5,8.5v88
			l-105.6,56.9c-2.8,1.4-4.6,4.2-4.7,7.2s1.4,6,4.1,7.6c2.6,1.6,5.9,1.6,8.6,0.1l12.9-7v33.4H20.3c-9.4,0-16.9,7.6-16.9,16.9v16.9
			c0,9.4,7.6,16.9,16.9,16.9h143.9v179.3c-10.1,3.6-16.9,13.1-16.9,23.8v10c-10.1,3.6-16.9,13.1-16.9,23.8v8.5H45.7
			c-4.7,0-8.5-3.8-8.5-8.5V305.7c0-4.7-3.8-8.5-8.5-8.5s-8.5,3.8-8.5,8.5v177.8c0,14,11.4,25.4,25.4,25.4H469
			c14,0,25.4-11.4,25.4-25.4v-237c9.4,0,16.9-7.6,16.9-16.9v-16.9C511.3,203.2,503.7,195.6,494.4,195.6z M265.8,26.3h50.8v33.9
			h-50.8V26.3z M181.1,153.2l76.2-41l76.2,41v271.1h-16.9v-67.7c0-32.7-26.5-59.3-59.3-59.3s-59.3,26.5-59.3,59.3v67.7h-16.9V153.2z
			 M223.5,407.3c14,0,25.4-11.4,25.4-25.4c0-14-11.4-25.4-25.4-25.4c-2.9,0-5.8,0.6-8.5,1.6v-1.6c0-23.4,19-42.3,42.3-42.3
			s42.3,19,42.3,42.3v67.7H215v-18.5C217.7,406.7,220.6,407.3,223.5,407.3z M215,381.9c0-4.7,3.8-8.5,8.5-8.5s8.5,3.8,8.5,8.5
			c0,4.7-3.8,8.5-8.5,8.5S215,386.6,215,381.9z M20.3,229.5v-16.9h143.9v16.9H20.3z M164.2,449.6c0-4.7,3.8-8.5,8.5-8.5H342
			c4.7,0,8.5,3.8,8.5,8.5v8.5H164.2V449.6z M367.4,492H147.3v-8.5c0-4.7,3.8-8.5,8.5-8.5h203.2c4.7,0,8.5,3.8,8.5,8.5V492z
			 M477.4,483.5c0,4.7-3.8,8.5-8.5,8.5h-84.7v-8.5c0-10.7-6.8-20.3-16.9-23.8v-10c0-10.7-6.8-20.3-16.9-23.8V246.4h127V483.5z
			 M494.4,229.5H350.4v-16.9h143.9V229.5z"/>
		<path id="Shape_176_" class="st2" d="M71.1,331.1h59.3c9.4,0,16.9-7.6,16.9-16.9v-25.4c0-9.4-7.6-16.9-16.9-16.9H71.1
			c-9.4,0-16.9,7.6-16.9,16.9v25.4C54.1,323.5,61.7,331.1,71.1,331.1z M71.1,288.8h59.3v25.4H71.1V288.8z"/>
		<path id="Shape_175_" class="st2" d="M54.1,390.4c0,9.4,7.6,16.9,16.9,16.9h59.3c9.4,0,16.9-7.6,16.9-16.9V365
			c0-9.4-7.6-16.9-16.9-16.9H71.1c-9.4,0-16.9,7.6-16.9,16.9V390.4z M71.1,365h59.3v25.4H71.1V365z"/>
		<path id="Shape_148_" class="st2" d="M384.3,331.1h59.3c9.4,0,16.9-7.6,16.9-16.9v-25.4c0-9.4-7.6-16.9-16.9-16.9h-59.3
			c-9.4,0-16.9,7.6-16.9,16.9v25.4C367.4,323.5,375,331.1,384.3,331.1z M384.3,288.8h59.3v25.4h-59.3V288.8z"/>
		<path id="Shape_64_" class="st2" d="M384.3,407.3h59.3c9.4,0,16.9-7.6,16.9-16.9V365c0-9.4-7.6-16.9-16.9-16.9h-59.3
			c-9.4,0-16.9,7.6-16.9,16.9v25.4C367.4,399.7,375,407.3,384.3,407.3z M384.3,365h59.3v25.4h-59.3V365z"/>
	</g>
</g>
</svg>
