<?xml version="1.0" encoding="utf-8"?>
<!-- Generator: Adobe Illustrator 22.0.1, SVG Export Plug-In . SVG Version: 6.00 Build 0)  -->
<svg version="1.1" id="Layer_1" xmlns="http://www.w3.org/2000/svg" xmlns:xlink="http://www.w3.org/1999/xlink" x="0px" y="0px"
	 viewBox="0 0 514.6 509.8" style="enable-background:new 0 0 514.6 509.8;" xml:space="preserve">
<style type="text/css">
	.st0{fill:#8AE9FF;}
	.st1{fill:#D7F7FF;}
	.st2{fill:#F5F6F6;}
	.st3{fill:#FFFFFF;}
	.st4{fill:#DAF1FA;}
	.st5{fill:#1E85D2;}
</style>
<g>
	<path class="st0" d="M445.1,204.4v277c0,9.3-8.4,16.8-18.8,16.8H88.3c-10.4,0-18.8-7.5-18.8-16.8v-277L243.2,44.5l14.1-13
		L445.1,204.4z"/>
	<path class="st1" d="M417,204.4v277c0,9.3-8.4,16.8-18.8,16.8H88.3c-10.4,0-18.8-7.5-18.8-16.8v-277L243.2,44.5L417,204.4z"/>
	<path class="st2" d="M484.3,254.8h-3.2c-4.7,0-9.3-1.6-12.9-4.7c-0.2-0.1-0.3-0.2-0.5-0.3L257.3,56L46.9,249.8
		c-0.1,0.1-0.3,0.2-0.5,0.3c-3.6,3.1-8.1,4.7-12.9,4.7h-3.2c-7.7-0.2-14.6-4.4-17.5-10.8c-2.9-6.4-1.2-14,4.1-18.6l227.1-209
		c7.5-6.7,18.9-6.7,26.5,0l227.1,209c5.4,4.6,7,12.2,4.1,18.7C498.8,250.3,492,254.6,484.3,254.8z"/>
	<path class="st0" d="M323,363.9v134.3H191.6V363.9c0-9.3,8.4-16.8,18.8-16.8h93.9C314.6,347.2,323,354.7,323,363.9z"/>
	<path class="st3" d="M294.9,363.9v134.3H191.6V363.9c0-9.3,8.4-16.8,18.8-16.8h65.7C286.5,347.2,294.8,354.7,294.9,363.9z"/>
	<path class="st0" d="M219.8,196h75.1c10.4,0,18.8,7.5,18.8,16.8v58.8c0,9.3-8.4,16.8-18.8,16.8h-75.1c-10.4,0-18.8-7.5-18.8-16.8
		v-58.7C201,203.5,209.4,196,219.8,196z"/>
	<path class="st3" d="M219.8,196h46.9c10.4,0,18.8,7.5,18.8,16.8v58.8c0,9.3-8.4,16.8-18.8,16.8h-46.9c-10.4,0-18.8-7.5-18.8-16.8
		v-58.7C201,203.5,209.4,196,219.8,196z"/>
	<path class="st4" d="M484.3,254.8h-3.2c-4.2,0.1-8.2-1.3-11.5-3.8c4.1-2.9,6.7-7.5,7.1-12.5c0.3-5-1.8-9.8-5.5-13.1l-227.1-209
		c7.5-6.7,18.9-6.7,26.5,0l227.1,209c5.4,4.6,7,12.2,4.1,18.7C498.8,250.3,492,254.6,484.3,254.8z"/>
	<path class="st3" d="M30.3,254.8h3.2c4.6,0,9-1.6,12.6-4.5c-3.8-3-6.1-7.5-6.4-12.3c-0.1-4.8,1.8-9.4,5.4-12.7L271.4,17.1l-0.9-0.8
		c-7.5-6.7-18.9-6.7-26.5,0L17,225.3c-5.4,4.6-7,12.2-4.1,18.7C15.8,250.3,22.6,254.6,30.3,254.8z"/>
	<path class="st3" d="M75,225.3c-0.1,0.1-0.3,0.3-0.5,0.3c-1.5,1.3-3.2,2.3-5.1,3.1v252.8c0,9.3,8.4,16.8,18.8,16.8h28.2
		c-10.4,0-18.8-7.5-18.8-16.8v-277L75,225.3z"/>
	<polygon class="st3" points="78.9,305.2 78.9,414.3 78.9,481.5 60.1,481.5 60.1,414.3 60.1,305.2 	"/>
	<path class="st5" d="M78.9,305.2v-16.8c0-4.6-4.2-8.4-9.4-8.4s-9.4,3.8-9.4,8.4v50.4c0,4.6,4.2,8.4,9.4,8.4s9.4-3.8,9.4-8.4V305.2z
		"/>
	<path class="st5" d="M60.1,481.5c0,13.9,12.6,25.2,28.2,25.2h338.1c15.6,0,28.2-11.3,28.2-25.2V288.4c0-4.6-4.2-8.4-9.4-8.4
		s-9.4,3.8-9.4,8.4v193.1c0,4.6-4.2,8.4-9.4,8.4h-93.9V363.9c0-13.9-12.6-25.2-28.2-25.2h-93.9c-15.6,0-28.2,11.3-28.2,25.2v125.9
		H88.3c-5.2,0-9.4-3.8-9.4-8.4v-75.6c0-4.6-4.2-8.4-9.4-8.4s-9.4,3.8-9.4,8.4L60.1,481.5L60.1,481.5z M201,363.9
		c0-4.6,4.2-8.4,9.4-8.4h93.9c5.2,0,9.4,3.8,9.4,8.4v125.9H201V363.9z"/>
	<path class="st5" d="M73.1,364.6c-0.5-0.2-1.1-0.4-1.7-0.5c-0.6-0.1-1.3-0.1-1.9-0.2c-2.4,0-4.8,0.9-6.7,2.4
		c-0.8,0.8-1.5,1.7-2,2.8c-1.4,3.2-0.6,6.9,2,9.1c0.9,0.8,2,1.3,3.1,1.7c1.1,0.4,2.3,0.7,3.6,0.7c3.7,0.1,7.1-1.9,8.7-5.2
		c1.5-3.2,0.6-6.9-2.1-9.2l-1.4-1C74.2,365,73.7,364.8,73.1,364.6z"/>
	<path class="st5" d="M30.3,263.2h3.2c6.6,0,13-2.2,18.2-6.3c0.7-0.4,1.3-0.8,1.9-1.3L257.3,68l203.8,187.7c0.5,0.5,1.1,0.9,1.8,1.3
		c5.2,4,11.6,6.2,18.2,6.2h3.2c11.4,0,21.6-6.1,25.9-15.5c4.6-9.6,2.3-20.7-5.9-28.2l-227-208.9c-11.1-9.8-28.9-9.8-40,0l-227,208.9
		c-8.1,7.5-10.4,18.6-5.9,28.2C8.8,257.1,19,263.2,30.3,263.2z M23.8,231.1l227-208.9c3.8-3.3,9.3-3.3,13.1,0l227,208.9
		c2.8,2.5,3.7,6.6,2,10c-1.6,3.3-4.9,5.3-8.6,5.3h-3.2c-2.4,0-4.8-0.9-6.6-2.5c-0.1-0.1-0.2-0.1-0.2-0.1c-0.1-0.1-0.1-0.1-0.2-0.2
		L264,50.1l-0.1-0.1v-0.1c-0.5-0.3-0.9-0.6-1.5-0.8c-0.5-0.3-1-0.6-1.6-0.9c-0.6-0.2-1.2-0.3-1.8-0.3c-1.1-0.4-2.4-0.4-3.5,0
		c-0.6,0.1-1.2,0.2-1.8,0.3c-0.5,0.3-1.1,0.6-1.6,0.9c-0.5,0.2-1,0.5-1.4,0.8l-0.1,0.1l-0.1,0.1L40.6,243.5
		c-0.1,0.1-0.1,0.1-0.2,0.2c-0.1,0-0.2,0.1-0.3,0.1c-1.8,1.6-4.1,2.5-6.6,2.5h-3.2c-3.6,0.1-7-2-8.6-5.3
		C20.1,237.7,20.9,233.6,23.8,231.1L23.8,231.1z"/>
	<path class="st5" d="M294.9,296.8c15.5,0,28.2-11.3,28.2-25.2v-58.8c0-13.9-12.6-25.2-28.2-25.2h-75.1c-15.6,0-28.2,11.3-28.2,25.2
		v58.8c0,13.9,12.6,25.2,28.2,25.2H294.9z M210.4,271.6v-58.8c0-4.6,4.2-8.4,9.4-8.4h75.1c5.2,0,9.4,3.8,9.4,8.4v58.8
		c0,4.6-4.2,8.4-9.4,8.4h-75.1C214.6,280,210.4,276.2,210.4,271.6z"/>
	<path class="st5" d="M229.1,414.3h-9.4c-5.2,0-9.4,3.8-9.4,8.4s4.2,8.4,9.4,8.4h9.4c5.2,0,9.4-3.8,9.4-8.4S234.3,414.3,229.1,414.3
		z"/>
</g>
</svg>
