<?xml version="1.0" encoding="utf-8"?>
<!-- Generator: Adobe Illustrator 22.0.1, SVG Export Plug-In . SVG Version: 6.00 Build 0)  -->
<svg version="1.1" id="Layer_1" xmlns="http://www.w3.org/2000/svg" xmlns:xlink="http://www.w3.org/1999/xlink" x="0px" y="0px"
	 viewBox="0 0 514.6 509.8" style="enable-background:new 0 0 514.6 509.8;" xml:space="preserve">
<style type="text/css">
	.st0{fill:#D7F7FF;}
	.st1{fill:#8AE9FF;}
	.st2{fill:#E8ECF7;}
	.st3{fill:#FFFFFF;}
	.st4{fill:#CCD8EF;}
	.st5{fill:#1E85D2;}
</style>
<g id="Page-1_1_">
	<g id="_083---Money-Bag_1_">
		<path id="Shape_1_" class="st0" d="M311.6,221.4H300c-9.3,0-16.9,7.4-17.1,16.8v239.2c-28.7,14.9-64.1,20.4-102.4,20.4
			C86.2,497.7,9.9,464.2,9.9,347c0-41.3,13.1-81.6,37.2-115.1c13.5-18.7,28.5-36.2,45-52.3h178.1c2.1,0,4.3-0.3,6.3-0.9l-1.5,1.4
			C288,192.9,300.3,206.8,311.6,221.4L311.6,221.4z"/>
		<path id="Shape-2_1_" class="st1" d="M274.9,180l1.5-1.4c-2.1,0.6-4.2,0.9-6.3,0.9h-20.3l-0.6,0.5c13.1,13,25.4,26.8,36.7,41.4
			h-11.6c-9.3,0-16.9,7.4-17.1,16.8v239.2c-28,13.3-58.6,20.2-89.6,20.2c4.3,0.1,8.5,0.2,12.8,0.2c38.3,0,73.7-5.5,102.4-20.4V238.1
			c0.1-9.3,7.8-16.8,17.1-16.8h11.6C300.3,206.8,288,192.9,274.9,180z"/>
		<path id="Shape-3_1_" class="st2" d="M274.9,180l-0.5-0.5"/>
		<path id="Shape-4_1_" class="st0" d="M291.5,158.6c-0.1,9.2-6.2,17.3-15,20c-2.1,0.6-4.2,0.9-6.3,0.9H90.9
			c-11.6,0.3-21.1-8.9-21.4-20.5s8.9-21.1,20.5-21.4c0.3,0,0.6,0,0.9,0h179.2c5.6,0,11.1,2.2,15.1,6.1
			C289.2,147.6,291.5,153,291.5,158.6z"/>
		<path id="Shape-5_1_" class="st0" d="M285.2,143.7c-4-3.9-9.5-6.1-15.1-6.1h-25.6c10.5-0.1,19.5,7.5,21.1,17.8
			c1.5,10.3-4.8,20.2-14.8,23.1c-2.1,0.6-4.2,0.9-6.3,0.9h25.6c2.1,0,4.3-0.3,6.3-0.9c7.1-2.1,12.5-7.8,14.4-15
			C292.6,156.4,290.5,148.9,285.2,143.7z"/>
		<path id="Rectangle-path_1_" class="st0" d="M300,221.4h187.7c9.3-0.1,17,7.4,17.1,16.7l0,0V481c-0.1,9.3-7.7,16.8-17.1,16.8l0,0
			H300c-9.3,0.1-17-7.4-17.1-16.7l0,0v-243C283,228.8,290.7,221.3,300,221.4L300,221.4z"/>
		<path id="Shape-6_1_" class="st3" d="M487.7,221.4h-25.6c9.3,0,16.9,7.4,17.1,16.8V481c-0.1,9.3-7.8,16.8-17.1,16.8h25.6
			c9.3,0,16.9-7.4,17.1-16.8V238.1C504.7,228.8,497,221.3,487.7,221.4z"/>
		<path id="Rectangle-path-2_1_" class="st3" d="M334.1,263.2h119.5c4.7,0,8.5,3.7,8.5,8.4l0,0v33.5c0,4.7-3.9,8.4-8.5,8.4l0,0
			H334.1c-4.7,0-8.5-3.7-8.5-8.4l0,0v-33.5C325.6,266.9,329.5,263.2,334.1,263.2L334.1,263.2z"/>
		<path id="Shape-7_1_" class="st1" d="M453.6,263.2H428c4.7,0,8.5,3.7,8.5,8.4l0,0v33.5c0,4.7-3.9,8.4-8.5,8.4l0,0h25.6
			c4.7,0,8.5-3.7,8.5-8.4l0,0v-33.5C462.1,266.9,458.3,263.2,453.6,263.2L453.6,263.2z"/>
		<path id="Shape-8_1_" class="st1" d="M248.8,137.6H112.3c0,0-73.7-97-51.2-117.2C72.5,10.1,91,37.1,120.7,37.1S150.6,12,180.4,12
			s29.9,25.1,59.8,25.1s48.3-27,59.7-16.7C322.5,40.7,248.8,137.6,248.8,137.6z"/>
		<path id="Shape-9_1_" class="st3" d="M300,20.4c-5.6-5.1-13-1-22.6,4.3c11.1,27-54.2,112.9-54.2,112.9h25.6
			C248.8,137.6,322.5,40.7,300,20.4z"/>
		<path id="Shape-10_1_" class="st3" d="M214.7,37.1c4.5,0,8.9-0.6,13.2-1.8C209.6,29.6,205.5,12,180.4,12c-4.3,0-8.7,0.7-12.8,2
			C185.5,19.8,189.8,37.1,214.7,37.1z"/>
		<path id="Shape-11_1_" class="st4" d="M95.1,37.1c4.2,0,8.4-0.6,12.4-1.8c-22.2-5.8-36.8-23.6-46.4-14.9c-1.3,1.2-2.3,2.7-3,4.3
			C69.1,32.1,81.9,36.4,95.1,37.1z"/>
		<path id="Shape-12_1_" class="st3" d="M167.7,497.5c8.3,0.3,16.8,0.3,25.3,0C104.9,494.4,35.5,458.8,35.5,347
			c0-70,33.8-119,82.2-167.5c-7.6,0.2-14.7-3.6-18.8-10c-4-6.4-4.2-14.4-0.6-20.9c3.7-6.6,10.6-10.8,18.2-10.9h21.3
			c0,0-65.3-85.9-54.2-112.9c-5.3-3.9-11.7-6.1-18.3-6.4c-3.4,0.7-6.1,3.2-7.3,6.5c-11.1,26.9,54.2,112.9,54.2,112.9H90.9
			c-7.6,0.2-14.5,4.3-18.2,10.9c-3.6,6.6-3.4,14.6,0.6,20.9c4,6.4,11.2,10.2,18.8,10C43.7,228,9.9,277,9.9,347
			C9.9,458.9,79.4,494.5,167.7,497.5z"/>
		<path id="Shape-13_1_" class="st3" d="M28.6,409.9l-16,5.8C5,393.6,1.1,370.3,1.3,347h17.1C18.2,368.4,21.6,389.7,28.6,409.9z"/>
		<path id="Shape-14_1_" class="st5" d="M231.7,292.6c0.2,4.7,4.1,8.4,8.8,8.2c4.5-0.2,8.1-3.8,8.2-8.2c0-27.7-26.1-50.6-59.7-54
			v-8.9c-0.2-4.7-4.1-8.4-8.8-8.2c-4.5,0.2-8.1,3.8-8.2,8.2v8.9c-33.6,3.4-59.7,26.3-59.7,54s26.1,50.6,59.7,54v75.2
			c-24.2-3-42.7-18.5-42.7-37.1c0-4.7-3.8-8.5-8.5-8.5s-8.5,3.8-8.5,8.5c0,27.7,26.1,50.6,59.7,54v8.9c0.2,4.7,4.1,8.4,8.8,8.2
			c4.5-0.2,8.1-3.8,8.2-8.2v-8.9c33.6-3.3,59.7-26.3,59.7-54s-26.1-50.6-59.7-54v-75.2C213.2,258.4,231.7,273.9,231.7,292.6z
			 M129.3,292.6c0-18.6,18.5-34.1,42.7-37.1v74.2C147.8,326.7,129.3,311.2,129.3,292.6z M231.7,384.7c0,18.6-18.5,34.1-42.7,37.1
			v-74.2C213.2,350.6,231.7,366,231.7,384.7z"/>
		<path id="Shape-15_1_" class="st5" d="M17.7,404.9c-2.2,0.7-4,2.2-5,4.3c-1,2-1,4.4-0.1,6.5c2.9,8,6.6,15.7,10.9,23.1l7.4,10.6
			c2.6,3.4,5.5,6.7,8.5,9.8c12.1,12.4,26.4,22.4,42.3,29.4c15.7,6.5,32.1,11.2,48.9,13.8c16.6,2.4,33.3,3.7,50,3.7
			c24,0.4,48-2.4,71.3-8.1c4.5-1.1,7.2-5.7,6-10.2c0,0,0,0,0-0.1c-1.3-4.5-5.9-7.2-10.4-6c-21.9,5.3-44.4,7.8-66.9,7.5
			c-15.8,0-31.6-1.2-47.3-3.5c-15.3-2.4-30.3-6.6-44.6-12.6c-28-11.8-49.7-34.8-60-63.4C26.8,405.6,22.1,403.5,17.7,404.9
			L17.7,404.9z"/>
		<path id="Shape-16_1_" class="st5" d="M12.6,388.8c-4.6,0-8.4-3.7-8.4-8.4c0-4.6,3.7-8.4,8.4-8.4l0,0h0.1c4.6-0.2,8.5,3.5,8.7,8.1
			s-3.5,8.5-8.1,8.7C12.9,388.7,12.8,388.7,12.6,388.8L12.6,388.8z"/>
		<path id="Shape-17_1_" class="st5" d="M32,256.3c-4.3-1.9-9.3-0.1-11.3,4.1C7.9,287.4,1.2,317,1.3,347c0,4.7,3.9,8.4,8.5,8.4
			c4.7,0,8.5-3.7,8.5-8.4l0,0c-0.1-27.5,5.9-54.7,17.8-79.5c1.9-4.2,0.1-9.1-4.1-11.1C32.1,256.4,32,256.3,32,256.3z"/>
		<path id="Shape-18_1_" class="st5" d="M487.7,213H300c-14-0.1-25.5,11.1-25.6,25.1l0,0V481c0.1,14,11.6,25.2,25.6,25.1h187.7
			c14,0.1,25.5-11.1,25.6-25.1V238.1C513.2,224.1,501.7,212.9,487.7,213L487.7,213z M496.3,481c0,4.7-3.9,8.4-8.5,8.4l0,0H300
			c-4.7,0-8.5-3.7-8.5-8.4V238.1c0-4.7,3.9-8.4,8.5-8.4h187.7c4.7,0,8.5,3.7,8.5,8.4l0,0L496.3,481L496.3,481z"/>
		<path id="Shape-19_1_" class="st5" d="M334.1,321.9h119.5c9.3,0.1,17-7.4,17.1-16.8v-33.5c-0.1-9.3-7.7-16.8-17.1-16.7H334.1
			c-9.3-0.1-17,7.4-17.1,16.7l0,0v33.5C317.1,314.4,324.8,321.9,334.1,321.9z M334.1,271.6h119.5v33.5H334.1V271.6z"/>
		<path id="Shape-20_1_" class="st5" d="M351.2,347h-25.6c-4.6-0.2-8.5,3.5-8.7,8.1s3.5,8.5,8.1,8.7c0.2,0,0.4,0,0.6,0h25.6
			c4.6,0.2,8.5-3.5,8.7-8.1s-3.5-8.5-8.1-8.7C351.6,347,351.4,347,351.2,347z"/>
		<path id="Shape-21_1_" class="st5" d="M351.2,380.5h-25.6c-4.6,0-8.4,3.7-8.4,8.4c0,4.6,3.7,8.4,8.4,8.4l0,0h25.6
			c4.6,0,8.4-3.7,8.4-8.4S355.8,380.5,351.2,380.5L351.2,380.5z"/>
		<path id="Shape-22_1_" class="st5" d="M351.2,414h-25.6c-4.6-0.2-8.5,3.5-8.7,8.1s3.5,8.5,8.1,8.7c0.2,0,0.4,0,0.6,0h25.6
			c4.6,0.2,8.5-3.5,8.7-8.1s-3.5-8.5-8.1-8.7C351.6,414,351.4,414,351.2,414z"/>
		<path id="Shape-23_1_" class="st5" d="M351.2,447.5h-25.6c-4.6-0.2-8.5,3.5-8.7,8.1s3.5,8.5,8.1,8.7c0.2,0,0.4,0,0.6,0h25.6
			c4.6,0.2,8.5-3.5,8.7-8.1s-3.5-8.5-8.1-8.7C351.6,447.5,351.4,447.5,351.2,447.5z"/>
		<path id="Shape-24_1_" class="st5" d="M410.9,347h-25.6c-4.6-0.2-8.5,3.5-8.7,8.1s3.5,8.5,8.1,8.7c0.2,0,0.4,0,0.6,0h25.6
			c4.6,0.2,8.5-3.5,8.7-8.1s-3.5-8.5-8.1-8.7C411.3,347,411.1,347,410.9,347z"/>
		<path id="Shape-25_1_" class="st5" d="M410.9,380.5h-25.6c-4.6,0-8.4,3.7-8.4,8.4c0,4.6,3.7,8.4,8.4,8.4l0,0h25.6
			c4.6,0,8.4-3.7,8.4-8.4S415.6,380.5,410.9,380.5L410.9,380.5z"/>
		<path id="Shape-26_1_" class="st5" d="M410.9,414h-25.6c-4.6-0.2-8.5,3.5-8.7,8.1s3.5,8.5,8.1,8.7c0.2,0,0.4,0,0.6,0h25.6
			c4.6,0.2,8.5-3.5,8.7-8.1s-3.5-8.5-8.1-8.7C411.3,414,411.1,414,410.9,414z"/>
		<path id="Shape-27_1_" class="st5" d="M410.9,447.5h-25.6c-4.6-0.2-8.5,3.5-8.7,8.1s3.5,8.5,8.1,8.7c0.2,0,0.4,0,0.6,0h25.6
			c4.6,0.2,8.5-3.5,8.7-8.1s-3.5-8.5-8.1-8.7C411.3,447.5,411.1,447.5,410.9,447.5z"/>
		<path id="Shape-28_1_" class="st5" d="M470.7,347h-25.6c-4.6-0.2-8.5,3.5-8.7,8.1s3.5,8.5,8.1,8.7c0.2,0,0.4,0,0.6,0h25.6
			c4.6,0.2,8.5-3.5,8.7-8.1s-3.5-8.5-8.1-8.7C471,347,470.9,347,470.7,347z"/>
		<path id="Shape-29_1_" class="st5" d="M470.7,380.5h-25.6c-4.6,0-8.4,3.7-8.4,8.4c0,4.6,3.7,8.4,8.4,8.4l0,0h25.6
			c4.6,0,8.4-3.7,8.4-8.4C479,384.2,475.3,380.5,470.7,380.5L470.7,380.5z"/>
		<path id="Shape-30_1_" class="st5" d="M470.7,414h-25.6c-4.6-0.2-8.5,3.5-8.7,8.1s3.5,8.5,8.1,8.7c0.2,0,0.4,0,0.6,0h25.6
			c4.6,0.2,8.5-3.5,8.7-8.1s-3.5-8.5-8.1-8.7C471,414,470.9,414,470.7,414z"/>
		<path id="Shape-31_1_" class="st5" d="M470.7,447.5h-25.6c-4.6-0.2-8.5,3.5-8.7,8.1s3.5,8.5,8.1,8.7c0.2,0,0.4,0,0.6,0h25.6
			c4.6,0.2,8.5-3.5,8.7-8.1s-3.5-8.5-8.1-8.7C471,447.5,470.9,447.5,470.7,447.5z"/>
		<path id="Shape-32_1_" class="st5" d="M55.3,14.2c-22.5,20.2,17,82.5,40.3,115H91c-7.9,0-15.5,3-21.1,8.6
			c-11.4,11.1-11.6,29.4-0.5,40.9c2,2,4.3,3.8,6.7,5.1c-10,10.3-19.3,21.2-28.1,32.5c-2.8,3.6-2.1,8.8,1.6,11.6
			c0.1,0,0.1,0.1,0.2,0.1c3.8,2.8,9.1,2.1,12-1.7c10.5-13.5,21.9-26.4,34.1-38.5h174.4c10.6,0,20.5-5.5,25.9-14.6
			c5.3-9,5.3-20.3,0-29.3c-5.4-9.1-15.3-14.7-25.9-14.6h-4.6c23.3-32.5,62.7-94.8,40.3-115c-10.3-9.3-22.4-2.5-33,3.4
			c-9.7,6.5-20.9,10.3-32.5,11.1c-9.2,0-18-3.8-24.3-10.5c-19.6-19.4-51.2-19.4-70.8,0c-6.3,6.7-15.1,10.6-24.4,10.5
			c-11.6-0.8-22.8-4.7-32.5-11.2C77.6,11.7,65.6,5,55.3,14.2z M279.2,149.7c3.7,3.6,4.8,9,2.8,13.7s-6.7,7.8-11.9,7.8H90.9
			C84,171.4,78.2,165.9,78,159s5.3-12.7,12.2-12.9c0.2,0,0.5,0,0.7,0h179.2C273.5,146,276.8,147.3,279.2,149.7z M120.7,45.5
			c13.3,0,26-5.2,35.4-14.5c12.6-13.4,33.7-14.1,47.1-1.6c0.5,0.5,1.1,1,1.6,1.6c9.4,9.4,22.2,14.6,35.5,14.6
			c14.6-0.8,28.8-5.4,41-13.3c3.9-2.7,8.3-4.6,13-5.6c8.8,7.9-14.4,55.3-49.8,102.7h-21.3v-42c-0.2-4.7-4.1-8.4-8.8-8.2
			c-4.5,0.2-8.1,3.8-8.2,8.2v41.9H155V87.4c0-4.7-3.8-8.5-8.5-8.5s-8.5,3.8-8.5,8.5v41.9h-21.3C81.2,81.9,58.1,34.4,66.9,26.4
			c4.6,1.2,8.9,3.1,12.8,5.7C92,40.2,106.1,44.8,120.7,45.5L120.7,45.5z"/>
	</g>
</g>
</svg>
