<?xml version="1.0" encoding="utf-8"?>
<!-- Generator: Adobe Illustrator 22.0.1, SVG Export Plug-In . SVG Version: 6.00 Build 0)  -->
<svg version="1.1" id="Layer_1" xmlns="http://www.w3.org/2000/svg" xmlns:xlink="http://www.w3.org/1999/xlink" x="0px" y="0px"
	 viewBox="0 0 514.6 509.8" style="enable-background:new 0 0 514.6 509.8;" xml:space="preserve">
<style type="text/css">
	.st0{fill:#D7F7FF;}
	.st1{fill:#8AE9FF;}
	.st2{fill:#FFFFFF;}
	.st3{fill:#1E85D2;}
</style>
<g>
	<path class="st0" d="M500.8,94c0.2,3.1-1.3,6.1-3.9,7.8c-2.6,1.7-5.9,1.8-8.6,0.2l-17.5-10C283.2,317.1,90.6,364.7,34.5,374
		c-9.1,1.6-17.9-4.1-20.1-13.1c-0.3-1.4-0.5-2.8-0.5-4.2c0-8.5,6.2-15.8,14.6-17.3c57.3-10,237.2-56.7,416.8-261.7l0.2-0.3L428,67.2
		c-4.1-2.3-5.5-7.6-3.2-11.7c0.8-1.4,2-2.6,3.5-3.3l55.8-28.7c2.5-1.3,5.5-1.2,7.9,0.2c2.4,1.4,4,4,4.2,6.8L500.8,94z"/>
	<path class="st1" d="M97.8,427.4v59.7H13.9v-59.7c0-9.3,7.5-17,16.8-17.1h50.4C90.4,410.4,97.9,418.1,97.8,427.4z"/>
	<path class="st1" d="M232.1,393.3v93.9h-83.9v-93.9c0-9.3,7.5-17,16.8-17.1h50.4C224.7,376.3,232.2,383.9,232.1,393.3z"/>
	<path class="st1" d="M366.5,316.5v170.7h-83.9V316.5c0-9.3,7.5-17,16.8-17.1h50.4C359,299.5,366.5,307.1,366.5,316.5z"/>
	<path class="st1" d="M500.8,214.1v273.1h-84V214.1c0-9.3,7.5-16.9,16.8-17.1H484C493.3,197.1,500.8,204.7,500.8,214.1z"/>
	<path class="st0" d="M72.7,427.4v59.7H13.9v-59.7c0-9.3,7.5-17,16.8-17.1h25.2C65.2,410.4,72.7,418.1,72.7,427.4z"/>
	<path class="st0" d="M207,393.3v93.9h-58.8v-93.9c0-9.3,7.5-17,16.8-17.1h25.2C199.5,376.3,207,383.9,207,393.3z"/>
	<path class="st0" d="M341.3,316.5v170.7h-58.8V316.5c0-9.3,7.5-17,16.8-17.1h25.2C333.8,299.5,341.3,307.1,341.3,316.5z"/>
	<path class="st0" d="M475.6,214.1v273.1h-58.8V214.1c0-9.3,7.5-16.9,16.8-17.1h25.2C468.1,197.1,475.6,204.7,475.6,214.1z"/>
	<path class="st2" d="M173.4,393.3c0-9.3,7.5-17,16.8-17.1H165c-9.3,0.1-16.8,7.7-16.8,17.1v93.9h25.2V393.3z"/>
	<path class="st2" d="M282.5,316.5v170.7h25.2V316.5c0-9.3,7.5-17,16.8-17.1h-25.2C290,299.5,282.5,307.1,282.5,316.5z"/>
	<path class="st2" d="M39.1,427.4c0-9.3,7.5-17,16.8-17.1H30.7c-9.3,0.1-16.8,7.7-16.8,17.1v59.7h25.2
		C39.1,487.1,39.1,427.4,39.1,427.4z"/>
	<path class="st2" d="M458.8,197h-25.2c-9.3,0.1-16.8,7.7-16.8,17.1v273H442v-273C442,204.7,449.5,197.1,458.8,197z"/>
	<polygon class="st2" points="425.2,214.1 425.2,325 425.2,487.1 408.4,487.1 408.4,325 408.4,214.1 	"/>
	<path class="st3" d="M416.8,290.9c3.4,0,6.5-2.1,7.8-5.3c1.3-3.2,0.6-6.8-1.8-9.3l-1.3-1c-0.5-0.3-1-0.6-1.5-0.8
		c-0.5-0.2-1-0.4-1.5-0.5c-0.6-0.1-1.1-0.1-1.7-0.2c-2.2,0-4.4,0.9-6,2.5c-2,2-2.9,4.9-2.4,7.7C409.3,287.9,412.7,290.8,416.8,290.9
		L416.8,290.9z"/>
	<path class="st3" d="M31.4,382.8c1.5,0,3-0.1,4.4-0.4c55.1-9.1,248.2-56.3,436.7-279.6l11.5,6.6c5.4,3.1,12,2.9,17.2-0.4
		c5.2-3.4,8.2-9.4,7.8-15.6L504.5,30c-0.4-5.7-3.5-10.8-8.4-13.6s-10.8-3-15.8-0.4l-55.8,28.6c-8.4,4.4-11.7,14.7-7.4,23.1
		c1.5,2.9,3.8,5.3,6.6,7l8.4,4.9C255,278,77.7,322.2,27,331c-14.2,2.5-23.6,16-21.1,30.2C8.1,373.6,18.8,382.7,31.4,382.8
		L31.4,382.8z M29.9,347.8c52.5-9.1,237.6-55.1,420.2-262.8c1.3-0.7,2.4-1.7,3.2-3c2.3-4.1,0.9-9.3-3.2-11.6L432,59.9l55.8-28.7
		l4.6,63.4L475,84.5c-0.3-0.1-0.5-0.2-0.8-0.3c-0.5-0.2-1.1-0.4-1.6-0.5c-2.7-0.6-5.5,0.2-7.4,2.2c-0.2,0.2-0.5,0.4-0.7,0.6
		C278.1,310,87.2,356.6,33.1,365.5c-4.8,0.9-9.4-2.1-10.6-6.8c-0.2-0.7-0.3-1.4-0.3-2.1C22.3,352.3,25.5,348.6,29.9,347.8
		L29.9,347.8z"/>
	<path class="st3" d="M13.9,495.7h83.9c2.2,0,4.4-0.9,5.9-2.5c1.6-1.6,2.4-3.8,2.4-6v-59.8c0.1-14-11.2-25.5-25.2-25.6H30.7
		c-14,0.1-25.3,11.6-25.2,25.6v59.7c0,2.2,0.9,4.4,2.5,6C9.5,494.7,11.6,495.6,13.9,495.7z M22.3,427.4c0-4.7,3.7-8.5,8.4-8.5H81
		c4.7,0,8.4,3.9,8.4,8.5v51.2H22.3V427.4z"/>
	<path class="st3" d="M232.1,495.7c2.2,0,4.4-0.9,5.9-2.5c1.6-1.6,2.5-3.8,2.5-6v-93.9c0.1-14-11.2-25.5-25.2-25.6H165
		c-14,0.1-25.3,11.6-25.2,25.6v93.9c0,2.2,0.9,4.4,2.5,6s3.7,2.5,5.9,2.5H232.1z M156.6,393.3c0-4.7,3.7-8.5,8.4-8.5h50.4
		c4.7,0,8.4,3.9,8.4,8.5v85.3h-67.1L156.6,393.3L156.6,393.3z"/>
	<path class="st3" d="M282.5,495.7h83.9c2.2,0,4.4-0.9,5.9-2.5c1.6-1.6,2.5-3.8,2.5-6V316.5c0.1-14-11.2-25.5-25.2-25.6h-50.4
		c-14,0.1-25.3,11.6-25.2,25.6v170.7c0,2.2,0.9,4.4,2.5,6C278.1,494.7,280.3,495.6,282.5,495.7z M290.9,316.5c0-4.7,3.7-8.5,8.4-8.5
		h50.4c4.7,0,8.4,3.9,8.4,8.5v162.1h-67.2L290.9,316.5L290.9,316.5z"/>
	<path class="st3" d="M484,188.5h-50.4c-14,0.1-25.3,11.6-25.2,25.6v34.1c-0.2,4.6,3.5,8.5,8.1,8.7s8.5-3.5,8.7-8.1
		c0-0.2,0-0.4,0-0.6v-34.1l0,0c0-4.7,3.7-8.5,8.4-8.5H484c4.7,0,8.4,3.9,8.4,8.5l0,0v264.5h-67.2V316.5c0.2-4.6-3.5-8.5-8.1-8.7
		s-8.5,3.5-8.7,8.1c0,0.2,0,0.4,0,0.6v170.7c0,2.2,0.9,4.4,2.5,6s3.7,2.5,5.9,2.5h83.9c2.2,0,4.4-0.9,5.9-2.5c1.6-1.6,2.4-3.8,2.5-6
		V214.1C509.2,200.1,498,188.6,484,188.5z"/>
</g>
</svg>
